<svg xmlns="http://www.w3.org/2000/svg" xmlns:xlink="http://www.w3.org/1999/xlink" width="401" height="266" viewBox="0 0 401 266">
  <defs>
    <clipPath id="clip-path">
      <rect id="Rectángulo_383783" data-name="Rectángulo 383783" width="383.5" height="261.979" fill="none"/>
    </clipPath>
  </defs>
  <g id="Grupo_1081148" data-name="Grupo 1081148" transform="translate(-180 -5190)">
    <g id="Grupo_1081147" data-name="Grupo 1081147" transform="translate(189 5194.021)">
      <g id="Grupo_1081146" data-name="Grupo 1081146" clip-path="url(#clip-path)">
        <path id="Trazado_830646" data-name="Trazado 830646" d="M389.1,37.133c-4.715,20.518-44.33,41.714-60.749,57.523-2.853,2.747-5.73,5.917-6.2,9.848-.853,7.007,5.992,12.3,12.1,15.846s13.143,8.284,13.031,15.341c-.044,2.977-1.439,5.768-3.052,8.272-6.316,9.841-16.164,16.924-26.516,22.367-18.082,9.5-38.132,14.606-58.183,18.537C225.085,191.606,190.092,195.1,155.1,197.8c-36.314,2.8-72.939,4.74-109.066.112-11.243-1.439-24.174-4.852-28.546-15.3-3.812-9.119.779-19.5,6.166-27.78,15.634-24.018,40.867-36.339,61.322-56.4,19.614-19.241,12.975-37.341,6.64-41.789-20.742-14.55,14.1-33.019,54.645-44.841a344.953,344.953,0,0,1,37.31-8.658c30.988-5.326,56.078-4.528,50.964,7.549C223.6,36.5,250.492,30.624,257.207,29.652c23.009-3.314,53.057-9.711,78.489-12.769,23.42-2.822,42.929-2.815,49.444,5.014,4.136,4.971,5.151,10.078,3.961,15.236" transform="translate(-6.065 0)" fill="#ab9bf9"/>
        <path id="Trazado_830647" data-name="Trazado 830647" d="M432.574,16.883A30.9,30.9,0,0,1,422.1,33.034C407.347,45.243,385.092,46.881,372.721,61.5a33.721,33.721,0,0,0-7.83,19.178c-.224,3.146-.019,6.353-.822,9.4-1.781,6.733-8.091,11.255-14.438,14.114-13.143,5.917-27.955,7.119-42.349,6.4-5.207-.262-10.72-.878-14.843-4.067-3.065-2.373-4.989-5.9-6.634-9.412-2.155-4.609-4.005-9.549-3.719-14.625.6-10.614,10.041-18.406,14.177-28.2,1.52-3.606,2.155-8.185-.467-11.093-1.352-1.507-3.326-2.261-5.189-3.065a34.67,34.67,0,0,1-12.42-8.434,19.34,19.34,0,0,1-5.182-13.809c.38-5.6,3.712-10.52,7.443-14.75,30.988-5.326,56.078-4.528,50.964,7.549C320.481,36.5,347.37,30.624,354.085,29.652c23.009-3.314,53.057-9.711,78.489-12.769" transform="translate(-102.944 0)" fill="#b4aaf9"/>
        <path id="Trazado_830648" data-name="Trazado 830648" d="M322.148,111.644c-.853,7.007,5.992,12.3,12.1,15.846s13.143,8.284,13.031,15.341c-.044,2.977-1.439,5.768-3.052,8.272-6.316,9.841-16.164,16.924-26.516,22.367-18.082,9.5-38.132,14.606-58.183,18.537-34.439,6.739-69.432,10.234-104.425,12.931-36.314,2.8-72.939,4.74-109.066.112-11.243-1.439-24.174-4.852-28.546-15.3-3.812-9.119.779-19.5,6.166-27.78,15.634-24.018,40.867-36.339,61.322-56.4,19.614-19.241,12.975-37.341,6.64-41.789-20.742-14.55,14.1-33.019,54.645-44.841a94.238,94.238,0,0,0-8.365,9.113c-5.039,6.266-9.43,14.644-6.3,22.044,4.323,10.2,19.589,11.23,25.133,20.823,5.058,8.745-.473,19.789-6.97,27.525-8.957,10.67-20.013,19.658-27.394,31.474-5.008,8.016-7.985,18.842-2.616,26.616,5.157,7.462,15.5,8.758,24.56,9.088a437.839,437.839,0,0,0,141.05-18.076c7.337-2.193,15.51-5.4,18.207-12.57,2.859-7.593-1.837-15.871-1.819-23.981.019-8.839,5.78-16.836,12.943-22.019S330.363,80.9,338.61,77.716c16.743-6.453,33.324-14.619,45.644-27.662a63.437,63.437,0,0,0,4.846-5.78c-4.715,20.518-44.33,41.714-60.749,57.523-2.853,2.747-5.73,5.917-6.2,9.848" transform="translate(-6.065 -7.141)" fill="#9b8fef"/>
        <path id="Trazado_830649" data-name="Trazado 830649" d="M383.54,13.618c-2.235,6.34-.091,11.905,7.3,11.9a58.23,58.23,0,0,0,12.169-1.568c3.975-.86,8.928-1.509,12.355-3.778a1.855,1.855,0,0,0-.928-3.428c-2.565-.053-4.993.93-7.447,1.592-2.857.771-5.734,1.471-8.647,1.992a36.279,36.279,0,0,1-8.457.88c-3.947-.254-3.633-3.71-3.076-6.693a1.7,1.7,0,0,0-3.266-.9" transform="translate(-144.325 -4.686)" fill="#b4aaf9"/>
        <path id="Trazado_830650" data-name="Trazado 830650" d="M441.852,17.752a3.857,3.857,0,0,0,1.694,2.236,5.78,5.78,0,0,0,1.074.441,4.753,4.753,0,0,0,2.069-.017l.875-.369a2.764,2.764,0,0,0,1.027-.942,3.487,3.487,0,0,0,.786-2.218,4.339,4.339,0,0,0-.5-1.847,2.767,2.767,0,0,0-.943-1.027,2.757,2.757,0,0,0-1.245-.655,4.448,4.448,0,0,0-2.177.022,3.827,3.827,0,0,0-1.695.964,3.51,3.51,0,0,0-.966,3.413" transform="translate(-166.58 -4.988)" fill="#ab9bf9"/>
        <path id="Trazado_830651" data-name="Trazado 830651" d="M462.214,16.741c3.194,0,3.2-4.964,0-4.964s-3.2,4.964,0,4.964" transform="translate(-173.408 -4.441)" fill="#9b8fef"/>
        <path id="Trazado_830652" data-name="Trazado 830652" d="M552.949,158.3c-2.212-7.22-1.953-15.274,1.64-22.017a27.558,27.558,0,0,1,5.779-7.417c2.312-2.106,5.567-3.192,7.672-5.39a1.683,1.683,0,0,0-1.177-2.841c-3.319.17-6.553,2.962-8.951,5.106A30.571,30.571,0,0,0,551,134.726a29.817,29.817,0,0,0-1.143,24.423c.739,1.875,3.716,1.168,3.1-.854" transform="translate(-206.578 -45.492)" fill="#b4aaf9"/>
        <path id="Trazado_830653" data-name="Trazado 830653" d="M591.249,114.568l.184-.148a2.451,2.451,0,0,0,.637-2.412c0-.019-.009-.037-.014-.056a2.357,2.357,0,0,0-1.661-1.661l-.057-.014a2.452,2.452,0,0,0-2.411.637l-.148.184a2.661,2.661,0,0,0-.718,1.735,2.5,2.5,0,0,0,.718,1.734,2.468,2.468,0,0,0,1.735.718l.651-.087a2.45,2.45,0,0,0,1.083-.631" transform="translate(-221.395 -41.559)" fill="#ab9bf9"/>
        <path id="Trazado_830654" data-name="Trazado 830654" d="M601.633,104.017c3.006,0,3.011-4.672,0-4.672s-3.011,4.672,0,4.672" transform="translate(-226.039 -37.465)" fill="#9b8fef"/>
        <path id="Trazado_830655" data-name="Trazado 830655" d="M56.952,153.887c-.075,10.124-8.14,14.281-15.193,19.543a127.526,127.526,0,0,0-11.8,9.789c-4.211,4.013-9.407,8.69-11.607,14.185-.552,1.379,1.414,2.936,2.617,2.012,2.688-2.067,4.774-4.9,7.048-7.4,2.24-2.468,4.6-4.819,7.043-7.089q5.867-5.456,12.224-10.317c6.948-5.327,15-11.377,13.569-21.249-.328-2.26-3.884-1.646-3.9.528" transform="translate(-6.885 -57.298)" fill="#b4aaf9"/>
        <path id="Trazado_830656" data-name="Trazado 830656" d="M.414,259.513a2.762,2.762,0,0,0,.341.516,4.448,4.448,0,0,0,.957.862l.733.309a2.319,2.319,0,0,0,1.222.055,2.916,2.916,0,0,0,1.76-.843,3.653,3.653,0,0,0,.789-1.353,3.056,3.056,0,0,0-.309-2.363,3.854,3.854,0,0,0-1.378-1.3,3.207,3.207,0,0,0-1.918-.357,2.859,2.859,0,0,0-1.727.827A3.583,3.583,0,0,0,.11,257.2a3.148,3.148,0,0,0,.3,2.317" transform="translate(0 -96.171)" fill="#9b8fef"/>
        <path id="Trazado_830657" data-name="Trazado 830657" d="M10.741,243.73c5.336,0,5.344-8.292,0-8.292s-5.344,8.292,0,8.292" transform="translate(-2.54 -88.789)" fill="#ab9bf9"/>
        <path id="Trazado_830658" data-name="Trazado 830658" d="M386.237,381.325c0,9.81-77.433,17.762-172.952,17.762S40.333,391.135,40.333,381.325s77.433-17.762,172.952-17.762,172.952,7.952,172.952,17.762" transform="translate(-15.211 -137.108)" fill="#efece6"/>
        <path id="Trazado_830659" data-name="Trazado 830659" d="M127.344,366.994c-.276,1.93-2.115,6.373-1.44,7.074.769.8,17.634,1.65,24.409.635,3.225-.388,2.885-3.107-.513-4.353-1.854-.68-10.263-2.133-13.492-3.444l-2.289-6.989a1.279,1.279,0,0,0-1.6-1.071,41.02,41.02,0,0,0-4.427.224c-.771,4.1-.051,3.778-.643,7.924" transform="translate(-47.426 -135.329)" fill="#090d46"/>
        <path id="Trazado_830660" data-name="Trazado 830660" d="M88.764,379.7c-.26,1.847-.128,4.042,1.388,5.129,1,.719,9.615,1.189,11.108-.88,1.472-2.039.952-4.266.768-5.547-.888-6.148-.787-10.393-1.674-16.542a42.854,42.854,0,0,1-6.343,0c-.255,1.965-.4,3.637-.719,5.611-.366,2.236-4.241,10.19-4.527,12.228" transform="translate(-33.435 -136.466)" fill="#090d46"/>
        <path id="Trazado_830661" data-name="Trazado 830661" d="M111.484,238.94c-2.133.82,20.561-.9,25.855-2.459S129.29,204.5,129.29,204.5Z" transform="translate(-41.99 -77.121)" fill="#d3d0c9"/>
        <path id="Trazado_830662" data-name="Trazado 830662" d="M94.776,248.127c-.089,9.6-1.849,37.4-.566,48.708,4.034,2.359,9.3.282,9.3.282,3.489-17.52,3.78-29.432,7.268-46.952,1.919-9.635,5.344-43.048,7.1-51.448.85.206,1.476-.206,2.326,0,.411,16.025-1.234,28.241-2.212,43.066-1.243,18.836-2.455,28.206-3.18,54.259,4.831,1.434,7.59.793,8.844-.453,3.868-11.722,8.7-41.094,10.622-55.278,2.937-21.662,5.689-40.181,1.766-61.688-6.541,2.464-34.7.109-41.581.032-1.262,6.232-.777,13.42-1.26,19.812-.646,8.543,1.568,32.676,1.568,49.659" transform="translate(-35.107 -67.363)" fill="#4639b9"/>
        <path id="Trazado_830663" data-name="Trazado 830663" d="M152.957,73.967l12.116,29.764c.873,2.145,1.747,4.293,2.473,6.492.809,2.451-6.906,6.88-9.714,4.538-5.763-4.807-8.834-13.036-13.193-19.146s-7.864-13.174-8.006-20.678a7.256,7.256,0,0,1,.592-3.471c3.3-6.427,13.629-2.665,15.732,2.5" transform="translate(-51.526 -25.671)" fill="#d3d0c9"/>
        <path id="Trazado_830664" data-name="Trazado 830664" d="M202.378,109.418c-1.878,3.584,1.4,5.281,4.2,2.867a7.52,7.52,0,0,0,2.878-6.826,9.536,9.536,0,0,1-7.078,3.959" transform="translate(-76.113 -39.771)" fill="#e89e85"/>
        <path id="Trazado_830665" data-name="Trazado 830665" d="M192.238,120.649c.982-1.332,3.52-5.916,3.483-7.57a13.159,13.159,0,0,1-3.6-1.8c-1.506-1.159-3.215-2.158-4.241-3.757-.426,2.9-1.421,6.064-3.978,7.507-2.582,1.458-5.864.666-8.691,1.56-6.921,2.189-9.99,13.7-1.256,15.216,8.124,1.409,14.2-5.625,18.282-11.156" transform="translate(-63.585 -40.549)" fill="#d3d0c9"/>
        <path id="Trazado_830666" data-name="Trazado 830666" d="M169.456,132.839a15.152,15.152,0,0,1,.2-2.761,7.325,7.325,0,0,1,1.189-2.358c.131-.2-.141-.505-.349-.349-1.752,1.321-1.76,3.471-1.567,5.468a.263.263,0,0,0,.526,0" transform="translate(-63.676 -48.019)" fill="#e2dfd8"/>
        <path id="Trazado_830667" data-name="Trazado 830667" d="M172.994,133.243c-.563-1.551-.02-2.758.574-4.183a.305.305,0,0,0-.445-.342c-1.433,1.089-1.368,3.263-.624,4.733.137.27.6.082.5-.209" transform="translate(-64.858 -48.525)" fill="#e2dfd8"/>
        <path id="Trazado_830668" data-name="Trazado 830668" d="M111.675,60.158,88.7,72.618s9.455,26.156,8.806,37.206a116.156,116.156,0,0,0,0,17.166l34.61-3.807s.762-18.055.422-28.137-1.359-27.1-1.359-27.1Z" transform="translate(-33.452 -22.687)" fill="#6861e2"/>
        <path id="Trazado_830669" data-name="Trazado 830669" d="M111.165,49.756a6.759,6.759,0,0,1-.463,3.6c-1.382,2.925,11.2,9.228,14.3,8.326,1.511-.439,3.721-4.3,3.661-5.873-2.547.281-2.653-1.347-3.932-3.568a13.316,13.316,0,0,1-1.3-4.226l-1.34-7.077a1.067,1.067,0,0,0-1.19-1.1c-1.981-.184-11-2.469-10.578-.389.625,3.1.687,8.575.837,10.31" transform="translate(-41.602 -14.549)" fill="#d18774"/>
        <path id="Trazado_830670" data-name="Trazado 830670" d="M113.252,67.868s5.1,6.922,12.84,4.227,2.962-9.321,2.962-9.321l-3.588-2.813s2.295,3.582.308,9.782c0,0-10.482-7.361-12.521-5.678s0,3.8,0,3.8" transform="translate(-42.368 -22.613)" fill="#6861e2"/>
        <path id="Trazado_830671" data-name="Trazado 830671" d="M82.565,69.97a9.712,9.712,0,0,0-2.53,3.164,9.508,9.508,0,0,0-.505,4.377,36.049,36.049,0,0,0,2.642,11.454c1.37,3.324,3.236,6.439,4.389,9.844,1.547,4.566,1.751,9.47,1.738,14.292-.039,14.261-5.265,58.407-8.812,72.221,8.785,2.914,22.54,2.588,31.681,1.132.169-8.028,2.073-11.812,3.35-19.74.8-4.992,4.88-59.892,1.327-76.581-.214-1.006-7.09-16.2-10.4-22.554-2.156-4.143-2.965-8.272-7.1-6.348-3.924,1.824-12.591,5.827-15.781,8.74" transform="translate(-29.977 -22.908)" fill="#e2dfd8"/>
        <path id="Trazado_830672" data-name="Trazado 830672" d="M136.223,63.006c3.792.54,11.122,3.379,12.87,6.358a16.545,16.545,0,0,1,1.7,6.332c1.79,13.761.092,27.59,1.088,41.432.927,12.9,6.733,53.783,5.633,66.666-7.3,1.453-12.538,1.152-19.843,2.605.078-4.348-1.95-7-2.427-18.835-.466-11.557-.273-33.537-.447-37.781-.612-14.981-.655-20.953,1.915-36.238,1.738-10.334-.366-20.925-.493-30.541" transform="translate(-50.705 -23.761)" fill="#e2dfd8"/>
        <path id="Trazado_830673" data-name="Trazado 830673" d="M138.889,133.508c-.088,9.473-.2,18.952-.516,28.421-.309,9.435-1.471,18.953-1.478,28.379,0,.66,1.071.851,1.188.161,1.549-9.093,1.353-18.782,1.643-27.984.3-9.658.5-19.324-.009-28.977a.414.414,0,0,0-.828,0" transform="translate(-51.626 -50.198)" fill="#d3d0c9"/>
        <path id="Trazado_830674" data-name="Trazado 830674" d="M103.5,197.72c2.033.042,4.066.09,6.1.124a18.6,18.6,0,0,0,5.347-.211.45.45,0,0,0,0-.86,18.732,18.732,0,0,0-5.347-.211c-2.033.035-4.066.082-6.1.124a.518.518,0,0,0,0,1.035" transform="translate(-38.842 -74.095)" fill="#d3d0c9"/>
        <path id="Trazado_830675" data-name="Trazado 830675" d="M152.064,195.524a23.764,23.764,0,0,0,6.2.069.625.625,0,0,0,0-1.2,23.79,23.79,0,0,0-6.2.069.554.554,0,0,0,0,1.06" transform="translate(-57.198 -73.246)" fill="#d3d0c9"/>
        <path id="Trazado_830676" data-name="Trazado 830676" d="M112.568,104.1a16.726,16.726,0,0,0,3.855-.679c.98-.306,2.306-.615,2.862-1.53a.459.459,0,0,0-.392-.683c-.986-.064-1.9.638-2.819.951a17.644,17.644,0,0,1-3.507.811c-.7.087-.741,1.183,0,1.131" transform="translate(-42.248 -38.166)" fill="#d3d0c9"/>
        <path id="Trazado_830677" data-name="Trazado 830677" d="M117.812,72.761c1.241-2.962.086-4.2,2.049-6.74l4.46,4.083a31.952,31.952,0,0,1,1.213-4.367c1.651,1.469,2.272,2.982,3.709,4.662.776-2.735,1.167-5.019,0-8.147-1.2-3.223-3.126-4.16-5.549-4.282a19.247,19.247,0,0,1-.963,8.675c-2.535-1.543-9.4-8.849-12.642-11.964,0,0-2.44,2.845-2.44,4.876,0,2.449,8.028,10.842,10.162,13.2" transform="translate(-40.597 -20.621)" fill="#4639b9"/>
        <path id="Trazado_830678" data-name="Trazado 830678" d="M185.413,65.071l-11.48,36.935,1,.785,15.8-1.766,13-36.55Z" transform="translate(-65.594 -24.316)" fill="#ea9639"/>
        <path id="Trazado_830679" data-name="Trazado 830679" d="M187.265,65.071l-11.724,37.721,17.049-1.766,11.751-36.55Z" transform="translate(-66.201 -24.316)" fill="#febc53"/>
        <path id="Trazado_830680" data-name="Trazado 830680" d="M206.316,99.8a10.871,10.871,0,0,0-1.147-3.614,37.967,37.967,0,0,0-2.64-3.9c-.483-.742-1.5-2.3-2.152-1.7-.332,1.419,1.49,3.456,2.152,4.754-1.5-.848-5.744-3.144-6.255-2.815-.45.939.564,1.582,1.446,2.136s3.568,2.487,2.062,2.482c-2.094-.52-6.331-2.737-6.282-1.561.774,1.363,2.328,1.851,3.625,2.732.989.671,2.759,1.484,2.8,2.146-1.086.389-1.132.174-2.275.018s-3.012-.291-2.333.605a35.042,35.042,0,0,0,5.468,2.427c4.172,1.487,4.923-1.373,5.534-3.712" transform="translate(-72.973 -34.111)" fill="#e89e85"/>
        <path id="Trazado_830681" data-name="Trazado 830681" d="M201.192,62.021l-.853,3.086,6.4-.349.915-2.943-1.88.069s.338-1.747-1.022-1.69-1.655,1.69-1.655,1.69Z" transform="translate(-75.553 -22.7)" fill="#d3d0c9"/>
        <path id="Trazado_830682" data-name="Trazado 830682" d="M110.137,27.268a15.128,15.128,0,0,0,6.543,10.317c2.835,1.815,6.744,2.35,9.515.438a8.75,8.75,0,0,0,2.661-3.154,24.072,24.072,0,0,0,2.182-8c.482-3.385-.651-5.2.142-9.405.635-3.359,1.508-6.57-.9-8.994-1.671-1.678-6.724-3.836-8.905-4.758-2.307-.974-4.877-1.73-7.292-1.068a12.268,12.268,0,0,0-5.2,3.6c-6.959,7.081-.011,12.348,1.261,21.02" transform="translate(-39.909 -0.903)" fill="#e89e85"/>
        <path id="Trazado_830683" data-name="Trazado 830683" d="M116.124,13.492c6.556.576,6.681-.7,9.876-1.2,3.867-.606,6.905,1.449,7.634-2.4-2.506-1.5-2.975-3.743-5.723-6.227-2.637-2.384-6.415-3.742-13.847-3.3-5.187.311-10.175,2.386-8.748,7.382-1.687-.1-3.5,1.93-3.519,4-.043,4.368,1.586,13.9,4.683,13.653,4.338-.34,3.165-9.851,2.657-13.117a45.286,45.286,0,0,0,6.987,1.2" transform="translate(-38.39 -0.107)" fill="#090d46"/>
        <path id="Trazado_830684" data-name="Trazado 830684" d="M106.8,30.182c-1.605,1.044-1.606,3.142-1.137,4.878a4.746,4.746,0,0,0,4.062,3.35c2.391.1,2.083-2.723,1.932-4.37-.414-4.5-3.005-5.061-4.857-3.858" transform="translate(-39.745 -11.175)" fill="#e89e85"/>
        <path id="Trazado_830685" data-name="Trazado 830685" d="M127.742,34.131c0,.931-.441,1.687-.985,1.687s-.985-.756-.985-1.687.441-1.686.985-1.686.985.755.985,1.686" transform="translate(-47.432 -12.236)" fill="#090d46"/>
        <path id="Trazado_830686" data-name="Trazado 830686" d="M140.546,33.645c0,.931-.441,1.686-.985,1.686s-.985-.755-.985-1.686.441-1.687.985-1.687.985.756.985,1.687" transform="translate(-52.26 -12.052)" fill="#090d46"/>
        <path id="Trazado_830687" data-name="Trazado 830687" d="M133.409,31.932c-.374,1.454-1.056,3.968.116,5.248.424.463,1.241.578,1.572,1.115.762,1.237-1.276,1.325-2.026,1.4a.606.606,0,0,0,0,1.211c1.444.048,3.612-.581,3.5-2.421a2.307,2.307,0,0,0-1-1.615c-.716-.547-1.1-.524-1.266-1.6a13.932,13.932,0,0,1,.187-3.191c.055-.624-.927-.737-1.079-.146" transform="translate(-49.964 -11.896)" fill="#d18774"/>
        <path id="Trazado_830688" data-name="Trazado 830688" d="M127.142,49.383a5.02,5.02,0,0,0,3.717,1.591,4,4,0,0,0,3.489-2.211.342.342,0,0,0-.419-.419c-1.157.458-1.88,1.525-3.231,1.572a5.251,5.251,0,0,1-3.042-1.2c-.409-.268-.847.328-.514.666" transform="translate(-47.904 -18.225)" fill="#d18774"/>
        <path id="Trazado_830689" data-name="Trazado 830689" d="M131.242,54.464a8.427,8.427,0,0,0,1.852.113.264.264,0,0,0,.07-.516,8.393,8.393,0,0,0-1.82-.348c-.424-.045-.528.69-.1.751" transform="translate(-49.391 -20.256)" fill="#d18774"/>
        <path id="Trazado_830690" data-name="Trazado 830690" d="M110.259,32.136a1.733,1.733,0,0,0-2.241-.189,2.744,2.744,0,0,0-1.065,2.549c.075,1.079.83,3.665,2.307,3.309a.3.3,0,0,0,.175-.43c-.262-.344-.641-.529-.9-.883a3.82,3.82,0,0,1-.544-1.266c-.309-1.147.1-3.678,1.856-2.555.331.212.677-.261.412-.534" transform="translate(-40.331 -11.927)" fill="#d18774"/>
        <path id="Trazado_830691" data-name="Trazado 830691" d="M121.455,26.8a7.492,7.492,0,0,1,2.774-.864c.832-.078,1.646.118,2.473.075a.5.5,0,0,0,.249-.921c-1.815-.94-4.36-.118-5.939.952a.439.439,0,0,0,.442.757" transform="translate(-45.56 -9.306)" fill="#090d46"/>
        <path id="Trazado_830692" data-name="Trazado 830692" d="M138,25.694a4.976,4.976,0,0,1,2.184-.687c.7.023,1.155.533,1.86.4a.484.484,0,0,0,.334-.588c-.23-.883-1.376-1.15-2.194-1.127a5.879,5.879,0,0,0-2.723,1.08.534.534,0,0,0,.539.921" transform="translate(-51.739 -8.935)" fill="#090d46"/>
        <path id="Trazado_830693" data-name="Trazado 830693" d="M123.43,41.3a2.091,2.091,0,0,0,1.976-.361.387.387,0,0,0-.27-.653c-.538-.012-1.048.184-1.59.157a.438.438,0,0,0-.116.856" transform="translate(-46.431 -15.192)" fill="#d18774"/>
        <path id="Trazado_830694" data-name="Trazado 830694" d="M141.588,40.536a3.117,3.117,0,0,0,.59,0,.56.56,0,0,0,0-1.119.883.883,0,0,0-.908.559.455.455,0,0,0,.317.559" transform="translate(-53.269 -14.864)" fill="#d18774"/>
        <path id="Trazado_830695" data-name="Trazado 830695" d="M112.082,35.479c-.835-.3-1.648.076-1.649,1.031a2,2,0,0,0,1.475,1.976.282.282,0,0,0,.216-.513,2.369,2.369,0,0,1-.838-1.3c-.1-.5.14-.6.6-.463s.651-.565.2-.726" transform="translate(-41.647 -13.342)" fill="#d18774"/>
        <path id="Trazado_830696" data-name="Trazado 830696" d="M119.4,12.61c4.514,2.138,9.283.141,14.036-.083a.239.239,0,0,0,0-.478c-4.717-.25-9.324,2.2-13.843.231-.222-.1-.418.224-.193.33" transform="translate(-44.993 -4.537)" fill="#1c2872"/>
        <path id="Trazado_830697" data-name="Trazado 830697" d="M116.247,8.292c4,1.747,7.859.559,12.017.078a.327.327,0,0,0,0-.653c-4.115-.33-7.665,1.6-11.814.1-.277-.1-.476.361-.2.48" transform="translate(-43.79 -2.896)" fill="#1c2872"/>
        <path id="Trazado_830698" data-name="Trazado 830698" d="M118.3,4.253c2.309,1.01,5.347,1.263,7.582-.1a.264.264,0,0,0-.2-.481c-2.531.667-4.654,1.028-7.22.2-.219-.07-.377.283-.159.379" transform="translate(-44.575 -1.382)" fill="#1c2872"/>
        <path id="Trazado_830699" data-name="Trazado 830699" d="M105.507,16.654a4.018,4.018,0,0,0-.406,5.1.257.257,0,0,0,.475-.128c.027-1.56-.835-3.163.4-4.495a.334.334,0,0,0-.473-.473" transform="translate(-39.366 -6.246)" fill="#1c2872"/>
        <path id="Trazado_830700" data-name="Trazado 830700" d="M108.633,18.1c-.466,1.439-.589,3.683.635,4.809a.321.321,0,0,0,.533-.31c-.146-.665-.506-1.252-.644-1.928a6.081,6.081,0,0,1-.016-2.432.263.263,0,0,0-.507-.14" transform="translate(-40.843 -6.756)" fill="#1c2872"/>
        <path id="Trazado_830701" data-name="Trazado 830701" d="M109.841,10.96a5.728,5.728,0,0,1-.2-1.438,6.75,6.75,0,0,0,.031-1.175.175.175,0,0,0-.316-.041,3.972,3.972,0,0,0,.12,2.754.189.189,0,0,0,.364-.1" transform="translate(-41.162 -3.101)" fill="#1c2872"/>
        <path id="Trazado_830702" data-name="Trazado 830702" d="M111.621,12.394c.248-.63.538-1.256.728-1.907a.128.128,0,0,0-.233-.1,5.984,5.984,0,0,0-.746,1.937.13.13,0,0,0,.251.069" transform="translate(-41.999 -3.896)" fill="#1c2872"/>
        <path id="Trazado_830703" data-name="Trazado 830703" d="M113.424,15.434a4.5,4.5,0,0,1,.663-.684,8.8,8.8,0,0,0,.716-.531c.129-.124-.01-.291-.157-.27a2.423,2.423,0,0,0-1.51,1.264c-.1.174.151.387.288.222" transform="translate(-42.658 -5.259)" fill="#1c2872"/>
        <rect id="Rectángulo_383763" data-name="Rectángulo 383763" width="14.159" height="2.294" transform="matrix(0.272, -0.962, 0.962, 0.272, 92.184, 61.036)" fill="#090d46"/>
        <path id="Trazado_830704" data-name="Trazado 830704" d="M156.385,75.083l-2.211-.625.988-1.373.98-1.368.118,1.679Z" transform="translate(-58.143 -27.046)" fill="#febc53"/>
        <path id="Trazado_830705" data-name="Trazado 830705" d="M148.711,99.719l-.184-.052a1.051,1.051,0,0,1-.726-1.3l.107-.378,2.207.624-.107.378a1.051,1.051,0,0,1-1.3.726" transform="translate(-55.724 -36.955)" fill="#febc53"/>
        <path id="Trazado_830706" data-name="Trazado 830706" d="M156.861,73.4l-1.1-.311.98-1.368Z" transform="translate(-58.741 -27.046)" fill="#090d46"/>
        <path id="Trazado_830707" data-name="Trazado 830707" d="M149.513,90.667c.389-.727,5.271-1.224,4.259-2.314-.222-.24-4.379.107-4.062-.014,3.9-1.491,5.494-3.611,3.673-3.139-1.6.646-3.227,1.158-4.827,1.8a11.548,11.548,0,0,1,2.336-1.8c.823-.666,3.141-2.566,1.881-2.679a22.02,22.02,0,0,0-5.186,3.172c.166-1.423,4.51-4.383,2.487-4.383-1.5,1.063-3,2.117-4.5,3.189a4.674,4.674,0,0,0-1.6,2.5c-.279,1.731.214,6.786-.606,8.374-.832,1.611-3.41,4.167-5.118,4.713.25,5.41,1.781,6.244,6.177,4.214a10.764,10.764,0,0,0,5.826-7.565c.11-.882-.866-5.849-.746-6.074" transform="translate(-52.139 -30.664)" fill="#e89e85"/>
        <path id="Trazado_830708" data-name="Trazado 830708" d="M78.628,96.316c3.241,7.195,6.984,17.556,12.023,23.629,1.949,2.349,3.248,3.484,6.3,3.557,3.436.083,7.4-3.751,9.954-6.054,6.844-6.18,10.619-10.1,16.783-15.1a62.41,62.41,0,0,1-5.831-9.6,178.06,178.06,0,0,1-19.964,12.738C96.812,98.843,86.7,71.994,82.811,73.5c-3.673,1.416-6.058,3.488-7.071,7.358-.623,2.379-.146,8.727,2.888,15.462" transform="translate(-28.473 -27.694)" fill="#efebe4"/>
        <path id="Trazado_830709" data-name="Trazado 830709" d="M145.956,119.457a1.229,1.229,0,1,1-1.229-1.229,1.229,1.229,0,0,1,1.229,1.229" transform="translate(-54.116 -44.587)" fill="#d3d0c9"/>
        <path id="Trazado_830710" data-name="Trazado 830710" d="M138.74,124.459a1.229,1.229,0,1,1-1.23-1.229,1.229,1.229,0,0,1,1.23,1.229" transform="translate(-51.395 -46.473)" fill="#d3d0c9"/>
        <path id="Trazado_830711" data-name="Trazado 830711" d="M107.715,126.186c-1.72,2.364-3.514,5.99-2.855,8.994.138.627.959.5,1.152,0,.5-1.309.592-2.76,1-4.108a19.866,19.866,0,0,1,1.877-4.2c.443-.771-.666-1.374-1.169-.683" transform="translate(-39.492 -47.473)" fill="#e2dfd8"/>
        <path id="Trazado_830712" data-name="Trazado 830712" d="M111.74,127.789c-1.03,3.208-1.268,7.192.616,10.13a.488.488,0,0,0,.888-.374c-.794-3.3-1.49-6.119-.6-9.506a.47.47,0,0,0-.906-.25" transform="translate(-41.842 -48.068)" fill="#e2dfd8"/>
        <rect id="Rectángulo_383764" data-name="Rectángulo 383764" width="10.131" height="19.797" transform="translate(215.336 111.398)" fill="#4639b9"/>
        <path id="Trazado_830713" data-name="Trazado 830713" d="M363.818,124.321H304.6a2.82,2.82,0,0,0-2.82,2.82v32.466a2.82,2.82,0,0,0,2.82,2.82h59.214a2.82,2.82,0,0,0,2.82-2.82V127.141a2.82,2.82,0,0,0-2.82-2.82" transform="translate(-113.81 -46.884)" fill="#090d46"/>
        <rect id="Rectángulo_383765" data-name="Rectángulo 383765" width="58.099" height="32.507" transform="translate(191.352 80.236)" fill="#fad349"/>
        <rect id="Rectángulo_383766" data-name="Rectángulo 383766" width="36.532" height="2.823" transform="translate(202.135 131.195)" fill="#090d46"/>
        <path id="Trazado_830714" data-name="Trazado 830714" d="M371.63,151.809a1.932,1.932,0,1,0,1.932,1.932,1.932,1.932,0,0,0-1.932-1.932" transform="translate(-139.422 -57.251)" fill="#fb2d5d"/>
        <path id="Trazado_830715" data-name="Trazado 830715" d="M374.873,148.122c-.377-.3-.795-.605-1.232-.908.437-.3.855-.6,1.232-.908,2.051-1.644,2.906-3.05,2.473-4.068s-2.039-1.378-4.646-1.039a25.854,25.854,0,0,0-3.573.759c-.535-4.135-1.717-7.454-3.476-7.454s-2.941,3.321-3.476,7.457c-4.013-1.125-7.532-1.34-8.219.277-.567,1.332,1.1,3.184,3.7,4.976-2.608,1.791-4.27,3.643-3.7,4.976.348.82,1.423,1.17,2.919,1.17a20.863,20.863,0,0,0,5.3-.9c.535,4.138,1.717,7.46,3.476,7.46s2.941-3.319,3.476-7.455a25.787,25.787,0,0,0,3.573.759,13.6,13.6,0,0,0,1.727.123c1.594,0,2.592-.393,2.919-1.162.434-1.018-.422-2.424-2.473-4.068m-2.087-6.259a12.84,12.84,0,0,1,1.638-.116c1.268,0,2.1.261,2.307.754.29.682-.561,1.91-2.277,3.285-.427.343-.9.686-1.408,1.028a35.588,35.588,0,0,0-3.663-2.071c-.041-.715-.1-1.424-.175-2.113a25.316,25.316,0,0,1,3.578-.767m-5.907,8.237q-.621.264-1.226.5c-.408-.159-.818-.325-1.229-.5-.648-.275-1.263-.559-1.857-.845-.03-.66-.051-1.335-.051-2.04s.021-1.381.051-2.04c.594-.286,1.208-.57,1.857-.845q.613-.261,1.223-.5c.406.159.814.32,1.232.5.637.27,1.254.554,1.857.845.03.66.051,1.336.051,2.041s-.021,1.381-.051,2.041c-.6.29-1.22.574-1.857.845m1.816-.086c-.036.552-.083,1.082-.138,1.595q-.974-.3-1.986-.663c.19-.077.382-.151.571-.231.53-.225,1.046-.461,1.554-.7m-3.966.932c-.683.249-1.344.467-1.981.661-.055-.513-.1-1.043-.138-1.595.514.243,1.032.48,1.555.7.189.08.377.154.565.232m-2.847-2.028c-1.117-.564-2.123-1.137-3.011-1.7.888-.566,1.894-1.14,3.011-1.7-.022.567-.034,1.137-.034,1.7s.011,1.136.034,1.7m.727-4.5c.036-.551.083-1.082.138-1.595.634.192,1.3.416,1.976.663-.187.077-.372.149-.559.229-.523.222-1.041.459-1.555.7m3.965-.934q1.009-.368,1.983-.662c.055.513.1,1.043.138,1.6-.508-.24-1.024-.475-1.554-.7-.188-.08-.378-.155-.567-.232m2.848,2.03c1.086.548,2.1,1.12,3.011,1.7-.914.582-1.925,1.154-3.011,1.7.022-.567.034-1.137.034-1.7s-.011-1.136-.034-1.7m-3.77-10.339c1.1,0,2.281,2.7,2.827,6.972-.919.277-1.867.6-2.829.972-.943-.361-1.894-.69-2.825-.97.546-4.27,1.732-6.974,2.827-6.974m-11.08,7.328c.21-.494,1.025-.755,2.289-.755a20.454,20.454,0,0,1,5.235.886c-.077.69-.135,1.4-.176,2.116a36.722,36.722,0,0,0-3.664,2.066c-2.667-1.8-4.045-3.464-3.684-4.313m0,9.428c-.361-.85,1.017-2.511,3.684-4.313a36.719,36.719,0,0,0,3.664,2.066c.041.718.1,1.428.176,2.119-4.143,1.169-7.095,1.136-7.524.128m11.08,7.328c-1.1,0-2.282-2.7-2.827-6.977.933-.28,1.884-.6,2.828-.966.961.369,1.909.7,2.827.97-.546,4.27-1.732,6.972-2.827,6.972m11.08-7.328c-.291.682-1.766.92-3.945.638a25.4,25.4,0,0,1-3.578-.767c.076-.69.134-1.4.175-2.113a35.59,35.59,0,0,0,3.663-2.071c.506.342.981.686,1.408,1.028,1.716,1.375,2.567,2.6,2.277,3.285" transform="translate(-133.443 -50.725)" fill="#c43ad6"/>
        <path id="Trazado_830716" data-name="Trazado 830716" d="M318.221,153.887l-.469-.414,5.885-6.668L319.411,140l.531-.33,4.471,7.205Z" transform="translate(-119.832 -52.671)" fill="#fff"/>
        <path id="Trazado_830717" data-name="Trazado 830717" d="M335.1,149.344l-8.48-1.839,8.937-6.488.367.506-7.806,5.667,7.115,1.543Z" transform="translate(-123.177 -53.181)" fill="#fff"/>
        <path id="Trazado_830718" data-name="Trazado 830718" d="M326.785,162.173l-.624-.039.785-12.561,6.623,10.726-.532.328-5.59-9.052Z" transform="translate(-123.003 -56.408)" fill="#fff"/>
        <path id="Trazado_830719" data-name="Trazado 830719" d="M321.51,138.906a1.691,1.691,0,1,1-1.69-1.69,1.69,1.69,0,0,1,1.69,1.69" transform="translate(-119.974 -51.747)" fill="#c43ad6"/>
        <path id="Trazado_830720" data-name="Trazado 830720" d="M328.491,150.156a1.691,1.691,0,1,1-1.69-1.69,1.69,1.69,0,0,1,1.69,1.69" transform="translate(-122.606 -55.99)" fill="#4639b9"/>
        <path id="Trazado_830721" data-name="Trazado 830721" d="M327.329,168.747a1.691,1.691,0,1,1-1.691-1.69,1.69,1.69,0,0,1,1.691,1.69" transform="translate(-122.168 -63.001)" fill="#c43ad6"/>
        <path id="Trazado_830722" data-name="Trazado 830722" d="M341.009,152.87a1.691,1.691,0,1,1-1.69-1.691,1.69,1.69,0,0,1,1.69,1.691" transform="translate(-127.327 -57.014)" fill="#090d46"/>
        <path id="Trazado_830723" data-name="Trazado 830723" d="M341.931,140.4a1.691,1.691,0,1,1-1.69-1.69,1.69,1.69,0,0,1,1.69,1.69" transform="translate(-127.675 -52.31)" fill="#4639b9"/>
        <path id="Trazado_830724" data-name="Trazado 830724" d="M338.295,166.033a1.691,1.691,0,1,1-1.69-1.69,1.69,1.69,0,0,1,1.69,1.69" transform="translate(-126.304 -61.978)" fill="#fb2d5d"/>
        <path id="Trazado_830725" data-name="Trazado 830725" d="M318.8,161.142a1.691,1.691,0,1,1-1.69-1.69,1.69,1.69,0,0,1,1.69,1.69" transform="translate(-118.95 -60.133)" fill="#090d46"/>
        <rect id="Rectángulo_383767" data-name="Rectángulo 383767" width="4.566" height="97.462" transform="translate(138.373 140.581)" fill="#090d46"/>
        <rect id="Rectángulo_383768" data-name="Rectángulo 383768" width="4.566" height="97.462" transform="translate(252.637 140.581)" fill="#090d46"/>
        <rect id="Rectángulo_383769" data-name="Rectángulo 383769" width="132.667" height="9.325" transform="translate(131.86 134.018)" fill="#4639b9"/>
        <rect id="Rectángulo_383770" data-name="Rectángulo 383770" width="13.585" height="2.763" transform="translate(151.043 116.289)" fill="#4639b9"/>
        <path id="Trazado_830726" data-name="Trazado 830726" d="M256.563,191.133l5.86,9.21,3.35-1.5-4.389-7.711Z" transform="translate(-96.756 -72.081)" fill="#d3d0c9"/>
        <rect id="Rectángulo_383771" data-name="Rectángulo 383771" width="19.221" height="7.664" transform="translate(156.911 100.831) rotate(-73.197)" fill="#090d46"/>
        <rect id="Rectángulo_383772" data-name="Rectángulo 383772" width="8.08" height="3.635" transform="translate(164.397 83.012) rotate(-73.196)" fill="#4639b9"/>
        <rect id="Rectángulo_383773" data-name="Rectángulo 383773" width="3.091" height="10.542" transform="translate(154.64 103.374) rotate(-73.196)" fill="#4639b9"/>
        <rect id="Rectángulo_383774" data-name="Rectángulo 383774" width="7.253" height="3.964" transform="translate(155.692 111.268) rotate(-73.194)" fill="#090d46"/>
        <rect id="Rectángulo_383775" data-name="Rectángulo 383775" width="11.915" height="6.677" transform="translate(165.268 99.668) rotate(-73.196)" fill="#4639b9"/>
        <path id="Trazado_830727" data-name="Trazado 830727" d="M277.829,186.183c-.108-1.4,8.272-18.631-1.209-34.336-3.48-5.765-7.247-5.8-8.725-3.72-1.225,1.722-.782,4.725,1.836,8.642,3.165,4.738,2.181,17.207-5.775,29.415Z" transform="translate(-99.544 -55.388)" fill="#efebe4"/>
        <rect id="Rectángulo_383776" data-name="Rectángulo 383776" width="32.264" height="3.223" transform="translate(148.496 130.795)" fill="#090d46"/>
        <path id="Trazado_830728" data-name="Trazado 830728" d="M271.772,205.1s0-7.828-5.526-8.059-5.986,8.059-5.986,8.059Z" transform="translate(-98.15 -74.308)" fill="#4639b9"/>
        <path id="Trazado_830729" data-name="Trazado 830729" d="M270.319,203.181a2.072,2.072,0,1,1-2.072-2.072,2.073,2.073,0,0,1,2.072,2.072" transform="translate(-100.381 -75.843)" fill="#090d46"/>
        <path id="Trazado_830730" data-name="Trazado 830730" d="M275.086,151.465a2.072,2.072,0,1,1-2.072-2.072,2.073,2.073,0,0,1,2.072,2.072" transform="translate(-102.178 -56.34)" fill="#090d46"/>
        <path id="Trazado_830731" data-name="Trazado 830731" d="M274.606,152.2a.856.856,0,1,1-.856-.856.856.856,0,0,1,.856.856" transform="translate(-102.914 -57.076)" fill="#4639b9"/>
        <rect id="Rectángulo_383777" data-name="Rectángulo 383777" width="7.368" height="1.497" transform="translate(245.496 108.455)" fill="#81addf"/>
        <path id="Trazado_830732" data-name="Trazado 830732" d="M404.263,193a10.615,10.615,0,0,1-2.135,6.4,3.3,3.3,0,0,1-2.645,1.312H387.7a3.3,3.3,0,0,1-2.645-1.312,10.647,10.647,0,0,1,5.775-16.7v-6.175h5.526V182.7A10.618,10.618,0,0,1,404.263,193" transform="translate(-144.408 -66.573)" fill="#b6dbff"/>
        <path id="Trazado_830733" data-name="Trazado 830733" d="M404.263,200.617a10.615,10.615,0,0,1-2.135,6.4,3.3,3.3,0,0,1-2.645,1.312H387.7a3.3,3.3,0,0,1-2.645-1.312,10.7,10.7,0,0,1-1.41-10.285h19.894a10.652,10.652,0,0,1,.725,3.882" transform="translate(-144.408 -74.193)" fill="#fb2d5d"/>
        <path id="Trazado_830734" data-name="Trazado 830734" d="M388.548,204.915a.7.7,0,1,1-.7-.7.7.7,0,0,1,.7.7" transform="translate(-146.005 -77.015)" fill="#fff"/>
        <path id="Trazado_830735" data-name="Trazado 830735" d="M405.183,203.406a1.612,1.612,0,1,1-1.611-1.612,1.612,1.612,0,0,1,1.611,1.612" transform="translate(-151.589 -76.101)" fill="#fff"/>
        <path id="Trazado_830736" data-name="Trazado 830736" d="M398.89,208.268a.96.96,0,1,1-.96-.96.96.96,0,0,1,.96.96" transform="translate(-149.707 -78.181)" fill="#fff"/>
        <path id="Trazado_830737" data-name="Trazado 830737" d="M413.387,201.578a.631.631,0,1,1-.63-.63.63.63,0,0,1,.63.63" transform="translate(-155.423 -75.782)" fill="#fff"/>
        <path id="Trazado_830738" data-name="Trazado 830738" d="M391.88,208.467a.631.631,0,1,1-.63-.63.63.63,0,0,1,.63.63" transform="translate(-147.312 -78.38)" fill="#fff"/>
        <path id="Trazado_830739" data-name="Trazado 830739" d="M397.233,200.333a1.056,1.056,0,1,1-1.056-1.056,1.056,1.056,0,0,1,1.056,1.056" transform="translate(-149.009 -75.152)" fill="#fff"/>
        <path id="Trazado_830740" data-name="Trazado 830740" d="M408.432,210.268a.648.648,0,1,1-.648-.648.648.648,0,0,1,.648.648" transform="translate(-153.541 -79.053)" fill="#fff"/>
        <path id="Trazado_830741" data-name="Trazado 830741" d="M318.828,181.314V200.42a2.013,2.013,0,0,1-2.017,2.01H305.649a2.013,2.013,0,0,1-2.017-2.01V181.314Z" transform="translate(-114.507 -68.378)" fill="#b6dbff"/>
        <rect id="Rectángulo_383778" data-name="Rectángulo 383778" width="17.499" height="1.904" transform="translate(187.974 111.03)" fill="#81addf"/>
        <path id="Trazado_830742" data-name="Trazado 830742" d="M318.828,193.779v11.342a2.013,2.013,0,0,1-2.017,2.01H305.649a2.013,2.013,0,0,1-2.017-2.01V193.779Z" transform="translate(-114.507 -73.079)" fill="#c43ad6"/>
        <path id="Trazado_830743" data-name="Trazado 830743" d="M311.043,199.852a1.568,1.568,0,1,1-1.568-1.568,1.568,1.568,0,0,1,1.568,1.568" transform="translate(-116.119 -74.778)" fill="#fff"/>
        <path id="Trazado_830744" data-name="Trazado 830744" d="M319.249,198.607a.669.669,0,1,1-.669-.669.669.669,0,0,1,.669.669" transform="translate(-119.891 -74.647)" fill="#fff"/>
        <path id="Trazado_830745" data-name="Trazado 830745" d="M316.162,207.061a.84.84,0,1,1-.84-.84.84.84,0,0,1,.84.84" transform="translate(-118.599 -77.771)" fill="#fff"/>
        <path id="Trazado_830746" data-name="Trazado 830746" d="M311.055,209.677a.315.315,0,1,1-.315-.315.315.315,0,0,1,.315.315" transform="translate(-117.069 -78.955)" fill="#fff"/>
        <path id="Trazado_830747" data-name="Trazado 830747" d="M323.287,203.452a.979.979,0,1,1-.98-.979.98.98,0,0,1,.98.979" transform="translate(-121.18 -76.357)" fill="#fff"/>
        <path id="Trazado_830748" data-name="Trazado 830748" d="M320.253,210.847a.492.492,0,1,1-.491-.491.492.492,0,0,1,.491.491" transform="translate(-120.404 -79.33)" fill="#fff"/>
        <path id="Trazado_830749" data-name="Trazado 830749" d="M360.816,200.118a2.014,2.014,0,0,1-2.017,2.01H347.63a2.007,2.007,0,0,1-2.01-2.01l2.265-6.362,2.57-7.218v-5.934h5.526v5.934l2.57,7.218Z" transform="translate(-130.341 -68.11)" fill="#b6dbff"/>
        <rect id="Rectángulo_383779" data-name="Rectángulo 383779" width="7.368" height="1.497" transform="translate(219.191 110.995)" fill="#81addf"/>
        <path id="Trazado_830750" data-name="Trazado 830750" d="M360.816,208.081a2.014,2.014,0,0,1-2.017,2.01H347.63a2.007,2.007,0,0,1-2.01-2.01l2.265-6.362h10.666Z" transform="translate(-130.341 -76.073)" fill="#ea9639"/>
        <path id="Trazado_830751" data-name="Trazado 830751" d="M353.452,206.337a.776.776,0,1,1-.775-.775.775.775,0,0,1,.775.775" transform="translate(-132.71 -77.522)" fill="#fff"/>
        <path id="Trazado_830752" data-name="Trazado 830752" d="M362.364,205.792a1.35,1.35,0,1,1-1.35-1.35,1.351,1.351,0,0,1,1.35,1.35" transform="translate(-135.637 -77.1)" fill="#fff"/>
        <path id="Trazado_830753" data-name="Trazado 830753" d="M356.842,211.126a.807.807,0,1,1-.807-.807.807.807,0,0,1,.807.807" transform="translate(-133.965 -79.316)" fill="#fff"/>
        <path id="Trazado_830754" data-name="Trazado 830754" d="M365.983,210.8a.48.48,0,1,1-.48-.48.48.48,0,0,1,.48.48" transform="translate(-137.659 -79.316)" fill="#fff"/>
        <path id="Trazado_830755" data-name="Trazado 830755" d="M350.4,210.286a.473.473,0,1,1-.473-.473.473.473,0,0,1,.473.473" transform="translate(-131.786 -79.125)" fill="#fff"/>
        <path id="Trazado_830756" data-name="Trazado 830756" d="M358.006,247.684c.846-2.639,2.174-5.263,1.9-8.021.856-.4,1.628.677,1.966,1.559,1.087,2.833,2.189,5.745,2.2,8.779.006,2.6-.8,5.149-.913,7.75-.165,3.758,1.111,7.423,1.484,11.166.646,6.488-1.434,12.975-1.167,19.489a61.632,61.632,0,0,1,.3,6.436c-.189,2.978-1.3,5.89-1.075,8.865.089,1.188.227,2.711-.84,3.243a53.41,53.41,0,0,1-3.412-11.943c-.334-2.712-.25-5.456-.351-8.186-.091-2.427-.329-4.846-.567-7.263-.528-5.364-2.118-11.675-1.405-17.024.657-4.927.343-10.047,1.882-14.849" transform="translate(-134.234 -90.35)" fill="#3c6a84"/>
        <path id="Trazado_830757" data-name="Trazado 830757" d="M354.127,297.877c-.3-2.867-.141-5.758-.2-8.64-.152-6.824-1.566-13.555-2.106-20.359s-.127-13.94,3.1-19.952a1.516,1.516,0,0,1,.643,1.166q1.421,7.2,2.843,14.39c1.068,5.41,2.143,10.908,1.658,16.4-.265,3-.994,5.958-1.155,8.969-.422,7.863,3.027,15.8,1.24,23.471-.072.306-1.831-1.884-1.978-2.16a34.227,34.227,0,0,1-1.73-4.176,37.372,37.372,0,0,1-2.313-9.111" transform="translate(-132.603 -93.876)" fill="#4a79a0"/>
        <path id="Trazado_830758" data-name="Trazado 830758" d="M329.352,300.33c-1.774-1.755-4.511-1.983-6.773-3.036a9.9,9.9,0,0,1-5.574-8.013c-.339-4.205,1.938-8.955-.542-12.368-2.422-3.334-7.95-3.04-10.375-6.372-2.319-3.187-.822-7.138-1.37-11.041-.742-5.289-11.465-11.421-5.8-15.5,1.961-1.413,4.414-.6,5.711,1.436s3.115,4.713,4.481,6.707c4.033,5.889,12.839,6.538,14.535,13.472.463,1.893.16,3.962.942,5.748,1.947,4.451,9.288,4.669,10.737,9.306.7,2.239-.33,4.606-.617,6.934a11.144,11.144,0,0,0,3.935,9.811,8.609,8.609,0,0,1,2.144,2.016c1.054,1.757.161,3.966-.273,5.968-.817,3.773.361,7.134,2.207,10.348-7.853,3.974-10.327-12.4-13.367-15.411" transform="translate(-112.109 -91.748)" fill="#6392c1"/>
        <path id="Trazado_830759" data-name="Trazado 830759" d="M305.371,252.881c4.317,3.748,5.718,9.888,9.689,14,2.538,2.631,5.376,4.815,7.334,7.973,1.842,2.971,2.219,6.59,4.133,9.506,1.784,2.719,5,4.155,6.632,6.983,1.1,1.9,1.208,4.116,1.927,6.144a18.962,18.962,0,0,0,1.943,3.692c2.222,3.572,1.774,6.942,2.518,10.847a7.177,7.177,0,0,0,3.629,5.454.314.314,0,0,0,.317-.541c-4.041-2.544-2.953-7.4-3.692-11.377-.588-3.165-2.866-5.329-3.919-8.295-1.015-2.857-1.171-5.687-3.287-8.032-1.028-1.139-2.289-2.041-3.41-3.081a13.814,13.814,0,0,1-3.639-5.849,26.385,26.385,0,0,0-3.458-7.2c-1.994-2.662-4.632-4.623-6.858-7.052-3.687-4.024-5.1-10.218-9.446-13.594-.29-.225-.7.162-.414.414" transform="translate(-115.126 -95.186)" fill="#fff"/>
        <path id="Trazado_830760" data-name="Trazado 830760" d="M364.68,294.138c.465-2.748-.453-5.519-.7-8.295s.488-6.052,3.011-7.237a20.855,20.855,0,0,0,2.592-1.02c1.647-1.066,1.862-3.359,1.819-5.321a28.847,28.847,0,0,1,.521-8.175c2.1-7.769,8.177-4.423,10.291-8,3.712-6.279,5.416-11.225,8.452-10.524,4.783,1.1,1.3,8.36.154,13.479-.474,2.118-1.156,4.279-.78,6.416.386,2.189,1.866,4.255,1.446,6.439-.562,2.927-4.019,4.12-6.14,6.214a8.2,8.2,0,0,0-1.639,9.031c.823,1.785,2.35,3.543,1.849,5.445-1.046,3.978-8.22,1.787-10.5,5.212-1.571,2.359.33,5.771-.949,8.3-1.321,2.61-5.291,4.184-7.118,6.573-1.678,2.2-1.7,3.428-4.079.766-5.808-6.5.7-12.946,1.775-19.307" transform="translate(-135.962 -92.585)" fill="#6392c1"/>
        <path id="Trazado_830761" data-name="Trazado 830761" d="M368.216,316.264a15.945,15.945,0,0,1,3.514-11.032,24.3,24.3,0,0,0,3.623-5.037c.928-2.11.666-4.168.32-6.376-.713-4.55.171-6.731,3.03-10.111a10.812,10.812,0,0,0,2.592-4.343c.8-3.368-1.116-6.868,2.688-9.022,1.473-.833,2.921-1.357,3.765-2.914,1.218-2.249.595-4.891,2.107-7.08.235-.34-.3-.756-.575-.444-1.391,1.588-1.188,3.326-1.7,5.263-1.023,3.835-3.98,3.454-6.082,5.972-1.391,1.667-.914,3.621-.857,5.616.113,3.936-2.265,5.772-4.388,8.655-3.646,4.951.772,10.307-2.046,15.356-1.531,2.742-4.054,4.7-5.381,7.595a14.426,14.426,0,0,0-1.2,7.9c.046.369.609.394.6,0" transform="translate(-138.594 -97.975)" fill="#fff"/>
        <path id="Trazado_830762" data-name="Trazado 830762" d="M369.233,369.13H344.189l-3.346-31.736h31.736Z" transform="translate(-128.54 -127.239)" fill="#fad349"/>
        <path id="Trazado_830763" data-name="Trazado 830763" d="M273.529,369.654H246.908L244.9,338.783h30.637Z" transform="translate(-92.358 -127.763)" fill="#d3d0c9"/>
        <rect id="Rectángulo_383780" data-name="Rectángulo 383780" width="33.742" height="5.689" transform="translate(150.99 205.331)" fill="#090d46"/>
        <path id="Trazado_830764" data-name="Trazado 830764" d="M273.97,310.041H245.117l-2.008,12.214h32.867Z" transform="translate(-91.682 -116.924)" fill="#090d46"/>
        <path id="Trazado_830765" data-name="Trazado 830765" d="M273.681,322.255V310.041H252.451v12.214" transform="translate(-95.205 -116.924)" fill="#4639b9"/>
        <path id="Trazado_830766" data-name="Trazado 830766" d="M473.737,89.244c-4.888,8.968-6.307,15.586-10.157,25.045-.833,2.046-3.781,6.4-4.473,8.495-.771,2.338,6.281,5.455,8.958,3.222,5.5-4.583,7.746-10.587,11.9-16.413s7.5-12.56,7.633-19.715a6.919,6.919,0,0,0-.564-3.31c-3.145-6.128-9.82-3.705-13.3,2.676" transform="translate(-173.118 -31.311)" fill="#d3d0c9"/>
        <path id="Trazado_830767" data-name="Trazado 830767" d="M437.769,122.937c1.79,3.417-1.339,5.035-4,2.734a7.17,7.17,0,0,1-2.744-6.508c1.494,2.093,3.611-3.129,6.748,3.775" transform="translate(-162.528 -44.939)" fill="#e89e85"/>
        <path id="Trazado_830768" data-name="Trazado 830768" d="M437.427,133.689c-.936-1.269-4.564-5.686-4.529-7.263a12.545,12.545,0,0,0,3.432-1.716c1.435-1.1,3.065-2.057,4.043-3.582,1.892,3.173,2.654,4.36,5.092,5.736,2.462,1.389,4.5.991,7.19,1.843,6.6,2.087,10.9,11.88,2.563,13.279-5.215.875-13.9-3.025-17.791-8.3" transform="translate(-163.256 -45.681)" fill="#d3d0c9"/>
        <path id="Trazado_830769" data-name="Trazado 830769" d="M472.422,145.268a14.414,14.414,0,0,0-.192-2.632,6.985,6.985,0,0,0-1.134-2.249c-.125-.194.135-.481.332-.333,1.671,1.259,1.679,3.309,1.495,5.214a.251.251,0,0,1-.5,0" transform="translate(-177.649 -52.802)" fill="#e2dfd8"/>
        <path id="Trazado_830770" data-name="Trazado 830770" d="M469.295,145.653c.537-1.479.019-2.63-.547-3.988a.291.291,0,0,1,.424-.326c1.366,1.038,1.3,3.111.595,4.512-.131.258-.572.078-.472-.2" transform="translate(-176.77 -53.286)" fill="#e2dfd8"/>
        <rect id="Rectángulo_383781" data-name="Rectángulo 383781" width="7.025" height="1.427" transform="translate(266.564 59.736) rotate(-21.198)" fill="#81addf"/>
        <path id="Trazado_830771" data-name="Trazado 830771" d="M435.019,94.474l9.213,23.759a2.637,2.637,0,1,1-4.916,1.907L430.1,96.381Z" transform="translate(-162.202 -35.628)" fill="#b6dbff"/>
        <path id="Trazado_830772" data-name="Trazado 830772" d="M440.42,108.4l5.849,15.083a2.637,2.637,0,0,1-4.917,1.907L435.5,110.311Z" transform="translate(-164.238 -40.882)" fill="#c43ad6"/>
        <path id="Trazado_830773" data-name="Trazado 830773" d="M440.429,113.37a.8.8,0,1,1-1.03-.454.8.8,0,0,1,1.03.454" transform="translate(-165.516 -42.563)" fill="#fff"/>
        <path id="Trazado_830774" data-name="Trazado 830774" d="M444.26,119.854a1.047,1.047,0,1,1-1.355-.6,1.047,1.047,0,0,1,1.355.6" transform="translate(-166.778 -44.947)" fill="#fff"/>
        <path id="Trazado_830775" data-name="Trazado 830775" d="M448.238,130.927a.922.922,0,1,1-1.192-.526.922.922,0,0,1,1.192.526" transform="translate(-168.369 -49.154)" fill="#fff"/>
        <path id="Trazado_830776" data-name="Trazado 830776" d="M445.3,126.607a.6.6,0,1,1-.776-.343.6.6,0,0,1,.776.343" transform="translate(-167.498 -47.602)" fill="#fff"/>
        <path id="Trazado_830777" data-name="Trazado 830777" d="M442.861,116.18a.323.323,0,1,1-.185.418.322.322,0,0,1,.185-.418" transform="translate(-166.935 -43.806)" fill="#fff"/>
        <path id="Trazado_830778" data-name="Trazado 830778" d="M448.226,127.636a.323.323,0,1,1-.184.418.323.323,0,0,1,.184-.418" transform="translate(-168.959 -48.126)" fill="#fff"/>
        <path id="Trazado_830779" data-name="Trazado 830779" d="M431.052,115.155a10.381,10.381,0,0,1,1.094-3.446c.769-1.525,5.514-3.651,6.133-3.076.049.763-2.787,2.155-3.418,3.393.975.417,5.253-2.63,5.787-1.9.429.9-5.693,3.8-4.257,3.8,2-.5,5.225-2.424,5.179-1.3-1.464,1.187-4.8,2.782-4.838,3.413.8-.265,4.325-1.5,3.676-.649a18.845,18.845,0,0,1-3.676,2.175c-3.978,1.418-5.1-.181-5.679-2.411" transform="translate(-162.56 -40.932)" fill="#e89e85"/>
        <path id="Trazado_830780" data-name="Trazado 830780" d="M488.725,25.947c-1.3,1.284-4.09,3.136-1.639,7.294.753,1.278,1.48,2.63,1.213,4.09-.4,2.172-.161,1.7-1.068,2.878-1.039,1.345-2.464,3.38-.528,5.093.561.5,3.547,2.528,1.925,4.594a6.814,6.814,0,0,0-.6,7.085c.8,1.555.875,2.7,1.606,4.291.936,2.036.509,4.49,1.4,6.543a2.307,2.307,0,0,0,.906,1.139,2.4,2.4,0,0,0,.894.251c2.414.287,4.962-.762,7.237.1,1.824.689,3,2.438,4.56,3.609,2.25,1.689,5.218,2.1,8.029,2.013a14.408,14.408,0,0,0,8.722-2.777c2.4-1.966,2.754-4.4,3.858-7.3,1.782-4.683-3.453-6.8-2.959-10.2.361-2.482,2.553-4.483,1.869-6.11a11.283,11.283,0,0,0-1.8-3.107c-1.931-2.286-1.053-4.685-.33-6.126a4.688,4.688,0,0,0,.122-4.611,12.425,12.425,0,0,0-1.861-1.805,6.228,6.228,0,0,1-1.33-4.472c.891-7.225-4.079-7.1-5.37-7.721-.966-.467-.313-3.889-7.76-3.511-2.993.152-5.118,3.05-9.7,2.495-6.768-.82-5.406,4.29-7.4,6.27" transform="translate(-183.185 -6.469)" fill="#fb2d5d"/>
        <path id="Trazado_830781" data-name="Trazado 830781" d="M504.063,373.223c.263,1.84,2.016,6.076,1.373,6.744-.733.761-16.813,1.573-23.273.606-3.074-.37-2.506-2.266.733-3.454,1.768-.648,4.412-.937,8.215-2.016,2.324.947,12.952-1.88,12.952-1.88" transform="translate(-181.071 -140.751)" fill="#090d46"/>
        <path id="Trazado_830782" data-name="Trazado 830782" d="M503.4,362.382s1.485,4.913,0,5.99-5.642,1.869-5.642,1.869a6.151,6.151,0,0,0,2.277,2.574c1.683,1.089,11.67-.748,11.67-.748a42.912,42.912,0,0,1-1.772-9.086c-.2-4.122-6.731-2.718-6.533-.6" transform="translate(-187.716 -135.889)" fill="#e89e85"/>
        <path id="Trazado_830783" data-name="Trazado 830783" d="M536.633,385.714c.513,2.961-.871,4.947-2.48,5.608-1.861.764-5.471-.287-7.108-2.015-2.615-2.761-1.841-7.361-1.659-9.735.184-2.415,8.783-1.571,9.633.834,1.211,3.426,1.287,3.416,1.615,5.308" transform="translate(-198.042 -142.601)" fill="#090d46"/>
        <path id="Trazado_830784" data-name="Trazado 830784" d="M526.284,362.608s-.632,7.987-.755,9.557.982,5.134,5.454,4.8c4.254-.323,4.994-2.189,3.747-5.344s-2.375-4.807-2.391-10-5.64-3.266-6.054.99" transform="translate(-198.186 -135.195)" fill="#e89e85"/>
        <path id="Trazado_830785" data-name="Trazado 830785" d="M519.07,255.033c.085,9.151-1.376,32.6-1.241,46.44-3.846,2.249-8.87.268-8.87.268-1.212-16.489-2.8-29.843-4.627-46.776-1.236-11.446-2.777-38.909-4.454-46.919-.81.2.4,27.735,1.337,41.871,1.185,17.959,3.4,25.959,4.093,50.8-4.606,1.367-7.237.756-8.432-.432-1.925-13.547-7.371-36.547-9.2-50.07-2.8-20.653-7.027-41.2-3.286-61.7,6.236,2.349,30.2.357,36.762.283,1.2,5.942.741,12.8,1.2,18.89.616,8.145-3.276,31.154-3.276,47.346" transform="translate(-182.116 -71.093)" fill="#4639b9"/>
        <path id="Trazado_830786" data-name="Trazado 830786" d="M503.328,75.97l21.9,11.88s-9.014,24.938-8.4,35.473a110.8,110.8,0,0,1,0,16.367l-33-3.63s-.727-17.214-.4-26.826,5.3-25.781,5.3-25.781Z" transform="translate(-182.283 -28.65)" fill="#6861e2"/>
        <path id="Trazado_830787" data-name="Trazado 830787" d="M517.957,64.5c.485,1.537.684,3.728,1.06,4.524,1.317,2.789-10.677,8.8-13.64,7.939-1.44-.419-3.547-4.1-3.49-5.6,2.429.267,2.53-1.284,3.748-3.4a12.7,12.7,0,0,0,1.241-4.03q.639-3.374,1.277-6.748a1.017,1.017,0,0,1,1.134-1.046c1.889-.176,8.755-3.3,8.669-1.282-.287,6.755-.619,7.683,0,9.645" transform="translate(-189.273 -20.431)" fill="#d18774"/>
        <path id="Trazado_830788" data-name="Trazado 830788" d="M516.693,83.321s-4.858,6.6-12.243,4.03-2.823-8.887-2.823-8.887l3.421-2.682s-2.188,3.416-.293,9.326c0,0,9.994-7.018,11.938-5.414s0,3.627,0,3.627" transform="translate(-188.65 -28.579)" fill="#6861e2"/>
        <path id="Trazado_830789" data-name="Trazado 830789" d="M531.987,83.453c.958.875,0,24.481-2.651,28.386-2.582,3.8-3.109,20.777-1.65,25.136,9.775,29.2,9.775,42.709,9.775,56.161-8.376,2.779-22.686,4.357-31.4,2.969-.161-7.654-1.474-13.078-2.691-20.637-.766-4.759-3.96-55.008-.571-70.92.2-.959,6.759-15.447,9.912-21.5,2.057-3.95,2.827-7.886,6.771-6.053,3.742,1.74,9.466,3.683,12.507,6.461" transform="translate(-189.04 -28.861)" fill="#e2dfd8"/>
        <path id="Trazado_830790" data-name="Trazado 830790" d="M492.883,78.686c-3.615.515-8.537,3.008-9.352,4.273-1.136,1.765-.607,5.231-1.222,8.021-2.148,9.753-6.348,9.3-6.348,16.023,0,8.18,3.451,12.629,3.9,26.936.386,12.324-9.106,31.358-4.505,61.049a66.28,66.28,0,0,0,16.271,1.6,135.8,135.8,0,0,1,1.494-21.738c1.5-10.925.954-28.452,1.119-32.5.584-14.283.625-19.977-1.826-34.55-1.657-9.853.348-19.951.47-29.119" transform="translate(-178.792 -29.674)" fill="#e2dfd8"/>
        <path id="Trazado_830791" data-name="Trazado 830791" d="M500.929,145.9c.084,9.032.2,18.07.491,27.1.3,9,1.4,18.071,1.409,27.058,0,.629-1.021.812-1.134.153-1.476-8.67-1.289-17.907-1.566-26.68-.29-9.209-.473-18.424.009-27.628a.4.4,0,0,1,.79,0" transform="translate(-188.502 -54.88)" fill="#d3d0c9"/>
        <path id="Trazado_830792" data-name="Trazado 830792" d="M529.4,207.126c-1.938.039-3.877.086-5.815.118a17.721,17.721,0,0,1-5.1-.2.429.429,0,0,1,0-.82,17.857,17.857,0,0,1,5.1-.2c1.938.033,3.877.078,5.815.118a.494.494,0,0,1,0,.987" transform="translate(-195.42 -77.665)" fill="#d3d0c9"/>
        <path id="Trazado_830793" data-name="Trazado 830793" d="M486.113,205.032a22.673,22.673,0,0,1-5.913.066.6.6,0,0,1,0-1.142,22.672,22.672,0,0,1,5.913.066.528.528,0,0,1,0,1.01" transform="translate(-180.935 -76.855)" fill="#d3d0c9"/>
        <path id="Trazado_830794" data-name="Trazado 830794" d="M523.606,117.866a15.933,15.933,0,0,1-3.676-.647c-.934-.292-2.2-.586-2.729-1.459a.437.437,0,0,1,.374-.651c.94-.061,1.808.608,2.687.906a16.915,16.915,0,0,0,3.344.773c.67.083.706,1.127,0,1.078" transform="translate(-195.025 -43.409)" fill="#d3d0c9"/>
        <path id="Trazado_830795" data-name="Trazado 830795" d="M509.944,87.987c-1.183-2.825-.082-4-1.954-6.426l-4.253,3.892a30.436,30.436,0,0,0-1.156-4.163c-1.574,1.4-2.166,2.844-3.536,4.444-.74-2.607-1.113-4.785,0-7.767,1.147-3.073,2.98-3.966,5.29-4.083a18.34,18.34,0,0,0,.918,8.271c2.417-1.472,9.056-7.3,11.367-11.407,0,0,3.012,2.713,3.012,4.649,0,2.335-7.654,10.337-9.688,12.59" transform="translate(-187.937 -26.681)" fill="#4639b9"/>
        <path id="Trazado_830796" data-name="Trazado 830796" d="M477.74,87.153a6.859,6.859,0,1,1-8.346-4.943,6.859,6.859,0,0,1,8.346,4.943" transform="translate(-175.074 -30.922)" fill="#090d46"/>
        <rect id="Rectángulo_383782" data-name="Rectángulo 383782" width="2.055" height="12.457" transform="translate(296.493 63.912) rotate(-14.361)" fill="#090d46"/>
        <path id="Trazado_830797" data-name="Trazado 830797" d="M477.268,88.263a5.558,5.558,0,1,1-6.764-4.006,5.559,5.559,0,0,1,6.764,4.006" transform="translate(-175.862 -31.71)" fill="#b6dbff"/>
        <path id="Trazado_830798" data-name="Trazado 830798" d="M477.628,111.274l1.7,6.653a1.455,1.455,0,1,0,2.819-.722l-1.7-6.653Z" transform="translate(-180.125 -41.692)" fill="#fad349"/>
        <path id="Trazado_830799" data-name="Trazado 830799" d="M469.331,94.069l3.679,2.179a.538.538,0,0,0,.548-.925l-3.679-2.179a.538.538,0,0,0-.548.925" transform="translate(-176.899 -35.097)" fill="#fff"/>
        <path id="Trazado_830800" data-name="Trazado 830800" d="M470.559,89.3l5.724,3.39a.538.538,0,0,0,.548-.925l-5.724-3.39a.538.538,0,0,0-.548.925" transform="translate(-177.362 -33.298)" fill="#fff"/>
        <path id="Trazado_830801" data-name="Trazado 830801" d="M474.919,87.626l1.963,1.162a.538.538,0,0,0,.547-.925L475.467,86.7a.538.538,0,0,0-.548.925" transform="translate(-179.006 -32.667)" fill="#fff"/>
        <path id="Trazado_830802" data-name="Trazado 830802" d="M476.851,112.422c-.312-.15-5.309-.158-5.225-.883.068-.585,4.649-.5,3.817-.584-2.982-.319-5.59-.767-4.938-1.185.969-.644,3.519-.234,5.393-.5a9.272,9.272,0,0,0-3.31-.4c-1.008-.051-3.73-.108-2.822-.9a21.02,21.02,0,0,1,5.777-.47c-.926-1-5.936-.843-4.378-1.979,1.752-.022,3.5-.057,5.256-.068a4.46,4.46,0,0,1,2.637,1.033,21.61,21.61,0,0,1,3.05,4.848c.927,1.761,5.1,3.879,8.176,6.446,2.845,4.309.846,8.417-2.786,5.569-1.472-1.155-3.864-5.125-5.908-6.725-1.084-.848-2.221-.376-2.919-1.12-.581-.617-1.6-2.981-1.819-3.088" transform="translate(-177.091 -39.771)" fill="#e89e85"/>
        <path id="Trazado_830803" data-name="Trazado 830803" d="M528.314,111.367c-2.8,8.49-2.982,10.779-7.869,18.3-1.585,2.44-3.415,3.9-7.262,2.657-3.119-1-17.89-12.6-23.766-17.366a59.523,59.523,0,0,0,5.56-9.154,169.689,169.689,0,0,0,19.034,12.144c1.03-6.332,4-34.689,11.8-32.477,3.611,1.023,5.542,4.883,5.62,8.7a54.992,54.992,0,0,1-3.117,17.2" transform="translate(-184.571 -32.187)" fill="#efebe4"/>
        <path id="Trazado_830804" data-name="Trazado 830804" d="M494.581,132.509a1.172,1.172,0,1,0,1.172-1.172,1.172,1.172,0,0,0-1.172,1.172" transform="translate(-186.518 -49.53)" fill="#d3d0c9"/>
        <path id="Trazado_830805" data-name="Trazado 830805" d="M501.461,137.278a1.172,1.172,0,1,0,1.172-1.172,1.172,1.172,0,0,0-1.172,1.172" transform="translate(-189.113 -51.329)" fill="#d3d0c9"/>
        <path id="Trazado_830806" data-name="Trazado 830806" d="M530,138.924c1.641,2.254,3.351,5.711,2.723,8.575-.131.6-.915.481-1.1,0-.476-1.249-.564-2.632-.949-3.917a18.927,18.927,0,0,0-1.79-4.006c-.423-.736.635-1.31,1.115-.652" transform="translate(-199.417 -52.283)" fill="#e2dfd8"/>
        <path id="Trazado_830807" data-name="Trazado 830807" d="M527.29,140.453c.982,3.058,1.209,6.857-.587,9.658a.465.465,0,0,1-.846-.357c.756-3.143,1.42-5.835.57-9.063a.448.448,0,0,1,.864-.238" transform="translate(-198.307 -52.85)" fill="#e2dfd8"/>
        <path id="Trazado_830808" data-name="Trazado 830808" d="M515.261,45.584c-.676,4.606-4.257,7.707-6.959,9.438S504.02,58,501.379,56.173a16.793,16.793,0,0,1-3.8-4.12,16.382,16.382,0,0,1-2.163-6.31c-.46-3.227.536-5.5-.221-9.506-.6-3.2-.738-5.735.862-8.575,2.628-4.664,9.977-4.393,14.431-3.65a7.943,7.943,0,0,1,5.009,3.365c3.553,5.147.975,9.94-.239,18.208" transform="translate(-186.592 -8.896)" fill="#e89e85"/>
        <path id="Trazado_830809" data-name="Trazado 830809" d="M513.006,58.67a3.869,3.869,0,0,0,1.719.094.873.873,0,0,0,0-1.671,3.859,3.859,0,0,0-1.719.093.775.775,0,0,0,0,1.483" transform="translate(-193.26 -21.509)" fill="#e8866b"/>
        <path id="Trazado_830810" data-name="Trazado 830810" d="M497.922,59.167l.818.036a.916.916,0,1,0-.244-1.8l-.792.159a.811.811,0,0,0-.585.9.822.822,0,0,0,.8.709" transform="translate(-187.472 -21.639)" fill="#e8866b"/>
        <path id="Trazado_830811" data-name="Trazado 830811" d="M510.3,28.622c-.619,4.033,3.3,4.429,2.452,6.979-1.054,3.167.09,4.6,1.958,6.611.465.5,1.271.326,1.954.363.9.047,1.8-.432,2.68-.216.7-4.189,1.3-8.48.582-12.667-.349-2.037-5.136-6.64-5.36-6.7s-16.668-1.813-19.1.849a12.5,12.5,0,0,0-2.826,7.66c-.08,1.172.207,2.629,1.643,2.395,1.254-.2,2.627-1.375,3.813-.893,3.3,1.339,2.875-3.511,7.1-2.226,2.48.755,4.632-1.724,5.1-2.152" transform="translate(-185.78 -8.435)" fill="#fb2d5d"/>
        <path id="Trazado_830812" data-name="Trazado 830812" d="M529.21,48.622c1.385.9,1.385,2.71.98,4.208a4.093,4.093,0,0,1-3.5,2.89c-2.062.086-1.8-2.348-1.666-3.769.357-3.886,2.592-4.366,4.189-3.328" transform="translate(-197.965 -18.158)" fill="#e89e85"/>
        <path id="Trazado_830813" data-name="Trazado 830813" d="M511.317,51.132c0,.909.43,1.646.962,1.646s.962-.737.962-1.646-.43-1.646-.962-1.646-.962.737-.962,1.646" transform="translate(-192.83 -18.662)" fill="#090d46"/>
        <path id="Trazado_830814" data-name="Trazado 830814" d="M498.739,51.132c0,.909.43,1.646.962,1.646s.962-.737.962-1.646-.43-1.646-.962-1.646-.962.737-.962,1.646" transform="translate(-188.086 -18.662)" fill="#090d46"/>
        <path id="Trazado_830815" data-name="Trazado 830815" d="M527.768,50.306a1.5,1.5,0,0,1,1.933-.163,2.367,2.367,0,0,1,.919,2.2c-.065.931-.717,3.162-1.99,2.854a.254.254,0,0,1-.151-.371c.225-.3.553-.457.775-.762a3.3,3.3,0,0,0,.47-1.092c.266-.99-.087-3.172-1.6-2.2-.286.183-.584-.225-.356-.462" transform="translate(-199.003 -18.806)" fill="#d18774"/>
        <path id="Trazado_830816" data-name="Trazado 830816" d="M526.978,53.19c.72-.256,1.421.065,1.423.89a1.727,1.727,0,0,1-1.272,1.7.243.243,0,0,1-.187-.442,2.048,2.048,0,0,0,.723-1.126c.085-.432-.121-.519-.515-.4s-.562-.488-.173-.626" transform="translate(-198.652 -20.027)" fill="#d18774"/>
        <path id="Trazado_830817" data-name="Trazado 830817" d="M504.666,52.841a14.252,14.252,0,0,1-1.4,5.687c-.121.282.012.689.382.666a12.912,12.912,0,0,1,1.74.093.3.3,0,0,0,.152-.562,4.308,4.308,0,0,0-1.892-.417l.382.666c.829-1.936,1.781-4.082,1.274-6.221a.327.327,0,0,0-.64.087" transform="translate(-189.778 -19.807)" fill="#d18774"/>
        <path id="Trazado_830818" data-name="Trazado 830818" d="M503.178,66.173c1.985.969,4.322.914,5.851-.86a.347.347,0,0,0-.419-.543,14.529,14.529,0,0,1-2.115,1.19,5.267,5.267,0,0,1-3.088-.33c-.316-.094-.536.392-.229.543" transform="translate(-189.705 -24.411)" fill="#d18774"/>
        <path id="Trazado_830819" data-name="Trazado 830819" d="M510.237,44.447c.5-.148.9-.5,1.429-.62a3.31,3.31,0,0,1,2.48.6.254.254,0,0,0,.306-.4,2.773,2.773,0,0,0-2.623-.9,3.072,3.072,0,0,0-1.9.916c-.141.2.092.465.308.4" transform="translate(-192.29 -16.251)" fill="#fb2d5d"/>
        <path id="Trazado_830820" data-name="Trazado 830820" d="M501.183,44.047a3.065,3.065,0,0,0-1.9-.916,2.772,2.772,0,0,0-2.623.9.255.255,0,0,0,.307.4,3.319,3.319,0,0,1,2.481-.606c.523.123.931.473,1.428.62.214.064.449-.2.308-.4" transform="translate(-187.279 -16.251)" fill="#fb2d5d"/>
        <path id="Trazado_830821" data-name="Trazado 830821" d="M524.317,29.908a3.139,3.139,0,0,0,1.276,4.153,3.482,3.482,0,0,1,1.766,3.386c-.024,1.084-.734,2.561.49,3.18a.25.25,0,0,0,.339-.34c-.991-1.77.411-4.029-.974-5.793-1.038-1.322-3.707-1.849-2.41-4.3a.283.283,0,0,0-.488-.285" transform="translate(-197.592 -11.227)" fill="#fc4777"/>
        <path id="Trazado_830822" data-name="Trazado 830822" d="M527.992,27.86c1.108.495,2.464.934,3.109,2.077.817,1.444.255,3.8.751,5.465.668,2.24,2.956,4.086,1.833,6.449-.161.339.263.736.551.425,2.128-2.3-.965-4.822-1.638-7.079-.6-2.027.338-4.417-1.091-6.153a6.634,6.634,0,0,0-3.267-1.771c-.339-.116-.582.438-.247.587" transform="translate(-199.058 -10.279)" fill="#fc4777"/>
        <path id="Trazado_830823" data-name="Trazado 830823" d="M493.611,31.655c2.909,1.562,4.373-.219,6.6-1.678,1.682-1.1,3.108.235,4.869-.073,1.708-.3,2.963-2.595,4.9-1.573a.258.258,0,0,0,.26-.445,2.271,2.271,0,0,0-2.2-.317c-1.928.571-2.075,2.046-4.674,1.638-1.172-.184-1.847-.667-2.954-.121-2.4,1.185-3.118,3.742-6.588,2.2-.246-.109-.464.237-.216.37" transform="translate(-186.111 -10.341)" fill="#fc4777"/>
        <path id="Trazado_830824" data-name="Trazado 830824" d="M495.92,24.49a5.127,5.127,0,0,0,3.374,1c.741-.157.834-.422,1.447-.814,1.55-.991,2.349-1.6,4.168-1.03,3.289,1.022,3.333-3.352,7-1.682.155.07.361-.135.2-.26-2.767-2.14-3.492.7-5.779,1.347-1.32.371-2.194-.7-3.534-.493a3.08,3.08,0,0,0-1.185.517c-1.177.764-.984,1.137-2.525,1.492a3.259,3.259,0,0,1-2.941-.462.224.224,0,0,0-.226.386" transform="translate(-186.982 -7.889)" fill="#fc4777"/>
        <path id="Trazado_830825" data-name="Trazado 830825" d="M532.916,61.508c-.608.764-1.126,1.62-.415,2.487.594.725,1.5.856,1.735,1.935.226,1.059-.348,2.018-.459,3.041-.026.237.3.268.408.111a4.386,4.386,0,0,0,.606-3.514,2.589,2.589,0,0,0-.676-1.154c-.759-.735-1.855-1.16-.785-2.587.177-.236-.227-.552-.413-.318" transform="translate(-200.689 -23.165)" fill="#fc4777"/>
        <path id="Trazado_830826" data-name="Trazado 830826" d="M538.816,55.79c-2.1,1.98-1.593,3.492-.257,5.556.951,1.467.539,2.875.1,4.465a4.688,4.688,0,0,0-.336,1.791,4.065,4.065,0,0,0,1.825,2.648.316.316,0,0,0,.447-.447c-.646-.741-1.479-1.372-1.585-2.474a15.051,15.051,0,0,1,.714-2.178,4.015,4.015,0,0,0,.3-2.433c-.657-2.674-4.068-3.337-.879-6.6a.234.234,0,0,0-.33-.33" transform="translate(-202.665 -21.015)" fill="#fc4777"/>
        <path id="Trazado_830827" data-name="Trazado 830827" d="M491.752,54.736a9.979,9.979,0,0,1-.719-1.144c-.833-1.754-.436-2.616.354-4.145a8.071,8.071,0,0,0,1.2-2.8c.2-1.79-.876-3.561-1.7-5.06-.1-.188-.437-.059-.356.15.82,2.119,1.834,3.9,1.036,6.307-.344,1.037-1.368,1.778-1.612,2.874a4.586,4.586,0,0,0,1.5,4.038c.148.137.41-.042.29-.224" transform="translate(-184.749 -15.65)" fill="#fc4777"/>
        <path id="Trazado_830828" data-name="Trazado 830828" d="M493.5,69.608c.087,1.811-1.959,4.8.182,6.144.231.145.569-.158.393-.393-1.352-1.8.022-3.767-.3-5.788-.025-.157-.285-.12-.277.037" transform="translate(-185.81 -26.199)" fill="#fc4777"/>
        <path id="Trazado_830829" data-name="Trazado 830829" d="M497.206,72.608a2.507,2.507,0,0,0,.508,2.886c.154.107.325-.069.293-.225-.08-.394-.272-.754-.346-1.152a3.142,3.142,0,0,1,.061-1.366.268.268,0,0,0-.516-.143" transform="translate(-187.423 -27.313)" fill="#fc4777"/>
      </g>
    </g>
    <rect id="Rectángulo_383784" data-name="Rectángulo 383784" width="401" height="266" transform="translate(180 5190)" fill="none"/>
  </g>
</svg>
