<svg id="Grupo_1081261" data-name="Grupo 1081261" xmlns="http://www.w3.org/2000/svg" xmlns:xlink="http://www.w3.org/1999/xlink" width="244.547" height="197.117" viewBox="0 0 244.547 197.117">
  <defs>
    <clipPath id="clip-path">
      <rect id="Rectángulo_383817" data-name="Rectángulo 383817" width="244.547" height="197.117" fill="none"/>
    </clipPath>
    <clipPath id="clip-path-4">
      <rect id="Rectángulo_383805" data-name="Rectángulo 383805" width="4.445" height="5.624" fill="none"/>
    </clipPath>
    <clipPath id="clip-path-5">
      <rect id="Rectángulo_383806" data-name="Rectángulo 383806" width="5.237" height="2.125" fill="none"/>
    </clipPath>
    <clipPath id="clip-path-6">
      <rect id="Rectángulo_383807" data-name="Rectángulo 383807" width="2.04" height="1.039" fill="none"/>
    </clipPath>
    <clipPath id="clip-path-7">
      <rect id="Rectángulo_383808" data-name="Rectángulo 383808" width="0.74" height="1.71" fill="none"/>
    </clipPath>
    <clipPath id="clip-path-8">
      <rect id="Rectángulo_383809" data-name="Rectángulo 383809" width="1.445" height="1.693" fill="none"/>
    </clipPath>
    <clipPath id="clip-path-9">
      <rect id="Rectángulo_383810" data-name="Rectángulo 383810" width="1.339" height="1.203" fill="none"/>
    </clipPath>
    <clipPath id="clip-path-10">
      <rect id="Rectángulo_383811" data-name="Rectángulo 383811" width="11.972" height="6.777" fill="none"/>
    </clipPath>
    <clipPath id="clip-path-12">
      <rect id="Rectángulo_383813" data-name="Rectángulo 383813" width="13.936" height="14.663" fill="none"/>
    </clipPath>
    <clipPath id="clip-path-13">
      <rect id="Rectángulo_383814" data-name="Rectángulo 383814" width="11.816" height="7.463" fill="none"/>
    </clipPath>
  </defs>
  <g id="Grupo_1081260" data-name="Grupo 1081260" clip-path="url(#clip-path)">
    <g id="Grupo_1081224" data-name="Grupo 1081224">
      <g id="Grupo_1081223" data-name="Grupo 1081223" clip-path="url(#clip-path)">
        <path id="Trazado_830989" data-name="Trazado 830989" d="M476.707,230.356a20.421,20.421,0,0,1-6.859-15.115c0-11.8,10.476-21.369,23.4-21.369s23.4,9.567,23.4,21.369-10.476,21.369-23.4,21.369a25.093,25.093,0,0,1-10.675-2.356c-2.059,1.337-4.256,2.5-6.4,3.681a.525.525,0,0,1-.762-.585c.385-2.339.826-4.67,1.3-6.994" transform="translate(-272.097 -112.274)" fill="#dc5174"/>
      </g>
    </g>
    <text id="_36_6" data-name="36,6" transform="translate(202.591 110.231)" fill="#fff" font-size="23" font-family="NewSpirit-SemiBoldCondensed, New Spirit" font-weight="600"><tspan x="0" y="0">36</tspan><tspan y="0" letter-spacing="-0.016em">,</tspan><tspan y="0">6</tspan></text>
    <g id="Grupo_1081259" data-name="Grupo 1081259">
      <g id="Grupo_1081258" data-name="Grupo 1081258" clip-path="url(#clip-path)">
        <path id="Trazado_830990" data-name="Trazado 830990" d="M242.178,457.274H42.095a1.642,1.642,0,0,1-1.642-1.642v-4.761a1.642,1.642,0,0,1,1.642-1.642H242.178a1.641,1.641,0,0,1,1.641,1.642v4.761a1.642,1.642,0,0,1-1.641,1.642" transform="translate(-23.427 -260.156)" fill="#39354d"/>
        <path id="Trazado_830991" data-name="Trazado 830991" d="M131.79,303.075h125.9a1.642,1.642,0,0,0,1.642-1.642V211.074a1.642,1.642,0,0,0-1.642-1.642H131.79a1.642,1.642,0,0,0-1.642,1.642v90.359a1.642,1.642,0,0,0,1.642,1.642" transform="translate(-75.371 -121.286)" fill="#39354d"/>
        <path id="Trazado_830992" data-name="Trazado 830992" d="M146.489,305.106H260.014a1.642,1.642,0,0,0,1.642-1.642V223.91a1.642,1.642,0,0,0-1.642-1.642H146.489a1.642,1.642,0,0,0-1.642,1.642v79.553a1.642,1.642,0,0,0,1.642,1.642" transform="translate(-83.883 -128.719)" fill="#dc5174"/>
        <path id="Trazado_830993" data-name="Trazado 830993" d="M217.81,152.688a33.3,33.3,0,0,0,4.638,2.881,48.055,48.055,0,0,0,11.413,3.918c11.339,2.5,23.689,2.791,34.972-.147a46.414,46.414,0,0,0,14.945-6.7c.227-.159.45-.322.673-.486a35.234,35.234,0,0,1-4.466-8.079c-1.773-4.337-2.939-8.876-4.36-13.331-2.94-9.214-6.924-18.085-16.663-21.654-8.611-3.155-19.345-.79-25.314,6.314-3.685,4.386-5.712,9.957-7.429,15.34-1.422,4.456-2.588,8.994-4.361,13.331a34.963,34.963,0,0,1-4.573,8.222q.263.2.526.389" transform="translate(-125.833 -62.382)" fill="#844742"/>
        <path id="Trazado_830994" data-name="Trazado 830994" d="M211.148,250.119c1.005-2.447,3.133-6.853,2.16-9.51a3.94,3.94,0,0,0-2.069-2.125,7.183,7.183,0,0,0-2.963-.585c-4.541-.053-8.015,2.534-11.09,5.591-5.093,5.064-10.056,11.669-15.9,16.477-.552-.835-1.1-1.6-1.463-2.177-3.19-5.1-7-10.06-8.633-15.883l-.728.228c-1.346.42-2.7.824-4.048,1.23-.467.14-.934.283-1.4.422.318,1.307.446,2.693.68,3.973a86.808,86.808,0,0,0,3.784,13.986q1.253,3.453,2.8,6.791c1.464,3.167,3.082,7.387,6.566,8.79,4.088,1.646,8.408-1.244,11.725-3.345,8.828-5.591,16.591-14.15,20.582-23.861" transform="translate(-95.564 -137.771)" fill="#ffbaa6"/>
        <path id="Trazado_830995" data-name="Trazado 830995" d="M155.214,231.731a11.611,11.611,0,0,0,3.262-.594,5.354,5.354,0,0,0,3.072-1.713,11.232,11.232,0,0,0,1.368-2.892,6.644,6.644,0,0,1,.847-1.2c.21-.228.443-.438.675-.648a5.532,5.532,0,0,0,.641-.617.4.4,0,0,0,.026-.56.9.9,0,0,0-.566-.184,2.942,2.942,0,0,0-.658.044,6.255,6.255,0,0,0-3.537,2.28,7.956,7.956,0,0,1-.462-1.767,18.058,18.058,0,0,0-1.952-5.406,7.044,7.044,0,0,0-1.044-1.734c-.542-.539-1.35-.419-1.283.5.048.665.157,1.324.265,1.977a20.642,20.642,0,0,0,.33,2.227c-1.265-1.851-3.151-4.359-4.031-4.25-.779.1.07,2.317.968,4.254a16.958,16.958,0,0,0-2.466-1.816q-.251-.152-.508-.3c-.629-.353-1.3-.111-1.079.613a6.6,6.6,0,0,0,1.392,2.04c.245.325.494.646.753.962.174.212.353.42.533.626-.218-.085-.442-.159-.669-.226-1.307-.662-3.028-1.3-3.763-1.042-1.724.6,3.412,3,4.136,3.386a1.253,1.253,0,0,1,.192.12,3.365,3.365,0,0,1,.23.7q.034.206.076.411a12.383,12.383,0,0,0,.32,1.95,5.611,5.611,0,0,0,1.061,2.01,2.553,2.553,0,0,0,1.867.847" transform="translate(-85.118 -125.331)" fill="#ffd6d6"/>
        <g id="Grupo_1081227" data-name="Grupo 1081227" transform="translate(70.771 100.043)" opacity="0.4" style="mix-blend-mode: overlay;isolation: isolate">
          <g id="Grupo_1081226" data-name="Grupo 1081226">
            <g id="Grupo_1081225" data-name="Grupo 1081225" clip-path="url(#clip-path-4)">
              <path id="Trazado_830996" data-name="Trazado 830996" d="M168.54,243.136a5.09,5.09,0,0,1,.8-3.942,2.939,2.939,0,0,1,3.051-1.08.156.156,0,0,0,.093-.3,3.1,3.1,0,0,0-2.732.556,4.161,4.161,0,0,0-1.542,2.776,6.911,6.911,0,0,0,.024,2.056c.029.2.333.128.3-.069" transform="translate(-168.148 -237.699)" fill="#320032"/>
            </g>
          </g>
        </g>
        <g id="Grupo_1081230" data-name="Grupo 1081230" transform="translate(67.817 98.465)" opacity="0.4" style="mix-blend-mode: overlay;isolation: isolate">
          <g id="Grupo_1081229" data-name="Grupo 1081229">
            <g id="Grupo_1081228" data-name="Grupo 1081228" clip-path="url(#clip-path-5)">
              <path id="Trazado_830997" data-name="Trazado 830997" d="M166.342,234.188a.156.156,0,0,0-.261-.168c-1.013,1.617-3.051,1.929-4.8,1.654-.2-.031-.207.28-.011.311,1.856.292,4-.09,5.07-1.8" transform="translate(-161.13 -233.949)" fill="#320032"/>
            </g>
          </g>
        </g>
        <g id="Grupo_1081233" data-name="Grupo 1081233" transform="translate(69.284 100.504)" opacity="0.4" style="mix-blend-mode: overlay;isolation: isolate">
          <g id="Grupo_1081232" data-name="Grupo 1081232">
            <g id="Grupo_1081231" data-name="Grupo 1081231" clip-path="url(#clip-path-6)">
              <path id="Trazado_830998" data-name="Trazado 830998" d="M164.76,239.832a2.754,2.754,0,0,0,1.846-.766c.144-.139-.065-.369-.209-.23a2.432,2.432,0,0,1-1.627.685c-.2,0-.211.316-.011.311" transform="translate(-164.615 -238.793)" fill="#320032"/>
            </g>
          </g>
        </g>
        <g id="Grupo_1081236" data-name="Grupo 1081236" transform="translate(70.918 95.962)" opacity="0.4" style="mix-blend-mode: overlay;isolation: isolate">
          <g id="Grupo_1081235" data-name="Grupo 1081235">
            <g id="Grupo_1081234" data-name="Grupo 1081234" clip-path="url(#clip-path-7)">
              <path id="Trazado_830999" data-name="Trazado 830999" d="M169.117,229.71a.157.157,0,0,0,.117-.186l-.426-1.4a.159.159,0,0,0-.186-.117.157.157,0,0,0-.117.186l.426,1.4a.16.16,0,0,0,.186.117" transform="translate(-168.498 -228.003)" fill="#320032"/>
            </g>
          </g>
        </g>
        <g id="Grupo_1081239" data-name="Grupo 1081239" transform="translate(67.803 96.041)" opacity="0.4" style="mix-blend-mode: overlay;isolation: isolate">
          <g id="Grupo_1081238" data-name="Grupo 1081238">
            <g id="Grupo_1081237" data-name="Grupo 1081237" clip-path="url(#clip-path-8)">
              <path id="Trazado_831000" data-name="Trazado 831000" d="M162.5,229.622q-.6-.665-1.135-1.382a.157.157,0,0,0-.22-.011.159.159,0,0,0-.01.22q.536.717,1.135,1.382a.155.155,0,0,0,.23-.209" transform="translate(-161.098 -228.19)" fill="#320032"/>
            </g>
          </g>
        </g>
        <g id="Grupo_1081242" data-name="Grupo 1081242" transform="translate(66.445 98.074)" opacity="0.4" style="mix-blend-mode: overlay;isolation: isolate">
          <g id="Grupo_1081241" data-name="Grupo 1081241">
            <g id="Grupo_1081240" data-name="Grupo 1081240" clip-path="url(#clip-path-9)">
              <path id="Trazado_831001" data-name="Trazado 831001" d="M159.16,234.185a.156.156,0,0,0,.01-.22l-1.028-.9a.161.161,0,0,0-.22-.01.157.157,0,0,0-.01.22l1.028.895a.16.16,0,0,0,.22.011" transform="translate(-157.871 -233.021)" fill="#320032"/>
            </g>
          </g>
        </g>
        <path id="Trazado_831002" data-name="Trazado 831002" d="M166.5,257.178c2.651-.744,5.274-1.577,7.873-2.482a32.38,32.38,0,0,1-3.185-7.272l-.728.228c-1.346.42-2.7.824-4.048,1.23-.467.14-.934.283-1.4.421.318,1.308.446,2.693.68,3.973q.358,1.96.809,3.9" transform="translate(-95.564 -143.288)" fill="#ffd6d6"/>
        <path id="Trazado_831003" data-name="Trazado 831003" d="M240.964,237.42a7.55,7.55,0,0,0-3.155-.629c-4.934-.069-8.544,2.862-11.425,5.727-1.934,1.924-3.809,4.021-5.793,6.241-1.372,1.535-2.79,3.123-4.231,4.647l-.358.379.417.314a36.886,36.886,0,0,1,10.69,13.787l.268.566.466-.42a51.485,51.485,0,0,0,13.265-18.377c.11-.268.233-.559.364-.868,1.088-2.565,2.732-6.442,1.8-8.979a4.4,4.4,0,0,0-2.31-2.388" transform="translate(-125.09 -137.129)" fill="#f0f0f0"/>
        <path id="Trazado_831004" data-name="Trazado 831004" d="M239.09,242.849c3.1-10.794,19.278-13.917,28.775-12.151,6.749,1.255,16.855,4.682,19,12.151a9.47,9.47,0,0,1,.357,2.642,109.124,109.124,0,0,0-9.836,20.759,65.046,65.046,0,0,0-2.869,12.615q-.1.885-.164,1.771a9.766,9.766,0,0,1-.9.624c-5.876,3.6-15,3.64-20.95,0a9.766,9.766,0,0,1-.9-.624q-.061-.886-.164-1.771a65.046,65.046,0,0,0-2.869-12.615,109.1,109.1,0,0,0-9.836-20.759,9.471,9.471,0,0,1,.356-2.642" transform="translate(-138.255 -133.333)" fill="#ffbaa6"/>
        <path id="Trazado_831005" data-name="Trazado 831005" d="M239.09,242.849c3.1-10.794,19.278-13.917,28.775-12.151,6.749,1.255,16.855,4.682,19,12.151a9.47,9.47,0,0,1,.357,2.642,109.124,109.124,0,0,0-9.836,20.759,65.046,65.046,0,0,0-2.869,12.615q-.1.885-.164,1.771a9.766,9.766,0,0,1-.9.624c-5.876,3.6-15,3.64-20.95,0a9.766,9.766,0,0,1-.9-.624q-.061-.886-.164-1.771a65.046,65.046,0,0,0-2.869-12.615,109.1,109.1,0,0,0-9.836-20.759,9.471,9.471,0,0,1,.356-2.642" transform="translate(-138.255 -133.333)" fill="#ffbaa6"/>
        <path id="Trazado_831006" data-name="Trazado 831006" d="M239.09,242.849c3.1-10.794,19.278-13.917,28.775-12.151,6.749,1.255,16.855,4.682,19,12.151a9.47,9.47,0,0,1,.357,2.642,109.124,109.124,0,0,0-9.836,20.759,65.046,65.046,0,0,0-2.869,12.615q-.1.885-.164,1.771a9.766,9.766,0,0,1-.9.624c-5.876,3.6-15,3.64-20.95,0a9.766,9.766,0,0,1-.9-.624q-.061-.886-.164-1.771a65.046,65.046,0,0,0-2.869-12.615,109.1,109.1,0,0,0-9.836-20.759,9.471,9.471,0,0,1,.356-2.642" transform="translate(-138.255 -133.333)" fill="#ffbaa6"/>
        <path id="Trazado_831007" data-name="Trazado 831007" d="M286.8,242.576c-2.386-8.3-14.168-11.341-19.122-12.262-9.868-1.835-25.854,1.477-28.953,12.261a9.67,9.67,0,0,0-.362,2.686.152.152,0,0,0,.021.077,110.122,110.122,0,0,1,9.823,20.729,64.4,64.4,0,0,1,2.862,12.585c.067.571.122,1.164.163,1.763a.155.155,0,0,0,.06.112,10.081,10.081,0,0,0,.915.634,21.873,21.873,0,0,0,21.113,0,10.012,10.012,0,0,0,.914-.634.155.155,0,0,0,.06-.112c.04-.593.1-1.186.163-1.763a64.377,64.377,0,0,1,2.862-12.585,109.063,109.063,0,0,1,9.036-19.328,4.781,4.781,0,0,0,.446-4.164" transform="translate(-138.041 -133.102)" fill="#fff"/>
        <path id="Trazado_831008" data-name="Trazado 831008" d="M238.892,157.908q-.076-.323-.175-.641a7.712,7.712,0,0,0-2.941-4.166c-4.822-3.234-9.881,2.206-8.359,7.145a6.825,6.825,0,0,0,6.544,4.673,5.389,5.389,0,0,0,4.5-2.482,6.243,6.243,0,0,0,.433-4.529" transform="translate(-131.542 -88.099)" fill="#ffbaa6"/>
        <g id="Grupo_1081245" data-name="Grupo 1081245" transform="translate(95.603 70.046)" opacity="0.4" style="mix-blend-mode: overlay;isolation: isolate">
          <g id="Grupo_1081244" data-name="Grupo 1081244">
            <g id="Grupo_1081243" data-name="Grupo 1081243" clip-path="url(#clip-path-10)">
              <path id="Trazado_831009" data-name="Trazado 831009" d="M235.633,168.206a9.707,9.707,0,0,1-8.484-1.429,6.22,6.22,0,0,0,.272,1.751,6.824,6.824,0,0,0,6.544,4.673,5.389,5.389,0,0,0,4.5-2.482,6.115,6.115,0,0,0,.484-4.292,12.179,12.179,0,0,1-3.314,1.779" transform="translate(-227.149 -166.427)" fill="#320032"/>
            </g>
          </g>
        </g>
        <path id="Trazado_831010" data-name="Trazado 831010" d="M337.451,157.908q.076-.323.175-.641a7.713,7.713,0,0,1,2.941-4.166c4.823-3.234,9.881,2.206,8.359,7.145a6.825,6.825,0,0,1-6.544,4.673,5.389,5.389,0,0,1-4.5-2.482,6.241,6.241,0,0,1-.433-4.529" transform="translate(-195.293 -88.099)" fill="#ffbaa6"/>
        <g id="Grupo_1081248" data-name="Grupo 1081248" transform="translate(141.933 70.046)" opacity="0.4" style="mix-blend-mode: overlay;isolation: isolate">
          <g id="Grupo_1081247" data-name="Grupo 1081247">
            <g id="Grupo_1081246" data-name="Grupo 1081246" clip-path="url(#clip-path-10)">
              <path id="Trazado_831011" data-name="Trazado 831011" d="M340.715,168.206a9.707,9.707,0,0,0,8.484-1.429,6.222,6.222,0,0,1-.272,1.751,6.824,6.824,0,0,1-6.544,4.673,5.389,5.389,0,0,1-4.5-2.482,6.118,6.118,0,0,1-.485-4.292,12.187,12.187,0,0,0,3.315,1.779" transform="translate(-337.227 -166.427)" fill="#320032"/>
            </g>
          </g>
        </g>
        <path id="Trazado_831012" data-name="Trazado 831012" d="M295.326,204.182c-3.782,1.513-8.1,1.326-12.233.183a114.816,114.816,0,0,0-.74,14.139c.023,2.75.329,5.733,1.914,7.7a6.185,6.185,0,0,0,6.642,1.8,7.119,7.119,0,0,0,4.721-3.976,12.753,12.753,0,0,0,.712-4.993q-.006-1.056-.042-2.112c-.143-4.252-.579-8.5-.973-12.743" transform="translate(-163.513 -118.245)" fill="#ffbaa6"/>
        <path id="Trazado_831013" data-name="Trazado 831013" d="M296.241,229.637c-.032-.929-.08-1.91-.146-3l-.012-.2-.19.06a20.4,20.4,0,0,1-13.632-.271l-.208-.088-.007.226c-.053,1.636-.074,3.269-.061,4.855.021,2.53.262,5.7,1.948,7.8a5.88,5.88,0,0,0,4.718,2.139,7.727,7.727,0,0,0,2.088-.29,7.262,7.262,0,0,0,4.822-4.065,12.932,12.932,0,0,0,.724-5.054c0-.681-.018-1.393-.042-2.116" transform="translate(-163.299 -130.963)" fill="#fff"/>
        <g id="Grupo_1081251" data-name="Grupo 1081251" transform="translate(118.884 85.937)" opacity="0.4" style="mix-blend-mode: overlay;isolation: isolate">
          <g id="Grupo_1081250" data-name="Grupo 1081250">
            <g id="Grupo_1081249" data-name="Grupo 1081249" clip-path="url(#clip-path-12)">
              <path id="Trazado_831014" data-name="Trazado 831014" d="M295.392,204.182c-3.781,1.513-8.1,1.326-12.232.184q-.564,4.888-.7,9.823c3.37,4.41,8.749,5.366,13.936,4.2q-.01-.732-.034-1.464c-.143-4.252-.58-8.5-.973-12.743" transform="translate(-282.463 -204.182)" fill="#320032"/>
            </g>
          </g>
        </g>
        <path id="Trazado_831015" data-name="Trazado 831015" d="M246.565,132.073q-.013.514-.013,1.027c-.008,4.467.645,9.074,3.009,12.917,3.666,5.96,11.045,9.173,18.234,9.4,5.229.162,10.673-1.174,14.584-4.521,5.959-5.1,7.189-13.6,6.764-21.271-.522-9.4-5.831-18.915-16.333-20.5-9.537-1.437-19.832,2.675-23.848,11.394a29.217,29.217,0,0,0-2.4,11.557" transform="translate(-142.783 -63.032)" fill="#ffbaa6"/>
        <g id="Grupo_1081254" data-name="Grupo 1081254" transform="translate(107.878 74.289)" opacity="0.4" style="mix-blend-mode: overlay;isolation: isolate">
          <g id="Grupo_1081253" data-name="Grupo 1081253">
            <g id="Grupo_1081252" data-name="Grupo 1081252" clip-path="url(#clip-path-13)">
              <path id="Trazado_831016" data-name="Trazado 831016" d="M262.223,176.507c-3.263,0-5.908,1.67-5.908,3.732s2.645,3.732,5.908,3.732,5.908-1.671,5.908-3.732-2.645-3.732-5.908-3.732" transform="translate(-256.315 -176.507)" fill="#320032"/>
            </g>
          </g>
        </g>
        <g id="Grupo_1081257" data-name="Grupo 1081257" transform="translate(130.268 74.289)" opacity="0.4" style="mix-blend-mode: overlay;isolation: isolate">
          <g id="Grupo_1081256" data-name="Grupo 1081256">
            <g id="Grupo_1081255" data-name="Grupo 1081255" clip-path="url(#clip-path-13)">
              <path id="Trazado_831017" data-name="Trazado 831017" d="M315.418,176.507c-3.263,0-5.908,1.67-5.908,3.732s2.645,3.732,5.908,3.732,5.908-1.671,5.908-3.732-2.645-3.732-5.908-3.732" transform="translate(-309.51 -176.507)" fill="#320032"/>
            </g>
          </g>
        </g>
        <path id="Trazado_831018" data-name="Trazado 831018" d="M296.164,171.34c-.115-.164-.366.02-.25.184a.594.594,0,0,1-.906.763c-.005-.005-.012-.009-.018-.014a.131.131,0,0,0-.019-.015.158.158,0,0,0-.024-.014l-.02-.008a.141.141,0,0,0-.136.019.1.1,0,0,0-.016.018,1.358,1.358,0,0,1-1.553-.223,1.215,1.215,0,0,1-.1-1.61,1.263,1.263,0,0,1,.823-.529.16.16,0,0,0,.229-.135q.049-1.064.017-2.131c-.006-.2-.317-.2-.311,0,.02.658.014,1.315-.013,1.973a1.678,1.678,0,0,0-1.316,1.5,1.538,1.538,0,0,0,1.229,1.574,1.587,1.587,0,0,0,1.084-.12.946.946,0,0,0,.871.149.882.882,0,0,0,.587-.793.919.919,0,0,0-.161-.585" transform="translate(-169.421 -96.998)" fill="#39354d"/>
        <path id="Trazado_831019" data-name="Trazado 831019" d="M291.895,185.451a2.624,2.624,0,0,0,4.722.105c.093-.177-.175-.335-.268-.157a2.315,2.315,0,0,1-4.185-.105c-.084-.181-.352-.024-.269.157" transform="translate(-169.032 -107.261)" fill="#dc5174"/>
        <path id="Trazado_831020" data-name="Trazado 831020" d="M238.784,382.044c.018.063.039.125.057.187q.97-.008,1.942-.019a18.039,18.039,0,0,1,5.922-2.651,15.653,15.653,0,0,1,7.226-.008c2.8.64,5.389,1.886,8.31,1.842s5.681-1.075,8.55-1.488a25.16,25.16,0,0,1,7.065-.075,21,21,0,0,1,6.9,2.115l1.043.02a41.327,41.327,0,0,0,1.548-9.557,42.762,42.762,0,0,0-.69-9.742,41.882,41.882,0,0,0-2.88-9.284,60.75,60.75,0,0,0-5-8.652,44.6,44.6,0,0,1-4.767-8.631c-2.865,1.793-7.35,1.775-10.6,1.847a65.646,65.646,0,0,1-11.088-.795c-.693-.1-1.381-.208-2.057-.33a48.109,48.109,0,0,1-4.482,7.909,60.756,60.756,0,0,0-5,8.652,41.881,41.881,0,0,0-2.88,9.284,42.789,42.789,0,0,0-.69,9.742,41.306,41.306,0,0,0,1.569,9.634" transform="translate(-137.352 -194.642)" fill="#ffbaa6"/>
        <path id="Trazado_831021" data-name="Trazado 831021" d="M336.436,182.488a23.061,23.061,0,0,1-5.484,8,22.684,22.684,0,0,1-2.13,1.783c-.159.117-.006.388.155.269a23.248,23.248,0,0,0,7.759-9.966c.076-.185-.224-.269-.3-.085" transform="translate(-190.388 -105.622)" fill="#f0f0f0"/>
        <path id="Trazado_831022" data-name="Trazado 831022" d="M247.207,181.749a23.062,23.062,0,0,0,5.485,8,22.681,22.681,0,0,0,2.13,1.783c.159.117.006.388-.155.269a23.248,23.248,0,0,1-7.759-9.966c-.076-.185.224-.269.3-.085" transform="translate(-142.981 -105.194)" fill="#f0f0f0"/>
        <path id="Trazado_831023" data-name="Trazado 831023" d="M290.038,172.573a.137.137,0,0,0-.1-.182q-2.573-.554-5.1-1.279-2.242-.643-4.443-1.42c-1.454-.513-2.881-1.1-4.343-1.6a20.085,20.085,0,0,0-2.094-.591,10.169,10.169,0,0,0-5.057,0,20.147,20.147,0,0,0-2.094.591c-1.461.494-2.888,1.083-4.342,1.6s-2.948.992-4.443,1.42q-2.529.725-5.1,1.279a.137.137,0,0,0-.1.182.155.155,0,0,0-.055.149,22.29,22.29,0,0,0,2.092,6.3,22.837,22.837,0,0,0,3.855,5.45,21.821,21.821,0,0,0,5.409,4.129,16.141,16.141,0,0,0,7.247,2.093,15.171,15.171,0,0,0,7.384-2.093,21.819,21.819,0,0,0,5.409-4.129,22.822,22.822,0,0,0,3.855-5.45,22.277,22.277,0,0,0,2.093-6.3.155.155,0,0,0-.055-.149" transform="translate(-146.37 -96.819)" fill="#d4d4d4"/>
        <path id="Trazado_831024" data-name="Trazado 831024" d="M288.926,152.39a27.613,27.613,0,0,0-2.708,9.429c-.09.644-.171,1.289-.25,1.934q-2.515-.545-4.99-1.253-2.242-.643-4.443-1.421c-1.454-.513-2.881-1.1-4.342-1.6a20,20,0,0,0-2.094-.591,10.16,10.16,0,0,0-5.056,0,20,20,0,0,0-2.094.591c-1.461.494-2.888,1.083-4.342,1.6s-2.948.992-4.443,1.421q-2.429.7-4.9,1.233c-.054-.431-.107-.862-.167-1.292a27.61,27.61,0,0,0-2.708-9.429c-.1-.176-.364-.019-.269.157a18.651,18.651,0,0,1,1.127,2.522,37.422,37.422,0,0,1,1.722,8.152.154.154,0,0,0-.013.118.156.156,0,0,0-.055.149c.061.353.132.7.21,1.052.018.08.037.16.056.24.078.33.161.66.254.986l.011.041q.161.561.351,1.113l.006.019q.191.554.411,1.1c.5-.2,1-.391,1.478-.583a37.044,37.044,0,0,1,4.036-1.336,28.086,28.086,0,0,0,1.664,4.848c-1.619.434-3.22.93-4.8,1.476.06.087.119.175.18.261q2.352-.808,4.757-1.451c.1.217.2.436.3.651a28.779,28.779,0,0,0,1.568,2.769c-1.811-.231-3.632-.393-5.457-.463.092.109.184.218.278.325,1.8.078,3.605.243,5.4.477a28.445,28.445,0,0,0,4.309,5.126c.391.366.8.715,1.209,1.056.211.043.423.08.636.114a27.683,27.683,0,0,1-4.638-4.7c-.388-.5-.753-1.019-1.106-1.544l.191.025c3.341.465,6.649,1.145,9.938,1.886q1.59.359,3.172.752a31.4,31.4,0,0,1-3.5,3.538c.206-.038.411-.08.615-.128.4-.355.787-.715,1.167-1.089a28.355,28.355,0,0,0,2.051-2.24q1.35.338,2.69.71c.115-.074.227-.152.34-.228q-1.4-.395-2.813-.749a20.936,20.936,0,0,0,3.665-6.667c.216-.678.4-1.364.553-2.056q3.177.077,6.339.43c.047-.1.094-.2.139-.3q-2.78-.316-5.58-.421c-.276-.01-.552-.016-.827-.023.166-.763.3-1.533.431-2.3a40.056,40.056,0,0,1,6.148,2.357h0q.127-.295.247-.593l.019-.048q.336-.845.6-1.715c.016-.052.033-.1.048-.156.04-.134.077-.269.115-.4.032-.117.065-.233.1-.35s.059-.229.086-.344q.055-.225.1-.452c.02-.09.04-.181.059-.271.011-.052.019-.1.03-.156a.157.157,0,0,0,.045-.092l.049-.4c.005-.03.012-.06.017-.09,0-.011,0-.018,0-.028a40.571,40.571,0,0,1,1.83-9.012,18.6,18.6,0,0,1,1.127-2.522c.1-.176-.173-.333-.268-.157m-11.477,18.26a19.63,19.63,0,0,1-2.272,5.136,23.243,23.243,0,0,1-1.647,2.294q-1.118-.278-2.24-.538c-3.248-.752-6.514-1.446-9.81-1.955-.566-.088-1.135-.167-1.7-.242a28.479,28.479,0,0,1-1.973-3.551l.111-.03a72.334,72.334,0,0,1,9.849-1.85,73.427,73.427,0,0,1,9.921-.484l.072,0c-.094.408-.194.814-.308,1.218m.379-1.527a73.389,73.389,0,0,0-18.748,2.028c-.469.113-.936.233-1.4.355a27.977,27.977,0,0,1-1.229-3.231q-.247-.8-.443-1.613,1.027-.271,2.062-.5a40.893,40.893,0,0,1,20.207.58c-.13.8-.274,1.592-.447,2.381" transform="translate(-142.519 -88.207)" fill="#f0f0f0"/>
        <path id="Trazado_831025" data-name="Trazado 831025" d="M238.527,320.892c6.757-.129,13.505-.24,20.25-.286-.073-6.506-.05-13.133-.027-19.56.045-12.194.091-24.8-.515-37.12-.067-1.354-.144-2.735-.228-4.1a.62.62,0,0,0-.133-.348c-1.716-4.569-3.512-9.031-5.354-13.579q-.422-1.044-.847-2.087c-1.08-2.654-2.2-5.4-3.225-8.119q-.3-.784-.589-1.568c-.418-1.119-.85-2.275-1.3-3.405l-.149-.38-.4.1c-4.687,1.152-12.883,4.245-15.118,12.023a10.143,10.143,0,0,0-.381,2.814.626.626,0,0,0,.084.312,109.648,109.648,0,0,1,9.783,20.64c.337,1.028.651,2.058.935,3.066a74.443,74.443,0,0,0-6.721,11.639,87.934,87.934,0,0,0-5.35,15.113,105.29,105.29,0,0,0-2.8,16.48c-.254,2.759-.413,5.562-.484,8.439,4.187.067,8.374.013,12.564-.067" transform="translate(-130.859 -133.391)" fill="#f0f0f0"/>
        <path id="Trazado_831026" data-name="Trazado 831026" d="M291.456,279.894l.025.632.38,27.012q.1,7.373.209,14.746c10.436-.11,20.86-.086,31.289.241-.261-2.8-.578-5.6-.953-8.378a128.157,128.157,0,0,0-2.962-15.473,89.906,89.906,0,0,0-5.257-14.589c-2.115-4.605-4.525-9.012-6.621-12.735l.62-1.531q.847-2.092,1.689-4.185c1.8-4.494,3.616-9.038,5.386-13.5.971-2.449,1.881-4.5,2.865-6.443a4.065,4.065,0,0,0-.522-4.247c-2.838-4.32-11.666-8.272-13.081-8.272h-.039a.55.55,0,0,0-.484.3c-.89,1.787-1.845,3.527-2.912,5.455-1.753,3.167-3.5,6.557-5.671,10.993-1.382,2.827-2.814,5.833-4.643,9.747l-.047.1,0,.111c.191,6.676.462,13.461.724,20.022" transform="translate(-168.366 -135.032)" fill="#f0f0f0"/>
        <path id="Trazado_831027" data-name="Trazado 831027" d="M292.422,326.761l.3,0c-.024-2.2-.044-4.405-.074-6.608q-.239-18-.681-35.993-.242-9.851-.545-19.7a.169.169,0,0,0,.07-.013l8.068-3.435,2.285-.973a.152.152,0,0,0,.077-.134q-.032-3.814-.064-7.629c1.955-.871,3.914-1.736,5.866-2.614a2.535,2.535,0,0,0,1.046-.726,3.957,3.957,0,0,0,.514-1.266l.936-3.1,1.048-3.472a.155.155,0,0,0-.3-.083q-.914,3.028-1.828,6.057a10.57,10.57,0,0,1-.444,1.38,1.807,1.807,0,0,1-.954.861c-.941.447-1.905.851-2.857,1.276l-3.262,1.454a.152.152,0,0,0-.077.134q.032,3.814.064,7.627l-7.99,3.4-2.207.939c0-.095-.005-.189-.008-.284a.157.157,0,0,0-.005-.02.13.13,0,0,0,.1-.077q1.141-2.375,2.124-4.82c.075-.186-.226-.266-.3-.083q-.969,2.407-2.093,4.746a.154.154,0,0,0-.01.108.137.137,0,0,0-.126.146q.558,18.084.913,36.173.261,13.364.411,26.731" transform="translate(-168.58 -139.511)" fill="#bfbfbf"/>
        <path id="Trazado_831028" data-name="Trazado 831028" d="M271.859,260.149l-7.235-4.164q.488-3.782.976-7.564a.153.153,0,0,0-.061-.143l-3.065-1.833c-.894-.535-1.8-1.052-2.684-1.608a1.8,1.8,0,0,1-.844-.969,10.5,10.5,0,0,1-.276-1.424q-.545-3.116-1.091-6.232a.156.156,0,0,0-.308.046l.625,3.572q.279,1.6.559,3.192a3.953,3.953,0,0,0,.359,1.317,2.538,2.538,0,0,0,.952.846c1.833,1.106,3.675,2.2,5.512,3.3q-.488,3.783-.976,7.566a.152.152,0,0,0,.06.142l2.152,1.239,5.2,3c.046-.092.093-.184.139-.276" transform="translate(-148.989 -136.721)" fill="#bfbfbf"/>
        <path id="Trazado_831029" data-name="Trazado 831029" d="M299.7,301.45a.973.973,0,1,1-.955.99.973.973,0,0,1,.955-.99" transform="translate(-173.008 -174.575)" fill="#fff"/>
        <path id="Trazado_831030" data-name="Trazado 831030" d="M300.076,322.133a.973.973,0,1,1-.955.99.973.973,0,0,1,.955-.99" transform="translate(-173.226 -186.553)" fill="#fff"/>
        <path id="Trazado_831031" data-name="Trazado 831031" d="M300.452,342.817a.973.973,0,1,1-.955.99.973.973,0,0,1,.955-.99" transform="translate(-173.444 -198.531)" fill="#fff"/>
        <path id="Trazado_831032" data-name="Trazado 831032" d="M300.829,363.5a.973.973,0,1,1-.955.99.973.973,0,0,1,.955-.99" transform="translate(-173.662 -210.51)" fill="#fff"/>
        <path id="Trazado_831033" data-name="Trazado 831033" d="M301.206,384.185a.973.973,0,1,1-.955.99.973.973,0,0,1,.955-.99" transform="translate(-173.88 -222.488)" fill="#fff"/>
        <path id="Trazado_831034" data-name="Trazado 831034" d="M301.583,404.868a.973.973,0,1,1-.955.99.973.973,0,0,1,.955-.99" transform="translate(-174.099 -234.466)" fill="#fff"/>
        <path id="Trazado_831035" data-name="Trazado 831035" d="M301.959,425.552a.973.973,0,1,1-.955.99.973.973,0,0,1,.955-.99" transform="translate(-174.317 -246.444)" fill="#fff"/>
        <path id="Trazado_831036" data-name="Trazado 831036" d="M271.405,160.509a1.753,1.753,0,1,0,1.368,1.71,1.568,1.568,0,0,0-1.368-1.71" transform="translate(-156.383 -92.954)" fill="#39354d"/>
        <path id="Trazado_831037" data-name="Trazado 831037" d="M317.951,160.509a1.753,1.753,0,1,0,1.368,1.71,1.568,1.568,0,0,0-1.368-1.71" transform="translate(-183.339 -92.954)" fill="#39354d"/>
        <path id="Trazado_831038" data-name="Trazado 831038" d="M281.716,153.832a7.788,7.788,0,0,0-7.514,5.78,4.764,4.764,0,0,0-5.189-.013,7.928,7.928,0,1,0,.076.313.146.146,0,0,0,.029-.013,4.459,4.459,0,0,1,4.983.017.149.149,0,0,0,.024.011,7.773,7.773,0,1,0,7.59-6.095M261.5,169.069a7.463,7.463,0,1,1,7.463-7.463,7.471,7.471,0,0,1-7.463,7.463m20.213,0a7.463,7.463,0,1,1,7.463-7.463,7.472,7.472,0,0,1-7.463,7.463" transform="translate(-146.94 -89.087)" fill="#39354d"/>
        <path id="Trazado_831039" data-name="Trazado 831039" d="M282.439,271.593l-28.9,4.756a.309.309,0,0,0-.254.354l7.045,42.808a.308.308,0,0,0,.354.254l28.9-4.757a.307.307,0,0,0,.254-.354l-7.044-42.809a.308.308,0,0,0-.354-.254" transform="translate(-146.677 -157.282)" fill="#844742"/>
        <path id="Trazado_831040" data-name="Trazado 831040" d="M283.6,269.4l-2.967.489-.117-.709a.5.5,0,0,0-.645-.383l-10.1,1.662c-.551.091-.5.521-.488.57l.117.709-2.967.488c-.594.1-.579.48-.56.594l.653,3.974c.019.115.127.481.721.383l17.162-2.826c.594-.1.579-.479.56-.593l-.653-3.974c-.019-.114-.127-.481-.721-.383" transform="translate(-153.973 -155.656)" fill="#39354d"/>
        <path id="Trazado_831041" data-name="Trazado 831041" d="M301.18,255.623c-1.11-2.4-2.893-6.958-5.5-8.051a3.229,3.229,0,0,0-.579-.175c-1.256,1.609-2.513,3.219-3.681,4.9-1.567,2.251-3.07,4.547-4.6,6.821-.021.742-.016,1.489.01,2.237.249,7.177,1.716,15.308,1.269,22.86-.987-.163-1.92-.28-2.591-.408-5.536-1.057-11.352-1.637-16.491-3.977a1.187,1.187,0,0,0-.015-.246,1.707,1.707,0,0,0-.5-.747l-2.069-2.366c-.528-.6-.94-1.252-1.822-1.184a6.751,6.751,0,0,0-1.821.4c-.449-.413-.825-.866-1.484-.849-.725.019-1.81.428-1.382,1.349l0,0a4.382,4.382,0,0,0-.471.14,1.993,1.993,0,0,0-.894.611,1.29,1.29,0,0,0-.284.99,1.536,1.536,0,0,0,.349.71.335.335,0,0,1-.065-.01l.074.02,0,.005c-.466.128-.931.386-.927.9a2.849,2.849,0,0,0,.63,1.638l-.015,0a.772.772,0,0,0-.531.738,1.605,1.605,0,0,0,.406.857,5.6,5.6,0,0,0,.785.835,6.082,6.082,0,0,0,2.006,1.155,6.647,6.647,0,0,0,2.222.35,5.188,5.188,0,0,0,.762.269,9,9,0,0,0,2.126.3c.835.537,1.642,1.129,2.445,1.641a86.792,86.792,0,0,0,12.827,6.737q3.383,1.43,6.88,2.569c3.317,1.08,7.512,2.764,10.909,1.164,3.987-1.878,4.806-7.011,5.522-10.871,1.9-10.274.909-21.786-3.5-31.317" transform="translate(-149.24 -143.272)" fill="#ffbaa6"/>
        <path id="Trazado_831042" data-name="Trazado 831042" d="M274.231,319.386a32.1,32.1,0,0,1-5.218-1.8,1.178,1.178,0,0,0-.015-.245,1.71,1.71,0,0,0-.5-.747l-2.069-2.365c-.528-.6-.94-1.253-1.822-1.184a6.734,6.734,0,0,0-1.821.4c-.449-.412-.825-.866-1.484-.849-.725.019-1.81.428-1.382,1.35l0,0a4.291,4.291,0,0,0-.471.139,2,2,0,0,0-.894.612,1.287,1.287,0,0,0-.284.99,1.528,1.528,0,0,0,.349.71.338.338,0,0,1-.065-.01l.074.02,0,.005c-.466.128-.931.386-.927.9a2.851,2.851,0,0,0,.63,1.638l-.015,0a.772.772,0,0,0-.531.738,1.6,1.6,0,0,0,.406.857,5.584,5.584,0,0,0,.785.835,6.08,6.08,0,0,0,2.006,1.155,6.636,6.636,0,0,0,2.222.35,5.236,5.236,0,0,0,.762.27,9.04,9.04,0,0,0,2.126.3c.835.537,1.642,1.128,2.445,1.64q1.642,1.046,3.331,2.015a40,40,0,0,1,2.36-7.726" transform="translate(-149.24 -181.026)" fill="#ffd6d6"/>
        <path id="Trazado_831043" data-name="Trazado 831043" d="M341,254.677c-.121-.262-.25-.551-.388-.858-1.141-2.542-2.865-6.384-5.358-7.429a4.092,4.092,0,0,0-2.119-.248q-1.978,2.662-3.988,5.3c-1.077,1.41-2.123,2.907-3.209,4.378a28.042,28.042,0,0,0-.183,4.8c.095,2.724.358,5.522.636,8.484.273,2.9.551,5.865.664,8.794a25.746,25.746,0,0,1,13.383,1.851,24.075,24.075,0,0,1,4.66,2.73,53.043,53.043,0,0,0-4.1-27.8" transform="translate(-188.633 -142.522)" fill="#f0f0f0"/>
        <path id="Trazado_831044" data-name="Trazado 831044" d="M273.3,102.344c-.756-.114-1.518-.189-2.28-.233a3.752,3.752,0,0,0,1.828-1.515.952.952,0,0,0,.034-1.025.974.974,0,0,0-.934-.353,2.789,2.789,0,0,0-1.7,1.172,6.465,6.465,0,0,0-.73,1.289c-.191-.324-.381-.649-.58-.968a1.843,1.843,0,0,0-1.311-1.025.812.812,0,0,0-.881.967,1.507,1.507,0,0,0,1.1,1.1c.31.116.626.221.943.322-8.1.233-15.956,4.309-19.343,11.664a25.869,25.869,0,0,0-2.053,7.243,29.207,29.207,0,0,0,8.164-5.713,30.362,30.362,0,0,0,2.205-2.445,14.914,14.914,0,0,0-.2,1.7c.035,0,.071,0,.107.01a44.073,44.073,0,0,0,4.65.4,15.442,15.442,0,0,1,1.036-6.423c.039-.1.085-.194.127-.293a25.675,25.675,0,0,0-.515,4.842c-.03.631-.051,1.263-.072,1.894,1.909.055,3.822.023,5.726-.028.784-.021,1.567-.011,2.349.013q.2-2.867.278-5.74a57.543,57.543,0,0,1,.306,5.757c.536.021,1.072.048,1.608.078a13.81,13.81,0,0,0,.09-2.67c0-.108-.008-.216-.012-.324.007.045.016.088.023.133q.229,1.439.385,2.889c1.87.108,3.74.226,5.615.207a11.457,11.457,0,0,0-.261-2.759,24.409,24.409,0,0,0,6.054,6.091q.892.626,1.839,1.168a11.083,11.083,0,0,0,2.221,1.02c.11.034.22.063.33.089-1.108-8.724-6.382-17.059-16.151-18.531" transform="translate(-143.275 -57.453)" fill="#844742"/>
        <path id="Trazado_831045" data-name="Trazado 831045" d="M131.79,424.75h125.9a1.642,1.642,0,0,0,1.642-1.642v-1.93a1.642,1.642,0,0,0-1.642-1.642H131.79a1.642,1.642,0,0,0-1.642,1.642v1.93a1.642,1.642,0,0,0,1.642,1.642" transform="translate(-75.371 -242.961)" fill="#39354d"/>
        <path id="Trazado_831046" data-name="Trazado 831046" d="M252.691,438.979H108.541a1.642,1.642,0,0,1-1.642-1.642v-4.4a1.642,1.642,0,0,1,1.642-1.642h144.15a1.642,1.642,0,0,1,1.642,1.642v4.4a1.642,1.642,0,0,1-1.642,1.642" transform="translate(-61.907 -249.771)" fill="#ffd6d6"/>
        <path id="Trazado_831047" data-name="Trazado 831047" d="M435.751,105.891a20.421,20.421,0,0,1-6.859-15.115c0-11.8,10.476-21.369,23.4-21.369s23.4,9.567,23.4,21.369-10.476,21.369-23.4,21.369a25.094,25.094,0,0,1-10.675-2.356c-2.059,1.337-4.256,2.5-6.4,3.681a.525.525,0,0,1-.762-.585c.385-2.339.826-4.67,1.3-6.994" transform="translate(-248.379 -40.194)" fill="#39354d"/>
        <path id="Trazado_831048" data-name="Trazado 831048" d="M423.207,96.608c1.8-11.343,13.464-7.564,18.209-1.073,4.745-6.49,16.4-10.27,18.209,1.073.845,5.312-1.884,10.312-5.086,13.636a41.962,41.962,0,0,1-12.933,9.244,21.807,21.807,0,0,0-.381,0,41.958,41.958,0,0,1-12.933-9.244c-3.2-3.324-5.931-8.324-5.086-13.636" transform="translate(-244.997 -51.742)" fill="#dc5174"/>
        <path id="Trazado_831049" data-name="Trazado 831049" d="M491.873,100.706h-8.938a.946.946,0,0,0-.957.648c-.3,1.607-.614,3.285-.934,4.89l-3.11-15.624a.894.894,0,0,0-.947-.637h-.007a.9.9,0,0,0-.959.633l-3.627,17.43-.889-7.891q-.7-6.2-1.4-12.405a.969.969,0,0,0-.917-.8.907.907,0,0,0-1.015.592l-4.525,13.608c-.147,0-.36,0-.685,0h-.438q-3.164,0-6.328.011t-6.327.011h-.22a.854.854,0,1,0,0,1.694c1.3,0,2.623,0,3.944.007,2.673.006,5.335.013,7.995-.008q1-.008,2.007-.021c.078,0,.165,0,.255,0,.509.014,1.279.035,1.49-.61q1.217-3.659,2.434-7.318l.866-2.6,2.473,21.967a1.034,1.034,0,0,0,1.029.8h.056a.817.817,0,0,0,.858-.636l3.9-18.725,3.127,15.714a.9.9,0,0,0,.961.636h.009a.888.888,0,0,0,.945-.641c.279-1.506.563-2.9.838-4.251s.56-2.752.84-4.263a4.685,4.685,0,0,1,.127-.521h8.072a.855.855,0,1,0,0-1.695" transform="translate(-259.843 -50.351)" fill="#fff"/>
        <path id="Trazado_831050" data-name="Trazado 831050" d="M137.725,74.682a20.421,20.421,0,0,0,6.859-15.115c0-11.8-10.476-21.369-23.4-21.369s-23.4,9.567-23.4,21.369,10.476,21.369,23.4,21.369A25.094,25.094,0,0,0,131.86,78.58c2.059,1.337,4.256,2.5,6.4,3.681a.525.525,0,0,0,.761-.585c-.385-2.339-.826-4.67-1.3-6.994" transform="translate(-56.63 -22.121)" fill="#39354d"/>
        <path id="Trazado_831051" data-name="Trazado 831051" d="M151.161,52.531a1.763,1.763,0,0,0-1.444-.682,50.431,50.431,0,0,0-9.067-.231,1.865,1.865,0,0,0-1.106.318,1.923,1.923,0,0,0-.369,1.735l2.266,19.393a1.051,1.051,0,0,0,1.281,1.168l5.171.009a1.162,1.162,0,0,0,1.4-1.347c.616-6.452,1.249-12.894,1.964-19.336a1.772,1.772,0,0,0-.091-1.029" transform="translate(-80.574 -29.832)" fill="#fff"/>
        <path id="Trazado_831052" data-name="Trazado 831052" d="M148.761,111.871a3.494,3.494,0,1,0,3.494,3.494,3.494,3.494,0,0,0-3.494-3.494" transform="translate(-84.127 -64.786)" fill="#fff"/>
        <path id="Trazado_831053" data-name="Trazado 831053" d="M49.752,173.99a20.421,20.421,0,0,0,6.859-15.115c0-11.8-10.476-21.369-23.4-21.369s-23.4,9.567-23.4,21.369,10.476,21.369,23.4,21.369a25.094,25.094,0,0,0,10.675-2.356c2.059,1.337,4.256,2.5,6.4,3.681a.525.525,0,0,0,.762-.585c-.385-2.339-.826-4.67-1.3-6.994" transform="translate(-5.683 -79.632)" fill="#dc5174"/>
        <path id="Trazado_831054" data-name="Trazado 831054" d="M67.891,125.707c-.125-.125-.295-.083-.467.024-.027.005-.054.014-.081.021s-.047.011-.07.019-.067.024-.1.037l-.045.017h0l-.028.011c-.2.089-.393.2-.586.3a3.759,3.759,0,0,0-1.048.549c-.1.064-.195.13-.292.2q-1.27.728-2.5,1.526-.349.227-.692.46c-.111.076-.222.152-.332.229l-.17.12a.637.637,0,0,0-.09.08c-.139-.136-.283-.266-.429-.394l-.153-.132-.065-.056v0a11.126,11.126,0,0,0-1.533-1.079c0-.006.005-.011.008-.017a.3.3,0,0,0,.012-.088c0-.06,0-.121,0-.181,0-.112,0-.225,0-.338q.011-.35.052-.7c.011-.09-.109-.142-.177-.1a3.611,3.611,0,0,0-.569.448,2.646,2.646,0,0,0-.239.261c-.037.047-.072.1-.1.147a.2.2,0,0,0-.016.032,11.108,11.108,0,0,0-1.68-.6,1.149,1.149,0,0,0,0-.216c-.01-.082-.017-.166-.029-.247a.882.882,0,0,0-.022-.11c0-.02-.005-.041-.008-.061s0-.029.006-.049a1.36,1.36,0,0,0-.013-.255c-.023-.317-.037-.634-.051-.952-.027-.637-.049-1.276-.127-1.909-.009-.069-.021-.137-.031-.2a1.339,1.339,0,0,0-.073-.442c-.027-.14-.054-.28-.089-.419a.138.138,0,0,0-.25-.029c-.085.165-.164.332-.245.5a.043.043,0,0,0-.046.027,4.832,4.832,0,0,0-.225.494c-.014.046-.027.093-.04.139a24.885,24.885,0,0,0-.969,2.47c-.056.171-.113.342-.163.515q-.037.129-.073.26c-.011.04-.021.08-.029.12l-.241-.005a.594.594,0,0,0-.088-.244q-.065-.119-.136-.235t-.141-.221c-.051-.076-.107-.146-.164-.217a.112.112,0,0,0-.109-.051.109.109,0,0,0-.09.08c-.04.176-.087.351-.132.526a2.581,2.581,0,0,0-.086.392,11.036,11.036,0,0,0-2.205.391,11.179,11.179,0,0,0-1.226.428,2.327,2.327,0,0,0-.255-.543c-.115-.2-.238-.4-.366-.6a11.923,11.923,0,0,0-.843-1.13.142.142,0,0,0-.2,0,.32.32,0,0,0-.09.279c.013.125.044.25.069.372q.076.375.167.747t.2.739c.037.127.075.253.114.38.029.095.057.192.091.286q-.224.124-.44.258a.622.622,0,0,0-.173-.155l-.174-.137a.38.38,0,0,0-.21-.115.18.18,0,0,0-.178.148.708.708,0,0,0,0,.209c.006.077.016.154.027.23a1.8,1.8,0,0,0,.045.21c0,.014.008.028.012.042a11.045,11.045,0,0,0-1.311,1.107.53.53,0,0,0-.128-.082l-.217-.1-.409-.2-.806-.39c-.509-.246-1.013-.515-1.539-.722a2.879,2.879,0,0,0-.846-.2.139.139,0,0,0-.117.21q.939,1.443,1.981,2.815c.1.13.2.256.3.383a2.125,2.125,0,0,0,.214.232c-.022.035-.042.071-.064.106a7.118,7.118,0,0,0-.889,1.749v0l-.106-.016-.315-.05-.644-.1-1.286-.2a.146.146,0,0,0-.157.068.142.142,0,0,0,.025.169c.341.3.688.6,1.044.886.176.142.354.282.535.417a2.658,2.658,0,0,0,.434.3c-.038.154-.072.31-.1.466a3.583,3.583,0,0,0-.471,0c-.2.01-.391.02-.586.032q-.573.034-1.145.07-1.158.073-2.316.158-.652.047-1.3.1a.141.141,0,0,0-.034.275c.187.067.376.129.564.2v0c.271.1.545.187.817.28.337.116.673.234,1.011.347q1.023.344,2.051.673c.4.128.8.253,1.2.375.007.215.021.431.04.646.009.105.025.211.038.316s.024.218.04.328c.02.132.046.264.071.4.016.083.029.166.046.249.029.138.065.275.1.412.016.065.029.131.047.2h0c.012.043.02.085.032.128a11.083,11.083,0,0,0,.883,2.188.207.207,0,0,0-.058.034.541.541,0,0,0-.089.081c-.045.053-.089.108-.131.164a3.718,3.718,0,0,0-.253.376.228.228,0,0,0-.007.258.31.31,0,0,0,.2.1,1.293,1.293,0,0,0,.434.01,1.053,1.053,0,0,0,.233-.056.356.356,0,0,0,.13-.074.488.488,0,0,0,.039-.045c.061.092.122.184.185.274-.226.271-.423.566-.623.857q-.332.481-.65.971-.645.989-1.245,2.006-.148.252-.294.5a2.466,2.466,0,0,0-.25.478.356.356,0,0,0,.117.432c.188.1.375-.056.524-.154q1.02-.672,2.023-1.369c.747-.52,1.49-1.048,2.221-1.592a.166.166,0,0,0,.054-.067q.2.167.4.324a.873.873,0,0,0-.146.308c-.047.132-.088.266-.127.4a7.807,7.807,0,0,0-.181.82c-.024.141-.045.324.127.38a.354.354,0,0,0,.329-.111c.229-.189.457-.38.686-.571a4.05,4.05,0,0,0,.342-.293.507.507,0,0,0,.107-.158q.338.2.691.379a.978.978,0,0,0,.007.168c.008.073.019.146.031.22a4.2,4.2,0,0,0,.091.412.132.132,0,0,0,.194.076c.092-.072.181-.145.269-.221.041-.035.081-.071.12-.107a.253.253,0,0,0,.1-.159.125.125,0,0,0,0-.017,11.015,11.015,0,0,0,5.391.75,1.015,1.015,0,0,0,.1.229c.051.1.109.2.168.3.113.186.234.369.364.544a1.17,1.17,0,0,0,.207.253.172.172,0,0,0,.276-.107,1.989,1.989,0,0,0,.011-.343c0-.009,0-.018,0-.027a1.289,1.289,0,0,0,.008-.4l.006-.318c0-.062,0-.124,0-.186a.422.422,0,0,0-.008-.113.107.107,0,0,0-.007-.017c.223-.049.446-.1.669-.167a11.126,11.126,0,0,0,1.719-.647c0,.005,0,.011,0,.016a1.363,1.363,0,0,0,.094.178q.086.157.177.312c.122.21.244.421.368.63.195.327.388.657.59.98a.789.789,0,0,0,.216.366.188.188,0,0,0,.037.019,1.483,1.483,0,0,0,.368.351.139.139,0,0,0,.206-.122,17.374,17.374,0,0,0-.63-2.759q-.051-.17-.1-.34a.644.644,0,0,0-.123-.3q.105-.068.209-.137a.387.387,0,0,0,.028.037.453.453,0,0,0,.093.072l.156.1c.1.069.213.133.321.193a.249.249,0,0,0,.2.03.214.214,0,0,0,.138-.153.772.772,0,0,0-.036-.351l-.043-.2c-.016-.078-.021-.189-.082-.245a.124.124,0,0,0-.035-.021,11.078,11.078,0,0,0,1.788-1.8c.2.118.412.22.615.336.238.136.473.279.708.421.468.285.935.574,1.427.817a6.73,6.73,0,0,0,.871.359c.11.036.23-.112.155-.209q-.532-.688-1.077-1.364-.276-.341-.554-.68a1.028,1.028,0,0,0-.068-.08c-.021-.02-.046-.034-.066-.055a2.285,2.285,0,0,1-.142-.186q-.138-.172-.279-.341l-.311-.371-.152-.18c-.023-.027-.046-.054-.071-.08q.251-.468.457-.959a.311.311,0,0,0,.075.016c.057.008.111.014.17.018.105.007.211.011.317.013.219,0,.439,0,.658,0,.106,0,.185-.154.09-.227l-.5-.388-.25-.194a1.49,1.49,0,0,0-.124-.1.619.619,0,0,0-.066-.031.128.128,0,0,0-.037-.01c.042-.131.083-.263.121-.4.284.045.567.084.854.1h.026a5.479,5.479,0,0,0,.817.045l.081,0q.924.037,1.849.04.521,0,1.042-.008a.145.145,0,0,0,.069-.269,5.255,5.255,0,0,0-.842-.374c-.3-.11-.605-.213-.908-.319l-1.883-.66-.531-.186c-.063-.022-.128-.047-.193-.065.021-.133.038-.265.048-.4a5.048,5.048,0,0,0-.016-.849,11.012,11.012,0,0,0-.161-1.931l.065-.017c.1-.026.2-.06.3-.1.2-.074.409-.15.613-.225.4-.149.808-.3,1.211-.455a.14.14,0,0,0,0-.268q-.658-.23-1.333-.4-.338-.085-.678-.157c-.114-.024-.227-.046-.341-.067a.449.449,0,0,0-.269,0A11.01,11.01,0,0,0,63,131.284c.021-.019.041-.04.061-.06.191-.193.381-.388.571-.583l1.14-1.168c.75-.768,1.506-1.53,2.249-2.3a4.737,4.737,0,0,0,.59-.721c.253-.245.48-.542.28-.742" transform="translate(-21.332 -70.39)" fill="#39354d"/>
        <path id="Trazado_831055" data-name="Trazado 831055" d="M27.149,199.148c0-.138-.116-.208-.27-.244-.018-.012-.037-.022-.056-.033s-.032-.02-.048-.028-.05-.024-.076-.035l-.035-.016h0l-.021-.009c-.159-.062-.325-.108-.489-.157a2.921,2.921,0,0,0-.878-.277l-.268-.054q-1.1-.3-2.213-.539-.316-.068-.634-.129l-.308-.057-.16-.027a.5.5,0,0,0-.093-.006c0-.151-.009-.3-.019-.452,0-.052-.007-.1-.011-.157,0-.022,0-.044,0-.067h0a8.688,8.688,0,0,0-.247-1.438l.013-.005a.233.233,0,0,0,.055-.042c.033-.033.064-.068.1-.1.061-.063.124-.124.188-.184q.2-.186.413-.354a.091.091,0,0,0-.043-.152,2.817,2.817,0,0,0-.56-.068,2.065,2.065,0,0,0-.275.012,1.39,1.39,0,0,0-.138.023.18.18,0,0,0-.027.009,8.659,8.659,0,0,0-.593-1.255.459.459,0,0,0,.068-.064.391.391,0,0,0,.049-.057c.04-.05.082-.1.121-.152a.813.813,0,0,0,.048-.073l.029-.038.03-.024a1.029,1.029,0,0,0,.133-.147c.162-.186.329-.369.5-.55.336-.365.676-.727.982-1.118.033-.043.064-.087.1-.13a1.021,1.021,0,0,0,.2-.283c.063-.092.125-.184.182-.279a.108.108,0,0,0-.122-.154c-.137.044-.273.092-.409.139a.033.033,0,0,0-.04-.011,3.75,3.75,0,0,0-.4.147c-.034.017-.066.036-.1.054a19.361,19.361,0,0,0-1.893.822c-.125.063-.251.125-.373.192l-.184.1c-.028.016-.055.032-.082.05l-.129-.135a.456.456,0,0,0,.086-.183c.02-.067.039-.136.056-.2s.031-.133.044-.2.021-.139.03-.21a.086.086,0,0,0-.032-.087.084.084,0,0,0-.093-.006c-.119.074-.241.145-.362.216a2.029,2.029,0,0,0-.263.168,8.583,8.583,0,0,0-1.426-1,8.678,8.678,0,0,0-.909-.441,1.808,1.808,0,0,0,.16-.439c.049-.175.09-.352.128-.529a9.149,9.149,0,0,0,.16-1.085c.006-.062-.057-.1-.109-.106a.247.247,0,0,0-.2.1c-.062.075-.114.161-.168.242q-.165.247-.32.5t-.3.515q-.074.134-.146.271c-.036.069-.075.137-.108.207q-.191-.055-.383-.1a.489.489,0,0,0-.009-.18c-.007-.057-.014-.115-.021-.172a.3.3,0,0,0-.051-.178.14.14,0,0,0-.179-.016.539.539,0,0,0-.115.114c-.04.046-.076.093-.112.141a1.453,1.453,0,0,0-.091.14l-.017.03a8.592,8.592,0,0,0-1.33-.115.423.423,0,0,0-.025-.115l-.061-.177-.116-.334-.228-.658c-.144-.415-.272-.841-.447-1.245a2.235,2.235,0,0,0-.351-.579.108.108,0,0,0-.18.051c-.186.873-.343,1.753-.464,2.637-.017.125-.032.25-.045.376a1.61,1.61,0,0,0-.011.245l-.093.023a5.565,5.565,0,0,0-1.452.47l0,0-.049-.067-.146-.2-.3-.41-.6-.82a.113.113,0,0,0-.123-.05.11.11,0,0,0-.08.107c.019.355.047.709.085,1.062.019.175.04.35.064.524a2.073,2.073,0,0,0,.074.4q-.159.1-.314.2a2.694,2.694,0,0,0-.259-.259q-.169-.153-.339-.306l-.667-.592q-.676-.6-1.358-1.189l-.77-.665a.109.109,0,0,0-.17.133c.066.14.135.278.2.418v0c.1.2.2.4.294.6.121.249.241.5.364.748q.372.753.755,1.5.223.436.454.868-.172.182-.335.377c-.053.063-.1.13-.154.194s-.107.133-.158.2-.12.17-.179.256c-.037.054-.076.107-.112.162-.06.092-.116.186-.173.281-.027.045-.056.088-.082.134h0c-.017.03-.036.058-.053.088a8.635,8.635,0,0,0-.721,1.688.168.168,0,0,0-.051-.013.432.432,0,0,0-.093,0c-.054,0-.109.01-.162.018a2.948,2.948,0,0,0-.347.067.176.176,0,0,0-.146.138.241.241,0,0,0,.059.165,1.011,1.011,0,0,0,.232.245.844.844,0,0,0,.159.1.281.281,0,0,0,.112.031l.046,0c-.018.084-.035.168-.05.253-.274.025-.544.078-.814.127q-.447.081-.892.175-.9.187-1.79.415l-.439.115a1.885,1.885,0,0,0-.4.124.277.277,0,0,0-.174.3c.046.16.236.176.372.2q.931.193,1.866.363c.7.127,1.4.245,2.1.35a.138.138,0,0,0,.067-.006q.015.2.04.4a.682.682,0,0,0-.25.088c-.1.047-.195.1-.29.15a6.156,6.156,0,0,0-.551.35c-.091.064-.2.153-.14.279a.276.276,0,0,0,.242.12l.691.064a3.157,3.157,0,0,0,.35.028.393.393,0,0,0,.146-.027q.074.3.17.589a.767.767,0,0,0-.088.1c-.036.045-.071.091-.1.138a3.2,3.2,0,0,0-.177.276.1.1,0,0,0,.064.149c.09.011.179.021.269.027l.125.008a.2.2,0,0,0,.143-.031l.011-.008A8.571,8.571,0,0,0,7.6,204.324a.793.793,0,0,0-.073.178c-.028.084-.05.17-.071.255-.041.165-.075.332-.1.5a.924.924,0,0,0-.025.253.134.134,0,0,0,.21.093,1.567,1.567,0,0,0,.2-.182l.016-.015a1,1,0,0,0,.223-.214l.178-.171c.035-.033.07-.066.1-.1a.32.32,0,0,0,.058-.067.089.089,0,0,0,.006-.013c.149.1.3.189.459.277a8.664,8.664,0,0,0,1.3.593l-.006.011a1.126,1.126,0,0,0-.047.15q-.039.134-.075.269c-.049.183-.1.366-.145.549-.074.287-.149.574-.216.863a.615.615,0,0,0-.083.32.146.146,0,0,0,.01.032,1.157,1.157,0,0,0,.008.4.108.108,0,0,0,.18.046,13.475,13.475,0,0,0,1.175-1.861l.131-.243a.5.5,0,0,0,.1-.233l.191.04a.2.2,0,0,0-.005.035.346.346,0,0,0,.011.09c.011.047.021.094.03.141.019.095.044.19.07.283a.2.2,0,0,0,.093.127.167.167,0,0,0,.161-.008.6.6,0,0,0,.173-.212l.09-.136c.034-.052.093-.115.089-.18a.089.089,0,0,0-.008-.031,8.638,8.638,0,0,0,1.976,0c.046.176.105.348.153.524.056.206.106.414.157.622.1.414.2.83.333,1.234a5.159,5.159,0,0,0,.28.677.11.11,0,0,0,.2-.029q.087-.67.161-1.343.037-.339.071-.678a.654.654,0,0,0,.006-.081c0-.022-.006-.044-.006-.066a1.771,1.771,0,0,1,.025-.181c.013-.114.024-.227.035-.341s.023-.25.034-.375c.005-.061.011-.122.016-.183,0-.027.005-.055.005-.083.264-.079.524-.171.779-.274a.267.267,0,0,0,.033.05c.027.036.053.069.083.1.054.062.11.122.167.182.118.123.239.244.36.364.059.058.186.018.175-.074q-.03-.245-.061-.489l-.03-.245a1.147,1.147,0,0,0-.016-.12.44.44,0,0,0-.019-.053.1.1,0,0,0-.015-.026c.1-.049.19-.1.284-.151.131.181.265.358.412.527l.013.015a4.25,4.25,0,0,0,.424.475l.042.047q.487.53.993,1.042.285.288.577.57a.113.113,0,0,0,.186-.11,4.1,4.1,0,0,0-.256-.67c-.105-.226-.215-.45-.322-.676l-.67-1.4-.189-.395c-.022-.047-.044-.1-.07-.142.085-.061.167-.124.246-.192a3.909,3.909,0,0,0,.46-.474,8.6,8.6,0,0,0,.976-1.149l.045.027c.071.042.146.08.22.115l.46.215c.3.141.61.279.915.418a.109.109,0,0,0,.146-.149q-.234-.489-.509-.956-.138-.233-.286-.46c-.049-.075-.1-.151-.15-.225a.35.35,0,0,0-.146-.15,8.566,8.566,0,0,0,.678-1.907c.022,0,.044,0,.066,0l.635-.005,1.269-.013c.835-.008,1.67-.01,2.5-.025a3.692,3.692,0,0,0,.721-.071c.274.005.562-.033.563-.253" transform="translate(0 -107.634)" fill="#39354d"/>
        <path id="Trazado_831056" data-name="Trazado 831056" d="M83.593,195.61c-.068-.038-.135,0-.194.067-.011.005-.021.013-.032.019l-.027.016-.038.028-.017.013h0l-.011.008c-.074.062-.142.132-.211.2a1.664,1.664,0,0,0-.377.359l-.1.118q-.449.461-.871.948-.12.138-.237.279c-.037.045-.075.09-.112.137l-.057.072a.266.266,0,0,0-.028.045c-.075-.041-.152-.078-.229-.114l-.08-.037-.035-.016h0a4.927,4.927,0,0,0-.779-.27v-.008a.12.12,0,0,0-.006-.039c-.007-.026-.016-.051-.024-.076-.014-.047-.028-.1-.04-.143-.025-.1-.046-.2-.062-.3a.052.052,0,0,0-.087-.02,1.583,1.583,0,0,0-.186.259,1.126,1.126,0,0,0-.069.139.787.787,0,0,0-.026.075.072.072,0,0,0,0,.016,4.912,4.912,0,0,0-.783-.049.235.235,0,0,0-.013-.051.25.25,0,0,0-.014-.04c-.014-.034-.027-.068-.043-.1a.431.431,0,0,0-.023-.044l-.011-.025a.2.2,0,0,1,0-.021.6.6,0,0,0-.037-.106c-.048-.131-.093-.263-.137-.4-.088-.266-.176-.533-.285-.792-.012-.028-.025-.055-.038-.083a.584.584,0,0,0-.085-.178c-.028-.056-.057-.112-.088-.166a.061.061,0,0,0-.109.018c-.016.08-.029.16-.043.24a.019.019,0,0,0-.016.017,2.128,2.128,0,0,0-.035.236c0,.021,0,.043,0,.064a10.847,10.847,0,0,0-.11,1.161c0,.079-.007.158-.007.237,0,.04,0,.079,0,.119,0,.018,0,.036,0,.054l-.1.027a.256.256,0,0,0-.067-.093c-.028-.028-.056-.056-.086-.083s-.057-.051-.086-.076-.063-.048-.1-.072a.05.05,0,0,0-.052-.008.047.047,0,0,0-.028.045c0,.08.006.159.008.239a1.131,1.131,0,0,0,.011.176,4.851,4.851,0,0,0-1.351.763,1.017,1.017,0,0,0-.174-.2c-.073-.072-.149-.141-.227-.208a5.274,5.274,0,0,0-.494-.375.063.063,0,0,0-.082.026.14.14,0,0,0,0,.129,1.584,1.584,0,0,0,.074.149c.052.1.105.2.161.3s.113.194.173.289c.031.049.062.1.094.146s.047.074.073.11c-.053.053-.1.107-.154.162a.278.278,0,0,0-.092-.045l-.09-.037a.167.167,0,0,0-.1-.023.08.08,0,0,0-.057.084.309.309,0,0,0,.026.088c.012.032.025.063.039.094a.8.8,0,0,0,.045.084l.01.016a4.819,4.819,0,0,0-.42.627.241.241,0,0,0-.064-.019l-.1-.018-.2-.034-.388-.067c-.245-.042-.49-.095-.738-.118a1.251,1.251,0,0,0-.382.016.061.061,0,0,0-.024.1q.572.5,1.179.95c.057.043.115.084.174.125a.919.919,0,0,0,.118.072c-.005.018-.009.035-.014.053a3.118,3.118,0,0,0-.164.847v0l-.047.006-.139.018-.284.035-.568.07a.064.064,0,0,0-.058.048.062.062,0,0,0,.031.068q.271.131.549.248c.092.038.184.076.277.111a1.184,1.184,0,0,0,.22.074c0,.07.007.14.013.21a1.53,1.53,0,0,0-.2.058l-.244.084-.475.168q-.48.172-.96.348l-.539.2a.062.062,0,0,0,.019.12l.262.014h0c.126.008.253.013.379.019l.47.024q.474.021.949.035c.184.005.369.01.553.013.029.09.061.179.1.269.017.043.037.086.055.129s.037.09.057.134.051.106.078.159c.017.033.032.066.05.1.029.055.061.109.092.162.015.026.028.052.044.077h0c.01.016.019.034.029.05a4.867,4.867,0,0,0,.638.818.1.1,0,0,0-.021.021.26.26,0,0,0-.028.045c-.013.028-.024.056-.035.085a1.589,1.589,0,0,0-.061.19.1.1,0,0,0,.029.11.138.138,0,0,0,.1.016.58.58,0,0,0,.184-.048.484.484,0,0,0,.092-.052.163.163,0,0,0,.046-.047.2.2,0,0,0,.011-.024l.112.094c-.062.142-.11.29-.16.438q-.081.244-.157.489-.153.5-.283,1-.032.124-.063.249a1.069,1.069,0,0,0-.048.232.157.157,0,0,0,.1.168c.092.021.152-.069.2-.129q.35-.408.689-.825.379-.465.745-.942a.081.081,0,0,0,.015-.035c.068.031.138.061.207.089a.374.374,0,0,0-.024.148c0,.062-.005.123-.005.185a3.472,3.472,0,0,0,.023.368c.007.063.021.143.1.145a.156.156,0,0,0,.126-.087l.22-.325a1.731,1.731,0,0,0,.109-.165.225.225,0,0,0,.026-.08q.168.044.338.076a.426.426,0,0,0,.023.07c.012.03.026.06.04.089q.04.084.088.163a.058.058,0,0,0,.091.009c.03-.041.059-.083.087-.126l.038-.06a.111.111,0,0,0,.024-.08v-.008a4.841,4.841,0,0,0,2.37-.337.447.447,0,0,0,.069.085c.034.037.07.071.107.1.071.065.144.128.22.186a.5.5,0,0,0,.119.082.076.076,0,0,0,.1-.079.934.934,0,0,0-.037-.146l0-.012a.57.57,0,0,0-.045-.168l-.036-.135c-.007-.027-.014-.053-.021-.079a.193.193,0,0,0-.017-.047l-.005-.007q.133-.071.263-.152a4.907,4.907,0,0,0,.648-.482l0,.006a.633.633,0,0,0,.061.064c.037.037.075.074.113.11l.232.222c.122.115.244.23.369.343a.35.35,0,0,0,.136.128.1.1,0,0,0,.019,0,.654.654,0,0,0,.2.1.061.061,0,0,0,.072-.077,7.621,7.621,0,0,0-.6-1.09l-.084-.131c-.023-.035-.048-.093-.089-.112l.072-.084.016.013a.2.2,0,0,0,.048.019l.078.024c.052.016.106.03.159.043a.109.109,0,0,0,.088-.011.1.1,0,0,0,.04-.082.345.345,0,0,0-.058-.144l-.043-.081c-.016-.031-.032-.077-.064-.093a.061.061,0,0,0-.017,0,4.889,4.889,0,0,0,.537-.979c.1.026.2.043.3.067.117.029.234.061.351.092.232.064.465.129.7.172a2.942,2.942,0,0,0,.412.046.062.062,0,0,0,.04-.107q-.307-.226-.62-.446l-.317-.22c-.013-.008-.025-.018-.038-.025s-.024-.009-.035-.015a.9.9,0,0,1-.082-.062l-.16-.11-.177-.119-.086-.057a.428.428,0,0,0-.04-.025c.033-.152.058-.306.077-.461a.135.135,0,0,0,.034,0c.025,0,.049-.008.074-.013.045-.01.091-.021.136-.033.093-.025.186-.052.279-.079.045-.013.059-.088.011-.107l-.258-.1-.13-.052a.569.569,0,0,0-.064-.025l-.031-.005h-.017c0-.061,0-.121,0-.182.125-.015.25-.033.374-.06l.011,0a2.48,2.48,0,0,0,.351-.08l.035-.008q.4-.1.787-.207.22-.063.439-.13a.064.064,0,0,0,0-.122,2.3,2.3,0,0,0-.4-.056c-.141-.01-.282-.017-.423-.025l-.876-.051-.247-.014c-.029,0-.06,0-.09,0-.007-.059-.016-.117-.028-.174a2.153,2.153,0,0,0-.109-.357,4.823,4.823,0,0,0-.3-.8l.026-.015c.04-.024.079-.05.117-.077l.232-.17c.153-.112.3-.226.457-.339a.062.062,0,0,0-.034-.113q-.306-.018-.612-.009c-.1,0-.2.008-.306.016l-.153.013a.2.2,0,0,0-.114.032,4.843,4.843,0,0,0-.759-.856c.007-.01.013-.021.019-.032l.17-.316.34-.632c.224-.415.451-.829.671-1.247a2.044,2.044,0,0,0,.162-.376c.077-.134.137-.287.029-.348" transform="translate(-41.498 -113.103)" fill="#39354d"/>
        <path id="Trazado_831057" data-name="Trazado 831057" d="M334.948,36.485a20.421,20.421,0,0,1-6.859-15.115c0-11.8,10.476-21.369,23.4-21.369s23.4,9.567,23.4,21.369-10.476,21.369-23.4,21.369a25.094,25.094,0,0,1-10.675-2.356c-2.059,1.337-4.256,2.5-6.4,3.681a.525.525,0,0,1-.762-.585c.385-2.339.826-4.67,1.3-6.994" transform="translate(-190.002 0)" fill="#39354d"/>
        <path id="Trazado_831058" data-name="Trazado 831058" d="M404.988,25.225H409.6a1.162,1.162,0,0,0,0-2.325h-4.612a1.162,1.162,0,1,0,0,2.325" transform="translate(-233.863 -13.262)" fill="#fff"/>
        <path id="Trazado_831059" data-name="Trazado 831059" d="M351.269,25.225h18.744a1.162,1.162,0,0,0,0-2.325H351.269a1.162,1.162,0,1,0,0,2.325" transform="translate(-202.753 -13.262)" fill="#dc5174"/>
        <path id="Trazado_831060" data-name="Trazado 831060" d="M358.594,37.967h26.451a1.162,1.162,0,1,0,0-2.324H358.594a1.162,1.162,0,1,0,0,2.324" transform="translate(-206.995 -20.641)" fill="#fff"/>
        <path id="Trazado_831061" data-name="Trazado 831061" d="M384.233,50.71h13.348a1.162,1.162,0,1,0,0-2.325H384.233a1.162,1.162,0,1,0,0,2.325" transform="translate(-221.843 -28.021)" fill="#fff"/>
        <path id="Trazado_831062" data-name="Trazado 831062" d="M342.722,50.71H356.07a1.162,1.162,0,1,0,0-2.325H342.722a1.162,1.162,0,1,0,0,2.325" transform="translate(-197.803 -28.021)" fill="#fff"/>
        <path id="Trazado_831063" data-name="Trazado 831063" d="M358.594,63.452h26.451a1.162,1.162,0,1,0,0-2.324H358.594a1.162,1.162,0,1,0,0,2.324" transform="translate(-206.995 -35.4)" fill="#fff"/>
        <path id="Trazado_831064" data-name="Trazado 831064" d="M353.1,76.195h12.063a1.162,1.162,0,1,0,0-2.325H353.1a1.162,1.162,0,1,0,0,2.325" transform="translate(-203.814 -42.779)" fill="#fff"/>
        <path id="Trazado_831065" data-name="Trazado 831065" d="M390.338,76.195h6.154a1.162,1.162,0,0,0,0-2.325h-6.154a1.162,1.162,0,1,0,0,2.325" transform="translate(-225.378 -42.779)" fill="#fff"/>
      </g>
    </g>
  </g>
</svg>
