<svg xmlns="http://www.w3.org/2000/svg" width="32.443" height="37.864" viewBox="0 0 32.443 37.864">
  <g id="cono-de-trafico" transform="translate(-36.653)">
    <path id="Trazado_680907" data-name="Trazado 680907" d="M100.224,42.473,108.9,9.1a.678.678,0,0,1,.656-.507h4.373a.678.678,0,0,1,.656.507l8.678,33.376" transform="translate(-58.87 -7.955)" fill="#fd7d10"/>
    <g id="Grupo_991570" data-name="Grupo 991570" transform="translate(37.288 0.635)">
      <path id="Trazado_680908" data-name="Trazado 680908" d="M111.23,8.591h-1.672a.678.678,0,0,0-.656.507l-8.678,33.376h8.81L111.075,9.1C111.094,8.8,111.157,8.591,111.23,8.591Z" transform="translate(-96.158 -8.591)" fill="#e3791e"/>
      <path id="Trazado_680909" data-name="Trazado 680909" d="M75.739,466.756H45.922a.678.678,0,0,0-.678.678v1.355a.678.678,0,0,0,.678.678H75.739a.678.678,0,0,0,.678-.678v-1.355A.678.678,0,0,0,75.739,466.756Z" transform="translate(-45.244 -432.873)" fill="#e3791e"/>
    </g>
    <path id="Trazado_680910" data-name="Trazado 680910" d="M56.764,468.789v-1.355a.678.678,0,0,1,.678-.678H45.922a.678.678,0,0,0-.678.678v1.355a.678.678,0,0,0,.678.678h11.52A.678.678,0,0,1,56.764,468.789Z" transform="translate(-7.956 -432.238)" fill="#f56e2d"/>
    <g id="Grupo_991571" data-name="Grupo 991571" transform="translate(43.116 10.123)">
      <path id="Trazado_680911" data-name="Trazado 680911" d="M124.048,324.209h19.517l-1.057-4.066h-17.4Z" transform="translate(-124.048 -306.59)" fill="#e4eaf8"/>
      <path id="Trazado_680912" data-name="Trazado 680912" d="M171.7,140.943h12.469l-1.057-4.066H172.755Z" transform="translate(-168.174 -136.877)" fill="#e4eaf8"/>
    </g>
    <g id="Grupo_991572" data-name="Grupo 991572" transform="translate(43.116 10.123)">
      <path id="Trazado_680913" data-name="Trazado 680913" d="M171.7,140.943h4.768l.249-4.066h-3.959Z" transform="translate(-168.174 -136.877)" fill="#c7cfe2"/>
      <path id="Trazado_680914" data-name="Trazado 680914" d="M124.048,324.209h7.462l.249-4.066h-6.654Z" transform="translate(-124.048 -306.59)" fill="#c7cfe2"/>
    </g>
    <path id="Trazado_680915" data-name="Trazado 680915" d="M313.542,458.166h-1.355a.635.635,0,0,0,0,1.271h1.355a.635.635,0,1,0,0-1.271Z" transform="translate(-254.569 -424.283)"/>
    <path id="Trazado_680916" data-name="Trazado 680916" d="M67.783,33.883h-2.9L56.332.983A1.313,1.313,0,0,0,55.061,0H50.688a1.313,1.313,0,0,0-1.271.983l-8.554,32.9h-2.9A1.314,1.314,0,0,0,36.653,35.2v1.355a1.314,1.314,0,0,0,1.313,1.313H67.783A1.314,1.314,0,0,0,69.1,36.551V35.2A1.314,1.314,0,0,0,67.783,33.883ZM44.665,24.311H54.908a.635.635,0,0,0,0-1.271H44.995l2.136-8.217H58.618l2.136,8.217H57.618a.635.635,0,0,0,0,1.271h3.466l.727,2.8H43.938ZM50.647,1.3a.042.042,0,0,1,.041-.032h4.373A.042.042,0,0,1,55.1,1.3L57.23,9.487h-.968a.635.635,0,0,0,0,1.271h1.3l.727,2.8H47.462l.727-2.8h5.364a.635.635,0,0,0,0-1.271H48.519ZM67.825,36.551a.042.042,0,0,1-.042.042H37.966a.042.042,0,0,1-.042-.042V35.2a.042.042,0,0,1,.042-.042H54.907a.635.635,0,1,0,0-1.271H42.176l1.432-5.506H62.141l1.432,5.506H61.684a.635.635,0,0,0,0,1.271h6.1a.042.042,0,0,1,.042.042Z"/>
  </g>
</svg>
