<svg id="Grupo_1082187" data-name="Grupo 1082187" xmlns="http://www.w3.org/2000/svg" xmlns:xlink="http://www.w3.org/1999/xlink" width="306.692" height="311.166" viewBox="0 0 306.692 311.166">
  <defs>
    <clipPath id="clip-path">
      <rect id="Rect치ngulo_384127" data-name="Rect치ngulo 384127" width="306.692" height="311.165" fill="none"/>
    </clipPath>
    <clipPath id="clip-path-2">
      <rect id="Rect치ngulo_384128" data-name="Rect치ngulo 384128" width="306.692" height="306.691" fill="none"/>
    </clipPath>
  </defs>
  <g id="Grupo_1082182" data-name="Grupo 1082182">
    <g id="Grupo_1082181" data-name="Grupo 1082181" clip-path="url(#clip-path)">
      <path id="Trazado_831754" data-name="Trazado 831754" d="M297.194,206.6A123.6,123.6,0,1,1,173.6,83a123.6,123.6,0,0,1,123.6,123.6" transform="translate(-19.331 -32.089)" fill="#f2d386"/>
    </g>
  </g>
  <g id="Grupo_1082184" data-name="Grupo 1082184">
    <g id="Grupo_1082183" data-name="Grupo 1082183" clip-path="url(#clip-path-2)">
      <path id="Trazado_831755" data-name="Trazado 831755" d="M262.343,296.819c-.151.034-.327.08-.51.112-.14.442-.279.884-.42,1.324-.664,2.066-1.125,5.058-2.494,6.972a23.038,23.038,0,0,1,4.726,3.878c.138.153.006.46-.218.374-3.722-1.409-6.924-4.044-10.507-5.779a58.708,58.708,0,0,1-9.159-5.326,46.051,46.051,0,0,1-13.083-14.937c-.169.424-.345.846-.535,1.261a.233.233,0,0,1-.431-.118c.248-4.635,2.42-9.038,3.07-13.636a24,24,0,0,0-2.623-14.806,33.348,33.348,0,0,0-4.137-6.323c-.5-.587-4.279-4.856-4.164-2.344.207,4.527,3.434,7.973,5.054,12.005a15.009,15.009,0,0,1,1.329,1.174c.153.156.056.507-.2.474a6.284,6.284,0,0,1-.975-.211.526.526,0,0,1-.715-.135c-.036-.052-.069-.107-.1-.16-2.221-.942-4.193-2.9-5.941-4.362-2.158-1.8-5.114-4.684-8.053-5.181s-.287,3.07.475,3.824c.838.832,1.723,1.6,2.626,2.361,2.079,1.749,5.2,4.24,5.893,6.977a.341.341,0,0,1-.565.329c-.118-.1-.232-.2-.348-.3-3.162-.854-5.965-3.032-9.127-4.03-.773-.243-5.919-2.094-5.838-.5.1,1.947,4.418,3.21,5.83,3.982a11.859,11.859,0,0,1,5.109,4.865.349.349,0,0,1-.312.507.357.357,0,0,1-.138.025c-2.522,0-5.075-.894-7.6-1.126-1.209-.112-7.782-.71-4.649,1.932,3.164,2.669,8.427,1.506,11.341,4.647.148.161.062.513-.2.48a9.189,9.189,0,0,1-.978-.187c-.51,1.681-1.374,3.2-1.5,5.018a11.82,11.82,0,0,0,.576,4.978,8.981,8.981,0,0,0,3.582,4.67c1.594.95,3.2,1.072,4.95,1.506a.527.527,0,0,1,0,1.011,6.118,6.118,0,0,1-1.231.141c1.349,2.822,3.567,5.013,5.6,7.363,2.442,2.827,4.559,5.939,6.905,8.847,4.89,6.061,10.45,12.141,17.313,16.005,3.636,2.047,8.076,3.829,12.3,2.65a17.281,17.281,0,0,0,8.263-5.466.4.4,0,0,1,.3-.353c.013-.018.028-.033.043-.05,4.99-5.971,7.642-13.477,9.416-20.957-3.365-1.648-6.594-3.213-10.535-3.6a23.831,23.831,0,0,0-7.411.2m-1.494,26.649c-.158.318-.276.65-.421.973a2.133,2.133,0,0,1-.443.782.2.2,0,0,1-.324-.086c-.236-.669.408-1.487.8-1.965.188-.224.5.062.385.3m2.194-.387c-.281.716-.423,1.649-1.06,2.141-.1.076-.237-.028-.237-.137a4.622,4.622,0,0,1,.936-2.157c.112-.185.447-.062.361.153m2.568-.781a3.912,3.912,0,0,1-1.411,2.45.163.163,0,0,1-.237-.182,17.448,17.448,0,0,1,1.219-2.449.235.235,0,0,1,.428.18" transform="translate(-78.396 -95.373)" fill="#efc9af"/>
      <path id="Trazado_831756" data-name="Trazado 831756" d="M241.178,154.911a1.664,1.664,0,0,0-.777.926c.013.023.022.048.036.071a2.535,2.535,0,0,0,2.405,1.23,2.971,2.971,0,0,0,.653-1.18,2.8,2.8,0,0,0,.06-.435,2.921,2.921,0,0,0-.82-.516,2.016,2.016,0,0,0-1.556-.1" transform="translate(-92.943 -59.844)" fill="#fff"/>
      <path id="Trazado_831757" data-name="Trazado 831757" d="M276.4,192.882c-1.288.846-3.2.994-4.68,1.424-1.851.54-3.69.891-5.579,1.247-.193.036-.278-.255-.083-.3a50.281,50.281,0,0,0,6.06-2.2c1.282-.456,2.722-1.142,4.078-.85a3.235,3.235,0,0,0-2.168-1.519c-2.832-.8-5.779.039-8.506.885-4.461,1.384-8.881,2.436-13.467,2.113a.418.418,0,0,1-.248.271c-.772.333-.595,1.364-.075,2.457,1.586-.163,3.221-.045,4.815-.19,1.86-.169,3.728-.263,5.6-.3.126,0,.159.2.031.224-2.948.516-6.871,1.895-9.992,1.1a8.284,8.284,0,0,0,1.941,2.339c2.7,1.576,6.036,1.542,9.049,1.07,4.086-.64,8.51-1.714,11.681-4.568a3.947,3.947,0,0,0,1.545-3.209" transform="translate(-97.153 -73.599)" fill="#fff"/>
      <path id="Trazado_831758" data-name="Trazado 831758" d="M244.461,233.553c-.436,3.972,1.913,7.408,4.952,9.831a15,15,0,0,0,10.621,2.963,27.772,27.772,0,0,0,11.289-3.225c3.407-1.866,7.21-4.486,8.681-8.218-.886-.2-1.773-.384-2.668-.552-1.447,2.81-4.943,5.078-7.649,6.3a26.543,26.543,0,0,1-10.118,2.495c-5.617.142-12.755-3.025-10.843-9.873-1.424.077-2.845.164-4.264.282" transform="translate(-94.492 -90.186)" fill="#c6759c"/>
      <path id="Trazado_831759" data-name="Trazado 831759" d="M295.672,158.943a2.955,2.955,0,0,0,.653-1.181,2.73,2.73,0,0,0,.06-.435,2.923,2.923,0,0,0-.821-.516,2.011,2.011,0,0,0-1.556-.1,1.66,1.66,0,0,0-.777.927c.013.023.022.047.035.07a2.537,2.537,0,0,0,2.405,1.23" transform="translate(-113.368 -60.542)" fill="#fff"/>
      <path id="Trazado_831760" data-name="Trazado 831760" d="M255.423,235.492c-1.48,4.276-5.929,7.531-9.864,9.457a28.178,28.178,0,0,1-13.488,3.163c-4.247-.206-8.13-1.584-11.023-4.813-2.219-2.479-4.491-6.12-3.21-9.479a51.677,51.677,0,0,0-7.964,1.267c-5.973,1.5-11.594,4.124-17.134,6.767-5.168,2.466-10.277,5.058-15.462,7.488,1.205,1.038,1.9,3.217,2.446,4.5a47.553,47.553,0,0,1,2.23,6.683,52.108,52.108,0,0,1,1.407,7.213,10.476,10.476,0,0,1,.048,3.684c2.988-1.207,5.939-2.578,8.871-3.862a13.759,13.759,0,0,1,.847-1.272c-1.11-.758-2.009-1.784-1.8-3.017.4-2.33,3.841-2.035,5.54-1.9a32.856,32.856,0,0,1,6.863.922,13.911,13.911,0,0,0-2.763-2.194c-1.307-.708-2.7-1.251-3.985-2-1.377-.809-4.14-2.663-2.568-4.6,1.429-1.756,4.54-.619,6.284-.034a44,44,0,0,1,6.69,2.638c-.6-.666-1.192-1.327-1.808-1.933-1.169-1.154-2.517-2.111-3.653-3.3-1.355-1.421-3.754-4.248-1.495-5.995,2.1-1.628,5.853,1.225,7.5,2.418,1.857,1.35,3.55,2.88,5.311,4.349.445.37.913.722,1.389,1.07a46.291,46.291,0,0,1-2.7-5.973c-.548-1.487-1.852-4.193-1-5.825,1.865-3.586,6.983,3.469,7.907,4.778,3.345,4.74,6.2,10.6,5.909,16.547a38,38,0,0,1-1.581,8.754c-.636,2.182-1.22,4.443-2.008,6.6,2.482,2.285,4.04,5.609,6.306,8.1a45.03,45.03,0,0,0,8.391,7.315c3.68,2.436,8.081,4.192,12,6.5,1.532-3.091,2.267-6.915,3.294-10.137.569-1.789,1.125-3.582,1.683-5.375a.381.381,0,0,1,.128-.4c.575-1.849,1.151-3.7,1.744-5.539,1.944-6.035,1.812-13.128,5.587-18.468.1-.138.364-.058.3.124-2.658,6.907-3.092,14.293-5.213,21.349-.2.67-.41,1.337-.615,2a36.6,36.6,0,0,1,11.018-.48c3.236.281,6.818.824,9.436,2.884.855-3.818,1.523-7.686,2.114-11.5.991-6.4,1.732-13.234.436-19.646-1.478-7.309-5.817-12.092-12.449-15.374a47.419,47.419,0,0,0-9.881-3.507c0,.019-.007.036-.013.054" transform="translate(-68.539 -90.398)" fill="#e090c1"/>
      <path id="Trazado_831761" data-name="Trazado 831761" d="M301.764,315.516q-1.012,3.286-2.055,6.563a12.393,12.393,0,0,1,2.384-.461,23.963,23.963,0,0,1,7.568.279,29.014,29.014,0,0,1,6.782,2.195,17.6,17.6,0,0,1,3.55,1.965c.9-2.605,1.637-5.279,2.276-7.985-2.839-2.568-7.35-3-10.994-3.089a94.1,94.1,0,0,0-9.511.534" transform="translate(-115.872 -121.773)" fill="#c6759c"/>
      <path id="Trazado_831762" data-name="Trazado 831762" d="M173.689,262.616a24.982,24.982,0,0,1-1.511-2.939c-.223.1-.444.212-.668.315-1.9.876-3.735,1.807-5.562,2.788a12.83,12.83,0,0,1,1.616,2.836,30.442,30.442,0,0,1,2.022,4.792c1.243,3.622,2.69,7.989,1.855,11.855a.37.37,0,0,1-.672.088,8.928,8.928,0,0,1-.78-4.238c-.705.368-1.434.7-2.172,1.022.137,1.385.052,2.934.795,4.016,1.238,1.8,5.467.1,7.094-.471.7-.243,1.392-.5,2.085-.772.447-4.2-.5-8.414-1.657-12.448a44.725,44.725,0,0,0-2.445-6.845" transform="translate(-64.158 -100.395)" fill="#c6759c"/>
      <path id="Trazado_831763" data-name="Trazado 831763" d="M246.888,447.02a165.67,165.67,0,0,1-20.978,1.574c-7.365.053-14.764-.159-22.12-.526-3.506-.175-7.015-.389-10.518-.618a21.491,21.491,0,0,1-6.727-1.193q-.3,2.712-.607,5.43a5.8,5.8,0,0,0,.592.332.338.338,0,0,1,.338.126c.012.015.019.032.03.045,2.063.89,4.745.964,6.782,1.274q5.285.8,10.626,1.119c7.055.408,14.134.346,21.193.1,7.156-.247,14.307-.693,21.432-1.394,6.365-.627,13.346-.846,19.479-2.958a.387.387,0,0,1,.622-.225c.275-.1.551-.2.823-.311-.277-2.357-.5-4.727-.689-7.1-3.2.748-6.3,1.856-9.526,2.5-3.566.711-7.148,1.337-10.753,1.825" transform="translate(-71.887 -171.153)" fill="#c6759c"/>
      <path id="Trazado_831764" data-name="Trazado 831764" d="M266.882,467.648c.038-2.232.108-4.461.154-6.692a28.727,28.727,0,0,0,.042-3.582c-6.214,2.182-13.3,2.452-19.752,3.071-8.059.771-16.144,1.284-24.238,1.475a179.528,179.528,0,0,1-23.829-.643c-3.3-.363-6.591-.835-9.847-1.486a15.573,15.573,0,0,1-1.576-.383,10.879,10.879,0,0,1-.108,2.274c-.228,1.967-.57,3.9-.667,5.885a74.107,74.107,0,0,0,.133,10.005c.258,2.976.972,6.017.942,9,2.4.606,5.816-.107,8.171-.19,3.338-.119,6.674-.28,10.012-.437,7.024-.327,14.048-.705,21.081-.741,7.137-.035,14.27.128,21.406.169,6.382.035,12.75-.274,19.127-.32-1.962-5.266-1.143-11.963-1.052-17.4" transform="translate(-72.279 -176.828)" fill="#7cbadd"/>
      <path id="Trazado_831765" data-name="Trazado 831765" d="M187.721,464.024c13.376,5.056,25.8,12.058,38.783,18.159,2.071.973,4.364,1.961,6.717,3.026,5.294.034,10.588.131,15.883.161,6.382.035,12.75-.274,19.126-.32-1.962-5.265-1.143-11.963-1.052-17.4.038-2.232.108-4.46.154-6.691a28.625,28.625,0,0,0,.042-3.582c-6.214,2.182-13.3,2.452-19.752,3.07-8.059.771-16.144,1.285-24.238,1.475a179.538,179.538,0,0,1-23.829-.643c-3.3-.363-6.591-.835-9.847-1.486a15.772,15.772,0,0,1-1.576-.383,10.873,10.873,0,0,1-.108,2.273c-.09.785-.2,1.564-.3,2.343" transform="translate(-72.576 -176.828)" fill="#6196c1"/>
      <path id="Trazado_831766" data-name="Trazado 831766" d="M292.234,65.643c-8.632-6-18.672-7.063-28.424-3.686a.453.453,0,0,1-.54.194c-.171.062-.34.122-.511.186-.386.147-.65-.3-.53-.616-8.761-3.71-17.892-5.237-27.415-3.635-8.683,1.46-16.342,5.063-22.17,11.8a45.293,45.293,0,0,0-10.87,24.238c-.515,4.761-.366,9.649,1.716,14.054a32.66,32.66,0,0,0,2.66,4.5.34.34,0,0,1,.3.427c1.459,2.094,3.018,4.116,4.342,6.33.258.431-.314.823-.667.515a30.669,30.669,0,0,1-4.623-5.147,53.419,53.419,0,0,0-4.013,10.613c-1.2,4.2-2.889,8.308-3.515,12.649-.721,5-.061,10.311,3.6,14.1,4.223,4.37,9.19,4.661,14.865,5.241a.379.379,0,0,1,.1.742c-.255.07-.508.125-.762.18a26.563,26.563,0,0,0,2.707,3.936,7.533,7.533,0,0,0,2.341,1.854c.488.214,1.029.294,1.5.505a65.927,65.927,0,0,1,13.84-.734c.01-.6.067-1.214.125-1.781a6.879,6.879,0,0,1,.21-1.446c-5.969.025-11.907-.958-16.972-4.366a19.288,19.288,0,0,1-8.575-14.816c-.6-7.182,1.329-14.042,2.74-21.005a147.635,147.635,0,0,0,2.3-15.661c.42-4.519.269-9.385,1.25-13.832a16.433,16.433,0,0,1-.785-10.764c.042-.148.3-.124.277.037-.87,6.572,2,12.987,6.666,17.522.8-6.229,1.756-12.923,5.662-17.987a18.861,18.861,0,0,1,1.475-9.426c.075-.173.334-.045.294.125a24.465,24.465,0,0,0,4.924,21.436,26.061,26.061,0,0,0,8.634,7c3.659,1.757,7.216,1.869,11.026,2.156a19.8,19.8,0,0,1-2.182-2.039c-5.311-5.807-7.473-12.941-7.364-20.687a.154.154,0,0,1,.309,0A30.326,30.326,0,0,0,252.97,96.64a21.361,21.361,0,0,0,7.678,6c2.093.9,5.3,2.235,7.72,1.709a18.666,18.666,0,0,1-3.239-4.318c-2.779-5.179-3.492-10.994-3.918-16.769a.161.161,0,0,1,.316-.043c.94,5.249,1.819,10.878,4.449,15.6a17.831,17.831,0,0,0,5.554,6.342c2.629,1.734,5.435,2.352,8.312,3.35-.093-1.725-.234-3.447-.432-5.153-.021-.178.267-.21.31-.042a44.925,44.925,0,0,1,1.162,17.413,30.653,30.653,0,0,1-2.265,8.788,41.193,41.193,0,0,1-3.393,5.23c3.38-1.615,6-5.468,7.867-8.4a22.878,22.878,0,0,0,3-6.371c.691-2.6.927-5.309,1.865-7.841a.323.323,0,0,1,.631.086,21.636,21.636,0,0,1-.326,4.678c2.055-1.231,4.954-.327,6.788,1.275a9.169,9.169,0,0,1,2.874,10.351,17.532,17.532,0,0,1-8.972,9.818c-2.844,1.386-7.7,3.354-10.716,1.43-.958,5.162-4.753,10.315-8.958,13.229a40.4,40.4,0,0,1-7.943,4.269c-2.515,1.015-5.254,2.327-8,2.493-.041.724-.186,1.447-.267,2.166-.078.7-.136,1.406-.264,2.1a45.549,45.549,0,0,1,6.326.611.453.453,0,0,1,.456.075c1.03.179,2.059.4,3.082.646a8.791,8.791,0,0,0,3-.369,23.619,23.619,0,0,0,3.419-1.606c1.619-.9,3.469-2.271,5.414-2.073a.313.313,0,0,1,.275.332c4.96.14,9.788.378,14.365-2.051a13.876,13.876,0,0,0,5.507-4.8c1.359-2.24,1.659-4.523,2.235-7.018a.173.173,0,0,1,.331,0,8.132,8.132,0,0,1,.339,3.209c3.426-3.559,6.739-6.666,8.457-11.524a53.877,53.877,0,0,0,2.494-14.233c.748-10.586.776-21.426-1.245-31.881-2.012-10.408-5.96-21.395-15.027-27.7M280.85,95.209c-1.722-5.009-2.723-10.19-4.616-15.16-.172-.451.545-.737.77-.324a37.541,37.541,0,0,1,4.457,15.4c.019.367-.5.4-.611.083m13.1-.795a.218.218,0,0,1-.435,0,57.121,57.121,0,0,0-3.456-15.092c-.153-.383.5-.658.666-.281,2.138,4.866,3.716,10,3.225,15.373" transform="translate(-76.44 -22.213)" fill="#ce784d"/>
      <path id="Trazado_831767" data-name="Trazado 831767" d="M321.708,77.3a25.785,25.785,0,0,0-4.252-6.432,27.226,27.226,0,0,0-2.667-2.135,32.039,32.039,0,0,0-6.03-3.294,10.026,10.026,0,0,0,.347,2.985.758.758,0,0,1-.921.922c-2.655-.488-7.359-4.819-7.569.26a.756.756,0,0,1-.749.75c-1.518-.085-3.931-.964-5.352-.231a19.377,19.377,0,0,0-3.1,1.646.738.738,0,0,1-.723.55c-2.071-.267-3.837-.983-5.963-.983a18.437,18.437,0,0,1-5.4-.585c-1.322-.366-2.927-1.015-4.272-.492a17.216,17.216,0,0,1-2.837,1.05c-2.841.553-4.433-1.973-7.354.252a.754.754,0,0,1-1.024-.269c-1.531-2.174-4.891-6.182-7.223-2.293a.689.689,0,0,1-.569.355,20.42,20.42,0,0,0,.389,2.551c.355,1.587.791,3.49,1.994,4.676,1.886,1.861,2.481-2.143,3.041-3.574a.76.76,0,0,1,1.252-.33c1.722,1.558,3.812,6.552,6.843,4.036.795-.659,2.04-.045,2.9.15a8.628,8.628,0,0,1,4.773,2.617,9.927,9.927,0,0,0,2.746,2.345c1.879.83,1.728-2.6,1.766-3.7a.756.756,0,0,1,1.127-.648c2.7,1.9,9.823,9.752,12.4,4.527a.739.739,0,0,1,.846-.345c.909.359,1.8.752,2.693,1.154a.437.437,0,0,1,.73,0c.075.139.144.286.218.428,1.775.813,3.547,1.638,5.392,2.3a17.717,17.717,0,0,0,5.964,1.451c2.5-.04,2.138-1.913,1.442-3.758a.687.687,0,0,1,.109-.623c-.026-.066-.047-.132-.074-.2-.154-.383.5-.658.666-.281.023.055.045.109.069.162,2.225.236,4.129,1.51,6.263,2.085,4.93,1.329,3.213-4.647,2.1-7.078" transform="translate(-98.995 -25.298)" fill="#d89060"/>
      <path id="Trazado_831768" data-name="Trazado 831768" d="M289.37,108.083c-4.308-4.454-7.451-10-12.5-13.674a30.535,30.535,0,0,0,6.7,16.518,21.361,21.361,0,0,0,7.678,6c2.094.9,5.3,2.235,7.72,1.709a18.682,18.682,0,0,1-3.239-4.319c-2.463-4.591-3.3-9.682-3.759-14.8-.283-.318-.566-.635-.851-.948a39.6,39.6,0,0,1-.5,9.186.755.755,0,0,1-1.253.331" transform="translate(-107.042 -36.5)" fill="#b7603e"/>
      <path id="Trazado_831769" data-name="Trazado 831769" d="M210.956,148.577c-.6-7.182,1.329-14.042,2.74-21.005a147.649,147.649,0,0,0,2.3-15.661c.42-4.519.269-9.385,1.25-13.832a16.437,16.437,0,0,1-.785-10.764c.042-.148.3-.124.277.037-.87,6.572,2,12.987,6.666,17.522.8-6.229,1.756-12.923,5.662-17.987a19.9,19.9,0,0,1-.021-3.488c-.659,1.389-1.248,2.818-1.852,4.242-.23.543-1.032.432-1.294,0-2.214-3.646-2.646-7.726-3.318-11.826-4.9,5.506-9.306,11.419-13.848,17.218-.5.635-1.4-.066-1.253-.729A104.926,104.926,0,0,1,211.551,78.3a45.045,45.045,0,0,0-9.777,22.924c-.515,4.761-.366,9.649,1.716,14.054a32.606,32.606,0,0,0,2.66,4.5.339.339,0,0,1,.3.427c1.459,2.094,3.018,4.116,4.342,6.329.258.431-.314.823-.667.515A30.7,30.7,0,0,1,205.5,121.9a53.427,53.427,0,0,0-4.013,10.613c-1.2,4.2-2.889,8.308-3.515,12.649-.721,5-.061,10.31,3.6,14.1,4.223,4.37,9.19,4.66,14.865,5.241a.379.379,0,0,1,.1.742c-.255.07-.508.125-.761.18a26.514,26.514,0,0,0,2.707,3.936,7.528,7.528,0,0,0,2.342,1.854c.488.214,1.029.294,1.5.505a65.927,65.927,0,0,1,13.84-.734c.01-.6.067-1.214.125-1.781a6.88,6.88,0,0,1,.21-1.446c-5.969.025-11.906-.958-16.972-4.366a19.288,19.288,0,0,1-8.575-14.816" transform="translate(-76.439 -29.311)" fill="#b7603e"/>
      <path id="Trazado_831770" data-name="Trazado 831770" d="M341.989,111.3c-.088-.454-.185-.909-.28-1.364a8.659,8.659,0,0,1-3.631,3.685.752.752,0,0,1-.757,0,17.71,17.71,0,0,1-4.674-4.319,45.892,45.892,0,0,1-2.6,5.8.75.75,0,0,1-1.025.269c-2.028-1.464-3.093-3.65-4.535-5.6a33.145,33.145,0,0,1-2.3,7.076.747.747,0,0,1-1.025.269,31.3,31.3,0,0,1-5.048-4.907c.024.293.06.589.075.88.019.367-.5.4-.611.083-.3-.861-.566-1.727-.827-2.6-1.08-1.315-2.149-2.644-3.293-3.918a14.188,14.188,0,0,1-2.928,5.973.73.73,0,0,1-.728.193c-4.688-1.643-7.867-5.3-11.058-8.907.805,4.423,1.782,8.952,3.959,12.86a17.833,17.833,0,0,0,5.554,6.342c2.629,1.734,5.435,2.351,8.312,3.35-.093-1.726-.234-3.447-.432-5.153-.021-.179.267-.211.31-.042a44.927,44.927,0,0,1,1.162,17.413,30.651,30.651,0,0,1-2.265,8.788,41.1,41.1,0,0,1-3.393,5.229c3.38-1.615,6-5.468,7.867-8.4a22.846,22.846,0,0,0,3-6.371c.692-2.6.928-5.309,1.865-7.84a.323.323,0,0,1,.631.085,21.648,21.648,0,0,1-.326,4.679c2.055-1.232,4.954-.327,6.788,1.275a9.168,9.168,0,0,1,2.874,10.351,17.53,17.53,0,0,1-8.972,9.817c-2.844,1.386-7.7,3.355-10.716,1.43-.957,5.161-4.752,10.314-8.958,13.228a40.307,40.307,0,0,1-7.943,4.27c-2.515,1.015-5.254,2.327-8,2.493-.041.724-.186,1.448-.267,2.166-.078.7-.136,1.407-.263,2.1a45.627,45.627,0,0,1,6.325.611.452.452,0,0,1,.456.076c1.03.178,2.059.4,3.082.645a8.748,8.748,0,0,0,3-.369,23.485,23.485,0,0,0,3.419-1.605c1.619-.9,3.469-2.271,5.414-2.073a.314.314,0,0,1,.275.333c4.96.14,9.788.378,14.365-2.051a13.876,13.876,0,0,0,5.507-4.8c1.359-2.241,1.659-4.524,2.235-7.019a.173.173,0,0,1,.331,0,8.132,8.132,0,0,1,.339,3.208c3.426-3.558,6.739-6.666,8.457-11.523a53.877,53.877,0,0,0,2.494-14.233c.748-10.586.776-21.426-1.245-31.882" transform="translate(-111.168 -40.177)" fill="#b7603e"/>
      <path id="Trazado_831771" data-name="Trazado 831771" d="M273.678,108.4a28.256,28.256,0,0,1-7.3-17.843c-.515,2.9-.3,5.919-1.2,8.771a.758.758,0,0,1-1.252.331c-5.554-4.981-8.154-11.909-12.165-18.008-.38.543-.727,1.1-1.056,1.675a24.355,24.355,0,0,0,5.494,17.954,26.07,26.07,0,0,0,8.634,7c3.658,1.757,7.216,1.869,11.026,2.156a19.8,19.8,0,0,1-2.182-2.039" transform="translate(-96.883 -31.566)" fill="#b7603e"/>
      <path id="Trazado_831772" data-name="Trazado 831772" d="M254.554,175.1q-.933.109-1.879.205c-.309.977-2.331,1.62-3.064,1.871a9.852,9.852,0,0,1-2.865.688,23.016,23.016,0,0,1-.162,2.553.6.6,0,0,1-1.145,0c-.025-.128-.045-.256-.059-.389-1.645.117-3.286.2-4.925.287.383,2.781.7,5.593,3.445,7.08a13.853,13.853,0,0,0,8.137,1.18,25.311,25.311,0,0,0,8.755-2.566,23.647,23.647,0,0,0,6.061-4.868c-2.017-.348-4.058-.649-6.122-.946-.543-.078-.512-.788-.131-1.04a9.849,9.849,0,0,1,.228-1.855,7.159,7.159,0,0,1,.8-3.014.772.772,0,0,1,.684-.908c2.8-.283,5.777-1.652,8.332-2.787a37.148,37.148,0,0,0,7.017-3.895,19.912,19.912,0,0,0,5.934-6.59c1.029-1.9,1.757-4.142,3.141-5.813a4.756,4.756,0,0,1-.4-.422.26.26,0,0,1,.25-.431,14.721,14.721,0,0,0,11.33-1.708,16.422,16.422,0,0,0,7.023-6.961c1.443-3.1,1.824-6.608-.568-9.352-2.1-2.412-4.447-3.388-7.23-2.076a29.019,29.019,0,0,1-4.485,9.7c-2.336,3.354-5.387,7.584-9.609,8.561a.638.638,0,0,1-.713-.927c1.284-2.577,3.423-4.7,4.4-7.426a37.082,37.082,0,0,0,2.01-8.485,69.236,69.236,0,0,0,.309-10.342,15.4,15.4,0,0,1-10.525-4.1c-.808,1-2.659.785-4.31.361a19.813,19.813,0,0,1-2.872,1.291,33.765,33.765,0,0,1-5.852,2.073c-.94.21-6.536.626-4.589-1.928a.163.163,0,0,1,.278,0c1.345,2.128,5.185.324,7.052-.293,1.151-.382,2.644-1.191,4.093-1.714-.268-.09-.5-.169-.695-.23a21.873,21.873,0,0,1-5.294-2.487c-12.755,2.676-25.808-8.546-27.907-21.005-3.313,5.119-4,11.863-4.754,17.74a.647.647,0,0,1-1.091.453,23.676,23.676,0,0,1-5.468-7,76.016,76.016,0,0,1-.555,11.395c-.385,4.475-.891,8.944-1.675,13.367-1.25,7.059-3.53,14.083-3.47,21.316.055,6.527,2.234,12.821,8,16.449,6.3,3.964,13.563,4.557,20.8,4.59a9.388,9.388,0,0,1,1.02-.194.312.312,0,0,1,.325.2c.183,0,.367,0,.55,0a.982.982,0,0,1,.443-.006l0,0c.669,0,1.335-.013,2-.019.275,0,.259.385,0,.415m37.407-23.942c2.307-1.37,4.752-5.181.86-6.3a.7.7,0,0,1-.41-1.01c1.524-3.12,7.868-9.044,10.723-4.019a.189.189,0,0,1-.256.256,4.655,4.655,0,0,0-5.746.224,12,12,0,0,0-3.162,3.541c3.728,1.845,1.884,6.545-1.867,7.643a.185.185,0,0,1-.142-.337m-16.7,13.171a.142.142,0,0,1-.271,0c-.08-.288-.212-.531-.266-.828-.058-.317-.093-.629-.122-.95-.024-.255.326-.251.408-.055a4.774,4.774,0,0,1,.342,1.08,2.029,2.029,0,0,1-.091.754m1.437-1.1a.156.156,0,0,1-.281.037,4.7,4.7,0,0,1-.357-2.609.175.175,0,0,1,.342-.047,4.4,4.4,0,0,1,.3,2.619m1.157-1.554a7.022,7.022,0,0,1-.743-2.222c-.043-.3.372-.429.458-.126a6.906,6.906,0,0,1,.542,2.278.139.139,0,0,1-.256.07m1.384-26.286c.232.028.406.375.136.5-.986.451-2.071.631-3.09,1a21.1,21.1,0,0,0-3.194,1.608.36.36,0,0,1-.434-.562,8.832,8.832,0,0,1,6.582-2.546m-13.977-5.339c.35-1.582,2.5-2.062,3.9-1.744a5,5,0,0,1,3.493,2.47c1.081,2.217-.635,4.835-2.632,5.83-2.159,1.076-5.636.588-6.1-2.3a5,5,0,0,1,1.341-4.261m-18.37,10.588c.5-.085.483-2.669.531-3.083a.172.172,0,0,1,.343,0c.131,1.109.109,2.246.323,3.345a.516.516,0,0,1-.235.578,22.665,22.665,0,0,0-4.711,2.239c-2.569,1.9.65,4.081,2.5,4.689a.4.4,0,0,1,0,.767c-2.2.759-5.468-2.206-5.017-4.5.288-1.456,2.427-2.571,3.611-3.079a12.136,12.136,0,0,1,2.655-.959M230.8,118.373c1.178-1.826,4.3-3.838,6.563-3.175,2.013.59,3.6,2.838,4.207,4.781a.653.653,0,0,1-.953.732c-1.433-.965-1.769-3.712-3.668-4.012-2.294-.363-3.724,1.623-5.711,2.244a.391.391,0,0,1-.439-.57m.935,18.4a6.294,6.294,0,0,1-2.549-2.577c-.1-.168.066-.436.272-.355,1.151.456,1.682,1.591,2.658,2.28a.378.378,0,0,1-.382.652m-.224-3.571a5,5,0,0,1,1.341-4.261c.35-1.582,2.5-2.062,3.9-1.744a5.01,5.01,0,0,1,3.493,2.47c1.08,2.217-.635,4.835-2.633,5.83-2.16,1.077-5.636.588-6.1-2.3M244.9,165.688a7.8,7.8,0,0,1-5.747-4.913c-.472-1.062-.9-2.681-.143-3.576-.631-.086-1.264-.2-1.9-.341-.19-.043-.134-.311.044-.323,2.88-.185,5.747.142,8.617-.351a39.543,39.543,0,0,0,5.969-1.567c3.071-1.035,6.664-2.446,9.971-1.836,2.256.416,4.84,1.889,4.779,4.483-.048,2.086-2.309,3.791-3.889,4.786-4.839,3.046-12.049,5.041-17.7,3.637" transform="translate(-85.603 -37.269)" fill="#efc9af"/>
      <path id="Trazado_831773" data-name="Trazado 831773" d="M152.384,226.571a51.637,51.637,0,0,0-1.84-6.49,57.6,57.6,0,0,0-2.367-5.405,4.646,4.646,0,0,1-.493-1.333c-.312.17-.622.337-.934.51-1.613.9-3.52,2.147-5.431,2.387a23.63,23.63,0,0,1-2.331,6.421.407.407,0,0,1-.74-.312c1.691-7.6,3.313-15.239,5.159-22.811.964-3.953,1.929-7.911,2.7-11.908.679-3.536.927-7.1,1.4-10.648a.356.356,0,0,1-.021-.185c.037-.208.084-.412.131-.617.014-.1.025-.19.04-.286a.125.125,0,0,1,.046-.072,32.948,32.948,0,0,0,1.365-5.444,17.915,17.915,0,0,0-.422-6.127c-1.01-3.776-3.455-7.01-4.289-10.812a.512.512,0,0,1,.392-.594,45.5,45.5,0,0,1,2.947-6.677,8.157,8.157,0,0,0,1.258-3.978c-.118-1.454-1.541-1.7-2.563-.959-3.221,2.339-4.2,6.872-6.122,10.224a.6.6,0,0,1-.3.489.289.289,0,0,1-.19.087.587.587,0,0,1-.758-.283c-1.246-2.777-.425-6.169.194-9.034a32.612,32.612,0,0,0,.852-5.491c.023-.538-.033-4.389-1.322-3.411-2.111,1.6-2.795,5.613-3.406,8.014a32.819,32.819,0,0,0-1.365,6.9.4.4,0,0,1-.789,0c-.314-2.959.6-6.325,1.391-9.138a29.867,29.867,0,0,1,1.478-4.542c-.466-1.744-1.238-5.179-2.827-2.322a21.741,21.741,0,0,0-1.6,3.657c-1.417,4.224-2.64,8.149-2.476,12.661.014.383-.51.407-.631.085-.007-.02-.012-.039-.019-.059a.352.352,0,0,1-.333-.248c-1.18-3.286-1.089-7.142-1.587-10.566a32.56,32.56,0,0,0-1.23-5.94c-.131-.378-.454-1.611-.964-1.7-.721-.121-1.318,1.489-1.424,1.944-.652,2.779-.266,5.752.1,8.548.356,2.749.516,5.477.792,8.23a25.939,25.939,0,0,0,4.362,12.087c2.221,3.371,5.069,6.6,6.824,10.255a.327.327,0,0,1,.075.157c.026.055.055.11.08.166a.583.583,0,0,1-.172.756c-.713,5.013-2.723,10.032-4.364,14.776-1.754,5.065-3.6,10.1-5.281,15.19-1.939,5.866-3.807,11.941-4.339,18.129-.4,4.631-.294,11.748,5.413,13.063,3.962.913,8.326-.457,12.064-1.709,4.619-1.548,9.2-4.06,13.954-5.15-.023-.163-.05-.325-.084-.485m-26.6,2.754a3.1,3.1,0,0,1-.288,1.76.171.171,0,0,1-.29,0,2.762,2.762,0,0,1-.177-1.76,11.354,11.354,0,0,1,.118-1.7.212.212,0,0,1,.385-.051,3.318,3.318,0,0,1,.25,1.754m2.087,1.873a.153.153,0,0,1-.253.067,1.831,1.831,0,0,1-.315-1.2,8.621,8.621,0,0,1,.1-1.643.169.169,0,0,1,.323,0c.082.48.107.965.145,1.449a3.234,3.234,0,0,1,0,1.325m2.77.18c-.029.194-.272.2-.392.1-.7-.569-.642-1.832-.467-2.627.079-.356.69-.281.644.088a3.77,3.77,0,0,0,.093,1.422,2.376,2.376,0,0,1,.122,1.012" transform="translate(-46.742 -50.496)" fill="#efc9af"/>
      <path id="Trazado_831774" data-name="Trazado 831774" d="M275.714,313.843a23.834,23.834,0,0,0-7.411.2c-.151.034-.327.08-.51.112-.14.442-.278.884-.42,1.324-.664,2.066-1.125,5.058-2.494,6.972a23.037,23.037,0,0,1,4.726,3.878c.138.153.006.46-.218.374-.415-.156-.821-.334-1.223-.518a4.848,4.848,0,0,1,.612,2.679c-.156,2.4-3.317,4.028-5.382,4.383-6.6,1.138-13.222-2.787-18.194-6.741-6.092-4.845-12.626-11.545-15.74-18.758-.861-2-.98-5.435-3.247-6.446a9.393,9.393,0,0,1-3.747-2.371c-1.484-1.72-.535-5.333-.04-7.678-.671-.02-1.383-.022-2.12-.023a5.979,5.979,0,0,1,.608.566c.148.161.062.513-.2.48a9.181,9.181,0,0,1-.978-.187c-.51,1.681-1.374,3.2-1.5,5.018a11.82,11.82,0,0,0,.576,4.978,8.981,8.981,0,0,0,3.582,4.67c1.594.95,3.2,1.072,4.95,1.506a.528.528,0,0,1,0,1.011,6.12,6.12,0,0,1-1.231.141c1.349,2.822,3.567,5.013,5.6,7.363,2.442,2.827,4.559,5.939,6.905,8.847,4.89,6.061,10.45,12.141,17.313,16.005,3.636,2.047,8.076,3.829,12.3,2.65a17.281,17.281,0,0,0,8.263-5.466.4.4,0,0,1,.3-.353c.013-.018.028-.033.043-.05,4.99-5.971,7.642-13.477,9.416-20.957-3.365-1.648-6.594-3.213-10.535-3.6m-8.905,26.844c-.158.318-.276.65-.421.973a2.132,2.132,0,0,1-.443.782.2.2,0,0,1-.324-.086c-.236-.669.409-1.487.8-1.965.188-.224.5.062.385.3M269,340.3c-.281.716-.423,1.649-1.06,2.141-.1.076-.237-.028-.237-.137a4.621,4.621,0,0,1,.936-2.157c.112-.185.447-.062.361.153m2.568-.781a3.913,3.913,0,0,1-1.411,2.45.163.163,0,0,1-.237-.182,17.457,17.457,0,0,1,1.219-2.449.235.235,0,0,1,.428.18" transform="translate(-84.355 -112.592)" fill="#d8a395"/>
      <path id="Trazado_831775" data-name="Trazado 831775" d="M230.481,114.333l.014.018c1.081,1.254,2.494,2.935,4.227,3.225.068.012.132.013.2.02a8.52,8.52,0,0,1,3.553-2.286c.277-.45.523-.919.746-1.36a.747.747,0,0,1,1.026-.269c2.442,1.859,8.746,7.643,11.094,3.217a.759.759,0,0,1,1.024-.269c3.911,1.882,7.667,4.551,11.645,6.525a1.488,1.488,0,0,1,.4-1.027.163.163,0,0,1,.278,0c1.345,2.128,5.184.324,7.051-.293,1.151-.382,2.644-1.191,4.093-1.714-.268-.09-.5-.169-.695-.23a21.816,21.816,0,0,1-5.294-2.487c-12.755,2.676-25.808-8.546-27.907-21.005-3.313,5.119-4,11.863-4.754,17.741a.647.647,0,0,1-1.091.452,23.691,23.691,0,0,1-5.468-7,46.321,46.321,0,0,1-.141,6.737" transform="translate(-89.108 -37.269)" fill="#d8a395"/>
      <path id="Trazado_831776" data-name="Trazado 831776" d="M316.368,150.508c-2.1-2.412-4.447-3.388-7.23-2.076a29.02,29.02,0,0,1-4.485,9.7c-2.336,3.353-5.387,7.583-9.609,8.561a.638.638,0,0,1-.713-.927c1.284-2.577,3.423-4.7,4.4-7.426a37.086,37.086,0,0,0,2.01-8.485,69.24,69.24,0,0,0,.309-10.343,15.4,15.4,0,0,1-10.525-4.1c-.808,1-2.659.785-4.31.36a19.677,19.677,0,0,1-2.872,1.291,33.767,33.767,0,0,1-5.852,2.074,12.133,12.133,0,0,1-2.679.142,23.747,23.747,0,0,0,3.055,1.022c4.2,1.072,9.611,1.394,12.918,4.569,5.969,5.731,4.526,16.758,1.908,23.761a37.574,37.574,0,0,1-2.984,6.219,4.827,4.827,0,0,1,.4,1.836.138.138,0,0,1-.256.069,7.607,7.607,0,0,1-.529-1.3c-.221.35-.445.7-.678,1.041a3.461,3.461,0,0,1,.049,1.811.156.156,0,0,1-.282.037,2.176,2.176,0,0,1-.342-1.04c-.259.356-.526.7-.8,1.048a3.117,3.117,0,0,1,.077.3,2.028,2.028,0,0,1-.091.754.142.142,0,0,1-.271,0c-.047-.171-.109-.328-.166-.488a30.8,30.8,0,0,1-12.349,8.994,58.3,58.3,0,0,1-10.259,3.1,8.622,8.622,0,0,1-2.6,1.243,9.853,9.853,0,0,1-2.865.688,23.038,23.038,0,0,1-.162,2.553.6.6,0,0,1-1.145,0c-.025-.128-.045-.257-.06-.389-1.644.116-3.286.2-4.925.287.383,2.781.7,5.593,3.445,7.08a13.862,13.862,0,0,0,8.137,1.18,25.312,25.312,0,0,0,8.755-2.566,23.646,23.646,0,0,0,6.061-4.868c-2.017-.348-4.057-.649-6.122-.946-.543-.078-.512-.788-.131-1.04a9.844,9.844,0,0,1,.228-1.855,7.159,7.159,0,0,1,.8-3.014.772.772,0,0,1,.684-.908c2.8-.283,5.777-1.652,8.332-2.787a37.216,37.216,0,0,0,7.017-3.895,19.911,19.911,0,0,0,5.935-6.59c1.029-1.9,1.757-4.142,3.141-5.813a4.684,4.684,0,0,1-.4-.423.259.259,0,0,1,.25-.431,14.723,14.723,0,0,0,11.33-1.708,16.423,16.423,0,0,0,7.023-6.961c1.443-3.1,1.824-6.608-.568-9.352m-1.492,4.667a4.655,4.655,0,0,0-5.746.223,12.011,12.011,0,0,0-3.162,3.542c3.728,1.845,1.884,6.545-1.867,7.643a.185.185,0,0,1-.142-.337c2.307-1.37,4.752-5.181.86-6.3a.7.7,0,0,1-.41-1.01c1.524-3.12,7.868-9.044,10.723-4.02a.189.189,0,0,1-.256.257" transform="translate(-97.602 -52.354)" fill="#d8a395"/>
      <path id="Trazado_831777" data-name="Trazado 831777" d="M137.659,185.007c2.866,2.745,5.072-.328,4.817-3.262a10.8,10.8,0,0,0-3.018-6.206c-2.947-3.1-7.024-5.211-11.2-3.8a27.7,27.7,0,0,0,2.8,5.413c1.734,2.631,3.843,5.179,5.522,7.908a.73.73,0,0,1,1.075-.053" transform="translate(-49.588 -66.224)" fill="#d8a395"/>
      <path id="Trazado_831778" data-name="Trazado 831778" d="M152.384,265.989a51.635,51.635,0,0,0-1.84-6.49,57.6,57.6,0,0,0-2.367-5.405,4.646,4.646,0,0,1-.493-1.333c-.312.17-.622.337-.934.51a20.172,20.172,0,0,1-4.767,2.262c-.25.18-.5.357-.76.527a23.038,23.038,0,0,1-2.235,6.019.407.407,0,0,1-.74-.312q.5-2.264,1-4.533c-4.232,2.216-8.7,2.522-10.478-2.977-2.154-6.644-1.249-14.336-.185-21.1.032-.2.068-.4.1-.594-1.126,3.185-2.251,6.37-3.31,9.577-1.939,5.866-3.807,11.941-4.339,18.129-.4,4.631-.294,11.748,5.413,13.063,3.962.913,8.326-.457,12.064-1.709,4.619-1.548,9.2-4.06,13.954-5.15-.023-.163-.05-.325-.084-.485m-26.6,2.754a3.1,3.1,0,0,1-.288,1.76.171.171,0,0,1-.29,0,2.762,2.762,0,0,1-.177-1.76,11.354,11.354,0,0,1,.118-1.7.212.212,0,0,1,.385-.051,3.318,3.318,0,0,1,.25,1.754m2.087,1.873a.153.153,0,0,1-.253.067,1.831,1.831,0,0,1-.315-1.2,8.621,8.621,0,0,1,.1-1.643.169.169,0,0,1,.323,0c.082.48.107.965.145,1.449a3.235,3.235,0,0,1,0,1.325m2.77.18c-.029.194-.272.2-.392.1-.7-.569-.642-1.832-.467-2.627.079-.356.69-.281.644.088a3.77,3.77,0,0,0,.093,1.422,2.376,2.376,0,0,1,.122,1.012" transform="translate(-46.742 -89.913)" fill="#d8a395"/>
      <path id="Trazado_831779" data-name="Trazado 831779" d="M264.317,339.457c-4.681,4.685-10.753,6.888-18.362,3.389-8.227-3.782-14.848-10.7-20.4-17.683-2.734-3.434-5.27-7.028-8.173-10.323-1.705-1.933-4.126-4.25-4.374-6.963-3.326-.467-6.31-3.394-7.426-6.418-1.187-3.215-1.4-8.393,1.219-11.1-1.082-.336-2.138-.771-3.234-1.07-1.37-.373-2.8-.583-4.143-1.045a11.668,11.668,0,0,1-1.876-.846c-.1.4-.209.795-.341,1.187a.491.491,0,0,1-.121.356c-.7,1.948-1.736,3.828-2.352,5.781a18.516,18.516,0,0,0-1.113,7.771c.733,5.876,5.09,9.831,7.331,15.033.167.387-.282.823-.62.478a24.856,24.856,0,0,1-2.493-3.046c.432,6.185-1.447,12.572-2.648,18.565-1.313,6.553-2.52,13.136-3.709,19.713-1.937,10.72-3.207,21.451-4.417,32.23,6.213,1.231,12.686,1.309,19.008,1.567,7.045.289,14.134.564,21.186.431a169.3,169.3,0,0,0,21.586-1.751c3.292-.487,6.609-.982,9.861-1.7,2.971-.653,5.862-1.614,8.827-2.293-.464-6.027-.745-12.088-1.191-18.09-.339-4.554-.451-9.134-1.043-13.663a70.122,70.122,0,0,1-.981-10.513M216.3,320.332c-1.836-1.366-3.253-3.813-4.267-5.931a4.841,4.841,0,0,0-1.083,3.323c.02.48-.694.466-.735,0a5.577,5.577,0,0,1,1.627-4.437.463.463,0,0,1,.719.093c.837,1.188,1.557,2.454,2.371,3.659a15.232,15.232,0,0,1,1.767,2.987.273.273,0,0,1-.4.306" transform="translate(-72.322 -111.113)" fill="#e090c1"/>
      <path id="Trazado_831780" data-name="Trazado 831780" d="M313.212,255.34c-1.478-7.309-5.816-12.092-12.449-15.374a47.464,47.464,0,0,0-9.88-3.507c-.005.019-.007.036-.013.054-1.48,4.277-5.929,7.531-9.864,9.457q-1.168.572-2.394,1.067c6.665,5.842,7.069,18.382,5.988,26.34-.992,7.308-5.049,19.891-14.65,19.108-.331-.027-.659-.076-.988-.134q1.136.88,2.338,1.678c3.68,2.436,8.081,4.192,12,6.5,1.532-3.091,2.266-6.915,3.294-10.137q.852-2.683,1.682-5.375a.382.382,0,0,1,.128-.4c.575-1.849,1.152-3.7,1.744-5.539,1.944-6.035,1.812-13.128,5.587-18.468.1-.138.364-.057.295.124-2.658,6.907-3.092,14.293-5.213,21.349-.2.67-.41,1.337-.615,2a36.579,36.579,0,0,1,11.018-.48c3.236.28,6.818.823,9.436,2.884.855-3.817,1.523-7.685,2.115-11.5.991-6.4,1.731-13.234.436-19.646" transform="translate(-103.985 -91.419)" fill="#c6759c"/>
      <path id="Trazado_831781" data-name="Trazado 831781" d="M238.475,234.164a21.955,21.955,0,0,0,2.654,1.613,5.692,5.692,0,0,1,.369-1.957c-1.01.091-2.017.209-3.023.345" transform="translate(-92.198 -90.398)" fill="#e090c1"/>
      <path id="Trazado_831782" data-name="Trazado 831782" d="M194.31,439.436a28.2,28.2,0,0,1-6.167-7.329q-.559,4.648-1.078,9.306a88.736,88.736,0,0,0,13.543,1.357,18.151,18.151,0,0,1-6.3-3.333" transform="translate(-72.322 -167.059)" fill="#e090c1"/>
      <path id="Trazado_831783" data-name="Trazado 831783" d="M283.244,395.3c-.339-4.554-.451-9.134-1.043-13.663a70.131,70.131,0,0,1-.981-10.513c-4.681,4.685-10.753,6.888-18.362,3.389a41.151,41.151,0,0,1-8.34-5.21,11.02,11.02,0,0,1,.666,7.3c-2.623,9.421-15.454,10.766-24,10.914,5.654,6.944,18.308,6.982,21.535,16.1,2.977,8.407-10.1,12.79-16.034,14.21-1.907.456-3.888.87-5.9,1.172,4.46.141,8.925.221,13.376.137a169.192,169.192,0,0,0,21.586-1.751c3.293-.486,6.609-.982,9.861-1.7,2.971-.653,5.862-1.614,8.827-2.293-.464-6.027-.745-12.088-1.191-18.09" transform="translate(-89.225 -142.777)" fill="#c6759c"/>
      <path id="Trazado_831784" data-name="Trazado 831784" d="M347.542,165.984c-2.855-5.024-9.2.9-10.723,4.02a.7.7,0,0,0,.41,1.011c3.892,1.116,1.447,4.926-.86,6.3a.185.185,0,0,0,.142.337c3.75-1.1,5.6-5.8,1.867-7.643a12,12,0,0,1,3.162-3.541,4.655,4.655,0,0,1,5.746-.224.189.189,0,0,0,.256-.257" transform="translate(-130.012 -63.419)" fill="#231f20"/>
      <path id="Trazado_831785" data-name="Trazado 831785" d="M303.746,369.591a17.488,17.488,0,0,0-1.219,2.449.162.162,0,0,0,.237.181,3.911,3.911,0,0,0,1.411-2.45.235.235,0,0,0-.428-.18" transform="translate(-116.959 -142.845)" fill="#231f20"/>
      <path id="Trazado_831786" data-name="Trazado 831786" d="M299.852,370.926a4.619,4.619,0,0,0-.936,2.157c0,.108.139.213.237.136.637-.491.778-1.424,1.06-2.14.085-.215-.25-.339-.361-.153" transform="translate(-115.566 -143.371)" fill="#231f20"/>
      <path id="Trazado_831787" data-name="Trazado 831787" d="M296.289,371.329c-.4.478-1.041,1.3-.8,1.965a.2.2,0,0,0,.324.086,2.134,2.134,0,0,0,.444-.782c.145-.323.263-.655.421-.973.118-.234-.2-.52-.385-.3" transform="translate(-114.219 -143.53)" fill="#231f20"/>
      <path id="Trazado_831788" data-name="Trazado 831788" d="M128.1,288.623a.212.212,0,0,0-.385.051,11.354,11.354,0,0,0-.118,1.7,2.762,2.762,0,0,0,.177,1.76.171.171,0,0,0,.29,0,3.1,3.1,0,0,0,.288-1.76,3.318,3.318,0,0,0-.25-1.754" transform="translate(-49.309 -111.547)" fill="#231f20"/>
      <path id="Trazado_831789" data-name="Trazado 831789" d="M131.9,291.451c-.038-.484-.063-.97-.145-1.449a.169.169,0,0,0-.323,0,8.619,8.619,0,0,0-.1,1.643,1.829,1.829,0,0,0,.315,1.2.152.152,0,0,0,.252-.067,3.224,3.224,0,0,0,0-1.325" transform="translate(-50.774 -112.073)" fill="#231f20"/>
      <path id="Trazado_831790" data-name="Trazado 831790" d="M136.041,292.145a3.758,3.758,0,0,1-.093-1.422c.046-.369-.566-.444-.644-.088-.175.795-.235,2.058.467,2.627.12.1.362.089.392-.1a2.375,2.375,0,0,0-.122-1.012" transform="translate(-52.267 -112.275)" fill="#231f20"/>
      <path id="Trazado_831791" data-name="Trazado 831791" d="M271.521,188.228c-3.306-.609-6.9.8-9.971,1.836a39.522,39.522,0,0,1-5.969,1.567c-2.869.492-5.736.166-8.617.351-.177.012-.232.28-.044.322.638.145,1.272.255,1.9.342-.759.894-.329,2.514.143,3.575a7.8,7.8,0,0,0,5.747,4.913c5.648,1.4,12.858-.592,17.7-3.637,1.58-.994,3.84-2.7,3.889-4.786.06-2.594-2.523-4.067-4.779-4.483m1.6,6.978c-3.172,2.854-7.595,3.929-11.681,4.568-3.014.472-6.345.506-9.049-1.07a8.278,8.278,0,0,1-1.941-2.339c3.121.792,7.044-.586,9.992-1.1.128-.023.1-.227-.031-.224-1.868.04-3.737.134-5.6.3-1.594.144-3.229.027-4.815.19-.52-1.094-.7-2.124.075-2.457a.416.416,0,0,0,.248-.271c4.586.324,9.006-.728,13.467-2.112,2.727-.846,5.674-1.683,8.506-.886a3.235,3.235,0,0,1,2.168,1.519c-1.357-.293-2.8.393-4.078.849a50.392,50.392,0,0,1-6.06,2.2c-.2.042-.11.334.083.3,1.889-.356,3.728-.707,5.579-1.247,1.475-.429,3.392-.577,4.68-1.424a3.946,3.946,0,0,1-1.545,3.209" transform="translate(-95.418 -72.715)" fill="#231f20"/>
      <path id="Trazado_831792" data-name="Trazado 831792" d="M260.168,166.738c-.213-1.1-.191-2.235-.323-3.345a.172.172,0,0,0-.343,0c-.048.413-.028,3-.531,3.083a12.1,12.1,0,0,0-2.654.96c-1.185.507-3.323,1.624-3.611,3.079-.452,2.29,2.812,5.255,5.016,4.5a.4.4,0,0,0,0-.767c-1.851-.607-5.07-2.786-2.5-4.689a22.7,22.7,0,0,1,4.711-2.239.516.516,0,0,0,.235-.578" transform="translate(-97.684 -63.107)" fill="#231f20"/>
      <path id="Trazado_831793" data-name="Trazado 831793" d="M299.4,150.83a5,5,0,0,0-3.492-2.47c-1.4-.318-3.551.162-3.9,1.744a5,5,0,0,0-1.341,4.261c.466,2.883,3.943,3.371,6.1,2.3,2-1,3.713-3.613,2.632-5.83m-7.152,3.664c-.013-.023-.022-.047-.035-.07a1.662,1.662,0,0,1,.776-.927,2.011,2.011,0,0,1,1.556.1,2.946,2.946,0,0,1,.821.516,2.8,2.8,0,0,1-.06.435,2.954,2.954,0,0,1-.653,1.181,2.537,2.537,0,0,1-2.405-1.23" transform="translate(-112.353 -57.322)" fill="#231f20"/>
      <path id="Trazado_831794" data-name="Trazado 831794" d="M246.574,149.023a5.006,5.006,0,0,0-3.493-2.469c-1.4-.318-3.55.163-3.9,1.744a5,5,0,0,0-1.341,4.261c.466,2.884,3.942,3.372,6.1,2.3,2-1,3.713-3.613,2.633-5.831m-7.152,3.664c-.013-.022-.023-.047-.036-.07a1.662,1.662,0,0,1,.777-.927,2.016,2.016,0,0,1,1.556.1,2.936,2.936,0,0,1,.82.516,2.729,2.729,0,0,1-.06.435,2.962,2.962,0,0,1-.653,1.181,2.536,2.536,0,0,1-2.4-1.23" transform="translate(-91.928 -56.624)" fill="#231f20"/>
      <path id="Trazado_831795" data-name="Trazado 831795" d="M311.476,159.946a8.832,8.832,0,0,0-6.582,2.546.359.359,0,0,0,.434.562,21.128,21.128,0,0,1,3.2-1.607c1.018-.372,2.1-.551,3.089-1,.271-.124.1-.472-.136-.5" transform="translate(-117.842 -61.826)" fill="#231f20"/>
      <path id="Trazado_831796" data-name="Trazado 831796" d="M237,159.713c-.975-.688-1.507-1.824-2.658-2.28-.205-.081-.37.186-.272.355a6.294,6.294,0,0,0,2.549,2.578.378.378,0,0,0,.381-.653" transform="translate(-90.484 -60.86)" fill="#231f20"/>
      <path id="Trazado_831797" data-name="Trazado 831797" d="M247.454,131.747c-.6-1.943-2.194-4.191-4.207-4.781-2.259-.662-5.384,1.349-6.562,3.176a.391.391,0,0,0,.438.57c1.986-.621,3.417-2.607,5.711-2.244,1.9.3,2.235,3.047,3.668,4.012a.653.653,0,0,0,.953-.732" transform="translate(-91.485 -49.037)" fill="#231f20"/>
      <path id="Trazado_831798" data-name="Trazado 831798" d="M312.67,198.883c-.086-.3-.5-.169-.458.126a6.991,6.991,0,0,0,.743,2.221.139.139,0,0,0,.256-.069,6.913,6.913,0,0,0-.542-2.278" transform="translate(-120.705 -76.825)" fill="#231f20"/>
      <path id="Trazado_831799" data-name="Trazado 831799" d="M310.831,201.005a.175.175,0,0,0-.342.047,4.7,4.7,0,0,0,.358,2.609.155.155,0,0,0,.281-.037,4.4,4.4,0,0,0-.3-2.619" transform="translate(-120.035 -77.665)" fill="#231f20"/>
      <path id="Trazado_831800" data-name="Trazado 831800" d="M308.871,205.153a4.747,4.747,0,0,0-.343-1.08c-.082-.2-.431-.2-.407.055.029.321.064.633.121.95.055.3.186.54.267.828a.141.141,0,0,0,.271,0,2.03,2.03,0,0,0,.091-.754" transform="translate(-119.124 -78.843)" fill="#231f20"/>
      <path id="Trazado_831801" data-name="Trazado 831801" d="M231.269,336.259a15.249,15.249,0,0,0-1.767-2.987c-.814-1.2-1.534-2.471-2.371-3.659a.464.464,0,0,0-.719-.094,5.581,5.581,0,0,0-1.626,4.438c.041.466.755.48.735,0a4.84,4.84,0,0,1,1.083-3.323c1.014,2.117,2.431,4.565,4.267,5.931a.272.272,0,0,0,.4-.306" transform="translate(-86.897 -127.346)" fill="#231f20"/>
      <path id="Trazado_831802" data-name="Trazado 831802" d="M277.852,90.536c-2.193-10.715-6.864-21.129-16.084-27.507-8.257-5.711-20.038-7.55-29.185-2.925-7.6-5.167-18.581-5.824-27.38-4.614-9.564,1.314-17.808,5.119-24.3,12.357a46.287,46.287,0,0,0-11.257,24.669,29.157,29.157,0,0,0,1.2,13.945,31.329,31.329,0,0,0,3.3,6.393c-2.679,2.924-3.7,7.617-4.762,11.208-1.521,5.145-3.536,10.09-3.919,15.5-.726,10.256,8.282,19.5,18.559,18.005a13.61,13.61,0,0,0,3.061,5.057,9.447,9.447,0,0,0,1.789,1.517c-.14.027-.283.05-.423.077-5.875,1.153-11.37,3.65-16.779,6.138-5.664,2.6-11.213,5.45-16.84,8.132-2.56,1.219-5.173,2.319-7.654,3.7-1.183.656-2.35,1.34-3.544,1.981-.951.51-1.981.853-2.961,1.291q.21-1.081.393-2.17c.721-4.242,1.749-8.426,2.75-12.608,1.016-4.245,2.006-8.493,2.665-12.809a41.67,41.67,0,0,0,.667-10.049c2.522-2.991,3-7.919,2.345-11.648a26.085,26.085,0,0,0-2.108-6.482,32.355,32.355,0,0,0-2.62-5.2c.808-1.757,1.217-3.66,2-5.426.615-1.383,1.276-2.75,1.789-4.174.76-2.114.821-4.465-1.909-4.756-2.319-.247-4.086,2.722-5.045,4.365a29.5,29.5,0,0,0-2.695,6.385c-.866-3.664.747-8.349,1.216-11.875.233-1.751.677-6.625-2.49-5.889a3.087,3.087,0,0,0-1.7,1.231,4.088,4.088,0,0,0-1.716-3.522c-1.354-.814-2.619,1.007-3.2,1.939a31.766,31.766,0,0,0-2.669,6.8,34.353,34.353,0,0,0-.967,3.44c-.222-2.338-.472-4.675-.853-6.993-.288-1.752-1.886-8.787-4.77-5.1-1.592,2.033-1.416,5.057-1.308,7.482.141,3.136.769,6.226.887,9.361a28.4,28.4,0,0,0,2.9,12.208,57.443,57.443,0,0,0,4.189,6.435c1.565,2.235,3,4.6,4.633,6.78-2.112,5.309-3.484,11.016-5.371,16.414-1.968,5.628-4.012,11.226-5.824,16.907-1.828,5.73-3.361,11.786-3.471,17.826-.091,4.952,1.377,10.33,6.671,11.807,3.624,1.011,7.764-.191,11.23-1.2a85.466,85.466,0,0,0,8.141-2.941c1.314-.53,2.67-1.038,4.007-1.587a9.672,9.672,0,0,0,.724,4.215c.789,1.735,2.79,1.6,4.341,1.394a31.752,31.752,0,0,0,8.243-2.611c1.525-.657,3.023-1.376,4.532-2.066.729-.335,1.479-.593,2.193-.911-.492,1.092-.923,2.212-1.348,3.288a20.647,20.647,0,0,0-1.524,8.919,18.4,18.4,0,0,0,2.689,7.61c.672,1.221,1.409,2.487,2.209,3.716a.5.5,0,0,0-.277.426,165.523,165.523,0,0,1-3.242,19.726c-1.345,6.564-2.552,13.164-3.74,19.758-2.208,12.258-4.586,24.987-4.475,37.516a.254.254,0,0,0-.063.3c.02.05.044.1.065.145,0,.137,0,.274,0,.409.072,0,.144,0,.215,0a3.272,3.272,0,0,0,1.169,1.1,18.217,18.217,0,0,1-.6,4.85,49.845,49.845,0,0,0-.58,6.552c-.185,5.086-.133,11.4,1.821,16.21a.485.485,0,0,0,.033.807c1.646.849,3.515.639,5.308.625,3.648-.032,7.293-.168,10.939-.317,7.314-.294,14.622-.745,21.944-.842,14.206-.19,28.383.156,42.59-.231a.726.726,0,0,0,.722-.626.4.4,0,0,0,.157-.294c.092-3.261-.534-6.58-.624-9.853-.091-3.32.006-6.646.01-9.967,0-2.013.041-4.029-.031-6.042a11.817,11.817,0,0,0-.289-2.786c.292-.115.585-.226.873-.35a.607.607,0,0,0,.279-.819c.737-8.747-.636-17.77-1.321-26.485-.334-4.254-.495-8.528-1.035-12.762-.534-4.177-1.174-8.315-1.569-12.507,5.221-5.885,8.559-14.829,10.237-21.73q.386.187.777.372a.8.8,0,0,0,.286.135l.136.064a.526.526,0,0,0,.752-.417.888.888,0,0,0,.063-.131c2.626-7.291,4.064-15.123,5.213-22.777,1.011-6.742,1.51-13.728-.05-20.424-1.612-6.924-6.154-11.427-12.275-14.722a48.451,48.451,0,0,0-8.371-3.494,11.564,11.564,0,0,0,1.218-.461,38.728,38.728,0,0,0,6.364-3.448c4.95,2.184,11.475.87,16.134-1.47,3.3-1.656,6.506-4.965,7.4-8.708a.431.431,0,0,0,.151-.048c9.4-4.875,11.733-16.11,12.512-25.681.951-11.646.851-23.543-1.5-35.026m-140.3,112.426c-3.738,1.253-8.1,2.622-12.064,1.71-5.707-1.314-5.811-8.431-5.413-13.063.532-6.188,2.4-12.262,4.339-18.128,1.682-5.09,3.527-10.126,5.281-15.19,1.641-4.744,3.651-9.763,4.364-14.776a.584.584,0,0,0,.172-.756c-.025-.056-.053-.11-.08-.166a.327.327,0,0,0-.075-.157c-1.756-3.653-4.6-6.884-6.825-10.255a25.937,25.937,0,0,1-4.362-12.086c-.277-2.754-.436-5.482-.792-8.231-.363-2.8-.749-5.768-.1-8.547.107-.455.7-2.065,1.424-1.944.51.086.833,1.319.964,1.7a32.554,32.554,0,0,1,1.23,5.939c.5,3.425.407,7.281,1.587,10.567a.352.352,0,0,0,.333.248c.007.02.012.039.019.058.12.323.645.3.631-.085-.164-4.511,1.059-8.437,2.476-12.661a21.745,21.745,0,0,1,1.6-3.658c1.589-2.857,2.362.578,2.827,2.322a29.865,29.865,0,0,0-1.478,4.542c-.8,2.814-1.705,6.179-1.391,9.138a.4.4,0,0,0,.789,0,32.821,32.821,0,0,1,1.365-6.9c.612-2.4,1.295-6.411,3.406-8.014,1.289-.978,1.345,2.873,1.322,3.411a32.62,32.62,0,0,1-.852,5.491c-.62,2.865-1.441,6.257-.194,9.033a.586.586,0,0,0,.758.283.291.291,0,0,0,.19-.086.6.6,0,0,0,.3-.49c1.917-3.352,2.9-7.885,6.122-10.224,1.021-.742,2.444-.494,2.563.96a8.159,8.159,0,0,1-1.258,3.978,45.492,45.492,0,0,0-2.947,6.677.513.513,0,0,0-.392.594c.834,3.8,3.279,7.036,4.289,10.812a17.915,17.915,0,0,1,.422,6.127,32.955,32.955,0,0,1-1.365,5.444.123.123,0,0,0-.046.072c-.015.1-.026.19-.04.286-.047.2-.094.409-.131.616a.355.355,0,0,0,.021.185c-.473,3.551-.721,7.113-1.4,10.648-.769,4-1.734,7.956-2.7,11.908-1.845,7.573-3.467,15.211-5.159,22.812a.407.407,0,0,0,.74.312A23.63,23.63,0,0,0,140.358,187c1.911-.239,3.818-1.491,5.431-2.387.312-.172.622-.339.934-.51a4.632,4.632,0,0,0,.493,1.333,57.735,57.735,0,0,1,2.367,5.405,51.634,51.634,0,0,1,1.84,6.49c.034.159.061.321.084.485-4.758,1.089-9.334,3.6-13.954,5.149m21.86-.2c-.693.268-1.388.528-2.086.772-1.627.566-5.856,2.272-7.094.471-.743-1.082-.658-2.631-.795-4.016.738-.319,1.466-.654,2.172-1.023a8.923,8.923,0,0,0,.78,4.239.37.37,0,0,0,.672-.088c.834-3.866-.612-8.233-1.855-11.856a30.44,30.44,0,0,0-2.022-4.792,12.767,12.767,0,0,0-1.616-2.836c1.828-.982,3.663-1.913,5.563-2.789.224-.1.445-.21.668-.314a24.988,24.988,0,0,0,1.511,2.939,44.724,44.724,0,0,1,2.445,6.845c1.154,4.034,2.1,8.25,1.657,12.448m62.9,127.028c-7.137-.04-14.27-.2-21.407-.169-7.033.035-14.057.414-21.081.741-3.337.156-6.673.318-10.011.437-2.356.083-5.777.8-8.172.19.03-2.981-.684-6.022-.942-9a74.107,74.107,0,0,1-.133-10.006c.1-1.981.439-3.918.667-5.885a10.878,10.878,0,0,0,.108-2.274,15.614,15.614,0,0,0,1.576.383c3.255.651,6.548,1.124,9.847,1.486a179.533,179.533,0,0,0,23.829.643c8.094-.19,16.179-.7,24.238-1.475,6.454-.618,13.538-.888,19.752-3.071a28.608,28.608,0,0,1-.042,3.582c-.045,2.232-.116,4.461-.154,6.692-.091,5.44-.91,12.137,1.052,17.4-6.376.046-12.744.355-19.126.32m19.442-29.9c-.272.11-.548.21-.824.311a.386.386,0,0,0-.621.225c-6.133,2.112-13.115,2.331-19.479,2.958-7.126.7-14.277,1.147-21.433,1.394-7.059.243-14.138.305-21.192-.1q-5.337-.31-10.626-1.119c-2.038-.31-4.719-.384-6.783-1.274-.011-.013-.018-.03-.03-.045a.339.339,0,0,0-.338-.126,5.612,5.612,0,0,1-.591-.332q.3-2.716.607-5.43a21.492,21.492,0,0,0,6.727,1.193c3.5.229,7.012.443,10.518.618,7.356.367,14.755.58,22.12.526a165.648,165.648,0,0,0,20.978-1.574c3.6-.488,7.187-1.113,10.753-1.825,3.226-.642,6.327-1.751,9.526-2.5.191,2.376.412,4.746.689,7.1M239.8,273.773c.446,6,.727,12.063,1.191,18.09-2.965.678-5.857,1.64-8.827,2.293-3.252.715-6.568,1.211-9.86,1.7a169.2,169.2,0,0,1-21.586,1.751c-7.052.133-14.14-.142-21.186-.431-6.322-.258-12.795-.337-19.007-1.568,1.21-10.78,2.479-21.51,4.417-32.23,1.188-6.577,2.4-13.16,3.709-19.714,1.2-5.992,3.079-12.38,2.647-18.564a24.8,24.8,0,0,0,2.493,3.045c.337.345.786-.091.619-.478-2.24-5.2-6.6-9.157-7.331-15.033a18.528,18.528,0,0,1,1.113-7.771c.615-1.954,1.648-3.834,2.352-5.781a.493.493,0,0,0,.121-.356c.132-.392.245-.789.341-1.188a11.615,11.615,0,0,0,1.876.846c1.344.462,2.773.672,4.143,1.046,1.1.3,2.153.734,3.234,1.07-2.616,2.706-2.407,7.884-1.219,11.1,1.116,3.024,4.1,5.951,7.426,6.418.248,2.714,2.669,5.03,4.374,6.963,2.9,3.3,5.438,6.89,8.173,10.323,5.554,6.98,12.175,13.9,20.4,17.683,7.608,3.5,13.681,1.3,18.362-3.389a70.135,70.135,0,0,0,.981,10.514c.592,4.529.7,9.109,1.043,13.663m-1.541-26.709c-.015.017-.029.033-.043.05a.4.4,0,0,0-.3.353,17.281,17.281,0,0,1-8.264,5.466c-4.223,1.179-8.663-.6-12.3-2.649-6.864-3.865-12.423-9.945-17.313-16.006-2.347-2.908-4.463-6.02-6.905-8.847-2.029-2.35-4.246-4.541-5.6-7.362a6.164,6.164,0,0,0,1.231-.142.528.528,0,0,0,0-1.011c-1.749-.433-3.356-.555-4.95-1.506a8.979,8.979,0,0,1-3.582-4.67,11.819,11.819,0,0,1-.576-4.978c.128-1.818.992-3.336,1.5-5.018a9.027,9.027,0,0,0,.978.187c.261.033.348-.32.2-.48-2.914-3.141-8.177-1.978-11.341-4.647-3.133-2.642,3.44-2.043,4.65-1.932,2.524.232,5.077,1.126,7.6,1.126a.357.357,0,0,0,.138-.025.348.348,0,0,0,.312-.506,11.852,11.852,0,0,0-5.109-4.865c-1.411-.772-5.73-2.035-5.83-3.983-.081-1.6,5.066.253,5.838.5,3.163,1,5.965,3.175,9.127,4.03.117.1.23.205.348.3a.341.341,0,0,0,.565-.328c-.694-2.738-3.814-5.227-5.893-6.977-.9-.759-1.787-1.53-2.626-2.362-.762-.754-3.429-4.324-.475-3.824s5.9,3.381,8.053,5.18c1.748,1.459,3.72,3.42,5.941,4.363.035.053.069.108.1.16a.527.527,0,0,0,.715.135,6.279,6.279,0,0,0,.976.21c.252.033.35-.318.2-.474a15.117,15.117,0,0,0-1.329-1.175c-1.621-4.032-4.847-7.478-5.054-12-.115-2.512,3.659,1.756,4.164,2.344a33.349,33.349,0,0,1,4.137,6.323,24,24,0,0,1,2.623,14.806c-.65,4.6-2.822,9-3.07,13.636a.233.233,0,0,0,.431.117c.191-.414.366-.837.535-1.261a46.05,46.05,0,0,0,13.083,14.937,58.759,58.759,0,0,0,9.159,5.327c3.582,1.735,6.785,4.37,10.507,5.779.225.085.356-.222.218-.375a23.042,23.042,0,0,0-4.726-3.878c1.369-1.913,1.83-4.905,2.494-6.971.142-.441.28-.883.42-1.324.183-.032.359-.078.51-.112a23.874,23.874,0,0,1,7.411-.2c3.94.392,7.169,1.958,10.534,3.6-1.774,7.48-4.426,14.986-9.416,20.957M249.9,225.535a17.658,17.658,0,0,0-3.55-1.965,29.016,29.016,0,0,0-6.782-2.195A23.963,23.963,0,0,0,232,221.1a12.343,12.343,0,0,0-2.384.461q1.044-3.276,2.055-6.563a93.916,93.916,0,0,1,9.511-.534c3.644.093,8.155.52,10.994,3.089-.639,2.705-1.381,5.379-2.276,7.984m5.106-40.362c1.3,6.412.555,13.247-.436,19.646-.591,3.818-1.259,7.686-2.114,11.5-2.618-2.06-6.2-2.6-9.436-2.883a36.6,36.6,0,0,0-11.018.48c.2-.669.413-1.335.615-2,2.121-7.056,2.555-14.442,5.213-21.349.069-.182-.2-.262-.3-.124-3.775,5.34-3.643,12.433-5.587,18.468-.593,1.843-1.17,3.69-1.745,5.538a.382.382,0,0,0-.127.4c-.558,1.793-1.114,3.586-1.683,5.375-1.027,3.222-1.762,7.045-3.294,10.137-3.923-2.312-8.324-4.067-12-6.5a44.986,44.986,0,0,1-8.391-7.315c-2.267-2.49-3.824-5.813-6.306-8.1.788-2.158,1.372-4.418,2.008-6.6a37.967,37.967,0,0,0,1.581-8.754c.293-5.947-2.563-11.807-5.909-16.547-.923-1.31-6.041-8.365-7.907-4.778-.85,1.632.455,4.338,1,5.825a46.257,46.257,0,0,0,2.7,5.974c-.476-.348-.944-.7-1.389-1.07-1.761-1.469-3.453-3-5.311-4.349-1.643-1.193-5.393-4.046-7.5-2.418-2.26,1.747.14,4.574,1.495,5.995,1.137,1.19,2.485,2.148,3.653,3.3.616.607,1.212,1.267,1.808,1.933a43.942,43.942,0,0,0-6.69-2.638c-1.744-.585-4.855-1.722-6.284.034-1.571,1.935,1.191,3.788,2.568,4.6,1.283.753,2.678,1.3,3.985,2a13.888,13.888,0,0,1,2.763,2.194,32.856,32.856,0,0,0-6.863-.923c-1.7-.136-5.139-.431-5.539,1.9-.212,1.233.688,2.258,1.8,3.017a13.6,13.6,0,0,0-.847,1.272c-2.931,1.284-5.882,2.656-8.871,3.863a10.476,10.476,0,0,0-.048-3.684,52.076,52.076,0,0,0-1.407-7.213,47.559,47.559,0,0,0-2.23-6.683c-.543-1.287-1.241-3.466-2.447-4.5,5.186-2.43,10.294-5.023,15.463-7.488,5.539-2.643,11.161-5.271,17.134-6.767a51.675,51.675,0,0,1,7.964-1.267c-1.281,3.359.991,7,3.21,9.48,2.892,3.229,6.775,4.607,11.023,4.813A28.177,28.177,0,0,0,222.8,175.8c3.935-1.926,8.384-5.181,9.864-9.457.006-.018.008-.036.013-.054a47.4,47.4,0,0,1,9.881,3.507c6.632,3.281,10.97,8.065,12.449,15.374M210.855,174.21a26.543,26.543,0,0,0,10.118-2.5c2.706-1.219,6.2-3.486,7.65-6.3.894.169,1.782.355,2.668.552-1.471,3.732-5.274,6.353-8.681,8.219a27.792,27.792,0,0,1-11.289,3.225A15,15,0,0,1,200.7,174.45c-3.039-2.423-5.387-5.86-4.952-9.831,1.419-.118,2.84-.2,4.264-.282-1.913,6.848,5.226,10.015,10.843,9.873m3.876-15.538c-.665.007-1.331.015-2,.019l0,0a.981.981,0,0,0-.443.006c-.183,0-.367,0-.55,0a.311.311,0,0,0-.324-.2,9.521,9.521,0,0,0-1.021.194c-7.235-.033-14.5-.626-20.8-4.59-5.762-3.628-7.94-9.921-7.995-16.448-.06-7.234,2.219-14.257,3.469-21.317.783-4.423,1.291-8.893,1.675-13.367a75.943,75.943,0,0,0,.555-11.395,23.682,23.682,0,0,0,5.468,7,.647.647,0,0,0,1.091-.452c.758-5.877,1.441-12.622,4.754-17.741,2.1,12.46,15.152,23.682,27.907,21.005a21.851,21.851,0,0,0,5.294,2.487c.19.06.427.14.7.23-1.449.523-2.942,1.332-4.093,1.713-1.867.618-5.707,2.422-7.052.294a.163.163,0,0,0-.277,0c-1.948,2.554,3.648,2.138,4.588,1.928a33.75,33.75,0,0,0,5.852-2.074,19.679,19.679,0,0,0,2.872-1.291c1.651.424,3.5.64,4.31-.361a15.4,15.4,0,0,0,10.526,4.1,69.328,69.328,0,0,1-.309,10.343,37.12,37.12,0,0,1-2.009,8.485c-.978,2.728-3.117,4.848-4.4,7.426a.638.638,0,0,0,.713.927c4.223-.978,7.273-5.208,9.609-8.561a29.011,29.011,0,0,0,4.485-9.7c2.784-1.311,5.127-.336,7.231,2.076,2.392,2.744,2.01,6.249.567,9.352a16.419,16.419,0,0,1-7.023,6.961,14.724,14.724,0,0,1-11.33,1.709.259.259,0,0,0-.25.431,4.6,4.6,0,0,0,.4.423c-1.384,1.671-2.113,3.918-3.142,5.812a19.907,19.907,0,0,1-5.934,6.591,37.229,37.229,0,0,1-7.017,3.895c-2.556,1.134-5.532,2.5-8.333,2.787a.772.772,0,0,0-.684.908,7.156,7.156,0,0,0-.8,3.014,9.832,9.832,0,0,0-.228,1.854c-.38.252-.412.962.131,1.04,2.065.3,4.105.6,6.122.946A23.662,23.662,0,0,1,220.968,170a25.311,25.311,0,0,1-8.755,2.565,13.859,13.859,0,0,1-8.137-1.18c-2.747-1.487-3.062-4.3-3.445-7.08,1.64-.087,3.281-.171,4.925-.286.015.132.035.261.059.388a.6.6,0,0,0,1.146,0,23.226,23.226,0,0,0,.161-2.553,9.845,9.845,0,0,0,2.865-.689c.733-.251,2.755-.894,3.064-1.871q.946-.1,1.88-.206c.259-.029.275-.418,0-.415m63.115-34.412a53.875,53.875,0,0,1-2.493,14.233c-1.718,4.858-5.03,7.965-8.457,11.524a8.142,8.142,0,0,0-.338-3.209.173.173,0,0,0-.331,0c-.576,2.5-.876,4.778-2.235,7.018a13.874,13.874,0,0,1-5.506,4.8c-4.578,2.43-9.4,2.192-14.366,2.051a.312.312,0,0,0-.274-.332c-1.945-.2-3.794,1.172-5.414,2.073a23.646,23.646,0,0,1-3.419,1.606,8.81,8.81,0,0,1-3,.369c-1.024-.245-2.052-.467-3.083-.647a.454.454,0,0,0-.456-.075,45.545,45.545,0,0,0-6.325-.611c.128-.694.185-1.4.263-2.1.08-.719.226-1.443.267-2.166,2.742-.167,5.481-1.479,8-2.494a40.407,40.407,0,0,0,7.943-4.269c4.205-2.914,8-8.067,8.958-13.228,3.018,1.924,7.873-.045,10.717-1.43a17.536,17.536,0,0,0,8.972-9.818,9.169,9.169,0,0,0-2.874-10.351c-1.834-1.6-4.734-2.506-6.789-1.275a21.6,21.6,0,0,0,.326-4.678.322.322,0,0,0-.631-.085c-.937,2.531-1.174,5.237-1.865,7.84a22.868,22.868,0,0,1-3,6.371c-1.867,2.935-4.487,6.788-7.867,8.4a41.185,41.185,0,0,0,3.392-5.23,30.65,30.65,0,0,0,2.265-8.788,44.915,44.915,0,0,0-1.162-17.413c-.042-.169-.331-.137-.309.042.2,1.706.339,3.428.431,5.153-2.877-1-5.682-1.616-8.312-3.35a17.837,17.837,0,0,1-5.554-6.342c-2.63-4.72-3.509-10.348-4.449-15.6a.161.161,0,0,0-.316.043c.426,5.776,1.14,11.59,3.918,16.769a18.679,18.679,0,0,0,3.238,4.319c-2.419.525-5.626-.812-7.719-1.71a21.35,21.35,0,0,1-7.678-6,30.327,30.327,0,0,1-6.791-18.286.154.154,0,0,0-.308,0c-.109,7.746,2.052,14.88,7.364,20.688a19.793,19.793,0,0,0,2.182,2.038c-3.81-.287-7.368-.4-11.026-2.156a26.061,26.061,0,0,1-8.634-7,24.464,24.464,0,0,1-4.924-21.436c.041-.17-.218-.3-.294-.125a18.862,18.862,0,0,0-1.475,9.426c-3.906,5.065-4.865,11.759-5.662,17.987-4.663-4.535-7.535-10.95-6.666-17.522.022-.161-.235-.185-.277-.037a16.439,16.439,0,0,0,.785,10.765c-.981,4.447-.829,9.312-1.25,13.832a147.642,147.642,0,0,1-2.3,15.66c-1.411,6.964-3.341,13.824-2.74,21.005a19.288,19.288,0,0,0,8.575,14.816c5.066,3.409,11,4.391,16.972,4.366a6.919,6.919,0,0,0-.21,1.446c-.056.566-.114,1.176-.124,1.781a65.935,65.935,0,0,0-13.841.734c-.475-.212-1.016-.291-1.5-.505a7.526,7.526,0,0,1-2.341-1.854,26.473,26.473,0,0,1-2.707-3.936c.254-.056.507-.11.761-.18a.38.38,0,0,0-.1-.742c-5.676-.58-10.642-.871-14.865-5.24-3.659-3.786-4.319-9.1-3.6-14.1.626-4.341,2.318-8.451,3.515-12.649a53.323,53.323,0,0,1,4.013-10.613,30.711,30.711,0,0,0,4.622,5.146c.353.308.926-.085.667-.515-1.325-2.213-2.884-4.235-4.343-6.33a.34.34,0,0,0-.3-.427,32.669,32.669,0,0,1-2.66-4.5c-2.082-4.406-2.231-9.293-1.716-14.054a45.293,45.293,0,0,1,10.87-24.238c5.828-6.736,13.487-10.339,22.17-11.8,9.522-1.6,18.653-.075,27.415,3.635-.12.317.143.764.529.616.171-.064.34-.125.511-.186a.454.454,0,0,0,.541-.2c9.751-3.377,19.791-2.313,28.423,3.686,9.067,6.3,13.015,17.288,15.027,27.7,2.021,10.455,1.993,21.3,1.245,31.881" transform="translate(-45.78 -21.252)" fill="#231f20"/>
      <path id="Trazado_831803" data-name="Trazado 831803" d="M326.478,93.636c-.224-.413-.942-.127-.77.324,1.894,4.97,2.895,10.151,4.616,15.16.109.318.631.285.611-.083a37.531,37.531,0,0,0-4.457-15.4" transform="translate(-125.914 -36.124)" fill="#231f20"/>
      <path id="Trazado_831804" data-name="Trazado 831804" d="M348.908,92.535c-.164-.377-.819-.1-.666.281a57.13,57.13,0,0,1,3.456,15.092.218.218,0,0,0,.435,0c.491-5.368-1.087-10.507-3.225-15.373" transform="translate(-134.627 -35.706)" fill="#231f20"/>
      <path id="Trazado_831805" data-name="Trazado 831805" d="M401.622,69.609c-2.382-.624-4.925-.117-7.327.206-2.8.377-5.962.432-8.728,1.173,2.211-2.742,3.794-6.116,5.59-9.114,1.053-1.757,2.135-3.5,3.218-5.236.391-.629,1.292-1.584,1.212-2.406a.383.383,0,0,0-.318-.68c-4.713.872-9.439,3.626-13.815,5.525-.921.4-4.145,1.754-5.009,2.674a55.225,55.225,0,0,0,.253-15.6c-.082-.593-.933-.593-1.195-.156-1.717,2.863-3.478,5.7-5.192,8.564-.951,1.589-1.687,3.548-2.895,4.95a.376.376,0,0,0,.453.588c1.34-.637,2.1-2.636,2.838-3.825,1.627-2.636,3.261-5.267,4.878-7.91.212,4.8-.8,9.639-.06,14.366a.4.4,0,0,0,.766,0c.006-.034.012-.069.017-.1a15.37,15.37,0,0,0,3.753-1.219c4.085-2.076,8.849-3.321,12.925-5.535-.956,1.411-1.788,3.16-2.168,3.765-2.3,3.655-5.153,7.577-6.341,11.767a.311.311,0,0,0,.385.368c2.463.686,5.365.026,7.849-.3,1.93-.252,3.978-.372,5.963-.664-1.964,1.056-3.842,2.522-5.613,3.653-2.88,1.838-6.185,3.6-8.538,6.111a.384.384,0,0,0-.023.457c-.006.01-.017.017-.023.028a.157.157,0,0,0,.055.211,3.714,3.714,0,0,0,1.942.356,24.712,24.712,0,0,1,4.63.993c1.456.4,2.89.921,4.349,1.323a28.17,28.17,0,0,0-4.109.886c-2.952.785-5.946,1.472-8.879,2.317a.333.333,0,0,0,.088.651c2.585.292,5.064-.488,7.529-1.2,2.655-.764,5.433-1.192,8.057-2.006a.281.281,0,0,0,.135-.1.363.363,0,0,0,.124-.662,31.762,31.762,0,0,0-8.193-2.923,17.3,17.3,0,0,0-3.532-.633c2.216-1.194,4.294-2.744,6.377-4.1,2.709-1.759,6.3-3.4,8.389-5.906a.433.433,0,0,0,.023-.039c.052-.015.106-.026.158-.041a.307.307,0,0,0,0-.588" transform="translate(-142.009 -17.663)" fill="#231f20"/>
    </g>
  </g>
  <g id="Grupo_1082186" data-name="Grupo 1082186">
    <g id="Grupo_1082185" data-name="Grupo 1082185" clip-path="url(#clip-path)">
      <path id="Trazado_831806" data-name="Trazado 831806" d="M109.925,251.592c.088-.358.15-.725.216-1.09a19.124,19.124,0,0,0-6.66.462,12.563,12.563,0,0,0-4.758,1.651c-1.168.805-2.9,2.092-3.255,3.561-.746,3.063,3.838,1.9,5.8,1.3,2.176-2.924,5.392-5.347,8.66-5.881" transform="translate(-36.878 -96.792)" fill="#ede8ea"/>
      <path id="Trazado_831807" data-name="Trazado 831807" d="M118.731,258.664a3.468,3.468,0,0,0,1.883.25c.607-.012,1.241-.169,1.855-.179a2.307,2.307,0,0,0-1.261-1.292,2.154,2.154,0,0,1-1.8-.558c-.226.6-.47,1.184-.678,1.778" transform="translate(-45.903 -99.316)" fill="#726f70"/>
      <path id="Trazado_831808" data-name="Trazado 831808" d="M122.524,240.03c.04.022.078.049.117.072,0-.006.007-.012.012-.018.045-.055.093-.109.142-.158.26-.644.692-1.246.444-1.969a1.345,1.345,0,0,0-1.559-1,1.941,1.941,0,0,0-1.208,1.6,1.3,1.3,0,0,0,.369,1.252,2.156,2.156,0,0,1,1.684.221m-.645-1.622.015,0a.446.446,0,0,1,.548.364.418.418,0,0,1-.6.5l.036.009a.456.456,0,0,1,0-.872" transform="translate(-46.563 -91.594)" fill="#ede8ea"/>
      <path id="Trazado_831809" data-name="Trazado 831809" d="M112.587,253.54a16.617,16.617,0,0,0-8.872,7.586,9.018,9.018,0,0,0-.951,1.893q-.66,1.357,1.543,1.708a9.77,9.77,0,0,0,2.1-1.124c1.519-1.063,2.8-2.413,4.393-3.367a7.437,7.437,0,0,1,1.924-5.333,3,3,0,0,1-.142-1.362" transform="translate(-39.672 -98.023)" fill="#ede8ea"/>
      <path id="Trazado_831810" data-name="Trazado 831810" d="M121.99,245.559c1.251-1.41-.15-2.457-1.553-2.6-.975.5-1.169,2.381-.566,3.172.552.724,1.712-.109,2.119-.569m-.6-1.541c.613,0,.613,1.121,0,1.121-1.227,0-1.227-1.121,0-1.121" transform="translate(-46.212 -93.931)" fill="#ede8ea"/>
      <path id="Trazado_831811" data-name="Trazado 831811" d="M123.11,248.433a2.984,2.984,0,0,1-2.4,1.11,5.035,5.035,0,0,1-.127,1.043c-.161.909-.264,3.234,1.392,2.561a3.417,3.417,0,0,0,1.713-2.592c.016-.1.029-.2.039-.3a.335.335,0,0,1,.014-.218,1.859,1.859,0,0,0-.251-1.08c-.126-.2-.261-.358-.383-.524" transform="translate(-46.588 -96.048)" fill="#726f70"/>
      <path id="Trazado_831812" data-name="Trazado 831812" d="M125.7,243.548a12.672,12.672,0,0,1,3.82-1.733,20.751,20.751,0,0,1-4.4.71,2.232,2.232,0,0,1,.585,1.022" transform="translate(-48.37 -93.49)" fill="#726f70"/>
      <path id="Trazado_831813" data-name="Trazado 831813" d="M118.541,267.255a3.733,3.733,0,0,0,1.466,1.816c.621.389,1.376.683,1.849-.09a5.628,5.628,0,0,0,.542-1.3,4.078,4.078,0,0,1-3.856-.424" transform="translate(-45.83 -103.325)" fill="#726f70"/>
      <path id="Trazado_831814" data-name="Trazado 831814" d="M119.256,262.01a2.77,2.77,0,0,1-1.147-.517,6.173,6.173,0,0,0-.173,1.873,3.574,3.574,0,0,0,3.081.971,2.709,2.709,0,0,0,1.373-.729.534.534,0,0,1,.128-.087,8.267,8.267,0,0,0-.022-1.7,5.825,5.825,0,0,1-3.239.19" transform="translate(-45.591 -101.097)" fill="#ede8ea"/>
      <path id="Trazado_831815" data-name="Trazado 831815" d="M97.716,230.717c-2.053-3.407-4.99-6.144-7.721-9-.125-.131-.353.041-.251.194,2.195,3.3,5.106,6.043,7.735,8.989.115.13.324-.037.237-.183" transform="translate(-34.687 -85.702)" fill="#231f20"/>
      <path id="Trazado_831816" data-name="Trazado 831816" d="M82.157,245.1c-2.547-1.647-5.228-2.987-7.892-4.427a.226.226,0,0,0-.228.39,31.828,31.828,0,0,0,8,4.329c.178.063.27-.2.123-.293" transform="translate(-28.584 -93.036)" fill="#231f20"/>
      <path id="Trazado_831817" data-name="Trazado 831817" d="M80.406,265.488a39.632,39.632,0,0,0-6.561,2.611c-.184.085-.052.374.136.321a27.741,27.741,0,0,0,6.56-2.611.177.177,0,0,0-.135-.321" transform="translate(-28.516 -102.64)" fill="#231f20"/>
      <path id="Trazado_831818" data-name="Trazado 831818" d="M94.108,280.965a12.891,12.891,0,0,0-3.323,2.8,17.281,17.281,0,0,0-2.613,3.417.164.164,0,0,0,.256.2c.961-1.026,1.942-2.043,2.949-3.023a24.926,24.926,0,0,0,3.086-3.035c.167-.232-.145-.456-.356-.356" transform="translate(-34.08 -108.616)" fill="#231f20"/>
      <path id="Trazado_831819" data-name="Trazado 831819" d="M120.838,237.865a23.475,23.475,0,0,0-7.281,1.237,2.444,2.444,0,0,0,.217-2.1,2.291,2.291,0,0,0-2.672-1.522,2.834,2.834,0,0,0-1.9,2.515,2.1,2.1,0,0,0,.571,1.685,3.123,3.123,0,0,0-.552,4.246,4.325,4.325,0,0,0-2.238-.18,49.455,49.455,0,0,0-5.151.65,11.989,11.989,0,0,0-6.485,3.384c-1.135,1.135-2.191,2.813-1.29,4.373,1.186,2.051,3.871,1.527,5.827.6a13.763,13.763,0,0,0-1.627,3.526c-.573,2,1.217,2.785,2.858,2.345,2.358-.631,4.773-2.872,6.285-4.823a5.623,5.623,0,0,0,.477,1.824c.734,1.559,3.087,3.9,4.894,2.362,1.573-1.338,1.689-3.953,1.571-5.852-.064-1.018-.518-2.9-1.481-3.583.062-.052.118-.113.175-.169a3.2,3.2,0,0,0,1.36,1.191c.621.3,1.794.574,2.319-.029a.253.253,0,0,0-.05-.393,10.025,10.025,0,0,0-1.755-.329,2.765,2.765,0,0,1-1.421-.977,4.888,4.888,0,0,0,.428-.779c1.029.64,2.514.972,3.471.264a.216.216,0,0,0-.052-.389,5.9,5.9,0,0,0-1.678-.172,4.515,4.515,0,0,1-1.492-.352,6.111,6.111,0,0,0,.211-.851c0-.034.009-.069.013-.1a4.035,4.035,0,0,0,2.658-.3.279.279,0,0,0-.066-.5,4.985,4.985,0,0,0-1.731-.012c-.289.015-.572.044-.853.08a2.474,2.474,0,0,0-1.1-2.1,2.717,2.717,0,0,0,.291-.842c.009-.057.01-.111.014-.167,2.485-.966,5.179-1.586,7.431-3.023a.4.4,0,0,0-.2-.737m-10.695.118a1.939,1.939,0,0,1,1.208-1.6,1.345,1.345,0,0,1,1.559,1c.248.723-.184,1.326-.444,1.969-.049.05-.1.1-.142.158l-.012.018c-.039-.024-.077-.05-.117-.072a2.156,2.156,0,0,0-1.684-.221,1.3,1.3,0,0,1-.369-1.252m.318,2.063c1.4.147,2.8,1.193,1.553,2.6-.407.459-1.567,1.294-2.12.569-.6-.791-.409-2.669.567-3.172m-.72,8.544a2.151,2.151,0,0,0,1.8.558,2.31,2.31,0,0,1,1.262,1.292c-.614.01-1.248.167-1.855.178a3.465,3.465,0,0,1-1.882-.25c.207-.594.452-1.182.678-1.778M94.824,250.4c.357-1.469,2.087-2.755,3.255-3.561a12.562,12.562,0,0,1,4.758-1.651,19.125,19.125,0,0,1,6.66-.462c-.066.365-.128.732-.216,1.09-3.268.534-6.484,2.957-8.66,5.88-1.959.608-6.542,1.767-5.8-1.3m12.543,2.829c-1.588.954-2.874,2.3-4.393,3.367a9.768,9.768,0,0,1-2.1,1.124q-2.2-.351-1.544-1.708a9.019,9.019,0,0,1,.951-1.894,16.621,16.621,0,0,1,8.872-7.586,2.989,2.989,0,0,0,.142,1.362,7.438,7.438,0,0,0-1.925,5.333m4.894,3.443c-.472.772-1.228.478-1.849.09a3.735,3.735,0,0,1-1.465-1.816,4.077,4.077,0,0,0,3.856.424,5.6,5.6,0,0,1-.541,1.3m.878-4.933a8.267,8.267,0,0,1,.022,1.7.534.534,0,0,0-.128.087,2.708,2.708,0,0,1-1.373.729,3.573,3.573,0,0,1-3.08-.971,6.173,6.173,0,0,1,.173-1.873,2.77,2.77,0,0,0,1.147.517,5.825,5.825,0,0,0,3.239-.19m.251-6.734a.333.333,0,0,0-.014.217c-.01.1-.023.2-.039.3a3.418,3.418,0,0,1-1.713,2.592c-1.657.673-1.554-1.652-1.392-2.562a5.029,5.029,0,0,0,.127-1.043,2.983,2.983,0,0,0,2.4-1.11c.122.166.256.327.383.524a1.857,1.857,0,0,1,.251,1.08m.171-3.931a2.232,2.232,0,0,0-.585-1.023,20.755,20.755,0,0,0,4.4-.71,12.672,12.672,0,0,0-3.82,1.733" transform="translate(-36.235 -91.02)" fill="#231f20"/>
      <path id="Trazado_831820" data-name="Trazado 831820" d="M121.888,244.688a.561.561,0,0,0,0,1.121.561.561,0,0,0,0-1.121" transform="translate(-46.914 -94.6)" fill="#231f20"/>
      <path id="Trazado_831821" data-name="Trazado 831821" d="M123.147,239.7a.446.446,0,0,0-.548-.364l-.015,0a.456.456,0,0,0,0,.872l-.036-.009a.418.418,0,0,0,.6-.5" transform="translate(-47.268 -92.528)" fill="#231f20"/>
      <path id="Trazado_831822" data-name="Trazado 831822" d="M114.885,241.733c.113-.447.428-.827.348-1.3a.239.239,0,0,0-.236-.179c-.675.067-.924.84-1.054,1.412a2.984,2.984,0,0,0,.318,2.114.34.34,0,0,0,.618-.26,3.6,3.6,0,0,1,.006-1.784" transform="translate(-44.024 -92.885)" fill="#231f20"/>
      <path id="Trazado_831823" data-name="Trazado 831823" d="M118.037,234.611a2.086,2.086,0,0,0-1.667.439,1.564,1.564,0,0,0-.608,1.565c.063.405.639.266.67-.091a1.044,1.044,0,0,1,.648-.79,2.758,2.758,0,0,1,.478-.18,4.734,4.734,0,0,0,.57-.249.382.382,0,0,0-.091-.694" transform="translate(-44.746 -90.692)" fill="#231f20"/>
      <path id="Trazado_831824" data-name="Trazado 831824" d="M380.608,270.279c-.34-.161-.671-.346-1-.53a18.806,18.806,0,0,1,4.551-4.886,12.394,12.394,0,0,1,4.3-2.645c1.372-.394,3.479-.915,4.87-.253,2.9,1.382-.9,4.207-2.613,5.341-3.686-.178-7.629.772-10.1,2.973" transform="translate(-146.762 -101.158)" fill="#ede8ea"/>
      <path id="Trazado_831825" data-name="Trazado 831825" d="M385.7,279.806c-.007.576-.7,1.291-.984,1.624-.39.466-.914.859-1.306,1.33a2.33,2.33,0,0,1-.234-1.809,2.129,2.129,0,0,0,.688-1.758c.615.207,1.234.394,1.836.613" transform="translate(-148.105 -107.94)" fill="#726f70"/>
      <path id="Trazado_831826" data-name="Trazado 831826" d="M368.526,270.963c-.007.045-.01.091-.015.136l-.022,0a1.931,1.931,0,0,0-.215.01c-.673-.212-1.422-.26-1.841-.917a1.345,1.345,0,0,1,.187-1.853,1.977,1.977,0,0,1,2.028.085,1.342,1.342,0,0,1,.761,1.089,2.118,2.118,0,0,0-.883,1.453m-.881-1.542a.1.1,0,0,0-.012.01.447.447,0,0,0-.055.659.422.422,0,0,0,.775-.144.279.279,0,0,0-.016.033c.156-.393-.331-.856-.692-.559" transform="translate(-141.561 -103.648)" fill="#ede8ea"/>
      <path id="Trazado_831827" data-name="Trazado 831827" d="M382.3,274.852a16.71,16.71,0,0,1,11.591-2.046,9.3,9.3,0,0,1,2.1.473q1.491.355.386,2.3a9.736,9.736,0,0,1-2.214.916c-1.8.5-3.675.637-5.43,1.262a7.675,7.675,0,0,0-5.441-1.918,3.094,3.094,0,0,0-.991-.983" transform="translate(-147.804 -105.372)" fill="#ede8ea"/>
      <path id="Trazado_831828" data-name="Trazado 831828" d="M373.339,274c-1.9.071-1.855-1.689-1.091-2.875,1.011-.437,2.623.616,2.873,1.591.227.892-1.162,1.262-1.782,1.284m-.846-1.454c-.385.478.5,1.2.889.718.771-.954-.118-1.672-.889-.718" transform="translate(-143.726 -104.782)" fill="#ede8ea"/>
      <path id="Trazado_831829" data-name="Trazado 831829" d="M374.556,276.879a2.954,2.954,0,0,0,2.386-1.155,5.133,5.133,0,0,0,.907.569c.824.457,2.733,1.867,1.159,2.725a3.484,3.484,0,0,1-3.133-.328c-.088-.051-.176-.105-.263-.162a.353.353,0,0,0-.182-.129,1.919,1.919,0,0,1-.7-.887c-.077-.224-.121-.432-.176-.634" transform="translate(-144.809 -106.599)" fill="#726f70"/>
      <path id="Trazado_831830" data-name="Trazado 831830" d="M368.344,275.5a12.543,12.543,0,0,0-3.774,1.862,20.389,20.389,0,0,0,3.331-2.972,2.286,2.286,0,0,0,.443,1.11" transform="translate(-140.949 -106.084)" fill="#726f70"/>
      <path id="Trazado_831831" data-name="Trazado 831831" d="M392.078,284.827a3.8,3.8,0,0,1,.519,2.3c-.082.733-.323,1.508-1.232,1.382a5.769,5.769,0,0,1-1.373-.413,4.013,4.013,0,0,0,2.086-3.272" transform="translate(-150.777 -110.119)" fill="#726f70"/>
      <path id="Trazado_831832" data-name="Trazado 831832" d="M387.136,282.116a2.737,2.737,0,0,0,.31-1.224,6.364,6.364,0,0,1,1.595,1.064,3.53,3.53,0,0,1-1.164,3.02,2.7,2.7,0,0,1-1.441.6.474.474,0,0,0-.148.043,8.508,8.508,0,0,1-1.335-1.106,5.711,5.711,0,0,0,2.185-2.4" transform="translate(-148.828 -108.597)" fill="#ede8ea"/>
      <path id="Trazado_831833" data-name="Trazado 831833" d="M359.062,273.553a23.052,23.052,0,0,1,5.555-4.873,2.535,2.535,0,0,1-1.8-1.177,2.285,2.285,0,0,1,.47-3.054,2.886,2.886,0,0,1,3.188.136,2.17,2.17,0,0,1,.978,1.522,3.229,3.229,0,0,1,3.716,2.29,4.253,4.253,0,0,1,1.261-1.855,48.56,48.56,0,0,1,3.751-3.591,11.909,11.909,0,0,1,6.758-2.878c1.613-.156,3.608.1,4.279,1.8.883,2.235-1.218,3.99-3.181,4.921a14.14,14.14,0,0,1,3.82.992c1.948.836,1.445,2.731.066,3.726-1.982,1.431-5.277,1.875-7.775,1.8a5.82,5.82,0,0,1,1.148,1.538c.776,1.57,1.153,4.9-1.2,5.32-2.049.367-4.2-1.217-5.63-2.525-.767-.7-1.976-2.26-1.912-3.447-.08.015-.164.018-.245.028a3.226,3.226,0,0,1,.091,1.821c-.153.674-.672,1.762-1.479,1.785a.262.262,0,0,1-.281-.291c.113-.576.621-1.032.842-1.577a2.773,2.773,0,0,0,.117-1.732,5.137,5.137,0,0,1-.887-.166c-.137,1.21-.808,2.577-1.97,2.869a.222.222,0,0,1-.277-.29,5.841,5.841,0,0,1,.916-1.416,4.394,4.394,0,0,0,.658-1.386,6.168,6.168,0,0,1-.807-.382l-.091-.058c-.524.756-1.058,1.671-1.908,1.878a.286.286,0,0,1-.358-.374,4.861,4.861,0,0,1,1.077-1.354c.194-.216.394-.417.6-.614a2.533,2.533,0,0,1-.972-2.2,2.785,2.785,0,0,1-.85-.313c-.05-.029-.1-.064-.141-.1-2.328,1.316-4.511,3.015-7.066,3.847a.408.408,0,0,1-.46-.627m6.812-8.246a1.975,1.975,0,0,0-2.028-.085,1.345,1.345,0,0,0-.186,1.853c.418.657,1.167.705,1.841.917a2.06,2.06,0,0,1,.214-.01l.022,0c.006-.045.009-.091.016-.137a2.118,2.118,0,0,1,.883-1.453,1.341,1.341,0,0,0-.761-1.088m1.436,1.568c-.765,1.186-.813,2.946,1.09,2.876.62-.022,2.01-.391,1.782-1.284-.25-.976-1.862-2.028-2.872-1.592m7.232,4.911a2.129,2.129,0,0,1-.688,1.758,2.331,2.331,0,0,0,.234,1.809c.392-.472.916-.865,1.306-1.33.281-.333.977-1.048.984-1.625-.6-.219-1.222-.406-1.836-.613m10.808-10.444c-1.391-.662-3.5-.141-4.87.253a12.389,12.389,0,0,0-4.3,2.644,18.8,18.8,0,0,0-4.551,4.886c.331.183.662.37,1,.531,2.476-2.2,6.418-3.152,10.1-2.973,1.713-1.134,5.512-3.959,2.613-5.341m-5.633,11.572c1.755-.624,3.633-.761,5.43-1.262a9.679,9.679,0,0,0,2.214-.916q1.1-1.94-.386-2.295a9.26,9.26,0,0,0-2.1-.473,16.7,16.7,0,0,0-11.591,2.046,3.092,3.092,0,0,1,.991.982,7.678,7.678,0,0,1,5.441,1.918m-.342,6.014c.909.126,1.15-.649,1.232-1.382a3.8,3.8,0,0,0-.519-2.3A4.012,4.012,0,0,1,378,278.514a5.809,5.809,0,0,0,1.374.413m-4.465-2.476a8.506,8.506,0,0,0,1.335,1.105.491.491,0,0,1,.148-.043,2.7,2.7,0,0,0,1.441-.6,3.532,3.532,0,0,0,1.165-3.02,6.381,6.381,0,0,0-1.6-1.065,2.733,2.733,0,0,1-.31,1.224,5.716,5.716,0,0,1-2.185,2.4m-5.5-4.118a.353.353,0,0,1,.182.129c.086.057.175.111.263.162a3.486,3.486,0,0,0,3.133.328c1.574-.859-.335-2.268-1.159-2.725a5.136,5.136,0,0,1-.907-.569,2.953,2.953,0,0,1-2.386,1.155c.055.2.1.409.176.634a1.919,1.919,0,0,0,.7.887m-3.226-2.384a2.286,2.286,0,0,1-.443-1.11,20.39,20.39,0,0,1-3.331,2.972,12.543,12.543,0,0,1,3.774-1.862" transform="translate(-138.786 -100.533)" fill="#231f20"/>
      <path id="Trazado_831834" data-name="Trazado 831834" d="M373.089,273.117a.572.572,0,0,1,.89.717.572.572,0,0,1-.89-.717" transform="translate(-144.194 -105.512)" fill="#231f20"/>
      <path id="Trazado_831835" data-name="Trazado 831835" d="M368.4,270.87a.447.447,0,0,1,.056-.659s.007-.007.012-.01c.361-.3.848.166.692.559a.231.231,0,0,1,.017-.033.422.422,0,0,1-.776.143" transform="translate(-142.382 -104.427)" fill="#231f20"/>
      <path id="Trazado_831836" data-name="Trazado 831836" d="M374.957,266.029c-.426-.2-.924-.2-1.252-.563a.239.239,0,0,1,.006-.3c.477-.482,1.246-.181,1.781.084a3.086,3.086,0,0,1,1.478,1.6c.158.364-.362.62-.593.314a3.754,3.754,0,0,0-1.42-1.139" transform="translate(-144.461 -102.42)" fill="#231f20"/>
      <path id="Trazado_831837" data-name="Trazado 831837" d="M366.89,264a2.054,2.054,0,0,1,1.4-1.017,1.614,1.614,0,0,1,1.624.529c.283.308-.191.668-.493.464a1.058,1.058,0,0,0-1.034,0,2.647,2.647,0,0,0-.443.256,4.84,4.84,0,0,1-.556.285.393.393,0,0,1-.494-.515" transform="translate(-141.831 -101.654)" fill="#231f20"/>
      <path id="Trazado_831838" data-name="Trazado 831838" d="M377.45,343.625c2.752-4.077,5.19-9.027,5.594-14.207a14,14,0,0,0,2.611-3.385c2.722-4.981,3.051-11.48,2.287-17.245-.9-6.837-5.2-13.106-10.4-17.845a.284.284,0,1,0-.367.434A34.809,34.809,0,0,1,385.3,302.1a25.432,25.432,0,0,1,2.345,10.124c.238,5.5-.628,12.377-4.558,16.367a17.662,17.662,0,0,0-.328-4.159c-.561-2.772-2.221-6.071-5.535-6.071a5.28,5.28,0,0,0-5.022,2.727c-1.549,2.923-.321,7.755,2.741,9.723,2.677,1.724,5.32.884,7.415-.8a27.82,27.82,0,0,1-.564,2.943c-2.043,8.319-7.976,15.722-14.747,20.62a36.987,36.987,0,0,1-25.445,6.683.29.29,0,0,0-.079.574c14.892,1.516,28.125-5.651,35.927-17.208m3.083-13.117c-5.47,2.923-9.774-4.368-7.882-8.933,1.338-3.23,6.178-3.56,8.293-.4,1.537,2.3,1.778,5.249,1.51,8.007a10.493,10.493,0,0,1-1.921,1.328" transform="translate(-131.941 -112.451)" fill="#231f20"/>
    </g>
  </g>
</svg>
