<svg id="Grupo_1082180" data-name="Grupo 1082180" xmlns="http://www.w3.org/2000/svg" xmlns:xlink="http://www.w3.org/1999/xlink" width="248.514" height="247.689" viewBox="0 0 248.514 247.689">
  <defs>
    <clipPath id="clip-path">
      <rect id="Rectángulo_384126" data-name="Rectángulo 384126" width="248.514" height="247.689" fill="none"/>
    </clipPath>
  </defs>
  <g id="Grupo_1082179" data-name="Grupo 1082179" clip-path="url(#clip-path)">
    <path id="Trazado_831651" data-name="Trazado 831651" d="M146.568,205.043l51.884,3.711c9.01.644,18.571,1.18,26.546-3.062,11.011-5.857,15.762-19,18.34-31.2,6.642-31.439,5.062-63.959,3.451-96.051-.518-10.314-1.2-21.165-6.811-29.836-5.807-8.975-15.968-14.116-26.048-17.675-41.143-14.526-86.955-9.012-128.506,4.3C71.188,39.794,56.325,45.945,48.061,58.4c-8.179,12.331-8.158,28.213-7.144,42.974a465.605,465.605,0,0,0,12.331,79.078c1.873,7.628,4.174,15.617,9.865,21.03,6.712,6.383,16.747,7.808,26,7.365s18.485-2.423,27.706-1.539" transform="translate(-16.064 -8.865)" fill="#f3d6f3"/>
    <path id="Trazado_831652" data-name="Trazado 831652" d="M101.37,26.663a4.211,4.211,0,0,0,1.678-1c1.108-1.272.327-3.285-.769-4.568C99.126,17.4,93.764,16,89.022,17.036A19.44,19.44,0,0,0,77.462,25.3a24.381,24.381,0,0,0-4.051,9.121c-.777,4.816,3.446,2.094,6.133,1.014l21.827-8.775" transform="translate(-29.114 -6.633)" fill="#f3d6f3"/>
    <path id="Trazado_831653" data-name="Trazado 831653" d="M382.939,263.324a3.273,3.273,0,0,0,.14,1.874c.6,1.186,2.261,1.192,3.58,1.027,2.983-.373,6.2-.857,8.33-2.981,1.9-1.9,2.517-4.715,2.86-7.383.628-4.879.056-21.982-9.114-17.669-3.709,1.744-3.5,6.2-3.921,9.678q-.937,7.728-1.875,15.454" transform="translate(-152.037 -94.311)" fill="#f3d6f3"/>
    <path id="Trazado_831654" data-name="Trazado 831654" d="M394.727,292.611c4.439-5.426-4.38-5-7.464-5.064-2.792-.054-5.668-.218-8.248,1.035-2.2,1.068-7.307,4.76-6.658,7.575.827,3.584,8.164,3.282,10.835,2.876a18.579,18.579,0,0,0,11.535-6.423" transform="translate(-147.84 -114.169)" fill="#f3d6f3"/>
    <path id="Trazado_831655" data-name="Trazado 831655" d="M42.357,41.205c-3.532,1.622-6.737,4.319-8.13,7.947-1.313,3.424-.884,7.293.208,10.794a5.015,5.015,0,0,0,2.172,3.223c1.668.822,3.616-.231,5.145-1.289a36.215,36.215,0,0,0,6.826-5.769A21.808,21.808,0,0,0,53.91,42.187c.016-2.609-.29-3.689-2.978-3.477a27.049,27.049,0,0,0-8.575,2.5" transform="translate(-13.269 -15.361)" fill="#f3d6f3"/>
    <path id="Trazado_831656" data-name="Trazado 831656" d="M228.108,363.55c-.711-4.843-7.109-7-12.238-7.7A668.747,668.747,0,0,0,55.82,353.141c-9.489.981-28.493-.155-36.16,6,8.479,9.366,32.471,4.262,44.012,8.856,6.2,2.469,11.546,6.712,17.622,9.478,8.722,3.971,18.513,4.723,28.072,5.418,7.325.533,14.727,1.062,21.98-.089,3.014-.479,5.986-1.246,9.027-1.5a66.136,66.136,0,0,1,9.206.182c22.781,1.276,45.547-2.71,67.7-8.17a25.581,25.581,0,0,0,6.184-2.312c-.025.022-.048.045-.074.067-2.542,2.183-6.131,3.206-9.239,4.277a143.858,143.858,0,0,1-21.43,5.453c-2.05.368-4.109.7-6.176.957-2.167.266-4.328.719-6.5.886a.363.363,0,0,0,0,.726c2.061.023,4.112.233,6.179.129,2-.1,4-.234,5.989-.434a89.438,89.438,0,0,0,12.044-1.963,117.1,117.1,0,0,0,11.55-3.427c3.5-1.238,7.346-2.477,10.056-5.138a9.377,9.377,0,0,0,2.643-4.716,6.314,6.314,0,0,0-.394-4.275" transform="translate(-7.807 -138.822)" fill="#c2d1d3"/>
    <path id="Trazado_831657" data-name="Trazado 831657" d="M129.193,401.423c-1-1.07-3.216-.792-4.551-.984a29.733,29.733,0,0,1-4.879-1.2c-3.248-1.049-6.323-2.459-9.681-3.155a.692.692,0,0,0-.531,1.258,41.367,41.367,0,0,0,9.771,4.648,28.719,28.719,0,0,0,5.034,1.173c1.5.206,3.93.594,4.953-.838a.756.756,0,0,0-.117-.907" transform="translate(-43.372 -157.279)" fill="#c2d1d3"/>
    <path id="Trazado_831658" data-name="Trazado 831658" d="M170.151,408.665a1.349,1.349,0,0,0-.418-.046l-.208.031a5.79,5.79,0,0,1-.708.046c-.247,0-.494,0-.741-.007a.612.612,0,0,0-.433,1.045.7.7,0,0,0,.433.179,3.637,3.637,0,0,0,.519.034,5.879,5.879,0,0,0,.643-.069c.17-.025.339-.056.508-.1a1.321,1.321,0,0,0,.351-.113,1.83,1.83,0,0,0,.266-.208.479.479,0,0,0-.21-.8" transform="translate(-66.499 -162.26)" fill="#c2d1d3"/>
    <path id="Trazado_831659" data-name="Trazado 831659" d="M55.125,379.079a1.665,1.665,0,0,0-.45-.486,2.576,2.576,0,0,0-.7-.321c.162.06-.063-.031-.077-.037a2.15,2.15,0,0,0-.435-.143c-.177-.039-.354-.079-.532-.108a16.021,16.021,0,0,0-2.36-.171.621.621,0,0,0-.164,1.214,21.55,21.55,0,0,1,2.075.586c.172.055.347.1.52.155.074.023.147.049.222.068q.154.022.307.041c.1.01.1.013,0,.006a1.98,1.98,0,0,0,1.256.032.578.578,0,0,0,.34-.836" transform="translate(-19.839 -150.029)" fill="#c2d1d3"/>
    <path id="Trazado_831660" data-name="Trazado 831660" d="M227.253,358.335a52.392,52.392,0,0,1-2.324-5.116c-.132-.33-.25-.666-.377-1-.323.759-.774,1.5-1.084,2.115a41.63,41.63,0,0,1-2.075,3.626,37.7,37.7,0,0,1-2.33,3.362,43.223,43.223,0,0,1,9.72.178q.015-.253.03-.506l-.064-.1a26.547,26.547,0,0,1-1.5-2.567" transform="translate(-86.989 -139.867)" fill="#b46f2f"/>
    <path id="Trazado_831661" data-name="Trazado 831661" d="M272.233,382.942c-.564-.071-1.132-.1-1.7-.16.969.739,2.063,1.311,3.071,1.99a10.057,10.057,0,0,1,2.385,2.22c0-.146,0-.3-.011-.462a3.833,3.833,0,0,0-1.117-2.334,4.272,4.272,0,0,0-2.63-1.254" transform="translate(-107.429 -152.002)" fill="#c84"/>
    <path id="Trazado_831662" data-name="Trazado 831662" d="M273.274,352.866a11.783,11.783,0,0,0-2.3-.807c-1.693-.415-3.432-.6-5.141-.941a15.786,15.786,0,0,1-2.443-.663,7.186,7.186,0,0,1-1.718-1.026c.293,1.926.588,3.852.9,5.776.344,2.139.623,4.328,1.005,6.487a15.638,15.638,0,0,1,4,.417,5.859,5.859,0,0,0,.843.084,7.63,7.63,0,0,0,.969-.025c.022,0,.16-.019.206-.024l.077-.015c.11-.029.22-.051.329-.085.052-.016.161-.067.18-.074.066-.036.133-.073.2-.115l.039-.03,0-.007c-.029.017-.025.011,0-.008l-.007-.016a2.155,2.155,0,0,1-.123-.264,3.681,3.681,0,0,0-.775-.947c-1.382-1.338-3.218-2.253-4.215-4.012a.754.754,0,0,1,1.3-.761,8.289,8.289,0,0,0,2.755,2.084,8.7,8.7,0,0,1,2.7,2.214,4.293,4.293,0,0,1,.58,1.034c.177,0,.348,0,.5,0,.351,0,.7,0,1.053-.015.015,0,.2-.015.23-.011l.049-.011c0-.019,0-.043.005-.077-.013-.3-.008-.6-.021-.9a10.674,10.674,0,0,0-.138-1.687,3.32,3.32,0,0,0-1.69-2.325,10.917,10.917,0,0,0-3.154-1.156.708.708,0,0,1-.488-.86.723.723,0,0,1,.86-.488,14.149,14.149,0,0,1,3.51.78,5.456,5.456,0,0,1,2.227,1.676,3.386,3.386,0,0,0-.295-1.748,4.75,4.75,0,0,0-1.993-1.456" transform="translate(-103.909 -138.758)" fill="#b46f2f"/>
    <path id="Trazado_831663" data-name="Trazado 831663" d="M206,283.873c-1.159-1.45-3.219-2.026-4.891-2.623-2.116-.749-4.253-1.408-6.41-2.04-.985-.291-1.319,1.138-.409,1.505,1.824.729,3.622,1.519,5.418,2.324.895.4,1.79.8,2.685,1.208a4.346,4.346,0,0,1,1.637,1.033,2.964,2.964,0,0,1,.215,2.116,5.912,5.912,0,0,1-.812,2.3,3.865,3.865,0,0,1-1.464,1.332,4.965,4.965,0,0,0-.215-.569,8.641,8.641,0,0,0-3.414-3.823c-1.505-.944-3.5-1.519-4.267-3.267-.312-.722-1.4-.2-1.228.513a6.513,6.513,0,0,0,2.5,3.448,13.465,13.465,0,0,1,3.337,2.955,5.211,5.211,0,0,1,.763,1.672,1.407,1.407,0,0,1,.035.181.671.671,0,0,1,.007.09v.347c-.007.007-.028.18-.042.236a.52.52,0,0,0-.02.063v-.021c-.014-.007-.035.028-.049.049a.092.092,0,0,0-.028.02,1.617,1.617,0,0,1-.271.062,9.529,9.529,0,0,1-1.187.028c-.915.007-1.824-.014-2.74-.07-.8-.041-1.63-.09-2.442-.2a1.879,1.879,0,0,0-.32-.347,2.746,2.746,0,0,0-.985-.86c-.382-.257-.777-.514-1.152-.777-.916-.631-1.811-1.284-2.734-1.9A12.694,12.694,0,0,0,184.4,287a2.053,2.053,0,0,0-.548-.548c-1-.68-2.053-.874-2.269-2.234-.229-1.443-.284-2.928-.451-4.384-.194-1.665-.416-3.33-.693-4.988-.146-.833-.292-1.672-.458-2.5-.09-.486-.18-.985-.312-1.464a.837.837,0,0,0-.617-1.367H179c.028,0,.069.014.076.042.007,0,.007.007.014.014a.362.362,0,0,0-.09-.042.34.34,0,0,0-.16-.055c-.125-.035-.263-.042-.388-.077a1.11,1.11,0,0,1-.215-.069.074.074,0,0,1-.028-.007c-.007,0-.014-.007-.021-.007-.055-.034-.111-.062-.166-.09a1.516,1.516,0,0,0-.125-.09c-.035-.034-.111-.1-.111-.1a1.266,1.266,0,0,1-.1-.1.689.689,0,0,1-.077-.1,1.23,1.23,0,0,1-.1-.159,1.5,1.5,0,0,1-.125-.333c-.028-.1-.055-.194-.077-.291,0-.021-.028-.166-.028-.159a17.87,17.87,0,0,1-.062-2.192,18.533,18.533,0,0,0-.347-2.547.559.559,0,0,0-.59-.471c-.388-1.985-.985-3.92-1.547-5.869-.8-2.817-1.6-5.634-2.394-8.45-1.6-5.62-2.893-11.344-4.676-16.908a.269.269,0,0,0-.028-.048c5.4-5.412,10.2-11.378,12.988-18.586a30.314,30.314,0,0,0,1.353-4.385c.319-1.457.791-3.073.173-4.5a.779.779,0,0,0-1.214-.153,8.916,8.916,0,0,0-1.311,3.552c-.354,1.276-.771,2.553-1.221,3.8A44.587,44.587,0,0,1,175,218.318a70.942,70.942,0,0,1-9.928,13.188c-1.8,1.894-3.663,3.719-5.55,5.515a5.138,5.138,0,0,0-.506-2.192.618.618,0,0,0-1.117.146,6.947,6.947,0,0,0-.25,2.456c-.007.868-.028,1.742-.076,2.609-.1,1.665-.3,3.33-.555,4.975-.236,1.505-.52,3.018-.839,4.524-.611-5.918-1.138-11.864-1.256-17.8q-.052-2.727-.049-5.46a27.2,27.2,0,0,0-.173-5.523.248.248,0,0,0-.34-.174.269.269,0,0,0-.174.174,20.548,20.548,0,0,0-.34,4.843c-.034,1.651-.028,3.3-.02,4.946.02,3.352-.007,6.709.09,10.053q.3,9.98,1.492,19.877c.222,1.832.465,3.67.8,5.488a35.157,35.157,0,0,0,1.256,5.287c.077,1.547.188,3.094.374,4.635.361,2.914.771,5.82,1.187,8.72.375,2.588.555,5.363,1.748,7.736,1.11,2.206,3.177,3.379,5.175,4.662a6.968,6.968,0,0,1,2.595,2.525,2.832,2.832,0,0,1,.271,2.477c-1.519.112-3.046.215-4.565.382a4.74,4.74,0,0,0-.576-2,11.19,11.19,0,0,0-3.843-4.336c-.645-.444-1.422.562-.839,1.082a10.065,10.065,0,0,1,2.671,3.886,3.984,3.984,0,0,1,.263.936c.007.09-.02.305-.014.368v.055a4.984,4.984,0,0,1-2.123.153,30.382,30.382,0,0,1-4.683-1.034c-1.6-.381-3.566-.8-5.176-.263a1.221,1.221,0,0,0-.694.569,2.4,2.4,0,0,0-.291-.2,9.536,9.536,0,0,1-1.644-1.034,3.147,3.147,0,0,1-.7-1.894c-.195-1.054-.368-2.116-.59-3.171-.069-.361-.159-.714-.25-1.068a.789.789,0,0,0,.708-.562,2.809,2.809,0,0,0-.638-2.366,4.187,4.187,0,0,1-.569-2.241c-.077-1.061-.174-2.109-.285-3.163a1.242,1.242,0,0,0,.139-.243.553.553,0,0,0,.881-.569,22.384,22.384,0,0,0-1.977-4.531c-.722-1.519-1.422-3.052-2.081-4.6a87.331,87.331,0,0,1-3.358-9.54,140.963,140.963,0,0,1-4.211-20.112c-.541-3.809-1.061-7.625-1.672-11.427-.063-.361-.659-.277-.645.09a199.22,199.22,0,0,0,2.22,20.689,99.55,99.55,0,0,0,3.927,16.567,1.1,1.1,0,0,0-.153.09c-.922.714-1.339,2.24-1.88,3.254-.611,1.138-1.263,2.254-1.956,3.336-1.27,1.978-2.685,4.281-4.7,5.571-2.082,1.332-4.919,1.616-7.334,1.755-1.346.077-2.691.063-4.038.035-.333-.007-.673-.014-1.013-.014a38.894,38.894,0,0,0-3.822-.874c-1.284-.236-2.581-.423-3.878-.569a24.393,24.393,0,0,0-2.463-.208c.333-.312.673-.6,1-.922a45.645,45.645,0,0,0,4-4.343,24.011,24.011,0,0,0,3.413-5.5,34.617,34.617,0,0,0,3.865-10.011,39.391,39.391,0,0,0,1.367-11.656,27.877,27.877,0,0,0-2.463-10.476,2.066,2.066,0,0,0,.256-.083,4.877,4.877,0,0,0,.59-.263,4.69,4.69,0,0,0,1-.77,3.548,3.548,0,0,0,.437-.465c.111-.16.2-.326.319-.486.236-.319.479-.645.7-.971.188-.277-.243-.61-.458-.361a7.23,7.23,0,0,1-.784.812,3.435,3.435,0,0,1-.416.292,5.9,5.9,0,0,0-.52.416c-.146.125-.291.243-.437.361s-.263.2-.43.361c-.131.131-.263.27-.388.4-.055.055-.1.111-.16.16a19.77,19.77,0,0,0-6.424-7.278,16.7,16.7,0,0,0-10.393-3.1.587.587,0,0,0,0,1.173c6.362.312,11.482,4.773,14.292,10.219,3.2,6.188,3.045,13.584,1.45,20.2-.979,4.051-2.858,7.888-3.5,12.016a33.073,33.073,0,0,1-3.3,3.85c-1.228,1.277-2.469,2.546-3.767,3.754-.687.631-1.381,1.256-2.1,1.859a4.4,4.4,0,0,0-1.672,2.074.9.9,0,0,0,.86,1.131,3.808,3.808,0,0,0,2.172-1.041,12.994,12.994,0,0,0,3.226.7c1.152.166,2.3.333,3.448.548a26.713,26.713,0,0,1,6.806,2.061,8.6,8.6,0,0,1,2.525,1.741,45.881,45.881,0,0,0-5.245-1.533.744.744,0,0,0-.389,1.436c1.006.375,2.005.763,3.018,1.131a10.734,10.734,0,0,1,2.553,1.02c1.492,1.048,1.325,3.06,1.3,4.669-.021,1.124-.083,2.248-.194,3.365v.021c-.069.007-.139.007-.166.014-.534.014-1.076.021-1.61.014-1.068-.028-2.137-.125-3.205-.243-.285-.027-.569-.062-.854-.09a9.924,9.924,0,0,0-6.168-9.546c-.8-.319-1.373,1.027-.59,1.408a8.407,8.407,0,0,1,4.635,8.055c-.09.021-.18.028-.263.055a.8.8,0,0,0-.354.236,27.226,27.226,0,0,1-5.321-1.4c-2.186-.833-4.219-2.005-6.355-2.928a67.027,67.027,0,0,0-11.884-3.372,7.644,7.644,0,0,0-2.678-1.36c-1.089-.389-2.186-.743-3.288-1.089a16.484,16.484,0,0,1-2.581-.839,2.029,2.029,0,0,1-1.054-1.991c-.083-2.13-.077-4.273-.1-6.411-.014-.978-.049-1.956-.09-2.934a2.182,2.182,0,0,0,.236.312.454.454,0,0,0,.756-.2c.326-1.519-.472-3.282-.93-4.711-.52-1.6-1.02-3.2-1.408-4.835a20.362,20.362,0,0,1-.132-10.108c.153-.562-.645-.749-.846-.236a18.287,18.287,0,0,0-.582,10.109c.319,1.762.784,3.482,1.276,5.2.09.312.174.625.263.937-.18,2.379-.374,4.752-.465,7.146-.007.132-.014.263-.021.4a5.837,5.837,0,0,0-.728-1.159,6.168,6.168,0,0,0-2.921-1.908,9.594,9.594,0,0,0-2.546-.333,1.473,1.473,0,0,0-.514-.09q-15.37.114-30.734.243c-10.178.09-20.362.284-30.54.159-1.894-.021-4.149-.1-5.675-1.381A3.345,3.345,0,0,1,4.059,274.8c.756-1.686,3.746-.909,5.127-.812,2.581.18,5.169.347,7.749.486,10.129.555,20.293.936,30.436.888,4.87-.021,9.893-.292,14.569-1.79a.155.155,0,0,0,.055,0,.486.486,0,0,0,.229-.1c.291-.1.59-.181.881-.292a24.308,24.308,0,0,0,8.173-4.738c.014.076.028.16.042.236.166.8,1.29.687,1.513,0a13.574,13.574,0,0,0,.548-2.712c.139-.215.277-.437.409-.666a.671.671,0,0,0-.292-.922c.049-.826.063-1.651.1-2.442.1-2.29.236-4.579.312-6.875.111-3.552.145-7.09.159-10.635.132-1.117.257-2.227.451-3.33a42.919,42.919,0,0,1,2.137-7.93,45.478,45.478,0,0,1,5.092-9.643.525.525,0,0,0,.93.132c.625-.854,1.138-1.818,1.686-2.727s1.068-1.852,1.575-2.8c1.034-1.936,2.116-3.844,3.212-5.744,1.756-3.046,3.754-5.966,5.55-8.991.714-.888,1.436-1.776,2.116-2.685,1.3-1.735,2.609-3.462,3.947-5.175,2.7-3.476,5.481-6.882,8.4-10.178a159.022,159.022,0,0,1,18.961-17.907c3.871-3.136,7.888-6.084,12.016-8.874a1.217,1.217,0,0,0,.569-1.041,70.639,70.639,0,0,0,16.186,12.6c.1.055.2.112.3.167a74.654,74.654,0,0,0,28.91,8.984,1.112,1.112,0,0,0-.007.215,7.234,7.234,0,0,0,.077.9c.048.576.1,1.152.131,1.727a34.268,34.268,0,0,1,.021,3.58,28.526,28.526,0,0,1-.957,6.945c-.243.79.922,1.068,1.214.333a29.252,29.252,0,0,0,2.143-7.4,25.448,25.448,0,0,0,.166-3.711,9.626,9.626,0,0,0-.208-2.373c1.5.1,3,.146,4.5.153a15.439,15.439,0,0,0,.07,2.969c.014,1.346-.021,2.691-.083,4.03a68.079,68.079,0,0,1-.93,8.131,74.889,74.889,0,0,1-4.121,14.66c-.062-.1-.111-.2-.18-.291a1.109,1.109,0,0,0-2.047.555,9.058,9.058,0,0,0,.451,2.3c.215.812.389,1.63.528,2.456a41.9,41.9,0,0,1,.479,4.836c.174,3.351.042,6.709.069,10.067.028,3.434.021,6.854.229,10.289q.312,5.234.777,10.462c.347,3.822.652,7.666.9,11.5a.453.453,0,0,0-.513.493c.028,1.221-.035,2.442.1,3.656a26.885,26.885,0,0,0,.6,3.636,35.077,35.077,0,0,0,2.5,6.979,1.094,1.094,0,0,0,1.679.4c1.547.409,3.08.825,4.621,1.221,1.9.472,3.822.84,5.717,1.3a2.653,2.653,0,0,1,2.213,2.581,5.724,5.724,0,0,1-.257,2" transform="translate(-1.532 -62.557)" fill="#c84"/>
    <path id="Trazado_831664" data-name="Trazado 831664" d="M285.491,92.936c5.628.159,11.249.469,16.875.65,2.814.09,5.625.235,8.438.337l4.132.15c1.07.039,2.668-.2,3.456.651,6.8-10.56,8.347-24,5.94-36.178q-.446-2.257-1.064-4.472a5.8,5.8,0,0,1-1.946,1.393c-3.751,2.305-7.613,4.425-11.406,6.66-.693.409-1.275-.626-.623-1.067,2.093-1.419,4.155-2.884,6.25-4.3,1.811-1.224,3.6-2.47,5.434-3.663a2.482,2.482,0,0,1,1.564-.644,1.223,1.223,0,0,1,.268.077,66.048,66.048,0,0,0-15.733-26.417,66.892,66.892,0,0,0-13.908-10.935c-1.234,2.066-2.687,4.023-3.9,6.091-1.53,2.6-3.054,5.2-4.671,7.755a.472.472,0,0,1-.814-.476c1.392-2.681,2.875-5.306,4.358-7.938,1.176-2.089,2.137-4.328,3.3-6.432a74.573,74.573,0,0,0-18.014-7.1,85.019,85.019,0,0,0-34.356-1.356,6.046,6.046,0,0,1,.478,1.088c.268.715.527,1.434.781,2.155q.79,2.239,1.507,4.5c.477,1.508.946,3.025,1.316,4.564.385,1.6.618,3.227.965,4.835a.694.694,0,0,1-1.338.369c-.485-1.575-1.122-3.088-1.671-4.64-.511-1.443-.979-2.9-1.481-4.349s-1.026-2.886-1.573-4.316c-.293-.767-.594-1.53-.9-2.292a3.459,3.459,0,0,1-.379-1.511c-1.108.211-2.213.438-3.311.691a.812.812,0,0,1,.078.1,10.793,10.793,0,0,1,.717,2.876c.183.96.364,1.919.558,2.876.391,1.917.679,3.851,1.048,5.771a.358.358,0,0,1-.69.191c-.609-1.854-1.294-3.68-1.884-5.541-.294-.93-.6-1.854-.907-2.78a10.844,10.844,0,0,1-.778-2.869.885.885,0,0,1,.028-.181c-6.147,1.566-12.262,3.907-17.243,7.9a29.9,29.9,0,0,0-6.4,7.017,22.8,22.8,0,0,0-3.593,8.692.776.776,0,0,1-.626.705c-.563,2.453-1.073,4.921-1.523,7.386q-.58,3.177-.952,6.39-.187,1.631-.316,3.27a5.939,5.939,0,0,1-.406,2.517c.075,1.082.166,2.158.292,3.22A71.95,71.95,0,0,0,214.9,88.765a68.691,68.691,0,0,0,30.116,22.951,72.061,72.061,0,0,0,38.933,3.57c12.543-2.343,25.572-8.213,33.246-18.8a15.877,15.877,0,0,1-2.6-.217l-4.133-.317c-2.754-.212-5.512-.382-8.265-.6-5.565-.45-11.139-.771-16.7-1.242-.74-.063-.762-1.193,0-1.171" transform="translate(-79.65 -1.818)" fill="#e4f0f4"/>
    <path id="Trazado_831665" data-name="Trazado 831665" d="M117.406,291.839a.035.035,0,0,0,0,.069.035.035,0,0,0,0-.069" transform="translate(-46.608 -115.889)" fill="#c84"/>
    <path id="Trazado_831666" data-name="Trazado 831666" d="M323.17,51.69a65.331,65.331,0,0,0-20.358-29.773,77.529,77.529,0,0,0-9.153-6.6,16.07,16.07,0,0,0-6.978-5.3C283.306,8.5,279.822,7.184,276.315,6a91.681,91.681,0,0,0-21.928-4.677c-13.159-1.042-26.715,1.718-37.544,9.526A44.156,44.156,0,0,0,205.7,22.383c-.043.058-.091.113-.133.172a22.079,22.079,0,0,0-2.1,3.659,1.306,1.306,0,0,0,.238,1.462A55.392,55.392,0,0,0,200.2,37.763a37.139,37.139,0,0,0-.772,15.029,25.127,25.127,0,0,0,2.275,7.266,1.365,1.365,0,0,0-.868,2.022c.541.786.4,1.864.569,2.772a3.9,3.9,0,0,0,1.829,2.68,15.841,15.841,0,0,0,3.207,1.179c1.089.37,2.164.784,3.213,1.258a39.538,39.538,0,0,1,5.686,3.163,22.7,22.7,0,0,0,2.36,2.149.968.968,0,0,0,.79.185c.963.793,1.891,1.63,2.773,2.513.5.5.983,1,1.447,1.521a15.861,15.861,0,0,0-.1,1.706,18.078,18.078,0,0,0,1.376,7.271c.67,1.607,4.378,8.8,6.694,6.073a1.159,1.159,0,0,0-.5-1.911,1.975,1.975,0,0,1-.724-.6A1.284,1.284,0,0,0,229.319,91a24.488,24.488,0,0,1-2.2-4.972c-.1-.315-.192-.634-.28-.956a1.453,1.453,0,0,0,.142-.112.835.835,0,0,0,.42-.5c3.543-4.633,9.637-6.628,15.247-7.153,7.611-.713,15.251.461,22.863-.428a63.709,63.709,0,0,0,7.682-1.393q-.33.253-.661.5c-.657.5-1.111,1.129-1.721,1.655s.169,1.451.834,1.081c.359-.2.786-.272,1.16-.445s.718-.392,1.073-.6c.134-.077.269-.151.4-.226,0,.04,0,.079,0,.119A15.071,15.071,0,0,0,272.6,78.67a12.91,12.91,0,0,0-1.761,2.02.706.706,0,0,0,.453,1.2c-.061.218-.129.432-.178.66a18.757,18.757,0,0,0-.291,2.278,5.641,5.641,0,0,0,.072,2.145,2.835,2.835,0,0,0,1.455,1.707,5.821,5.821,0,0,1,1.417.77,3.012,3.012,0,0,1,.99,2.572l-.052.4c-.2,1.53,2.448,1.9,2.712.367.03-.174.052-.347.069-.52.422-3.276.693-6.809-.966-9.766a5.546,5.546,0,0,0,.052-1.634c.989-.278,1.99-.516,2.985-.781,1.5-.4,2.977-.889,4.476-1.293,1.21-.326,2.433-.611,3.663-.867a49.554,49.554,0,0,1,18.859,3.409,27.453,27.453,0,0,1,6.03,4.056,23.544,23.544,0,0,1,5.242,6.717c.694,1.34,2.43.535,2.573-.7a5.578,5.578,0,0,0,.031-.692,1.473,1.473,0,0,0,1.555-.944,59.2,59.2,0,0,0,3.958-19.811A56.776,56.776,0,0,0,323.17,51.69M279.3,75.054c-.233.11-.465.223-.7.333-.465.122-.924.26-1.382.4.841-.485,1.678-.977,2.529-1.446.08-.045.162-.087.242-.131.386,0,.771,0,1.157,0-.615.28-1.236.549-1.847.837m9.588-.132c-.3.01-.609.02-.913.036.2-.092.394-.186.591-.28.336.04.673.072,1.009.116-.23.038-.457.088-.686.128" transform="translate(-79.013 -0.443)" fill="#afd8ec"/>
    <path id="Trazado_831667" data-name="Trazado 831667" d="M295.989,56.028c-.033-.161-.086-.31-.128-.467,0-.06,0-.119,0-.178a1.281,1.281,0,0,0-.353-.856,7.649,7.649,0,0,0-1.727-2.54,11.433,11.433,0,0,0-5.925-3.245,18.355,18.355,0,0,0-6.992-.365c-2.206-.986-3.864-2.812-5.937-4.129-2.853-1.811-6.446-2.176-9.727-2.57a68.563,68.563,0,0,0-21.43.84,39,39,0,0,0-10.407,3.323,18.668,18.668,0,0,0-4.207,2.926,3.307,3.307,0,0,0-1.1,3.109,16.088,16.088,0,0,1-3.979,2.718,42.005,42.005,0,0,0-7.434,4.7,31.876,31.876,0,0,0-3.174,3c-.373.4-.8.839-1.183,1.307-.016-.031-.034-.061-.051-.093a1.253,1.253,0,0,0-2.281.962c1.645,5.468,5.381,9.794,9.427,13.712,1.369,1.637,2.8,3.228,4.3,4.755a1.226,1.226,0,0,0,1.437.186,13.7,13.7,0,0,0,5.172-4.158,24.528,24.528,0,0,0,2.952,8.941c.488.86,1.4,1.773,1.238,2.822-.194,1.258-.571,2.512-.851,3.753-.233,1.029-.462,2.058-.695,3.087a1.155,1.155,0,0,0-1.135.74,6.3,6.3,0,0,0,0,4.726,12.029,12.029,0,0,0,2.495,4.829c2.3,2.732,5.565,4.5,8.725,6.041a48.932,48.932,0,0,0,7.476,2.947,1.269,1.269,0,0,0,.9,1.58,19.694,19.694,0,0,0,4.63.427c7.474.5,15.275-.059,21.107-5.143a1.2,1.2,0,0,0,.992-1.469,1.17,1.17,0,0,0-.36-.72,27.193,27.193,0,0,1-2.949-6.941,26.327,26.327,0,0,1-.744-3.815c-.019-.165-.036-.334-.055-.5a1.349,1.349,0,0,0,1.372-1.242c.227-8.461,3.383-16.462,5.059-24.683q.339,1.7.739,3.381a1.277,1.277,0,0,0,2.116.559,47.833,47.833,0,0,0,4.2-4.876.658.658,0,0,0,.636-.162c.579-.569,1.25-1.026,1.777-1.64.556-.65,1.079-1.319,1.572-2.017a34.964,34.964,0,0,0,2.593-4.284c1.463-2.867,2.566-6.022,1.908-9.269" transform="translate(-83.352 -16.361)" fill="#c84"/>
    <path id="Trazado_831668" data-name="Trazado 831668" d="M300.78,113.642a3.313,3.313,0,0,0-2.169-3.159,7.588,7.588,0,0,0-3.807-.081,3.287,3.287,0,0,0-.767-.506,5.24,5.24,0,0,0-3.452-.2c-1.031.226-2.076.463-3.089.76-.423.124-.957.249-1.466.43a5.1,5.1,0,0,0-3.218-.724,2.972,2.972,0,0,0-1.794,1.146,2.13,2.13,0,0,0-.351.328,4.357,4.357,0,0,0-.461.7c-.264.137-.528.274-.792.409-1.105.561-2.2,1.147-3.294,1.727a10.13,10.13,0,0,0-2.081,1.369c-.186-.016-.373-.034-.553-.064a1.151,1.151,0,0,0-1.3.635,1.309,1.309,0,0,0-1.023.661,6.2,6.2,0,0,0,1.085,7.163,6.04,6.04,0,0,0,2.875,1.528,13.991,13.991,0,0,0,5.2,2.024c5.491,1.073,11.8.162,16.375-3.212a9.543,9.543,0,0,0,4.037-6.8,20.49,20.49,0,0,0,.045-4.137" transform="translate(-107.411 -43.483)" fill="#fcdfc0"/>
    <path id="Trazado_831669" data-name="Trazado 831669" d="M249.328,105.06a7.76,7.76,0,0,0-1.709-1.252c-.581-.384-1.15-.8-1.7-1.229-1.039-.824-2.009-1.729-2.984-2.625a21.643,21.643,0,0,1-2.855-2.926,9.677,9.677,0,0,1-1.584-3.7A123.146,123.146,0,0,1,236.21,75.1a.316.316,0,0,0-.528-.228c.408-1.6.875-3.193,1.415-4.759.445-1.29-1.262-2.059-2.152-1.253-3.154,2.857-4.307,6.953-5.611,10.856a19.66,19.66,0,0,1-2.5,5.757c-1.5,1.946-3.832.008-5.342-.877-.478-.28-1.171.312-.809.808a7.785,7.785,0,0,0,2.831,2.483,1.323,1.323,0,0,0-.174.642A1.247,1.247,0,0,0,223.9,89.6c.32.369.664.749,1.032,1.117a3.8,3.8,0,0,0,2.91,1.988c.045.025.087.055.133.081.962.528,2.12,1.054,2.958,0a4.144,4.144,0,0,0,.628-1.232,4.072,4.072,0,0,0,1.794-2.6c.456-1.984.488-4.113.78-6.13.356-2.468.816-4.925,1.407-7.348a55.867,55.867,0,0,0-.182,9.742,65.42,65.42,0,0,0,1.192,9.451A12.61,12.61,0,0,0,239.9,100.5a8.731,8.731,0,0,0-1.6,4.047c-1.669,2.747-2.879,5.743-2.431,9.048.571,4.2,3.768,7.859,7.4,9.845,1.129.619,2.406-.9,1.411-1.829a18.02,18.02,0,0,1-3.736-4.376,7.063,7.063,0,0,1-.289-5.722c.48-1.641.892-3.713,1.99-5.072l.011-.014a21.784,21.784,0,0,0,2.292,1.968,1.2,1.2,0,0,0,.922.121,1.22,1.22,0,0,0,.716-.55,1.235,1.235,0,0,0,.085-.985,9.245,9.245,0,0,0,1.2.212.543.543,0,0,0,.544-.241c.039,0,.078.016.117.019,1.051.087,1.369-1.246.793-1.915" transform="translate(-87.594 -27.213)" fill="#b46f2f"/>
    <path id="Trazado_831670" data-name="Trazado 831670" d="M307.156,150.225a1.328,1.328,0,0,0-.591-2.16,36.772,36.772,0,0,1-3.171-8.091,6.73,6.73,0,0,1-.306-2.177,7.217,7.217,0,0,0,.1-1.4,1.663,1.663,0,0,0,.155-.9.949.949,0,0,0-.927-.927,1.921,1.921,0,0,0-1.028.341h-.014a.752.752,0,0,0-1.247.417c-.011.054-.017.109-.028.164a2.408,2.408,0,0,0-.509.646c-.416.228-.845.43-1.28.618a35.1,35.1,0,0,1-4.835,1.6,20.023,20.023,0,0,1-5.192.786,11.222,11.222,0,0,1-2.472-.291,13.222,13.222,0,0,1-2.486-.669c-.638-.286-1.347.464-.789,1.022a7.769,7.769,0,0,0,2.131,1.647,9.5,9.5,0,0,0,2.717.741,16.564,16.564,0,0,0,6.352-.474,37.358,37.358,0,0,0,5.067-1.609,12.851,12.851,0,0,0,.4,3.327q.194,1.378.462,2.746a20.5,20.5,0,0,1,.625,6.975A1.3,1.3,0,0,0,302.155,154a15.071,15.071,0,0,0,4.411-3.154,1.368,1.368,0,0,0,.59-.616m-4.293-.258a2.725,2.725,0,0,0,.51.26c-.157.124-.321.237-.484.353,0-.2-.016-.409-.026-.613" transform="translate(-112.112 -53.438)" fill="#b46f2f"/>
    <path id="Trazado_831671" data-name="Trazado 831671" d="M299.175,101.911a1.16,1.16,0,0,0-.83-.83,9.557,9.557,0,0,0-3.357-.013c-1.18.146-2.341.36-3.508.585-1.1.212-2.2.438-3.3.666-.549.114-1.1.23-1.639.367-.6.151-1.121.42-1.7.624a.654.654,0,0,0,.173,1.278c.61.017,1.184.114,1.8.074.515-.034,1.027-.083,1.54-.138,1.113-.119,2.225-.238,3.336-.372s2.2-.286,3.3-.426,2.255-.151,3.357-.353a1.163,1.163,0,0,0,.83-.83,1.457,1.457,0,0,0,0-.631" transform="translate(-112.929 -40.077)" fill="#b46f2f"/>
    <path id="Trazado_831672" data-name="Trazado 831672" d="M295.558,99.688a1.8,1.8,0,0,0-.588-.178c-.143-.011-.288-.011-.432-.015a6.365,6.365,0,0,0-.831.007c-.611.067-1.219.157-1.822.275a.775.775,0,0,0-.537.947.789.789,0,0,0,.947.538q.394-.078.791-.139l.244-.036.016,0,.025,0c.133-.017.266-.032.4-.047.311-.035.617-.1.927-.152l.21-.031c.031,0,.209-.03.064-.01a1.227,1.227,0,0,0,.394-.1c.066-.03.129-.066.194-.1a.556.556,0,0,0,0-.955" transform="translate(-115.682 -39.505)" fill="#b46f2f"/>
    <path id="Trazado_831673" data-name="Trazado 831673" d="M335.683,75.137a1.182,1.182,0,0,0-1.965.576c-.068.131-.14.26-.22.386a8.282,8.282,0,0,0-.357-5.119,19.164,19.164,0,0,0-2.808-4.22c-.512-.625-1.06-1.206-1.608-1.8a4.524,4.524,0,0,1-1.423-2.175.494.494,0,0,0-.145-.276c-.019-.062-.037-.124-.057-.185a17.839,17.839,0,0,0-1.735-4.579.475.475,0,0,0-.878.238,19.227,19.227,0,0,0,.9,4.814q.567,2.4,1.118,4.8c.242,1.059.476,2.119.709,3.18a1.26,1.26,0,0,0-.034.353c.048,3.315.108,6.628.133,9.942a1.15,1.15,0,0,0,.5,1.048,2.145,2.145,0,0,0,.952,1.2,2.073,2.073,0,0,0,2.652-.552c.71-.783,1.38-1.609,2.063-2.415s1.379-1.61,2.044-2.434c.681-.842,1.068-1.927.16-2.785" transform="translate(-128.852 -22.844)" fill="#b46f2f"/>
    <path id="Trazado_831674" data-name="Trazado 831674" d="M268.639,83.128a1.81,1.81,0,0,0-.981-.663c-.068-.022-.137-.045-.207-.063a.5.5,0,0,0-.1-.022l-.078-.034a4.765,4.765,0,0,0-3-.148,4.209,4.209,0,0,0-1.878,1.388,3.343,3.343,0,0,0-.49.945,2.263,2.263,0,0,0-.1.446c-.01.071-.012.156-.026.231a1.31,1.31,0,0,0-.06.142c-.172.537.528,1.155,1.02.784.043-.033.086-.068.13-.1.007,0,.183-.1.113-.069.05-.021.2-.084.222-.1.05-.025.1-.054.145-.083a6.484,6.484,0,0,0,.754-.529l.017-.011c.111-.078.218-.164.322-.251a.08.08,0,0,1-.014.007c.006,0,.016-.01.023-.013l.025-.019c.087-.073.064-.043.024-.01.028-.022.055-.047.072-.058.105-.07.222-.124.329-.19.049-.017.1-.034.148-.049.028-.009.19-.064.294-.088.021,0,.049,0,.1-.007l.2-.022a5.525,5.525,0,0,0,.687-.082c.075-.018.09-.025.06-.021.116-.019.233-.036.349-.057.311-.057.614-.134.926-.193a1.715,1.715,0,0,0,.9-.434.526.526,0,0,0,.081-.631" transform="translate(-103.914 -32.561)" fill="#b46f2f"/>
    <path id="Trazado_831675" data-name="Trazado 831675" d="M266.242,86.948a.192.192,0,0,0,.057-.035.216.216,0,0,1-.048.028l-.008.007" transform="translate(-105.724 -34.513)" fill="#b46f2f"/>
    <path id="Trazado_831676" data-name="Trazado 831676" d="M312.776,78.811a.828.828,0,0,0-.112-.294l-.023-.049a1.477,1.477,0,0,0-.368-.544,2.567,2.567,0,0,0-.338-.269,2.268,2.268,0,0,0-.434-.189,4,4,0,0,0-1.094-.185,2.592,2.592,0,0,0-1.1.107,2.075,2.075,0,0,0-.742.42,1.552,1.552,0,0,0-.41.663.83.83,0,0,0,1.012,1.012l.044-.008a2.239,2.239,0,0,1,.4,0l-.249-.033h0c.228.031.456.059.683.087.2.028.388.066.581.113a7.924,7.924,0,0,0,.851.159l-.295-.04a3.963,3.963,0,0,0,.44.05,1.176,1.176,0,0,0,.129.047l.031.01c-.044-.02-.077-.043.008,0l.007,0a.165.165,0,0,0,.047.014.108.108,0,0,1-.03-.008.682.682,0,0,0,.658-.01.709.709,0,0,0,.334-.582,1.316,1.316,0,0,0-.028-.476" transform="translate(-122.351 -30.682)" fill="#b46f2f"/>
    <path id="Trazado_831677" data-name="Trazado 831677" d="M314.2,81.581a.227.227,0,0,0,.032.011l-.018-.007-.014,0" transform="translate(-124.766 -32.396)" fill="#b46f2f"/>
    <path id="Trazado_831678" data-name="Trazado 831678" d="M298.17,123.24c-.923-.28-1.842-.574-2.77-.837a12.832,12.832,0,0,1-1.248-.379l-.019-.006-.067-.047c-.016-.01-.028-.02-.041-.03s-.1-.1-.133-.136-.116-.176-.116-.175a17.318,17.318,0,0,1-1.011-2.219c-.369-.889-.74-1.78-1.042-2.693a.761.761,0,0,0-.377-.465v0a1.284,1.284,0,0,0-2.508.339c-.014.118-.025.238-.039.356-.011.025-.027.044-.037.069a4.825,4.825,0,0,0-.2,2.063c-.081.7-.175,1.39-.314,2.073a3.613,3.613,0,0,1-1.982,2.957,25.922,25.922,0,0,1-4.307,1.063c-1.492.352-3.05,1.016-4.592.612-.966-.254-1.27,1.091-.4,1.452,1.718.715,3.657.376,5.44.122,1.015-.145,2.085-.26,3.122-.482-.466.16-.935.311-1.413.435-.62.162-1.244.278-1.874.392a3.522,3.522,0,0,0-1.651.527.676.676,0,0,0,0,.951c.863.81,2.568.505,3.623.3a22.974,22.974,0,0,0,3.605-1.114c.575-.216,1.147-.439,1.722-.655a5.327,5.327,0,0,1,.916-.336c.312-.052.166-.08.494.1a8.743,8.743,0,0,0,3.719.825c1.105.063,1.673-1.723.591-2.183-.088-.037-.178-.073-.267-.11a1.691,1.691,0,0,0,.636-.668q.9.288,1.8.573a1.4,1.4,0,0,0,1.7-.965,1.411,1.411,0,0,0-.965-1.7m-9.74,2.485a4.877,4.877,0,0,0,.868-.8c.051.121.1.244.149.363-.348.127-.69.283-1.017.434" transform="translate(-109.78 -45.804)" fill="#e8c4a3"/>
    <path id="Trazado_831679" data-name="Trazado 831679" d="M305,292.281c-1.159-1.45-3.219-2.026-4.891-2.623-2.116-.749-4.253-1.408-6.41-2.04-.985-.291-1.319,1.138-.409,1.505,1.824.729,3.622,1.519,5.418,2.324.895.4,1.79.8,2.685,1.208a4.346,4.346,0,0,1,1.637,1.033,2.964,2.964,0,0,1,.215,2.116,5.912,5.912,0,0,1-.812,2.3,3.864,3.864,0,0,1-1.464,1.332,4.962,4.962,0,0,0-.215-.569,8.641,8.641,0,0,0-3.414-3.823c-1.505-.944-3.5-1.519-4.267-3.267-.312-.722-1.4-.2-1.228.513a6.513,6.513,0,0,0,2.5,3.448,13.465,13.465,0,0,1,3.337,2.955,5.211,5.211,0,0,1,.763,1.672,1.408,1.408,0,0,1,.035.181.671.671,0,0,1,.007.09v.347c-.007.007-.028.18-.042.236a.524.524,0,0,0-.02.063v-.021c-.014-.007-.035.028-.049.049a.091.091,0,0,0-.028.021,1.62,1.62,0,0,1-.271.062,9.535,9.535,0,0,1-1.187.028c-.915.007-1.824-.014-2.74-.07-.8-.041-1.63-.09-2.442-.2a1.88,1.88,0,0,0-.32-.347,2.747,2.747,0,0,0-.985-.86c-.382-.257-.777-.514-1.152-.777-.916-.631-1.811-1.284-2.734-1.9a12.694,12.694,0,0,0-3.129-1.859,2.052,2.052,0,0,0-.548-.548c-1-.68-2.054-.874-2.269-2.234-.228-1.443-.284-2.928-.451-4.384-.194-1.665-.416-3.33-.693-4.988-.146-.833-.292-1.672-.458-2.5-.09-.486-.18-.985-.312-1.464a.837.837,0,0,0-.617-1.367H278c.028,0,.069.014.076.042.007,0,.007.007.014.014a.362.362,0,0,0-.09-.042.341.341,0,0,0-.16-.055c-.125-.035-.263-.042-.388-.077a1.108,1.108,0,0,1-.215-.069.074.074,0,0,1-.028-.007c-.007,0-.014-.007-.021-.007-.055-.034-.111-.062-.166-.09a1.514,1.514,0,0,0-.125-.09c-.035-.034-.111-.1-.111-.1a1.263,1.263,0,0,1-.1-.1.69.69,0,0,1-.077-.1,1.228,1.228,0,0,1-.1-.159,1.5,1.5,0,0,1-.125-.333c-.028-.1-.055-.194-.077-.291,0-.02-.028-.166-.028-.159a17.87,17.87,0,0,1-.062-2.192,18.523,18.523,0,0,0-.347-2.547.559.559,0,0,0-.59-.471c-.388-1.985-.985-3.92-1.547-5.869-.8-2.817-1.6-5.634-2.394-8.45-1.6-5.62-2.893-11.344-4.676-16.908a.269.269,0,0,0-.028-.048c5.4-5.412,10.2-11.378,12.988-18.586a30.318,30.318,0,0,0,1.353-4.385c.319-1.457.791-3.073.173-4.5a.779.779,0,0,0-1.214-.153,8.916,8.916,0,0,0-1.311,3.552c-.354,1.276-.771,2.553-1.221,3.8A44.59,44.59,0,0,1,274,226.726a70.944,70.944,0,0,1-9.928,13.188c-1.8,1.894-3.663,3.719-5.55,5.515a5.138,5.138,0,0,0-.506-2.192.618.618,0,0,0-1.117.146,6.947,6.947,0,0,0-.25,2.456c-.007.868-.028,1.742-.076,2.609-.1,1.665-.3,3.33-.555,4.975-.236,1.505-.52,3.018-.839,4.524-.611-5.918-1.138-11.864-1.256-17.8q-.052-2.727-.049-5.46a27.2,27.2,0,0,0-.173-5.523.248.248,0,0,0-.34-.174q-.094-3.247-.194-6.494c-.049-1.741,2.65-1.735,2.7,0,.1,2.969.208,5.946.305,8.922a50.7,50.7,0,0,0,1.693,5.577c1.61-1.589,3.268-3.122,4.78-4.815a69.419,69.419,0,0,0,5.037-6.279,72.558,72.558,0,0,0,7.236-12.578,67.534,67.534,0,0,0,2.609-6.848c.367-1.117.7-2.248,1.006-3.379a8.194,8.194,0,0,0,.555-3.635c-.222-1.076-1.27-1.852-2.067-2.518-1.076-.888-2.179-1.755-3.289-2.6-2.192-1.665-4.433-3.274-6.73-4.8-3.92-2.609-8.728-4.85-10.969-9.235a1.574,1.574,0,0,1,.174-1.6,74.654,74.654,0,0,0,28.91,8.984,1.115,1.115,0,0,0-.007.215,7.24,7.24,0,0,0,.077.9c.048.576.1,1.152.131,1.727a34.264,34.264,0,0,1,.021,3.58,28.525,28.525,0,0,1-.957,6.945c-.243.79.922,1.068,1.214.333a29.251,29.251,0,0,0,2.143-7.4,25.446,25.446,0,0,0,.166-3.711,9.627,9.627,0,0,0-.208-2.373c1.5.1,3,.146,4.5.153a15.441,15.441,0,0,0,.07,2.969c.014,1.346-.021,2.691-.083,4.03a68.076,68.076,0,0,1-.93,8.131,74.888,74.888,0,0,1-4.121,14.66c-.062-.1-.111-.2-.18-.291a1.109,1.109,0,0,0-2.047.555,9.058,9.058,0,0,0,.451,2.3c.215.812.389,1.63.528,2.456a41.885,41.885,0,0,1,.479,4.836c.174,3.351.042,6.709.069,10.067.028,3.434.021,6.854.229,10.289q.312,5.234.777,10.462c.347,3.822.652,7.666.9,11.5a.453.453,0,0,0-.513.493c.028,1.221-.035,2.442.1,3.656a26.886,26.886,0,0,0,.6,3.635,35.077,35.077,0,0,0,2.5,6.979,1.094,1.094,0,0,0,1.679.4c1.547.409,3.08.825,4.621,1.221,1.9.472,3.822.84,5.717,1.3a2.653,2.653,0,0,1,2.213,2.581,5.722,5.722,0,0,1-.257,2" transform="translate(-100.53 -70.965)" fill="#b46f2f"/>
    <path id="Trazado_831680" data-name="Trazado 831680" d="M277.135,245.341a.546.546,0,0,0-.575.109,1.605,1.605,0,0,0-.313.32c-.007.009-.034.052-.051.081l-.02.016a.358.358,0,0,0-.128.128,4.671,4.671,0,0,0-.412.66c-.256.431-.507.861-.755,1.3a15.59,15.59,0,0,1-1.664,2.375c-.4.473.243,1.145.69.69.716-.728,1.4-1.5,2.05-2.289a10.584,10.584,0,0,0,.921-1.3,3.739,3.739,0,0,0,.406-.772.31.31,0,0,0,.028-.134c0-.1.009-.127.018-.07.017-.053.042-.1.059-.157a1.815,1.815,0,0,0,.069-.474.522.522,0,0,0-.323-.48" transform="translate(-108.444 -97.408)" fill="#b46f2f"/>
    <path id="Trazado_831681" data-name="Trazado 831681" d="M284.016,233.331a.409.409,0,0,0-.493-.28,1.042,1.042,0,0,0-.408.244,1.418,1.418,0,0,0-.24.339c-.119.2-.24.391-.356.588s-.206.412-.306.617l-.3.621a.591.591,0,1,0,1.02.6l.335-.6c.111-.2.235-.4.329-.6s.186-.423.279-.634a1.644,1.644,0,0,0,.17-.5.9.9,0,0,0-.03-.392" transform="translate(-111.919 -92.538)" fill="#b46f2f"/>
    <path id="Trazado_831682" data-name="Trazado 831682" d="M261.968,324.322a1.4,1.4,0,0,0-1.892-.438,4.382,4.382,0,0,0-2.394-.654,9.559,9.559,0,0,0-1.965.528c-.343.08-.226.14-.443-.115a4.7,4.7,0,0,1-.549-1.077,29.117,29.117,0,0,1-1.657-4.914c-.892-3.517-1.407-7.129-2.016-10.7-1.185-6.951-2.293-13.925-3.227-20.922q-.019-.4-.037-.8c-.449-9.64-.945-19.28-1.281-28.925-.192-5.509-.169-11.026-.405-16.53a.388.388,0,0,0-.5-.378c.051-.87.1-1.741.165-2.611.113-1.613-2.356-1.584-2.5,0-.432,3.684-.684,7.384-.791,11.093-.13,2.317-.23,4.636-.277,6.956q-.049,2.4-.033,4.8c-.169-4.493-.238-8.993-.132-13.485.008-.366-.54-.359-.564,0a199.119,199.119,0,0,0,.254,31.124c.6,6.746,1.5,13.454,2.63,20.125a124.516,124.516,0,0,0,4.2,21.979q.669,2.335,1.437,4.639.034.146.069.293-6.173,1.838-12.329,3.726a1.3,1.3,0,0,0-.308,2.35,24.152,24.152,0,0,0,2.659,1.243,1.244,1.244,0,0,0,.165.1c.093.046.188.084.282.128a1.336,1.336,0,0,0,.972,1.226,45.844,45.844,0,0,0,14.992,1.141,1.013,1.013,0,0,0,.752.1,8.144,8.144,0,0,0,.776-.252c2.1-.265,4.313-.933,5.242-3.034,1-2.262-.08-4.77-1.29-6.718" transform="translate(-94.031 -93.549)" fill="#b46f2f"/>
    <path id="Trazado_831683" data-name="Trazado 831683" d="M254.395,379.047a16.326,16.326,0,0,1-.8-2.3c-.105-.4-.225-.791-.324-1.19a2.126,2.126,0,0,0-.647-1.278.558.558,0,0,0-.753.2,2.025,2.025,0,0,0,0,1.466,10.861,10.861,0,0,0,.4,1.256,21.935,21.935,0,0,0,1.139,2.418.572.572,0,0,0,.772.2.578.578,0,0,0,.2-.771" transform="translate(-99.963 -148.594)" fill="#b46f2f"/>
    <path id="Trazado_831684" data-name="Trazado 831684" d="M250.458,367.163a1.907,1.907,0,0,0-.04-.333,1.69,1.69,0,0,1-.066-.236l-.072-.49c-.023-.162-.069-.321-.107-.479a.324.324,0,0,0-.357-.233.328.328,0,0,0-.282.32c-.009.165-.025.331-.019.5l.016.478c0,.008,0,.058,0,.079l0,.011a1.405,1.405,0,0,0-.023.158,1.717,1.717,0,0,0,.013.229l.041.5a.471.471,0,1,0,.943,0l-.049-.5" transform="translate(-99.08 -145.095)" fill="#b46f2f"/>
    <path id="Trazado_831685" data-name="Trazado 831685" d="M247.278,353.48l-.329-1.633c-.054-.265-.14-.526-.213-.787-.036-.13-.067-.265-.114-.392a1.821,1.821,0,0,0-.244-.411c-.15-.209-.544-.225-.6.079a2.725,2.725,0,0,0-.068.456,3,3,0,0,0,.072.5c.042.269.074.543.132.809.122.552.257,1.1.386,1.65a.514.514,0,0,0,.627.356.522.522,0,0,0,.356-.626" transform="translate(-97.569 -139.025)" fill="#b46f2f"/>
    <path id="Trazado_831686" data-name="Trazado 831686" d="M198.064,328.253c-.136-.514-.262-1.033-.382-1.553a1.644,1.644,0,0,1-.7-.755c-.277-.618-.527-1.252-.764-1.892-.029.135-.053.271-.083.406q-.45.661-.944,1.291a13.821,13.821,0,0,1-1.705,1.064,39.308,39.308,0,0,1-9.183,3.61,48.819,48.819,0,0,1-9.976,1.413c.413-.49.8-1,1.174-1.528,3.524-3.821,5.214-8.917,6.172-13.993a46.6,46.6,0,0,0,1.387-10.937c.033-.515.074-1.03.095-1.545a27.293,27.293,0,0,0-1.416-10.7c-1.23-3.265-3.394-6.842-6.711-8.31a1.215,1.215,0,0,0-1.539.307,1.181,1.181,0,0,0,.093,1.566,26.226,26.226,0,0,1,2.228,2.084c.063.142.122.285.183.427a.412.412,0,0,0-.065.481,29.54,29.54,0,0,1,1.208,2.946,47.673,47.673,0,0,1,.891,8.5,51.251,51.251,0,0,1-.7,9.752,92.045,92.045,0,0,1-3.365,13.746q-.276.471-.558.938-1.464,2.42-3.03,4.779a13.413,13.413,0,0,1-3.418,3.837,1.349,1.349,0,0,0,.006,2.311.681.681,0,0,0,.131.968c1.091.953,2.243,1.974,3.32,3.077.009.019.013.038.024.057a56.657,56.657,0,0,0,3.214,5.106q.543.829,1.029,1.693a9.278,9.278,0,0,1,.269,2.6,1.3,1.3,0,0,0,.774,1.174,1.582,1.582,0,0,0,2.615.57c2.243.476,4.663.837,6.592-.25.085-.048.16-.1.241-.156a1.388,1.388,0,0,0,2.649-.021,11.8,11.8,0,0,0,.2-6.1,9.058,9.058,0,0,0-3.589-5.079,32.031,32.031,0,0,0-4.56-2.721c.013,0,.027,0,.04,0l1.313-.184a.565.565,0,0,0,.342-.262c2.013-.106,4.026-.208,6.038-.323a15.011,15.011,0,0,0,6.432-1.311,13.432,13.432,0,0,0,3.651-3.106,13.121,13.121,0,0,0,2.126-2.737c.08-.114.157-.231.236-.345a1.458,1.458,0,0,1-1.985-.883m-27.99,9.059a1.451,1.451,0,0,0-.04.372c-.512-.406-1.027-.8-1.539-1.2a15.146,15.146,0,0,0,1.611-.892,1.367,1.367,0,0,0,.166.4,2.648,2.648,0,0,0-.2,1.319" transform="translate(-66.042 -113.046)" fill="#b46f2f"/>
    <path id="Trazado_831687" data-name="Trazado 831687" d="M182.892,312.958c-.12-.446-.878-.374-.83.112a6.133,6.133,0,0,1,.02,1.114,7.725,7.725,0,0,1-.164,1.022c-.078.364-.173.727-.266,1.088a1.326,1.326,0,0,0-.056.693.488.488,0,0,0,.458.4c.5.008.713-.579.856-.964a4.512,4.512,0,0,0,.233-1.191,6.638,6.638,0,0,0-.249-2.274" transform="translate(-72.1 -124.157)" fill="#b46f2f"/>
    <path id="Trazado_831688" data-name="Trazado 831688" d="M177.938,329.871v-.813a.211.211,0,0,0-.423,0v.813a3.026,3.026,0,0,0,.008.431c.019.13.041.259.062.39a.148.148,0,0,0,.282,0c.02-.13.043-.26.062-.39a3.024,3.024,0,0,0,.008-.431" transform="translate(-70.49 -130.587)" fill="#b46f2f"/>
    <path id="Trazado_831689" data-name="Trazado 831689" d="M177.084,296.063a7.594,7.594,0,0,0-.452-2.257.77.77,0,0,0-1.484.409,8.468,8.468,0,0,1,.268,1.015c.014.074.028.148.04.222,0,.029.045.327.025.163.014.119.028.239.045.358,0,.03.009.061.013.092,0,0,0,.008,0,.036.023.283.043.564.05.847-.038-.11-.071-.223-.11-.332a.873.873,0,1,0-1.683.464,18.433,18.433,0,0,1,.554,2.054c.071.342.121.687.191,1.029a1.849,1.849,0,0,0,.534,1.148.68.68,0,0,0,1.043-.134,1.668,1.668,0,0,0,.212-1.255,10.881,10.881,0,0,0-.229-1.229c0-.022-.012-.043-.017-.065a.582.582,0,0,0,.617-.257,4.537,4.537,0,0,0,.38-2.306" transform="translate(-69 -116.443)" fill="#b46f2f"/>
    <path id="Trazado_831690" data-name="Trazado 831690" d="M81,360.024c-1.338-4.128-5.826-5.727-9.827-5.514-2.509.134-4.949.788-7.442,1.05a53.567,53.567,0,0,1-7.6.156c-2.545-.095-5.087-.27-7.633-.321a61.85,61.85,0,0,0-7.677.377,140.323,140.323,0,0,1-15.462.805c-2.921-.018-5.842-.1-8.761-.2-1.489-.051-2.977-.1-4.465-.166-.687-.028-1.373-.043-2.06-.055-.828-.016-1.583.169-2.4.2-.677.03-.907,1.115-.169,1.246.648.115,1.235.374,1.883.467.569.081,1.145.133,1.716.191,1.256.129,2.518.218,3.777.316,2.516.2,5.037.359,7.559.455a120.259,120.259,0,0,0,15.1-.31c2.411-.212,4.815-.51,7.234-.606,2.486-.1,4.977.006,7.461.131a66.542,66.542,0,0,0,14.643-.4c2.377-.4,4.919-.962,7.313-.377a5.469,5.469,0,0,1,4.149,3.278c.546,1.685,3.216.964,2.665-.735" transform="translate(-2.796 -140.768)" fill="#b46f2f"/>
    <path id="Trazado_831691" data-name="Trazado 831691" d="M315.682,49.744a11.719,11.719,0,0,0-5.308-5.579c-1.231-.657-2.468-1.332-3.728-1.932-1.3-.619-2.641-.686-3.553.566a.938.938,0,0,0,.8,1.4c.95-.054,2.119.8,2.926,1.218,1.038.539,2.1,1.048,3.1,1.653a7.173,7.173,0,0,1,.933.684c.075.1.154.192.226.293a15.141,15.141,0,0,1,2.025,5.187c1.036,4.114,1.026,8.4,1.51,12.593a1.4,1.4,0,0,0,1.2,1.357,1.376,1.376,0,0,0,1.516-.989,25.489,25.489,0,0,0-1.651-16.454" transform="translate(-120.301 -16.599)" fill="#b46f2f"/>
    <path id="Trazado_831692" data-name="Trazado 831692" d="M342.261,18.878a18.949,18.949,0,0,1-2.067,4.073q-1.265,2.053-2.522,4.112c-.853,1.39-1.662,2.807-2.485,4.216-.439.751-.874,1.5-1.278,2.277-.2.388-.4.776-.57,1.179a3.867,3.867,0,0,1-.261.67c-.393.348-.047.9.392.946.716.066,1.135-.408,1.557-.919.573-.694,1.095-1.434,1.607-2.173,1.054-1.522,2.112-3.048,3.121-4.6,1.872-2.882,4.086-5.746,5.151-9.051.543-1.684-2.1-2.4-2.645-.729" transform="translate(-132.197 -7.118)" fill="#90c0d3"/>
    <path id="Trazado_831693" data-name="Trazado 831693" d="M373.574,78.934a1.283,1.283,0,0,0-.92-.634,2.683,2.683,0,0,0-1-1.12,1.378,1.378,0,0,0-1.394,0c-11.679,7.1-23.271,14.328-34.626,21.942-3.175,2.129-6.3,4.34-9.312,6.689-.571.444.156,1.29.749.971.314-.17.625-.346.938-.519a1.155,1.155,0,0,0,1.221.38,33.011,33.011,0,0,0,4.963-2.471c.558-.306,1.113-.616,1.67-.922a.47.47,0,0,0,.086-.009,49.283,49.283,0,0,0,8.607-4.02q4.358-2.282,8.767-4.461c5.83-2.875,11.627-5.8,17.536-8.512q1.211-.556,2.426-1.105a3.7,3.7,0,0,0,1.856-1.313c.922-1.577-.807-3.573-1.563-4.895" transform="translate(-129.498 -30.573)" fill="#90c0d3"/>
    <path id="Trazado_831694" data-name="Trazado 831694" d="M195.965,285.946a.035.035,0,0,0,0,.069.035.035,0,0,0,0-.069" transform="translate(-77.804 -113.548)" fill="#e6a586"/>
    <path id="Trazado_831695" data-name="Trazado 831695" d="M218.952,67.844c-.007-.015-.011-.029-.018-.044-.017-.042-.036-.084-.054-.126Z" transform="translate(-86.917 -26.873)" fill="#3b0d0d"/>
    <path id="Trazado_831696" data-name="Trazado 831696" d="M333.111,70.877a5.907,5.907,0,0,0,.29.819l.175.36a.8.8,0,0,0,.312.332.268.268,0,0,0,.39-.159.806.806,0,0,0,.025-.449c-.027-.133-.06-.264-.09-.4a5.623,5.623,0,0,0-.272-.766q-.295-.761-.588-1.522a.4.4,0,0,0-.473-.268.388.388,0,0,0-.269.473l.5,1.576" transform="translate(-132.073 -27.326)" fill="#3b0d0d"/>
    <path id="Trazado_831697" data-name="Trazado 831697" d="M239.027,81.1a.45.45,0,0,0-.569.186,8.9,8.9,0,0,0-.59,1.793,6.211,6.211,0,0,0-.11.974c-.007.148-.01.3-.009.443a.838.838,0,0,0,.086.436l.042.055.061.145a.5.5,0,0,0,.506.242.511.511,0,0,0,.423-.364c.011-.038.022-.077.034-.115q-.033.13.054-.11a1.136,1.136,0,0,0,.017-.289q-.008-.222,0-.443c.005-.274.03-.546.047-.819a7.391,7.391,0,0,1,.276-1.6.455.455,0,0,0-.263-.537" transform="translate(-94.41 -32.189)" fill="#3b0d0d"/>
    <path id="Trazado_831698" data-name="Trazado 831698" d="M236.814,83.954q.062.472.124.945c0,.007.011.007.011,0q-.057-.473-.113-.945c0-.014-.023-.014-.022,0" transform="translate(-94.038 -33.334)" fill="#3b0d0d"/>
    <path id="Trazado_831699" data-name="Trazado 831699" d="M280.559,112.843a11.622,11.622,0,0,0,.918-4.308,4.833,4.833,0,0,0-1.538-4.1,3.418,3.418,0,0,0-3.485-.586c-.068-.315-.13-.631-.182-.947a23.029,23.029,0,0,1,.052-7.607.679.679,0,0,0-.157-.547,10.178,10.178,0,0,0,1.013-3.749,17.329,17.329,0,0,0,.16-3.056,5.541,5.541,0,0,0,.453-1.236c.149-.543.292-1.086.414-1.635.151-.677.254-1.363.357-2.049a16.363,16.363,0,0,0,2.073-4.153,12.021,12.021,0,0,0,.733-2.8,11.98,11.98,0,0,0,.931,1.757,1.118,1.118,0,0,0,1.517.4,39.135,39.135,0,0,0,12.259-15.674,37.84,37.84,0,0,0,1.663-4.688,5.058,5.058,0,0,0-.816-5,23.36,23.36,0,0,0-8.213-6.608c-2.7-1.219-6.453-2-9.414-.913a9.733,9.733,0,0,0-1.671-2.025,22.509,22.509,0,0,0-4.763-3.612c-3.807-2.052-8.518-2-12.735-1.924a67.813,67.813,0,0,0-25.214,5.2c-3.446,1.466-7.661,3.729-8.107,7.811-.539.1-1.076.216-1.606.353a17.46,17.46,0,0,0-6.177,2.918c-.294.22-.576.452-.857.684a.739.739,0,0,0-.054-.124.628.628,0,0,0-.189-.185l-.06-.045a.405.405,0,0,0-.2-.055.308.308,0,0,0-.156.035.4.4,0,0,0-.235.263.63.63,0,0,0-.019.4c.022.06.043.119.065.179l.078.214c-.2.183-.406.359-.6.55-.04-.139-.086-.277-.139-.411-.177-.445-.451-.94-.993-.964a.6.6,0,0,0-.574.668,1.576,1.576,0,0,0,.178.649l.051.116a4.63,4.63,0,0,1,.295,1.068c0,.029,0,.058.007.087a5.256,5.256,0,0,0-.873,1.262l-.052.039c-.913.686-1.819,1.382-2.725,2.078-.774.594-1.948,1.215-2.243,2.229-.28.969.276,2.064.608,2.948q.536,1.421,1.176,2.8A36,36,0,0,0,214.656,74a40.924,40.924,0,0,0,3.98,4.881,25.594,25.594,0,0,0,4.589,4.089c1.978,1.24,4.006-.268,5.264-1.83a11.4,11.4,0,0,0,1.9-3.529q.012.486.025.972c.044,1.616-.126,3.245.062,4.855a8.648,8.648,0,0,0,2.442,4.941c-.1.437-.164.894-.236,1.3-.156.865-.326,1.729-.553,2.577a14.5,14.5,0,0,1-1.756,4.142,3.416,3.416,0,0,0-.446.944c-1.241,2.143-.649,5,.6,7.023.142.232.3.457.456.682a14.707,14.707,0,0,0,1.256,2.255c3.018,4.369,7.695,7.395,12.523,9.425a47.247,47.247,0,0,0,15.9,3.418,25.291,25.291,0,0,0,8.875-.939,46.048,46.048,0,0,0,7.967-3.525,6.431,6.431,0,0,0,3.062-2.837m-3.528-.072a32.27,32.27,0,0,1-3.131,1.666,31.077,31.077,0,0,1-6.582,2.529,24.541,24.541,0,0,1-7.241.416,51.7,51.7,0,0,1-8-1.1.363.363,0,0,0-.174-.268c-2.14-1.223-4.636-1.875-6.9-2.855a33.7,33.7,0,0,1-6.559-3.585,34.367,34.367,0,0,1-5-4.452,11.714,11.714,0,0,1-1.368-2.931,9.911,9.911,0,0,1-.359-4.247,4.954,4.954,0,0,0,.458-.589,12.609,12.609,0,0,0,1.732-4.3,25.025,25.025,0,0,0,.427-2.854c.013-.135.027-.275.04-.417.124.106.243.214.369.318.461.381.918.771,1.4,1.132a4.546,4.546,0,0,0,1.7,1.006.709.709,0,0,0,.814-.531c.127-.512-.393-1.246-.692-1.628-1.566-2-4.181-3.215-5.038-5.747-.581-1.719-.352-3.634-.491-5.419a27.116,27.116,0,0,0-1.168-5.643.54.54,0,0,0-.1-.193c.234-4.4-.5-8.955,1.463-13.056a1.047,1.047,0,0,0-1.807-1.056c-2.536,3.336-2.225,7.7-2.2,11.672.021,3.43-.209,7.967-3.417,10.089-.38.251-.458.279-.838.04a11.531,11.531,0,0,1-.962-.714c-.772-.607-1.513-1.251-2.232-1.919a39.065,39.065,0,0,1-3.725-3.985,39.667,39.667,0,0,1-5.685-9.482c-.215-.51-.65-1.182-.274-1.67a7.485,7.485,0,0,1,1.311-1.07c.982-.784,1.964-1.566,2.939-2.36.716-.582,1.416-1.179,2.119-1.774q.766-.612,1.529-1.228a16.512,16.512,0,0,1,4.682-2.754,31.056,31.056,0,0,1,5.507-1.4c.23-.038.656-.158.871-.034.282.163.369.879.426,1.15a7.159,7.159,0,0,1-.035,2.97.553.553,0,0,0,1.067.294,7.229,7.229,0,0,0,.575-3.2,3.883,3.883,0,0,0-.9-2.68,3.058,3.058,0,0,0-2.659-.468l-.553.086c1.258-2.741,4.058-4.3,6.882-5.261a101.856,101.856,0,0,1,11.137-3.18A69.539,69.539,0,0,1,257.87,40.53q2.9-.14,5.814-.022a23.782,23.782,0,0,1,5.722.743,14.633,14.633,0,0,1,5.075,2.907,27.421,27.421,0,0,1,2.835,2.33c-.014.012-.031.022-.044.034-.769.663.068,1.765.922,1.586l.1-.022c.016.055.046.106.059.163a.86.86,0,0,0,1.682-.228c0-.108-.01-.212-.013-.318a11.759,11.759,0,0,1,2.662-.307,11.957,11.957,0,0,1,4.454.979A24.7,24.7,0,0,1,294.5,53.9a5.014,5.014,0,0,1,1.287,1.487,4.127,4.127,0,0,1-.385,2.4,37.216,37.216,0,0,1-1.54,4.1,37.269,37.269,0,0,1-10.308,13.683c-1.612-3.176-1.513-6.844-1.4-10.37.057-1.771.138-3.56.062-5.327.02.106.044.21.063.315a13.468,13.468,0,0,1,.192,1.794,4.807,4.807,0,0,0,.187,1.906.58.58,0,0,0,.992,0,3.358,3.358,0,0,0,.232-2.031,12.475,12.475,0,0,0-.28-1.97,10.157,10.157,0,0,0-.614-1.861,11.43,11.43,0,0,0-1-1.7.351.351,0,0,0-.242-.15,13.6,13.6,0,0,0-1.1-3.1c-.03-.123-.055-.248-.087-.371a6.3,6.3,0,0,0-1.288-2.772c-.36-.4-1.085.139-.758.585a7.673,7.673,0,0,1,.968,3.008c.244,1.112.453,2.232.638,3.355q.281,1.723.452,3.461c.071.716.087,1.5.232,2.227q-.043.564-.094,1.129c-.149-.982-.32-1.961-.518-2.933-.107-.523-.915-.393-.915.124-.007,4,.127,8,.019,12a14.46,14.46,0,0,1-1,5.172c-.673,1.681-1.72,3.474-1.58,5.345a.615.615,0,0,0,.411.564c-.085.242-.179.48-.257.726-.031.1-.059.2-.089.3a3.95,3.95,0,0,0-.758-1.211.531.531,0,0,0-.9.371c.051.877.268,1.734.295,2.615a13.535,13.535,0,0,1-.193,2.779c-.159.9-.39,1.786-.6,2.677a3.02,3.02,0,0,1-.756,1.694c-.509.4-1.424.146-2.011.064l-3.115-.432c-1.391-.193-3.21-.233-3.62-1.863a34,34,0,0,1-.7-3.759c.006-.095.015-.19.017-.284a.838.838,0,0,0,.272-.488,9.89,9.89,0,0,1,.314-1.4,6.079,6.079,0,0,0,1.414-.877,16.811,16.811,0,0,0,1.865-1.4,10.786,10.786,0,0,0,1.585-1.913,2.134,2.134,0,0,0-.379-2.632,3.231,3.231,0,0,0-2.2-1.092,8.012,8.012,0,0,0-2.019.235,18.858,18.858,0,0,0-2.313.007,14.4,14.4,0,0,0-3.186.42c-.5.14-1,.311-1.5.486a6.275,6.275,0,0,0-.763.305,6.5,6.5,0,0,0-.572.443.529.529,0,0,0-.116.789,1.894,1.894,0,0,0-.151.444,2.769,2.769,0,0,0,1.569,3.017c.936.435,2.051.351,2.931.888a3,3,0,0,1,1.088,1.206,11.075,11.075,0,0,0-.474,3.019c-.112,1.071-.157,2.152-.291,3.22-.131,1.042-.616,1.347-1.561,1.678a24.2,24.2,0,0,1-3.148.851c-1.068.219-2.145.394-3.224.54-.517.07-1.035.128-1.552.2a5.686,5.686,0,0,1-1.626.213c-.4-.091-.67-.755-.9-1.109q-.414-.65-.793-1.32A24.147,24.147,0,0,1,247.2,90.2c-.295-.756-1.5-.467-1.244.342a40.016,40.016,0,0,0,1.387,3.806c.447,1.047.91,2.53,1.928,3.171a2.869,2.869,0,0,0,1.212.4,12.23,12.23,0,0,0,4.823,3.24,16.152,16.152,0,0,0,6.971.078,25.917,25.917,0,0,0,6.431-1.522c1.208-.506,3.575-1.825,3.376-3.41a4.7,4.7,0,0,0,2.363-.084c.037-.013.069-.031.1-.045a12.278,12.278,0,0,0-.716,2.6,16.436,16.436,0,0,0-.009,4.456,18.21,18.21,0,0,0,1.029,4.243c.512,1.337,1.123,3.038,2.318,3.9a.914.914,0,0,0,.959.107,2.884,2.884,0,0,1-1.1,1.287m-6.939-16.8a6.865,6.865,0,0,1-.739.821A6.236,6.236,0,0,1,267.42,97.8a33.049,33.049,0,0,1-5.734,1.286,13.639,13.639,0,0,1-5.955,0,11.42,11.42,0,0,1-2.71-1.3c1.326-.129,2.655-.277,3.965-.517a23.958,23.958,0,0,0,3.907-1.02,4.308,4.308,0,0,0,2.627-2.014,4.55,4.55,0,0,0,.336-.98,3.269,3.269,0,0,0,1.128,1.37,6.4,6.4,0,0,0,2.549.925c.851.147,1.7.283,2.558.421" transform="translate(-83.252 -14.994)" fill="#3b0d0d"/>
    <path id="Trazado_831700" data-name="Trazado 831700" d="M292.313,151.718c-.089-.323-.2-.634-.261-.965,0-.024-.038-.234-.022-.117-.011-.086-.021-.171-.031-.257-.019-.16-.033-.322-.038-.484a5.094,5.094,0,0,1,.052-.908.576.576,0,0,0-.39-.687.565.565,0,0,0-.687.389,5.563,5.563,0,0,0-.131,2.341,4.7,4.7,0,0,0,.32,1.12,2.077,2.077,0,0,0,.277.431c.169.222.322.426.625.439a.427.427,0,0,0,.372-.213.821.821,0,0,0,.011-.651c-.036-.145-.057-.294-.1-.438" transform="translate(-115.451 -58.882)" fill="#3b0d0d"/>
    <path id="Trazado_831701" data-name="Trazado 831701" d="M296.224,150.275l-.388-1.711a.667.667,0,0,0-.813-.462.678.678,0,0,0-.462.813q.165.864.33,1.727a7.311,7.311,0,0,0,.235.81,2.005,2.005,0,0,0,.488.874.4.4,0,0,0,.652-.172,1.877,1.877,0,0,0,.083-.931,8.181,8.181,0,0,0-.126-.948" transform="translate(-116.963 -58.801)" fill="#3b0d0d"/>
    <path id="Trazado_831702" data-name="Trazado 831702" d="M268.782,85.631a3.722,3.722,0,0,0-.232-1.172,1.815,1.815,0,0,0-1.068-1.221,1.4,1.4,0,0,0-1.595.689,3.317,3.317,0,0,0-.387,1.224,2.32,2.32,0,0,0,.181,1.549,2.1,2.1,0,0,0,.268.785,1.365,1.365,0,0,0,1.589.558,2.3,2.3,0,0,0,1.243-2.411" transform="translate(-105.411 -33.031)" fill="#3b0d0d"/>
    <path id="Trazado_831703" data-name="Trazado 831703" d="M310.4,83.393a1.365,1.365,0,0,0,1.589.558,2.294,2.294,0,0,0,1.243-2.411A3.725,3.725,0,0,0,313,80.368a1.817,1.817,0,0,0-1.068-1.221,1.4,1.4,0,0,0-1.595.69,3.314,3.314,0,0,0-.387,1.223,2.322,2.322,0,0,0,.181,1.549,2.1,2.1,0,0,0,.268.784" transform="translate(-123.061 -31.407)" fill="#3b0d0d"/>
    <path id="Trazado_831704" data-name="Trazado 831704" d="M290.006,104.223a15.182,15.182,0,0,1,4.049-.689c.656-.019,1.322.04,1.977.081a7.253,7.253,0,0,0,.985-.013,1.352,1.352,0,0,0,.856-.219.226.226,0,0,0,.034-.269c-.144-.273-.484-.368-.761-.464a4.15,4.15,0,0,0-1.114-.216,11.75,11.75,0,0,0-2.118.119,14.371,14.371,0,0,0-4.129,1.146c-.3.13-.086.621.221.525" transform="translate(-115.016 -40.671)" fill="#3b0d0d"/>
    <path id="Trazado_831705" data-name="Trazado 831705" d="M294.055,101.336l.93-.151c.151-.024.3-.062.449-.1a1.128,1.128,0,0,0,.3-.091.7.7,0,0,0,.207-.2.325.325,0,0,0-.065-.5.986.986,0,0,0-.25-.116,1.063,1.063,0,0,0-.415.028c-.152.024-.3.045-.455.08l-.928.219a.438.438,0,0,0-.3.534.447.447,0,0,0,.534.3" transform="translate(-116.55 -39.773)" fill="#3b0d0d"/>
    <path id="Trazado_831706" data-name="Trazado 831706" d="M276.831,82.831c.118.215.219.438.328.657.053.106.1.214.151.323l.01.022.025.061c.022.055.043.11.064.165a3.268,3.268,0,0,0,.172.433.717.717,0,0,0,.362.3.339.339,0,0,0,.453-.119.728.728,0,0,0,.131-.488,1.931,1.931,0,0,0-.17-.5,7.091,7.091,0,0,0-.341-.7,5.105,5.105,0,0,0-.477-.675,2.852,2.852,0,0,0-.616-.544.3.3,0,0,0-.355.045.307.307,0,0,0-.046.355c.1.218.186.443.307.664" transform="translate(-109.793 -32.453)" fill="#3b0d0d"/>
    <path id="Trazado_831707" data-name="Trazado 831707" d="M279.243,83.63a1.9,1.9,0,0,0,.292.481c.051.058.1.115.157.17a.537.537,0,0,0,.31.156.261.261,0,0,0,.323-.246c-.01.075,0-.011,0-.026a.48.48,0,0,0-.046-.3l0,0,0,0,0,0a.078.078,0,0,0-.007-.015l-.012-.029c-.014-.036-.028-.071-.042-.107a4.732,4.732,0,0,0-.245-.493c-.036-.07-.071-.14-.1-.212-.016-.035-.031-.071-.047-.106l-.016-.04c-.059-.146-.111-.3-.157-.447a.4.4,0,0,0-.774.213,5.882,5.882,0,0,0,.364,1" transform="translate(-110.737 -32.608)" fill="#3b0d0d"/>
    <path id="Trazado_831708" data-name="Trazado 831708" d="M303.728,83.349a.321.321,0,0,0,.357-.233,4.545,4.545,0,0,1,.251-1c.014-.039.03-.078.046-.117l.018-.041c.017-.038.035-.075.052-.113s.043-.1.063-.152l.008-.02a.39.39,0,0,0,.055-.151.5.5,0,0,0,0-.264c-.007-.039-.007-.039,0,0s.011.04.011,0c0-.022,0-.045.007-.068a.6.6,0,0,0-.013-.2.375.375,0,0,0-.545-.221.543.543,0,0,0-.151.127c-.008.008-.084.1-.088.1.064-.049.063-.048,0,0a.384.384,0,0,0-.128.139.891.891,0,0,0-.09.221,3.58,3.58,0,0,0-.109.6,5.4,5.4,0,0,0-.027,1.064.328.328,0,0,0,.282.32" transform="translate(-120.492 -32.056)" fill="#3b0d0d"/>
    <path id="Trazado_831709" data-name="Trazado 831709" d="M304.647,85.386l-.078.1a.517.517,0,0,0-.1.166.755.755,0,0,0-.019.09l-.056.294a6.259,6.259,0,0,0-.076.7.385.385,0,0,0,.657.272.449.449,0,0,0,.113-.272,5.506,5.506,0,0,0,.057-.614c0-.1,0-.2,0-.3,0-.027,0-.054,0-.081a.488.488,0,0,0-.056-.191c-.019-.039-.04-.078-.06-.118a.245.245,0,0,0-.383-.049" transform="translate(-120.843 -33.878)" fill="#3b0d0d"/>
    <path id="Trazado_831710" data-name="Trazado 831710" d="M321.1,166.7a7.305,7.305,0,0,0-1.932,1.051,17.268,17.268,0,0,1-1.958,1.053,18.059,18.059,0,0,1-4.263,1.233c-.338.056-.248.585.079.585a13.3,13.3,0,0,0,4.607-.813,14.553,14.553,0,0,0,2.117-.924,4.2,4.2,0,0,0,1.849-1.535.449.449,0,0,0-.5-.651" transform="translate(-124.187 -66.191)" fill="#3b0d0d"/>
    <path id="Trazado_831711" data-name="Trazado 831711" d="M330.21,160.82a1.345,1.345,0,0,0-.247.063.83.83,0,0,0-.27.154l-.109.088q-.217.176-.424.364a7.651,7.651,0,0,0-.759.816.531.531,0,0,0-.145.349.494.494,0,0,0,.842.348c.237-.287.493-.556.748-.828.124-.132.251-.261.382-.386a1.163,1.163,0,0,0,.236-.273,2.485,2.485,0,0,0,.139-.3.313.313,0,0,0-.082-.311.336.336,0,0,0-.311-.082" transform="translate(-130.35 -63.858)" fill="#3b0d0d"/>
    <path id="Trazado_831712" data-name="Trazado 831712" d="M248.486,65.789a64.868,64.868,0,0,0-12.942-36.17,70.736,70.736,0,0,0-21.308-19.031,1.041,1.041,0,0,0-.415-.241,74.093,74.093,0,0,0-10.011-4.8A85.5,85.5,0,0,0,162.373.7c-13.355,1.678-28.8,6.011-36.263,18.221q-.674.94-1.288,1.924c-3.883,6.238-5.626,13.515-6,20.8-.011.229-.013.458-.022.686a.759.759,0,0,0,0,.1,72.107,72.107,0,0,0,9.3,37.583A73.354,73.354,0,0,0,137.92,93.6a1.181,1.181,0,0,0-.566.213q-1.478,1.023-2.934,2.078h0c-.039-.025-.077-.052-.118-.075a2.105,2.105,0,0,0-.239-.1.55.55,0,0,0-.228-.027.435.435,0,0,0-.256.09.4.4,0,0,0-.152.22l-.009.039c-.006.029-.008.057-.013.087a.267.267,0,0,0,0,.134.623.623,0,0,0,.011.075,1.245,1.245,0,0,0,.027.133,1.154,1.154,0,0,0,.045.111c-.421.309-.844.616-1.261.928-.09-.074-.18-.147-.277-.213a3.412,3.412,0,0,0-.745-.38.6.6,0,0,0-.318-.014.582.582,0,0,0-.3.095.818.818,0,0,0-.327.381.77.77,0,0,0-.04.519l.081.191a.8.8,0,0,0,.286.286,2.158,2.158,0,0,0,.277.166q-3.342,2.552-6.557,5.266c-.01-.068-.016-.137-.027-.2-.028-.163-.055-.325-.083-.487a1,1,0,0,0-.336-.594.427.427,0,0,0-.6,0,1.2,1.2,0,0,0-.163.245c-.029.066-.063.131-.086.2a.85.85,0,0,0-.022.274c0,.166.01.331.014.5.009.345.051.687.084,1.031a.6.6,0,0,0,.016.073c-.389.336-.778.671-1.164,1.011-.016-.046-.028-.094-.048-.139-.026-.064-.053-.128-.08-.192-.036-.083-.07-.174-.112-.256a1.331,1.331,0,0,0-.158-.218.645.645,0,0,0-.44-.206.463.463,0,0,0-.59.181l0,.01a.8.8,0,0,0-.227.538,2.232,2.232,0,0,0,.114.6,4.337,4.337,0,0,0,.147.429c.046.126.091.253.139.379q-2.08,1.873-4.1,3.815-3.815,3.693-7.46,7.563c-.027-.213-.054-.426-.1-.634-.031-.142-.06-.285-.093-.426a.58.58,0,1,0-1.151.14c0,.145.006.292.009.437.007.3.049.594.078.89a.742.742,0,0,0,.192.464.522.522,0,0,0,.163.1c-.3.324-.6.644-.9.969a3.049,3.049,0,0,0-.312-.466,1.132,1.132,0,0,0-.374-.341,2.722,2.722,0,0,0-.376-.162.6.6,0,0,0-.729.73,3.293,3.293,0,0,0,.126.362,2.237,2.237,0,0,0,.325.471l-.115-.149q.171.224.344.446c.048.062.091.128.136.192-2.667,2.963-5.242,6.006-7.686,9.155-1.518,1.954-2.986,3.953-4.361,6.011-.716,1.073-1.375,2.184-2.015,3.306a77.988,77.988,0,0,0-6.21,9.061c-1.152,1.865-2.234,3.78-3.265,5.714-.435.816-.841,1.655-1.212,2.5a31.184,31.184,0,0,0-4.433,5.158,38.254,38.254,0,0,0-3.973,7.487,37.633,37.633,0,0,0-2.229,8.075,1.554,1.554,0,0,0-.435-.04c-.11.008-.219.024-.328.042-.033.005-.065.011-.1.02a.657.657,0,0,0-.369.283l-.057.136a.429.429,0,0,0-.01.227.552.552,0,0,0,.156.327.611.611,0,0,0,.2.131.7.7,0,0,0,.207.043h-.009c.106.016.2.048.309.071a1.812,1.812,0,0,1,.245.077,18.331,18.331,0,0,0,.04,6.394c-.078.773-.149,1.547-.222,2.321a.469.469,0,0,0-.114-.066.338.338,0,0,0-.136-.017.357.357,0,0,0-.183.041.365.365,0,0,0-.153.1l-.074.1a.463.463,0,0,0-.065.239.337.337,0,0,0,.017.136.477.477,0,0,0,.124.213l.028.032.055.064c.036.043.073.086.111.129l.221.257c.014.016.034.02.05.033-.033.367-.061.735-.093,1.1l-.159-.063a5.7,5.7,0,0,0-.756-.208.753.753,0,0,0-.556.072.722.722,0,0,0-.259.987.757.757,0,0,0,.431.331,5.767,5.767,0,0,0,.761.192l.421.058c-.025.3-.052.59-.075.886-.174,2.231-.293,4.469-.436,6.7-.089,1.395-.233,2.857-.219,4.3a23.69,23.69,0,0,1-8.775,5.2c-.107.034-.213.058-.32.091-.013-.024-.024-.048-.036-.071a.891.891,0,0,0-.631-.514.489.489,0,0,0-.349.046.5.5,0,0,0-.21.271.856.856,0,0,0,.031.605,53.154,53.154,0,0,1-13.074,1.427c-10.544.089-21.106-.321-31.625-1.029-2.643-.178-5.282-.387-7.922-.594-2.085-.163-4.418-.292-5.813,1.575a4.967,4.967,0,0,0-.458,4.641,6.217,6.217,0,0,0,3.915,3.663,18.508,18.508,0,0,0,6.5.684c2.647-.012,5.295-.03,7.943-.031q7.943-.005,15.885.008,17.956.052,35.914.074a1.261,1.261,0,0,0,.822-.277,5.867,5.867,0,0,1,1.556.416,4.367,4.367,0,0,1,1.724,1.308,2.313,2.313,0,0,1,.423.991c.008.037.013.054.016.064l0,.011c.028.177.03.36.066.536a1.982,1.982,0,0,0,.3.731,1.366,1.366,0,0,0,1.658.538,12.584,12.584,0,0,0,.064,3.18c.442,2.176,2.4,2.922,4.284,3.527,1.207.387,2.425.761,3.654,1.078l.619.162a.937.937,0,0,0,.766.816c2.447.566,4.891,1.142,7.342,1.689a30.058,30.058,0,0,1,6.844,2.088,62.247,62.247,0,0,0,6.338,3.024A29.414,29.414,0,0,0,113.887,241a.972.972,0,0,0,.748-.307c.218.052.428.1.617.137a20.616,20.616,0,0,0,3.059.362c1.7.092,4.759.529,5.078-1.79a25.818,25.818,0,0,0,.222-2.779.613.613,0,0,0,.26-.261c.937-1.793.525-4.431-.082-6.27a7.8,7.8,0,0,0-3.306-4.283c.169,0,.339-.007.508-.013,2.752-.094,5.74-.247,8.169-1.691a9.185,9.185,0,0,0,1.519-1.147.74.74,0,0,0,.364.147c3.542.321,7.1.361,10.63.8-.056.991-.1,1.982-.125,2.978a5.721,5.721,0,0,0,.543,2.9,4.766,4.766,0,0,0,.329.513c.021.8.026,1.6.091,2.392.08.969.2,1.933.316,2.9a11.027,11.027,0,0,0,.46,2.679,3.884,3.884,0,0,0,1.6,1.921,4.444,4.444,0,0,0,2.266.652,1.229,1.229,0,0,1,1.589.26,12.211,12.211,0,0,1,2.861,0c.95.163,1.88.416,2.811.66a13.6,13.6,0,0,0,5.976.56,4.119,4.119,0,0,0,.522-.14,1.015,1.015,0,0,0,.409.075c1.761-.035,3.535-.253,5.287-.429.812-.082,1.707,0,2.3-.64a3.656,3.656,0,0,0,.86-1.681,4.909,4.909,0,0,0,.108-1.026,5.375,5.375,0,0,0,1.1-3.839,6.39,6.39,0,0,0-1.677-3.878,6.214,6.214,0,0,0-3.581-1.917,18.09,18.09,0,0,0-4.3.064,8.649,8.649,0,0,1-.933-2.267q-.167-.629-.314-1.266a6.284,6.284,0,0,1,1.115.1c.787.143,1.559.333,2.355.429a6.173,6.173,0,0,0,4.124-.69,2.981,2.981,0,0,0,.376-.317c.265.013.529.007.77.006a15.361,15.361,0,0,0,2.02-.059,2.358,2.358,0,0,0,1.814-1.2,3.53,3.53,0,0,0,.274-1.932.757.757,0,0,0,.287-.182,1.983,1.983,0,0,0,.729-1.418,16.482,16.482,0,0,0,.047-1.867,10.178,10.178,0,0,0-.377-3.2c-.668-1.859-2.893-2.836-4.66-3.352a39.2,39.2,0,0,0-5.461-.978c-.921-.131-1.836-.287-2.744-.487-.484-.106-.955-.268-1.44-.361a6.537,6.537,0,0,1-1.508-.378.544.544,0,0,0-.317-.039c-.223-1.306-.477-2.606-.7-3.912-.195-2.167-.56-4.337-.828-6.472q-.55-4.379-1.034-8.762a52.774,52.774,0,0,0,2.224-7.907,40.608,40.608,0,0,0,.647-5.1c.018-.284.041-.587.063-.9,2.46-2.176,4.929-4.4,7.3-6.721a131.052,131.052,0,0,0,3.408,16.515c.717,2.835,1.52,5.655,2.383,8.448a38.329,38.329,0,0,0,2.9,7.537c-.046.474-.1.947-.135,1.422a7.746,7.746,0,0,0,.139,2.8,3.557,3.557,0,0,0,2.6,2.455c.08,1.005.322,2.04.439,2.986.181,1.462.347,2.926.484,4.393q.213,2.287.31,4.581a5.275,5.275,0,0,0,1.146,3.629,5.649,5.649,0,0,0,1.913,1.357.664.664,0,0,0,.42.144,2.677,2.677,0,0,0,.6.1c.051,0,.1-.012.152-.016.122.086.236.181.311.233.327.224.626.483.943.723.79.6,1.581,1.208,2.388,1.791.751.543,1.5,1.1,2.256,1.627.136.1.3.206.483.315a1.124,1.124,0,0,0,0,.71c.452,1.159,1.422,1.29,2.524,1.428q1.461.183,2.934.26t2.946.049a4.335,4.335,0,0,0,2.867-.772,2.783,2.783,0,0,0,.871-1.344c1.794-.164,3.35-1.829,4.043-3.374a9.435,9.435,0,0,0,.727-2.6,1.226,1.226,0,0,0,.165-.1c-.359.291.376-.194.447-.266a2.535,2.535,0,0,0,.465-.737,13.758,13.758,0,0,0,.616-1.591,8.167,8.167,0,0,0,.454-3.089,5.3,5.3,0,0,0-2.673-4.46,10.783,10.783,0,0,0-2.935-.762c-1.149-.2-2.3-.385-3.453-.571-1.882-.3-3.775-.52-5.664-.767a1.327,1.327,0,0,0-.074-.187,37.594,37.594,0,0,1-2.633-6.286q-.421-1.374-.785-2.761a.688.688,0,0,0,.145-.289,6.3,6.3,0,0,0,.031-1.613c-.022-.506-.041-1.013-.07-1.519-.057-1.017-.175-2.025-.257-3.039a.491.491,0,0,0-.181-.358c.251-6.154-.6-12.278-1.064-18.423a71.946,71.946,0,0,1-.229-10.514c.244-3.355.592-6.7.626-10.068a39.559,39.559,0,0,0-.282-5.331.938.938,0,0,0,.425.116,2.227,2.227,0,0,0,.287-.043.536.536,0,0,0,.368-.65.987.987,0,0,0-.279-.512c-.1-.091-.209-.173-.312-.262-.134-.116-.281-.216-.423-.321l-.079-.06c-.045-.036-.091-.071-.135-.107s-.1-.09-.157-.134c-.033-.175-.069-.35-.1-.525.1.045.2.095.3.136.213.088.428.174.642.262a1.219,1.219,0,0,0,.423.127,1.024,1.024,0,0,0,.474-.124.444.444,0,0,0,.2-.5.923.923,0,0,0-.234-.447,1.743,1.743,0,0,0-.369-.235c-.2-.11-.39-.224-.587-.331-.392-.215-.81-.391-1.213-.583a52.233,52.233,0,0,0,6.068-15.42,56.775,56.775,0,0,0,1.164-8.661c.085-1.448.11-2.9.084-4.348a12.168,12.168,0,0,0-.137-2.685c.219-.006.439-.005.657-.014,13.57-.518,27.81-4.9,38.272-13.773,10.847-9.2,15.633-23.522,15.2-37.478m-116.4,155.657a37.834,37.834,0,0,0,2.33-3.363q1.13-1.761,2.075-3.626c.31-.611.761-1.356,1.084-2.115.127.332.245.667.377,1a52.251,52.251,0,0,0,2.324,5.116,26.487,26.487,0,0,0,1.5,2.567l.065.1c-.01.169-.02.338-.03.507a43.154,43.154,0,0,0-9.72-.178m32.73,9.481a4.266,4.266,0,0,1,2.63,1.254,3.833,3.833,0,0,1,1.118,2.334c.009.165.011.316.01.462a10.064,10.064,0,0,0-2.384-2.22c-1.008-.679-2.1-1.252-3.071-1.99.564.062,1.133.09,1.7.16m-5.324-19.243a15.775,15.775,0,0,0,2.442.663c1.71.336,3.449.525,5.142.94a11.789,11.789,0,0,1,2.3.807,4.751,4.751,0,0,1,1.993,1.456,3.39,3.39,0,0,1,.295,1.748,5.451,5.451,0,0,0-2.226-1.677,14.151,14.151,0,0,0-3.511-.779.724.724,0,0,0-.86.488.707.707,0,0,0,.488.86,10.922,10.922,0,0,1,3.154,1.156,3.318,3.318,0,0,1,1.689,2.325,10.593,10.593,0,0,1,.138,1.686c.013.3.008.6.02.9,0,.033,0,.057-.005.077l-.049.011c-.028,0-.215.011-.23.011-.351.011-.7.01-1.053.014-.156,0-.328,0-.5,0a4.278,4.278,0,0,0-.58-1.033,8.7,8.7,0,0,0-2.7-2.214,8.3,8.3,0,0,1-2.755-2.084.754.754,0,0,0-1.3.76c1,1.759,2.833,2.674,4.215,4.012a3.711,3.711,0,0,1,.777.947,2.026,2.026,0,0,0,.122.264.079.079,0,0,1,.007.016c-.022.02-.025.026,0,.008l0,.007-.04.03c-.063.042-.129.079-.2.115-.019.007-.127.057-.179.074-.109.034-.219.056-.329.085l-.077.015-.206.023a7.654,7.654,0,0,1-.969.025,5.863,5.863,0,0,1-.842-.084,15.668,15.668,0,0,0-4-.417c-.382-2.159-.66-4.349-1.005-6.487-.309-1.924-.6-3.85-.9-5.776a7.191,7.191,0,0,0,1.718,1.026m32.167-87.6a66.637,66.637,0,0,1-.93,8.127,74.686,74.686,0,0,1-4.119,14.664,3.4,3.4,0,0,0-.178-.294,1.111,1.111,0,0,0-2.05.555,9.113,9.113,0,0,0,.457,2.305c.211.81.383,1.629.523,2.454a42.36,42.36,0,0,1,.483,4.838c.169,3.351.04,6.708.065,10.062.027,3.438.022,6.857.229,10.291q.317,5.239.781,10.459c.345,3.826.649,7.668.9,11.5a.45.45,0,0,0-.512.489c.029,1.221-.031,2.442.1,3.658a27.216,27.216,0,0,0,.608,3.634,34.725,34.725,0,0,0,2.5,6.985,1.1,1.1,0,0,0,1.682.394c1.54.4,3.075.827,4.621,1.216,1.895.478,3.818.842,5.716,1.3a2.653,2.653,0,0,1,2.211,2.581,5.726,5.726,0,0,1-.261,1.995c-1.156-1.45-3.216-2.026-4.888-2.618-2.116-.749-4.255-1.409-6.407-2.046-.986-.291-1.324,1.143-.415,1.505,1.824.729,3.625,1.523,5.418,2.328.894.4,1.792.8,2.685,1.207a4.322,4.322,0,0,1,1.639,1.031,2.934,2.934,0,0,1,.214,2.12,5.946,5.946,0,0,1-.81,2.3,3.865,3.865,0,0,1-1.462,1.332,5.569,5.569,0,0,0-.214-.569,8.7,8.7,0,0,0-3.415-3.82c-1.5-.946-3.5-1.517-4.267-3.271-.314-.717-1.406-.2-1.229.518a6.488,6.488,0,0,0,2.5,3.444,13.319,13.319,0,0,1,3.336,2.958,5.157,5.157,0,0,1,.769,1.671c0,.017.023.127.033.181s.008.09.008.091c0,.115,0,.23,0,.345-.006.011-.027.179-.039.234,0,0-.013.037-.024.067.017-.057-.027-.008-.045.028a.333.333,0,0,0-.031.019,1.669,1.669,0,0,1-.268.063,11.067,11.067,0,0,1-1.191.028q-1.368.012-2.734-.068c-.81-.046-1.634-.1-2.444-.2a2.13,2.13,0,0,0-.32-.348,2.784,2.784,0,0,0-.988-.859c-.383-.259-.774-.511-1.153-.775-.912-.634-1.811-1.284-2.733-1.9a12.433,12.433,0,0,0-3.126-1.858,2.008,2.008,0,0,0-.552-.548c-.995-.68-2.052-.88-2.266-2.235-.229-1.445-.286-2.932-.455-4.386-.192-1.666-.411-3.332-.691-4.985q-.213-1.257-.455-2.507c-.093-.483-.181-.983-.316-1.464a.833.833,0,0,0-.615-1.364l-.051,0c.028,0,.074.014.08.039q.118.069-.078-.025a.35.35,0,0,0-.161-.057c-.127-.033-.26-.039-.388-.072-.073-.019-.144-.046-.216-.069l-.031-.008-.018-.01c-.055-.03-.111-.059-.164-.092-.013-.007-.085-.058-.124-.086s-.118-.109-.115-.105c-.034-.034-.066-.069-.1-.1a1.087,1.087,0,0,1-.073-.094c-.034-.053-.067-.107-.1-.163a1.341,1.341,0,0,1-.128-.333c-.028-.1-.052-.193-.072-.291a1.432,1.432,0,0,0-.031-.146,19.942,19.942,0,0,1-.064-2.206,17.8,17.8,0,0,0-.344-2.542.563.563,0,0,0-.59-.473c-.386-1.983-.984-3.924-1.543-5.873-.808-2.813-1.6-5.629-2.4-8.444-1.593-5.624-2.89-11.347-4.672-16.911-.007-.019-.021-.032-.028-.049,5.4-5.407,10.2-11.377,12.987-18.587a30.229,30.229,0,0,0,1.35-4.38c.323-1.461.793-3.077.172-4.5a.773.773,0,0,0-1.209-.156,8.906,8.906,0,0,0-1.311,3.553c-.354,1.281-.768,2.554-1.223,3.8a44.968,44.968,0,0,1-3.411,7.2,70.952,70.952,0,0,1-9.933,13.187c-1.794,1.894-3.66,3.717-5.548,5.517a5.136,5.136,0,0,0-.506-2.192.62.62,0,0,0-1.12.146,7.175,7.175,0,0,0-.25,2.453c-.006.872-.021,1.742-.075,2.613-.1,1.662-.3,3.324-.553,4.969-.233,1.51-.522,3.02-.839,4.524-.607-5.914-1.139-11.861-1.255-17.8q-.052-2.728-.048-5.457a26.969,26.969,0,0,0-.172-5.527.268.268,0,0,0-.512,0,20.3,20.3,0,0,0-.345,4.844c-.03,1.648-.028,3.3-.019,4.946.021,3.349-.005,6.71.093,10.056q.293,9.973,1.489,19.871c.222,1.833.464,3.675.8,5.491a35.035,35.035,0,0,0,1.256,5.287c.08,1.546.187,3.09.378,4.636.361,2.911.769,5.815,1.187,8.718.373,2.588.552,5.36,1.747,7.733,1.111,2.205,3.175,3.381,5.173,4.668a6.915,6.915,0,0,1,2.595,2.522,2.833,2.833,0,0,1,.272,2.479c-1.521.113-3.05.212-4.566.382a4.789,4.789,0,0,0-.573-2,11.244,11.244,0,0,0-3.849-4.337c-.639-.444-1.419.565-.834,1.081a10.163,10.163,0,0,1,2.672,3.886,4.188,4.188,0,0,1,.259.942c.01.089-.018.3-.016.362,0,.024,0,.039,0,.056a4.95,4.95,0,0,1-2.123.155,30.366,30.366,0,0,1-4.678-1.038c-1.6-.38-3.567-.8-5.177-.263a1.22,1.22,0,0,0-.692.571,2.559,2.559,0,0,0-.292-.2,9.785,9.785,0,0,1-1.649-1.036,3.181,3.181,0,0,1-.7-1.893c-.189-1.056-.367-2.118-.584-3.169-.074-.36-.162-.716-.254-1.07a.789.789,0,0,0,.706-.559,2.784,2.784,0,0,0-.634-2.366,4.135,4.135,0,0,1-.574-2.244c-.072-1.059-.172-2.113-.279-3.165a1.177,1.177,0,0,0,.131-.241.557.557,0,0,0,.887-.57,22.323,22.323,0,0,0-1.982-4.531c-.72-1.521-1.419-3.053-2.078-4.6a87.753,87.753,0,0,1-3.361-9.533,141.163,141.163,0,0,1-4.211-20.118c-.538-3.809-1.063-7.625-1.675-11.423-.058-.362-.657-.277-.638.086a197.843,197.843,0,0,0,2.219,20.689,100.1,100.1,0,0,0,3.922,16.571,1.071,1.071,0,0,0-.151.092c-.925.714-1.338,2.237-1.88,3.253-.608,1.137-1.264,2.249-1.959,3.336-1.266,1.979-2.682,4.277-4.7,5.57-2.082,1.335-4.921,1.618-7.335,1.756-1.343.078-2.688.059-4.034.032-.337-.007-.676-.011-1.016-.014-1.261-.357-2.543-.642-3.82-.875s-2.58-.421-3.878-.564a24.65,24.65,0,0,0-2.465-.212c.332-.307.673-.6,1-.918a45.721,45.721,0,0,0,4-4.348,23.664,23.664,0,0,0,3.412-5.5,34.511,34.511,0,0,0,3.869-10.011,39.537,39.537,0,0,0,1.369-11.657,27.965,27.965,0,0,0-2.468-10.47,2.568,2.568,0,0,0,.259-.087,5.385,5.385,0,0,0,.589-.259,4.805,4.805,0,0,0,1-.774,3.207,3.207,0,0,0,.435-.465c.11-.158.2-.328.318-.482.241-.321.48-.646.706-.977.186-.271-.244-.608-.459-.355a7.391,7.391,0,0,1-.787.81,3.51,3.51,0,0,1-.415.291,5.273,5.273,0,0,0-.518.417c-.145.121-.29.243-.437.362a4.974,4.974,0,0,0-.432.362c-.134.13-.26.264-.391.4-.054.056-.1.109-.155.163a19.822,19.822,0,0,0-6.428-7.282,16.673,16.673,0,0,0-10.39-3.1.586.586,0,0,0,0,1.171c6.361.311,11.477,4.776,14.288,10.216,3.2,6.191,3.049,13.589,1.452,20.207-.979,4.052-2.857,7.891-3.506,12.013a32.9,32.9,0,0,1-3.3,3.854c-1.228,1.275-2.467,2.545-3.764,3.75q-1.028.956-2.1,1.863a4.435,4.435,0,0,0-1.671,2.073.9.9,0,0,0,.863,1.132,3.775,3.775,0,0,0,2.167-1.044,13.057,13.057,0,0,0,3.229.7c1.152.167,2.3.338,3.449.552a26.752,26.752,0,0,1,6.81,2.059,8.65,8.65,0,0,1,2.524,1.741,45.08,45.08,0,0,0-5.243-1.528.743.743,0,0,0-.395,1.432c1.007.374,2.011.763,3.021,1.133a10.9,10.9,0,0,1,2.553,1.016c1.493,1.052,1.325,3.061,1.3,4.672q-.024,1.686-.189,3.367l0,.019c-.071,0-.137.01-.169.01q-.8.031-1.607.014c-1.073-.022-2.138-.124-3.2-.238-.285-.031-.569-.061-.854-.089A9.928,9.928,0,0,0,109,228.892c-.805-.321-1.376,1.029-.594,1.407a8.413,8.413,0,0,1,4.637,8.059,1.735,1.735,0,0,0-.266.055.823.823,0,0,0-.351.23,26.89,26.89,0,0,1-5.326-1.4c-2.181-.828-4.214-2-6.354-2.926a67.19,67.19,0,0,0-11.886-3.372,7.65,7.65,0,0,0-2.673-1.36C85.1,229.2,84,228.842,82.9,228.5a16.256,16.256,0,0,1-2.577-.842,2.022,2.022,0,0,1-1.053-1.988c-.086-2.134-.078-4.275-.1-6.411-.011-.98-.046-1.958-.088-2.934a3.142,3.142,0,0,0,.231.309.459.459,0,0,0,.761-.2c.324-1.516-.476-3.283-.935-4.707-.515-1.6-1.015-3.2-1.4-4.836a20.391,20.391,0,0,1-.131-10.114c.154-.558-.643-.746-.846-.233a18.257,18.257,0,0,0-.584,10.109c.32,1.759.787,3.485,1.276,5.2.089.31.174.622.262.934-.176,2.383-.371,4.756-.465,7.146-.005.131-.011.263-.016.395a5.794,5.794,0,0,0-.733-1.153,6.122,6.122,0,0,0-2.919-1.913,9.407,9.407,0,0,0-2.549-.328,1.385,1.385,0,0,0-.512-.093q-15.368.111-30.734.241c-10.174.09-20.361.287-30.536.162-1.9-.024-4.15-.1-5.682-1.378a3.346,3.346,0,0,1-1.022-3.635c.752-1.686,3.745-.909,5.125-.812q3.874.271,7.752.484c10.125.556,20.289.936,30.432.889,4.874-.024,9.9-.291,14.569-1.791.021,0,.04.005.062,0a.543.543,0,0,0,.225-.1c.292-.1.59-.183.879-.291a24.342,24.342,0,0,0,8.178-4.742c.014.078.024.157.04.234.169.8,1.289.69,1.515,0a13.2,13.2,0,0,0,.543-2.709c.142-.218.28-.438.408-.666a.67.67,0,0,0-.285-.924c.042-.827.063-1.649.1-2.441.106-2.291.236-4.583.311-6.875.115-3.553.151-7.094.164-10.641.128-1.113.253-2.225.449-3.33a43.469,43.469,0,0,1,2.135-7.926,45.726,45.726,0,0,1,5.093-9.642.525.525,0,0,0,.931.128c.627-.852,1.138-1.818,1.689-2.721s1.068-1.856,1.571-2.8c1.036-1.935,2.116-3.844,3.21-5.746,1.756-3.05,3.757-5.967,5.557-8.992.713-.889,1.43-1.774,2.113-2.686q1.953-2.6,3.944-5.178c2.7-3.473,5.483-6.882,8.4-10.174a158.909,158.909,0,0,1,18.964-17.907q5.806-4.7,12.016-8.873a1.232,1.232,0,0,0,.569-1.04,70.64,70.64,0,0,0,16.185,12.6,74.761,74.761,0,0,0,29.206,9.148.964.964,0,0,0-.007.216,8.431,8.431,0,0,0,.075.9c.052.575.1,1.15.133,1.727a33.345,33.345,0,0,1,.019,3.582,28.33,28.33,0,0,1-.954,6.944c-.243.79.922,1.069,1.212.334a29.42,29.42,0,0,0,2.145-7.4,24.969,24.969,0,0,0,.166-3.707,9.774,9.774,0,0,0-.206-2.377c1.5.1,3,.145,4.5.155a16.231,16.231,0,0,0,.068,2.966c.015,1.346-.016,2.692-.083,4.036m47.1-31.194c-.789-.853-2.387-.612-3.456-.651l-4.133-.15c-2.813-.1-5.624-.247-8.437-.337-5.627-.181-11.247-.491-16.876-.65-.763-.022-.741,1.108,0,1.171,5.564.471,11.138.792,16.7,1.242,2.754.222,5.511.392,8.266.6l4.133.317a15.868,15.868,0,0,0,2.6.217c-7.674,10.586-20.7,16.456-33.246,18.8a72.058,72.058,0,0,1-38.932-3.57,68.7,68.7,0,0,1-30.116-22.951,71.932,71.932,0,0,1-14.027-34.415c-.125-1.062-.217-2.138-.292-3.22a5.956,5.956,0,0,0,.406-2.517q.128-1.638.315-3.27.368-3.209.953-6.39c.45-2.465.96-4.932,1.522-7.386a.776.776,0,0,0,.627-.706,22.788,22.788,0,0,1,3.593-8.691,29.9,29.9,0,0,1,6.4-7.017c4.98-3.991,11.1-6.332,17.243-7.9a.892.892,0,0,0-.028.181,10.85,10.85,0,0,0,.778,2.869c.305.926.613,1.85.907,2.78.589,1.861,1.274,3.686,1.883,5.541a.358.358,0,0,0,.69-.191c-.37-1.921-.657-3.854-1.048-5.771-.195-.957-.375-1.916-.559-2.876a10.78,10.78,0,0,0-.716-2.876.934.934,0,0,0-.078-.1c1.1-.253,2.2-.479,3.311-.691a3.466,3.466,0,0,0,.38,1.511c.3.763.6,1.526.9,2.293q.82,2.145,1.573,4.316c.5,1.447.969,2.906,1.481,4.349.549,1.552,1.186,3.065,1.671,4.64a.7.7,0,0,0,1.338-.369c-.348-1.609-.58-3.235-.965-4.835-.371-1.539-.839-3.056-1.317-4.565s-.979-3.01-1.507-4.5c-.254-.72-.512-1.439-.781-2.155a5.975,5.975,0,0,0-.477-1.088A85.013,85.013,0,0,1,193.789,5.24a74.587,74.587,0,0,1,18.014,7.1c-1.166,2.1-2.126,4.343-3.3,6.432-1.481,2.632-2.965,5.257-4.358,7.938a.472.472,0,0,0,.815.476c1.616-2.55,3.14-5.151,4.67-7.755,1.216-2.069,2.67-4.025,3.9-6.091a66.928,66.928,0,0,1,13.908,10.935A66.066,66.066,0,0,1,243.172,50.7a1.244,1.244,0,0,0-.268-.077,2.476,2.476,0,0,0-1.565.644c-1.832,1.193-3.623,2.439-5.434,3.663-2.094,1.416-4.156,2.881-6.25,4.3-.652.441-.07,1.476.623,1.067,3.793-2.234,7.656-4.354,11.406-6.66a5.8,5.8,0,0,0,1.947-1.393q.616,2.213,1.064,4.472c2.407,12.179.858,25.617-5.939,36.178" transform="translate(0 0)" fill="#3b0d0d"/>
    <path id="Trazado_831713" data-name="Trazado 831713" d="M370.741,79.363c1.367-.8.089-2.985-1.242-2.125-11.324,7.32-22.807,14.4-34.2,21.61-3.211,2.033-6.47,4.044-9.512,6.324a.418.418,0,0,0,.421.721c2.99-1.49,5.84-3.252,8.716-4.949,2.926-1.727,5.824-3.5,8.738-5.251q8.672-5.2,17.285-10.487c3.243-1.983,6.517-3.915,9.793-5.844" transform="translate(-129.295 -30.593)" fill="#3b0d0d"/>
    <path id="Trazado_831714" data-name="Trazado 831714" d="M239.828,137.892a11.988,11.988,0,0,1,.339-4.55c.181-.593-.692-.8-.91-.251a13.777,13.777,0,0,0-1.1,4.88,10.086,10.086,0,0,0,.295,2.509,3.766,3.766,0,0,0,1.2,2.174.512.512,0,0,0,.749-.3,6.473,6.473,0,0,0-.266-2.333,18.965,18.965,0,0,1-.307-2.125" transform="translate(-94.573 -52.723)" fill="#3b0d0d"/>
    <path id="Trazado_831715" data-name="Trazado 831715" d="M180.412,341.062c.336-.645.54-1.346.811-2.02.255-.637.535-1.266.824-1.888a.6.6,0,0,0-.208-.794.585.585,0,0,0-.793.209c-.321.693-.6,1.391-.855,2.111q-.179.511-.339,1.028c-.051.166-.106.333-.15.5a4.174,4.174,0,0,0-.088.637.431.431,0,0,0,.8.216" transform="translate(-71.323 -133.538)" fill="#3b0d0d"/>
    <path id="Trazado_831716" data-name="Trazado 831716" d="M146.838,287.3c.089.051-.056-.042-.071-.049a.61.61,0,0,0-.239-.077,1.254,1.254,0,0,0-.383.04,3.663,3.663,0,0,0-.6.15,6.789,6.789,0,0,0-1.186.589,12,12,0,0,0-1.949,1.572.452.452,0,0,0,.545.707c.672-.412,1.388-.748,2.091-1.1.34-.171.692-.336,1.021-.526.172-.1.327-.214.489-.329a1.388,1.388,0,0,0,.32-.256.574.574,0,0,0,.091-.161c.009-.024.078-.259.041-.141a.373.373,0,0,0-.169-.416" transform="translate(-56.498 -114.032)" fill="#3b0d0d"/>
    <path id="Trazado_831717" data-name="Trazado 831717" d="M149.887,282.394c-.068,0-.136,0-.2,0a1.18,1.18,0,0,0-.269.057l-.438.125a3.9,3.9,0,0,0-.5.167l-.421.183a.464.464,0,0,0-.214.279.476.476,0,0,0,.047.359.468.468,0,0,0,.279.214.537.537,0,0,0,.359-.047l.408-.177a3.3,3.3,0,0,0,.382-.219l.377-.229a1.2,1.2,0,0,0,.225-.154c.049-.048.094-.1.141-.151a.241.241,0,0,0-.169-.407" transform="translate(-58.7 -112.137)" fill="#3b0d0d"/>
    <path id="Trazado_831718" data-name="Trazado 831718" d="M145.524,252.26c.1-.2.206-.4.326-.592s.28-.358.405-.551c.256-.4.485-.8.737-1.2.28-.443.505-.716.788-1.126q.194-.282.4-.557l.065-.087c-.034.043-.016.02.052-.068a.346.346,0,0,0,.083-.122.972.972,0,0,0,.114-.338c0,.033.028-.274.009-.133a.706.706,0,0,0-.171-.649.656.656,0,0,0-.649-.171,3.714,3.714,0,0,0-.387.15,1.386,1.386,0,0,0-.432.452q-.213.294-.414.6a11.53,11.53,0,0,0-.7,1.279,8.833,8.833,0,0,0-.583,1.381,5.061,5.061,0,0,0-.139.709c-.039.251-.117.5-.173.748-.086.385.467.662.664.28" transform="translate(-57.52 -97.938)" fill="#3b0d0d"/>
    <path id="Trazado_831719" data-name="Trazado 831719" d="M153.762,240.1a4.023,4.023,0,0,0-.462.6l-.356.579c-.245.4-.443.83-.654,1.249a.477.477,0,0,0,.824.482c.222-.441.461-.876.647-1.334q.127-.311.254-.623a2.935,2.935,0,0,0,.122-.312c.034-.122.052-.251.078-.374.051-.247-.26-.479-.453-.263" transform="translate(-60.451 -95.31)" fill="#3b0d0d"/>
    <path id="Trazado_831720" data-name="Trazado 831720" d="M186.942,323.69a.415.415,0,0,0,.5-.284,7.7,7.7,0,0,0,.4-1.538c.043-.286.076-.573.09-.862a1,1,0,0,0-.011-.287.815.815,0,0,0-.062-.161c-.083-.09-.1-.119-.061-.086a.437.437,0,0,0-.273-.28.346.346,0,0,0-.389.2c-.018.04-.034.08-.05.121l-.032.041a.687.687,0,0,0-.077.342c0,.266,0,.529-.023.795a7.194,7.194,0,0,1-.294,1.5.413.413,0,0,0,.284.5" transform="translate(-74.115 -127.144)" fill="#3b0d0d"/>
    <path id="Trazado_831721" data-name="Trazado 831721" d="M254.843,244.239c-.706-.04-.907,1.077-.98,1.587-.112.792-.2,1.586-.26,2.383a23.279,23.279,0,0,0,.264,4.555.364.364,0,0,0,.727,0c.034-1.518.271-3.045.435-4.555.084-.77.219-1.528.342-2.292.078-.484.222-1.636-.528-1.678" transform="translate(-100.692 -96.986)" fill="#3b0d0d"/>
    <path id="Trazado_831722" data-name="Trazado 831722" d="M257.283,233.615a5.771,5.771,0,0,0-.375.833c-.124.293-.235.588-.351.884a15.188,15.188,0,0,1-.752,1.612.412.412,0,0,0,.711.415,16,16,0,0,0,.854-1.685,5.068,5.068,0,0,0,.529-1.893.333.333,0,0,0-.616-.167" transform="translate(-101.558 -92.706)" fill="#3b0d0d"/>
    <path id="Trazado_831723" data-name="Trazado 831723" d="M233.315,346.248q-.449-.851-.9-1.7a.444.444,0,0,0-.6-.157.449.449,0,0,0-.157.6q.379.873.758,1.745c.124.285.251.57.376.855a2.5,2.5,0,0,0,.482.91.541.541,0,0,0,.58.11.529.529,0,0,0,.327-.485,2.66,2.66,0,0,0-.435-1.054q-.215-.412-.43-.824" transform="translate(-91.97 -136.734)" fill="#3b0d0d"/>
    <path id="Trazado_831724" data-name="Trazado 831724" d="M231.416,339.141a.219.219,0,0,0,.266-.151c.009-.033.019-.066.026-.1a.533.533,0,0,0-.014-.231c-.016-.078-.03-.157-.049-.233a2.744,2.744,0,0,0-.251-.532l-.476-.927a.4.4,0,0,0-.541-.142.406.406,0,0,0-.142.541l.469.931a2.387,2.387,0,0,0,.29.508c.051.058.1.115.154.172a.656.656,0,0,0,.268.163" transform="translate(-91.406 -133.731)" fill="#3b0d0d"/>
    <path id="Trazado_831725" data-name="Trazado 831725" d="M235.542,338.662a.488.488,0,0,0,0,.976.488.488,0,0,0,0-.976" transform="translate(-93.346 -134.482)" fill="#3b0d0d"/>
    <path id="Trazado_831726" data-name="Trazado 831726" d="M214.812,258.553a3.392,3.392,0,0,0-.362-2.32.514.514,0,0,0-.72,0c-.6.577-.494,1.56-.493,2.32a22.241,22.241,0,0,0,.122,2.495,44.556,44.556,0,0,0,.937,4.881c.119.522.859.288.784-.216a33.964,33.964,0,0,1-.262-4.843c-.005-.772-.016-1.545,0-2.317" transform="translate(-84.673 -101.691)" fill="#3b0d0d"/>
    <path id="Trazado_831727" data-name="Trazado 831727" d="M213.7,248.745q-.006-.6-.013-1.2a4.967,4.967,0,0,0-.048-.6l-.036-.277a.9.9,0,0,0-.159-.375.29.29,0,0,0-.5,0,.91.91,0,0,0-.159.375c-.013.092-.024.184-.036.277a4.961,4.961,0,0,0-.048.6q-.006.6-.013,1.2a.5.5,0,1,0,1.008,0" transform="translate(-84.457 -97.749)" fill="#3b0d0d"/>
    <path id="Trazado_831728" data-name="Trazado 831728" d="M215.97,245.376c-.037-.089-.08-.174-.122-.261a.294.294,0,0,0-.505,0c-.034.071-.068.141-.1.212a.614.614,0,0,0-.059.248c0,.02,0,.042,0,.063l0,.135c0,.184-.005.368-.008.552a.423.423,0,0,0,.846,0l-.008-.552a1.069,1.069,0,0,0-.041-.4" transform="translate(-85.445 -97.277)" fill="#3b0d0d"/>
    <path id="Trazado_831729" data-name="Trazado 831729" d="M275.341,199.985a.882.882,0,0,0-1.106.362,9.832,9.832,0,0,0-.645,1.943c-.138.535-.3,1.067-.459,1.594a6.518,6.518,0,0,1-1.276,2.561c-.4.427.137,1.228.657.851a5.985,5.985,0,0,0,1.965-2.631c.238-.559.447-1.129.674-1.694a10.807,10.807,0,0,0,.7-1.942.9.9,0,0,0-.513-1.045" transform="translate(-107.898 -79.387)" fill="#3b0d0d"/>
    <path id="Trazado_831730" data-name="Trazado 831730" d="M280.482,202.935a.334.334,0,0,0-.5-.285,1.393,1.393,0,0,0-.35.306,3.52,3.52,0,0,0-.237.388c-.132.229-.271.453-.385.69l-.713,1.478a.531.531,0,1,0,.917.537l.73-1.469c.129-.26.232-.532.341-.8.049-.121.108-.24.148-.364a1.274,1.274,0,0,0,.047-.482" transform="translate(-110.486 -80.451)" fill="#3b0d0d"/>
    <path id="Trazado_831731" data-name="Trazado 831731" d="M292.946,233.159a.28.28,0,0,0-.406-.165.883.883,0,0,0-.265.221,1.174,1.174,0,0,0-.084.126q.044-.062,0-.009l-.074.1a1.475,1.475,0,0,0-.131.327c-.033.09-.064.181-.1.271l-.368,1.03a.464.464,0,0,0,.322.567.474.474,0,0,0,.567-.322l.383-1.006a3.953,3.953,0,0,0,.184-.5.612.612,0,0,0,.011-.2c0-.048.013-.1.016-.144a.782.782,0,0,0-.054-.289" transform="translate(-115.752 -92.506)" fill="#3b0d0d"/>
    <path id="Trazado_831732" data-name="Trazado 831732" d="M296.115,224.934a.353.353,0,0,0-.35,0,1.748,1.748,0,0,0-.3.221,1.384,1.384,0,0,0-.216.336l-.3.535a.564.564,0,0,0-.055.418.554.554,0,0,0,.249.324.548.548,0,0,0,.418.055.52.52,0,0,0,.324-.25q.122-.284.243-.569l.059-.137a1.579,1.579,0,0,0,.1-.236,1.135,1.135,0,0,0,.008-.4.364.364,0,0,0-.172-.3" transform="translate(-117.093 -89.302)" fill="#3b0d0d"/>
    <path id="Trazado_831733" data-name="Trazado 831733" d="M204.341,208.7a.538.538,0,0,0,.531-.531,12.5,12.5,0,0,1,.012-1.66q.015-.2.036-.4c.008-.072.016-.143.025-.214l0-.022s.007-.051.022-.162a.865.865,0,0,0-.021-.209c0,.036,0,.034,0,0,0-.071.008-.142,0-.213a1.009,1.009,0,0,0-.137-.476.343.343,0,0,0-.467-.122.993.993,0,0,0-.3.353,1.961,1.961,0,0,0-.1.279c-.006.014-.06.162-.077.2a2.641,2.641,0,0,0-.064.493c-.013.142-.023.286-.031.429a12.525,12.525,0,0,0,.028,1.721.542.542,0,0,0,.531.531" transform="translate(-80.914 -81.259)" fill="#3b0d0d"/>
    <path id="Trazado_831734" data-name="Trazado 831734" d="M203.946,206.091c0-.007,0-.014,0-.021-.012.039-.011.039,0,.021" transform="translate(-80.984 -81.83)" fill="#3b0d0d"/>
    <path id="Trazado_831735" data-name="Trazado 831735" d="M207.837,206.978a.3.3,0,0,0-.489-.129c-.048.045-.1.09-.143.136a.837.837,0,0,0-.171.321c-.05.133-.1.269-.142.4l-.284.825a.443.443,0,0,0,.307.54.449.449,0,0,0,.54-.307l.26-.831c.042-.136.086-.273.124-.409.008-.031.018-.061.025-.092a.625.625,0,0,0,0-.276c-.01-.061-.021-.122-.032-.183" transform="translate(-82.036 -82.107)" fill="#3b0d0d"/>
    <path id="Trazado_831736" data-name="Trazado 831736" d="M233.021,180.074a.324.324,0,0,0,.388-.05,1.9,1.9,0,0,0,.34-1.409c-.024-.467-.055-.934-.071-1.4-.032-.97-.075-1.94-.071-2.911a.526.526,0,1,0-1.051,0,26.488,26.488,0,0,0-.159,2.965c.007.484.008.972.052,1.455a1.782,1.782,0,0,0,.573,1.352" transform="translate(-92.283 -69.006)" fill="#3b0d0d"/>
    <path id="Trazado_831737" data-name="Trazado 831737" d="M237.821,176.624a.589.589,0,0,0-.58.58c.021.591.03,1.183.087,1.771a.536.536,0,0,0,.144.349.494.494,0,0,0,.842-.349c.057-.588.066-1.18.087-1.771a.585.585,0,0,0-.58-.58" transform="translate(-94.208 -70.137)" fill="#3b0d0d"/>
    <path id="Trazado_831738" data-name="Trazado 831738" d="M281.383,287.018c-.087-.21-.172-.421-.247-.636-.036-.1-.071-.21-.1-.317-.017-.058-.032-.117-.046-.176,0-.017,0-.021-.006-.025l0-.037c-.008-.1-.015-.209-.014-.314,0-.058,0-.116.007-.174a.115.115,0,0,1,0-.021,1.645,1.645,0,0,0,.087-.956,1.054,1.054,0,0,0-.08-.153.521.521,0,0,0,.324.12.543.543,0,0,0,.537-.537c-.03-.4-.068-.785-.131-1.177-.028-.175-.043-.359-.086-.531a4.42,4.42,0,0,0-.174-.506.347.347,0,0,0-.324-.247.34.34,0,0,0-.324.247c-.034.168-.06.336-.083.506a4.318,4.318,0,0,0-.014.625c0,.18,0,.362.013.542s.033.361.05.541a.709.709,0,0,0,.063.234.7.7,0,0,0-.915-.13,1.2,1.2,0,0,0-.5,1.093,3.484,3.484,0,0,0,.1.789,8.243,8.243,0,0,0,.526,1.431c.2.445.433.876.621,1.326a11.212,11.212,0,0,0,.595,1.325.361.361,0,0,0,.618,0,1.735,1.735,0,0,0,.175-.734,2.784,2.784,0,0,0-.135-.745c-.144-.466-.35-.912-.537-1.362" transform="translate(-110.956 -111.716)" fill="#3b0d0d"/>
    <path id="Trazado_831739" data-name="Trazado 831739" d="M279.125,261.881a.8.8,0,0,0-.332.333l-.1.144-.054.083c.031-.038.028-.034-.008.011a3.2,3.2,0,0,0-.355.692c-.194.44-.383.881-.574,1.323a.455.455,0,0,0,.786.459c.232-.427.467-.852.7-1.281a3.71,3.71,0,0,0,.344-.725c.03-.11.066-.217.1-.325a1.582,1.582,0,0,0,.057-.186.658.658,0,0,0-.018-.3.379.379,0,0,0-.549-.224" transform="translate(-110.256 -103.976)" fill="#3b0d0d"/>
    <path id="Trazado_831740" data-name="Trazado 831740" d="M282.423,252.539a.689.689,0,0,0,0,1.376.689.689,0,0,0,0-1.376" transform="translate(-111.885 -100.283)" fill="#3b0d0d"/>
    <path id="Trazado_831741" data-name="Trazado 831741" d="M117.428,291.818a.035.035,0,0,0,0,.069.035.035,0,0,0,0-.069" transform="translate(-46.617 -115.88)" fill="#3b0d0d"/>
    <path id="Trazado_831742" data-name="Trazado 831742" d="M132.629,339.073c-.027-.416-.034-.834-.021-1.25a5.112,5.112,0,0,0-.069-1.419.644.644,0,0,0-1.165-.153,2.438,2.438,0,0,0-.236.8,5.842,5.842,0,0,0-.025.673,13.636,13.636,0,0,0,.095,1.395,12.015,12.015,0,0,0,.231,1.42,3.333,3.333,0,0,0,.255.688,2.739,2.739,0,0,0,.154.284c.072.109.176.181.252.284a.345.345,0,0,0,.636-.172c.016-.22.072-.426.075-.652a4.817,4.817,0,0,0-.055-.745c-.057-.384-.1-.767-.127-1.155" transform="translate(-52.064 -133.401)" fill="#3b0d0d"/>
    <path id="Trazado_831743" data-name="Trazado 831743" d="M134.252,329.667c-.01-.1-.019-.209-.033-.313a2.058,2.058,0,0,0-.1-.373.23.23,0,0,0-.439,0,2.024,2.024,0,0,0-.1.373c-.013.1-.022.209-.033.313-.023.225-.045.452-.068.677-.045.45-.031.9-.031,1.355a.455.455,0,1,0,.91,0,13.538,13.538,0,0,0-.032-1.355c-.022-.225-.045-.452-.068-.677" transform="translate(-52.988 -130.573)" fill="#3b0d0d"/>
    <path id="Trazado_831744" data-name="Trazado 831744" d="M399.381,120.941c-.848.815-.74,2.6-.917,3.7q-.335,2.085-.872,4.132a78.018,78.018,0,0,1-2.652,7.972c-.143.374.425.577.624.263a29.607,29.607,0,0,0,3.44-7.846,41.209,41.209,0,0,0,.947-4.111c.2-1.111.778-3.036.043-4.033a.4.4,0,0,0-.613-.079" transform="translate(-156.821 -47.981)" fill="#3b0d0d"/>
    <path id="Trazado_831745" data-name="Trazado 831745" d="M402.667,111.786a.541.541,0,0,0,.531-.531c0-.311.024-.627.008-.938-.008-.151-.017-.3-.026-.452a.87.87,0,0,0-.089-.422,1.026,1.026,0,0,0-.171-.213.365.365,0,0,0-.506,0,.963.963,0,0,0-.172.213.892.892,0,0,0-.089.422c-.008.151-.018.3-.026.452-.016.31,0,.626.008.938a.538.538,0,0,0,.531.531" transform="translate(-159.682 -43.335)" fill="#3b0d0d"/>
    <path id="Trazado_831746" data-name="Trazado 831746" d="M220.247,332.614a36.957,36.957,0,0,0-1.864-6.521,24.5,24.5,0,0,1-1.385-6.8.785.785,0,0,0-.669-.741c0-.019,0-.038-.007-.057-.078-.506-.825-.346-.851.115-.012.208-.021.417-.03.625-1.2,4.273-2.781,8.459-4.182,12.668a6.884,6.884,0,0,0-.336,3.925.391.391,0,0,0-.341.22.944.944,0,0,0,.191,1.008c.2.292.407.587.614.878.093.131.192.259.286.39a.527.527,0,0,0-.031.137.343.343,0,0,0-.191.4,38.433,38.433,0,0,1,.771,3.882,17.381,17.381,0,0,1,.159,1.864,3.585,3.585,0,0,0,.171,1.74.851.851,0,0,0,.9.385,1.045,1.045,0,0,0,.366-.169.9.9,0,0,0,.616-.239,13.642,13.642,0,0,0,3.1-4.3,1.156,1.156,0,0,0,.093-.643c2.422-2.086,3.076-5.65,2.624-8.762" transform="translate(-83.589 -126.349)" fill="#f5dfad"/>
    <path id="Trazado_831747" data-name="Trazado 831747" d="M216.819,316.74a11.343,11.343,0,0,0-.914,2.686c-.283.959-.446,1.953-.742,2.908a50.283,50.283,0,0,1-2.169,5.6c-.188.42.424.791.626.366.862-1.811,1.613-3.667,2.371-5.522.381-.932.848-1.832,1.153-2.794a9.315,9.315,0,0,0,.684-2.969.546.546,0,0,0-1.009-.273" transform="translate(-84.566 -125.673)" fill="#3b0d0d"/>
    <path id="Trazado_831748" data-name="Trazado 831748" d="M210.674,342.681a.279.279,0,0,0-.273.273,4.6,4.6,0,0,1-.311,1.237c-.159.4-.351.783-.471,1.194-.038.13.122.271.242.186a3.344,3.344,0,0,0,1.086-2.618.276.276,0,0,0-.273-.273" transform="translate(-83.237 -136.078)" fill="#3b0d0d"/>
    <path id="Trazado_831749" data-name="Trazado 831749" d="M217.044,346.129l-.214-.362a.371.371,0,0,0-.321-.185l-.1.013a.368.368,0,0,0-.165.1.281.281,0,0,0-.077.119.274.274,0,0,0-.032.143.376.376,0,0,0,.184.321l.363.215.063.027a.194.194,0,0,0,.1,0,.135.135,0,0,0,.067-.017.2.2,0,0,0,.085-.055l.041-.053.027-.063a.2.2,0,0,0,0-.1.2.2,0,0,0-.031-.1" transform="translate(-85.827 -137.23)" fill="#e6a586"/>
    <path id="Trazado_831750" data-name="Trazado 831750" d="M221.224,346.228a.6.6,0,0,0,0,1.2.6.6,0,0,0,0-1.2" transform="translate(-87.618 -137.486)" fill="#e6a586"/>
    <path id="Trazado_831751" data-name="Trazado 831751" d="M223.183,333.658a.4.4,0,0,0-.394-.1.487.487,0,0,0-.336.373l-.061.229-.123.456c-.041.152-.086.3-.123.456a1.308,1.308,0,0,0-.06.538l0,.034a.356.356,0,0,0,.658.178l.018-.028a1.278,1.278,0,0,0,.218-.491c.045-.151.082-.3.123-.456l.123-.456.061-.229a.489.489,0,0,0-.1-.5" transform="translate(-88.185 -132.447)" fill="#e6a586"/>
    <path id="Trazado_831752" data-name="Trazado 831752" d="M212.588,352.524a5.278,5.278,0,0,0-.116-.721,3.926,3.926,0,0,0-.6-1.292.339.339,0,1,0-.585.342,5.453,5.453,0,0,1,.388,1.168,3.142,3.142,0,0,1,.086.547c.022.288.008.578.262.767l-.116-.116a.828.828,0,0,0,.1.14.248.248,0,0,0,.342,0,.756.756,0,0,0,.115-.14l-.116.116a.808.808,0,0,0,.234-.811" transform="translate(-83.887 -139.121)" fill="#3b0d0d"/>
    <path id="Trazado_831753" data-name="Trazado 831753" d="M215.116,362.425a2.47,2.47,0,0,1-.2-.194c-.034-.036-.067-.073-.1-.111l-.033-.042-.048-.062c-.033-.036-.073-.065-.109-.1-.016-.014-.032-.029-.047-.043l-.015-.016-.025-.038-.033-.057c-.025-.043-.048-.087-.07-.131l-.029-.059s-.005-.013-.01-.023-.013-.03-.014-.034c-.01-.026-.019-.052-.027-.078a2.407,2.407,0,0,1-.069-.272c0-.022-.008-.043-.012-.065l0-.032-.006-.052c0-.022,0-.044,0-.066a2.586,2.586,0,0,1,0-.3.337.337,0,0,0-.294-.333h-.011a1.075,1.075,0,0,0,.121-.511c-.012-.171-.037-.339-.06-.509a3.334,3.334,0,0,0-.074-.408l-.116-.428a.406.406,0,0,0-.8.107v.444a3.261,3.261,0,0,0,.036.412c.021.17.042.339.075.508a1.1,1.1,0,0,0,.273.491.3.3,0,0,0,.2.087.225.225,0,0,0-.021.049,3.076,3.076,0,0,0-.031.476.239.239,0,0,0-.042.006.466.466,0,0,0-.327.327q-.03.2-.052.4a1.2,1.2,0,0,0,.042.421,1.676,1.676,0,0,0,.365.712,1.283,1.283,0,0,0,1.341.4.552.552,0,0,0,.37-.371.524.524,0,0,0-.136-.516" transform="translate(-84.591 -142.228)" fill="#3b0d0d"/>
  </g>
</svg>
