<svg xmlns="http://www.w3.org/2000/svg" width="62" height="62" viewBox="0 0 62 62">
  <g id="Grupo_1082868" data-name="Grupo 1082868" transform="translate(-272.999 -14993.111)">
    <g id="Grupo_1015238" data-name="Grupo 1015238" transform="translate(-0.002 2087.11)">
      <g id="Grupo_1014856" data-name="Grupo 1014856" transform="translate(-111.999 10848)">
        <path id="Unión_12" data-name="Unión 12" d="M31,0A31,31,0,1,1,0,31,31,31,0,0,1,31,0Z" transform="translate(384.999 2058)" fill="#cadeb4"/>
      </g>
    </g>
    <g id="Grupo_1082669" data-name="Grupo 1082669" transform="translate(76.921 14851.319)">
      <path id="Trazado_832621" data-name="Trazado 832621" d="M404.668,222.724c-.207.042-.32.054-.425.088a1.063,1.063,0,0,0-.747,1.121,1.083,1.083,0,0,0,.99,1,10.222,10.222,0,0,1,7.622,6.043,21.977,21.977,0,0,1,.791,2.523,1.088,1.088,0,0,0,2.108-.539,12.473,12.473,0,0,0-8.369-9.716A19.735,19.735,0,0,0,404.668,222.724Z" transform="translate(-175.62 -61.229)" fill="#fff"/>
      <path id="Trazado_832622" data-name="Trazado 832622" d="M234.923,212.032c-.661-.111-1.328-.2-1.982-.339a25.653,25.653,0,0,1-6.96-2.848,37.122,37.122,0,0,1-9.145-7.176,36.179,36.179,0,0,1-7.639-11.875,15.578,15.578,0,0,1-1.117-5.087,6.133,6.133,0,0,1,1.676-4.686c1.012-1.033,1.989-2.11,3.079-3.056a3.511,3.511,0,0,1,5.141.071c1.718,1.611,3.368,3.3,4.973,5.025a3.41,3.41,0,0,1,.017,4.643c-.849.961-1.786,1.845-2.685,2.761-.078.08-.167.149-.315.28a26.109,26.109,0,0,0,10.3,10.289c.741-.75,1.439-1.461,2.142-2.167a5.406,5.406,0,0,1,1.939-1.431,3.236,3.236,0,0,1,3.525.63q2.7,2.564,5.253,5.273a3.444,3.444,0,0,1,.093,4.6c-1.1,1.27-2.3,2.462-3.5,3.631a5.367,5.367,0,0,1-3.123,1.4,1.727,1.727,0,0,0-.248.07Zm.535-2.176a4.122,4.122,0,0,0,3.208-1.264c.81-.847,1.639-1.677,2.457-2.516.1-.107.2-.219.3-.336a1.475,1.475,0,0,0-.042-2.124c-.659-.715-1.36-1.391-2.046-2.081-.889-.893-1.774-1.79-2.677-2.668a1.427,1.427,0,0,0-2.106-.055c-.133.113-.256.238-.38.361-.857.854-1.707,1.715-2.57,2.563a1.638,1.638,0,0,1-2.052.34c-.522-.264-1.046-.529-1.549-.828a26.85,26.85,0,0,1-5.994-4.977,21.587,21.587,0,0,1-3.961-5.635,1.83,1.83,0,0,1,.483-2.535c.912-.886,1.826-1.772,2.7-2.7a1.379,1.379,0,0,0,.031-2.019,4.844,4.844,0,0,0-.328-.359q-2.113-2.12-4.23-4.238a1.608,1.608,0,0,0-2.622-.022c-.87.858-1.757,1.7-2.583,2.6a4.849,4.849,0,0,0-.951,1.452,6.145,6.145,0,0,0-.08,3.54,21.452,21.452,0,0,0,1.879,5.184,35.41,35.41,0,0,0,5.5,7.982,34.574,34.574,0,0,0,13.83,9.548A12.6,12.6,0,0,0,235.459,209.856Z" transform="translate(0 -19.13)" fill="#707070"/>
      <path id="Trazado_832623" data-name="Trazado 832623" d="M424.648,171.788c-.009.009-.023.015-.027.026-.232.642-.608.956-1.109.924-.609-.039-.969-.389-1.1-1.118a18.456,18.456,0,0,0-11.227-13.765,36.664,36.664,0,0,0-3.754-1.1,1.133,1.133,0,0,1-.956-1.326,1.114,1.114,0,0,1,1.416-.8,20.37,20.37,0,0,1,8.3,3.5,20.714,20.714,0,0,1,8.388,13.2,2.242,2.242,0,0,0,.076.248Z" transform="translate(-178.271 0)" fill="#707070"/>
      <path id="Trazado_832624" data-name="Trazado 832624" d="M404.668,222.724a19.735,19.735,0,0,1,1.971.521,12.473,12.473,0,0,1,8.369,9.716,1.088,1.088,0,0,1-2.108.539,21.977,21.977,0,0,0-.791-2.523,10.222,10.222,0,0,0-7.622-6.043,1.083,1.083,0,0,1-.99-1,1.063,1.063,0,0,1,.747-1.121C404.349,222.778,404.461,222.766,404.668,222.724Z" transform="translate(-175.62 -61.229)" fill="#707070"/>
      <path id="Trazado_832625" data-name="Trazado 832625" d="M254.688,229.57a12.6,12.6,0,0,1-3.783-.78,34.574,34.574,0,0,1-13.83-9.548,35.409,35.409,0,0,1-5.5-7.982,21.452,21.452,0,0,1-1.879-5.184,6.145,6.145,0,0,1,.08-3.54,4.848,4.848,0,0,1,.951-1.452c.826-.9,1.712-1.744,2.583-2.6a1.608,1.608,0,0,1,2.622.022q2.118,2.115,4.23,4.238a4.841,4.841,0,0,1,.328.359,1.379,1.379,0,0,1-.031,2.019c-.874.924-1.788,1.809-2.7,2.7a1.83,1.83,0,0,0-.483,2.535,21.587,21.587,0,0,0,3.961,5.635,26.849,26.849,0,0,0,5.994,4.977c.5.3,1.026.564,1.549.828a1.638,1.638,0,0,0,2.052-.34c.863-.848,1.713-1.709,2.57-2.563.124-.123.247-.248.38-.361a1.427,1.427,0,0,1,2.106.055c.9.878,1.788,1.776,2.677,2.668.687.689,1.387,1.366,2.046,2.081a1.475,1.475,0,0,1,.042,2.124c-.093.117-.193.229-.3.336-.819.839-1.647,1.669-2.457,2.516A4.122,4.122,0,0,1,254.688,229.57Z" transform="translate(-19.229 -38.844)" fill="#fff"/>
    </g>
  </g>
</svg>
