<svg xmlns="http://www.w3.org/2000/svg" xmlns:xlink="http://www.w3.org/1999/xlink" width="62" height="62" viewBox="0 0 62 62">
  <defs>
    <clipPath id="clip-path">
      <rect id="Rectángulo_384142" data-name="Rectángulo 384142" width="41.7" height="41.626" fill="none"/>
    </clipPath>
  </defs>
  <g id="Grupo_1082863" data-name="Grupo 1082863" transform="translate(-354.001 -6207.86)">
    <g id="Grupo_1082224" data-name="Grupo 1082224" transform="translate(81.001 -6698.141)">
      <g id="Grupo_1014856" data-name="Grupo 1014856" transform="translate(-111.999 10848)">
        <path id="Unión_12" data-name="Unión 12" d="M31,0A31,31,0,1,1,0,31,31,31,0,0,1,31,0Z" transform="translate(384.999 2058)" fill="#cadeb4"/>
      </g>
    </g>
    <g id="Grupo_1082227" data-name="Grupo 1082227" transform="translate(364.651 6217.047)">
      <rect id="Rectángulo_384141" data-name="Rectángulo 384141" width="34.616" height="24.288" transform="translate(3.855 15.893)" fill="#fff"/>
      <g id="Grupo_1082149" data-name="Grupo 1082149">
        <g id="Grupo_1082148" data-name="Grupo 1082148" clip-path="url(#clip-path)">
          <path id="Trazado_831800" data-name="Trazado 831800" d="M0,0H11.452A2.178,2.178,0,0,0,9.9,2.485c.031.384,0,.773,0,1.177-.561,0-1.062,0-1.562,0a1.958,1.958,0,0,0-2.1,2.076c0,1.45,0,2.9,0,4.349v.419a4.236,4.236,0,0,0-3.633,4.576q0,12.276,0,24.551a1.745,1.745,0,0,0,1.991,1.992h32.4a1.741,1.741,0,0,0,1.981-1.962q0-5.223,0-10.446a2.061,2.061,0,0,0-.031-.444.595.595,0,0,0-1.175.064,3.945,3.945,0,0,0-.012.446q0,5.182,0,10.365c0,.639-.12.758-.759.758H4.61c-.661,0-.774-.114-.774-.783q0-11.645,0-23.291c0-.145.012-.29.018-.439H37.771V16.4q0,3.7,0,7.4c0,.745-.007,1.491.006,2.236a.6.6,0,0,0,.565.625.623.623,0,0,0,.641-.6,1.665,1.665,0,0,0,.006-.2c0-3.672.007-7.344,0-11.015a4.127,4.127,0,0,0-2.128-3.772,11.578,11.578,0,0,0-1.5-.619v-.38c0-1.368-.009-2.737.006-4.105a1.107,1.107,0,0,0-.358-.861c-1.6-1.583-3.184-3.178-4.776-4.767-.123-.123-.266-.226-.4-.339H41.7M21.414,26.631h.535q2.134,0,4.267,0a2.227,2.227,0,0,0,.444-.027.594.594,0,0,0-.009-1.168,2.273,2.273,0,0,0-.4-.022q-2.256,0-4.511,0a1.343,1.343,0,0,0-1.541,1.538q0,4.856,0,9.712A1.346,1.346,0,0,0,21.742,38.2H34.178a1.362,1.362,0,0,0,1.566-1.566q0-4.836,0-9.671a1.347,1.347,0,0,0-1.535-1.551q-2.276,0-4.552,0a1.9,1.9,0,0,0-.4.027.505.505,0,0,0-.452.577,1.121,1.121,0,0,0,.425.564c.105.084.313.048.474.049,1.45,0,2.9.012,4.349-.006.359,0,.488.076.486.467-.017,3.142-.009,6.285-.01,9.427,0,.144-.016.288-.026.463h-.442c-4.051,0-8.1-.005-12.152.009-.389,0-.5-.1-.5-.494.016-3.129.009-6.258.009-9.387Zm6.5,2.408h3.492c.311,0,.624.011.933-.013a.539.539,0,0,0,.526-.523.556.556,0,0,0-.433-.644,1.625,1.625,0,0,0-.441-.038q-3.228,0-6.457,0c-.609,0-1.219-.011-1.827,0a.6.6,0,0,0-.63.781.622.622,0,0,0,.693.435c1.381,0,2.761,0,4.142,0M28,30.075q-2.091,0-4.183,0c-.492,0-.751.207-.76.59s.266.627.771.627q4.142,0,8.284,0c.475,0,.757-.227.766-.6.01-.391-.271-.618-.778-.619q-2.051,0-4.1,0m-.071,3.456h4.019c.637,0,.918-.18.929-.59.011-.427-.288-.629-.938-.629q-3.978,0-7.957,0a1.891,1.891,0,0,0-.522.05.6.6,0,0,0,.047,1.139,2.077,2.077,0,0,0,.444.028q1.989,0,3.979,0m.042,2.247q2.071,0,4.142,0c.485,0,.755-.214.765-.591s-.278-.626-.776-.627q-4.142,0-8.285,0c-.484,0-.752.218-.76.6-.008.4.262.619.772.62q2.071,0,4.142,0" fill="#fff"/>
          <path id="Trazado_831801" data-name="Trazado 831801" d="M51.3,0c.134.112.277.216.4.339,1.593,1.588,3.179,3.183,4.776,4.767a1.107,1.107,0,0,1,.358.861c-.015,1.368-.006,2.737-.006,4.105v.38a11.566,11.566,0,0,1,1.5.619,4.127,4.127,0,0,1,2.128,3.772c.01,3.672,0,7.344,0,11.016a1.684,1.684,0,0,1-.006.2.623.623,0,0,1-.642.6.6.6,0,0,1-.565-.625c-.013-.745-.006-1.49-.006-2.236q0-3.7,0-7.4v-.509H25.33c-.007.149-.018.294-.018.439q0,11.645,0,23.291c0,.669.113.783.774.783h32.4c.639,0,.759-.118.759-.757q0-5.183,0-10.365a3.945,3.945,0,0,1,.012-.446.595.595,0,0,1,1.175-.064,2.061,2.061,0,0,1,.031.444q0,5.223,0,10.446a1.741,1.741,0,0,1-1.981,1.962h-32.4a1.746,1.746,0,0,1-1.991-1.992q0-12.276,0-24.551a4.236,4.236,0,0,1,3.633-4.576v-.419c0-1.45,0-2.9,0-4.349a1.958,1.958,0,0,1,2.1-2.076c.5,0,1,0,1.562,0,0-.4.026-.793,0-1.177A2.178,2.178,0,0,1,32.927,0ZM28.943,14.614H51.926V9.99c-1.03,0-2.031,0-3.033,0a1.968,1.968,0,0,1-2.05-2.048c-.006-.488,0-.975,0-1.463v-1.6h-.333q-8.333,0-16.667,0c-.642,0-.9.265-.9.926q0,2.845,0,5.69v3.116M32.6,3.661h.517q7.051,0,14.1-.005A1.074,1.074,0,0,1,48.05,4q2.376,2.394,4.771,4.769a1.107,1.107,0,0,1,.36.86c-.014,1.517-.006,3.034-.006,4.551v.439h2.412V6.331c-1.014,0-2,.006-2.988,0a1.977,1.977,0,0,1-2.1-2.086c0-.474,0-.948,0-1.422V1.22H33.6c-.081,0-.163,0-.244,0a.725.725,0,0,0-.744.749c-.015.541,0,1.083,0,1.691M25.343,14.614H27.7V11.8a2.834,2.834,0,0,0-2.36,2.811m33.871.014a2.853,2.853,0,0,0-2.354-2.794v2.794ZM51.722,2.211c0,.7-.009,1.406,0,2.107a.693.693,0,0,0,.632.766c.76.036,1.523.01,2.251.01L51.722,2.211M48.068,5.835c0,.761-.015,1.5.007,2.236a.639.639,0,0,0,.593.669c.771.04,1.545.012,2.317.012L48.068,5.835" transform="translate(-21.475)" fill="#707070"/>
          <path id="Trazado_831802" data-name="Trazado 831802" d="M187.166,235.219v.479c0,3.129.007,6.258-.009,9.387,0,.392.109.5.5.494,4.051-.014,8.1-.009,12.152-.009h.442c.01-.176.026-.32.026-.463,0-3.142-.006-6.285.01-9.427,0-.391-.127-.471-.486-.467-1.449.018-2.9.008-4.349.006-.161,0-.369.035-.474-.049a1.122,1.122,0,0,1-.425-.564.505.505,0,0,1,.452-.577,1.9,1.9,0,0,1,.4-.027q2.276,0,4.552,0a1.347,1.347,0,0,1,1.535,1.551q0,4.836,0,9.671a1.362,1.362,0,0,1-1.566,1.566H187.494a1.347,1.347,0,0,1-1.547-1.538q0-4.856,0-9.712A1.344,1.344,0,0,1,187.488,234q2.256,0,4.511,0a2.272,2.272,0,0,1,.4.022.594.594,0,0,1,.009,1.168,2.236,2.236,0,0,1-.444.027q-2.134,0-4.268,0h-.535" transform="translate(-165.752 -208.588)" fill="#707070"/>
          <path id="Trazado_831803" data-name="Trazado 831803" d="M217.144,257.37c-1.381,0-2.761,0-4.142,0a.622.622,0,0,1-.693-.435.6.6,0,0,1,.63-.781c.609-.016,1.218,0,1.827,0q3.228,0,6.457,0a1.623,1.623,0,0,1,.441.038.556.556,0,0,1,.433.644.539.539,0,0,1-.526.523c-.31.024-.622.012-.933.013h-3.492" transform="translate(-189.227 -228.331)" fill="#707070"/>
          <path id="Trazado_831804" data-name="Trazado 831804" d="M217.28,276.947q2.051,0,4.1,0c.506,0,.787.229.778.619-.01.371-.291.6-.766.6q-4.142,0-8.284,0c-.5,0-.779-.23-.771-.627s.268-.589.759-.59q2.091,0,4.183,0" transform="translate(-189.279 -246.872)" fill="#707070"/>
          <path id="Trazado_831805" data-name="Trazado 831805" d="M217.222,298.766q-1.989,0-3.979,0a2.08,2.08,0,0,1-.444-.028.6.6,0,0,1-.047-1.139,1.883,1.883,0,0,1,.522-.049q3.979,0,7.957,0c.65,0,.949.2.938.629-.011.41-.292.59-.929.59h-4.019" transform="translate(-189.292 -265.235)" fill="#707070"/>
          <path id="Trazado_831806" data-name="Trazado 831806" d="M217.246,319.458q-2.071,0-4.142,0c-.51,0-.78-.222-.772-.62.008-.38.276-.6.76-.6q4.142,0,8.285,0c.5,0,.786.238.776.627s-.28.59-.765.591q-2.071,0-4.142,0" transform="translate(-189.274 -283.679)" fill="#707070"/>
          <path id="Trazado_831807" data-name="Trazado 831807" d="M68.772,54.679V51.564q0-2.845,0-5.69c0-.661.256-.926.9-.926q8.333,0,16.667,0h.333c0,.551,0,1.074,0,1.6,0,.488,0,.975,0,1.463a1.968,1.968,0,0,0,2.05,2.048c1,.006,2,0,3.033,0v4.624Zm11.181-2.446H71.906a3.28,3.28,0,0,0-.446.016.542.542,0,0,0-.509.539.55.55,0,0,0,.452.629,1.9,1.9,0,0,0,.443.034q8.087,0,16.175,0a1.962,1.962,0,0,0,.443-.035.551.551,0,0,0,.459-.588.558.558,0,0,0-.517-.579,3.145,3.145,0,0,0-.446-.016H79.953M78.57,51.2h6.79a1.839,1.839,0,0,0,.4-.016A.6.6,0,0,0,85.751,50a1.548,1.548,0,0,0-.324-.011H71.766a1.467,1.467,0,0,0-.324.013.605.605,0,0,0-.025,1.185,1.587,1.587,0,0,0,.4.02H78.57" transform="translate(-61.304 -40.066)" fill="#fff"/>
          <path id="Trazado_831808" data-name="Trazado 831808" d="M102.447,13.665c0-.609-.011-1.15,0-1.691a.725.725,0,0,1,.744-.749c.081,0,.163,0,.244,0h16.906v1.6c0,.474,0,.948,0,1.422a1.977,1.977,0,0,0,2.1,2.085c.987.007,1.974,0,2.988,0v8.283h-2.412v-.439c0-1.517-.008-3.034.006-4.551a1.108,1.108,0,0,0-.36-.86q-2.4-2.374-4.771-4.769a1.074,1.074,0,0,0-.827-.34q-7.051.012-14.1.005Z" transform="translate(-91.318 -10.003)" fill="#fff"/>
          <path id="Trazado_831809" data-name="Trazado 831809" d="M35.6,111.5a2.834,2.834,0,0,1,2.36-2.811V111.5Z" transform="translate(-31.731 -96.891)" fill="#fff"/>
          <path id="Trazado_831810" data-name="Trazado 831810" d="M328.2,111.774h-2.354V108.98a2.853,2.853,0,0,1,2.354,2.794" transform="translate(-290.458 -97.145)" fill="#fff"/>
          <path id="Trazado_831811" data-name="Trazado 831811" d="M278.509,20.362l2.886,2.884c-.728,0-1.491.025-2.251-.01a.693.693,0,0,1-.632-.766c-.012-.7,0-1.4,0-2.107" transform="translate(-248.262 -18.151)" fill="#fff"/>
          <path id="Trazado_831812" data-name="Trazado 831812" d="M244.843,53.73l2.916,2.917c-.772,0-1.546.028-2.317-.012a.639.639,0,0,1-.593-.669c-.022-.737-.007-1.474-.007-2.236" transform="translate(-218.25 -47.895)" fill="#fff"/>
          <path id="Trazado_831813" data-name="Trazado 831813" d="M97.82,112.051h8.006a3.18,3.18,0,0,1,.446.016.558.558,0,0,1,.517.579.551.551,0,0,1-.459.588,1.956,1.956,0,0,1-.443.035q-8.088,0-16.175,0a1.9,1.9,0,0,1-.443-.034.55.55,0,0,1-.452-.629.541.541,0,0,1,.509-.539,3.283,3.283,0,0,1,.446-.016H97.82" transform="translate(-79.171 -99.883)" fill="#707070"/>
          <path id="Trazado_831814" data-name="Trazado 831814" d="M96.432,92.534H89.683a1.587,1.587,0,0,1-.4-.02.605.605,0,0,1,.025-1.185,1.467,1.467,0,0,1,.324-.013h13.661a1.548,1.548,0,0,1,.324.011.6.6,0,0,1,.014,1.192,1.84,1.84,0,0,1-.4.016h-6.79" transform="translate(-79.165 -81.396)" fill="#707070"/>
        </g>
      </g>
    </g>
  </g>
</svg>
