<svg id="Grupo_1082176" data-name="Grupo 1082176" xmlns="http://www.w3.org/2000/svg" xmlns:xlink="http://www.w3.org/1999/xlink" width="400" height="306.348" viewBox="0 0 400 306.348">
  <defs>
    <clipPath id="clip-path">
      <rect id="Rectángulo_384123" data-name="Rectángulo 384123" width="400" height="306.348" fill="none"/>
    </clipPath>
    <clipPath id="clip-path-2">
      <rect id="Rectángulo_384112" data-name="Rectángulo 384112" width="294.126" height="294.127" fill="none"/>
    </clipPath>
    <clipPath id="clip-path-3">
      <rect id="Rectángulo_384092" data-name="Rectángulo 384092" width="85.659" height="18.436" fill="none"/>
    </clipPath>
    <clipPath id="clip-path-4">
      <rect id="Rectángulo_384093" data-name="Rectángulo 384093" width="86.397" height="22.036" fill="none"/>
    </clipPath>
    <clipPath id="clip-path-5">
      <rect id="Rectángulo_384094" data-name="Rectángulo 384094" width="75.681" height="7.34" fill="none"/>
    </clipPath>
    <clipPath id="clip-path-6">
      <rect id="Rectángulo_384095" data-name="Rectángulo 384095" width="48.154" height="4.67" fill="none"/>
    </clipPath>
    <clipPath id="clip-path-7">
      <rect id="Rectángulo_384096" data-name="Rectángulo 384096" width="63.362" height="6.145" fill="none"/>
    </clipPath>
    <clipPath id="clip-path-8">
      <rect id="Rectángulo_384097" data-name="Rectángulo 384097" width="79.792" height="9.629" fill="none"/>
    </clipPath>
    <clipPath id="clip-path-9">
      <rect id="Rectángulo_384098" data-name="Rectángulo 384098" width="20.302" height="39.848" fill="none"/>
    </clipPath>
    <clipPath id="clip-path-10">
      <rect id="Rectángulo_384099" data-name="Rectángulo 384099" width="18.908" height="55.665" fill="none"/>
    </clipPath>
    <clipPath id="clip-path-11">
      <rect id="Rectángulo_384100" data-name="Rectángulo 384100" width="14.172" height="35.735" fill="none"/>
    </clipPath>
    <clipPath id="clip-path-12">
      <rect id="Rectángulo_384101" data-name="Rectángulo 384101" width="4.901" height="7.121" fill="none"/>
    </clipPath>
    <clipPath id="clip-path-13">
      <rect id="Rectángulo_384102" data-name="Rectángulo 384102" width="3.094" height="2.139" fill="none"/>
    </clipPath>
    <clipPath id="clip-path-14">
      <rect id="Rectángulo_384103" data-name="Rectángulo 384103" width="7.566" height="5.303" fill="none"/>
    </clipPath>
    <clipPath id="clip-path-15">
      <rect id="Rectángulo_384104" data-name="Rectángulo 384104" width="14.235" height="6.988" fill="none"/>
    </clipPath>
    <clipPath id="clip-path-16">
      <rect id="Rectángulo_384105" data-name="Rectángulo 384105" width="16.064" height="5.498" fill="none"/>
    </clipPath>
    <clipPath id="clip-path-17">
      <rect id="Rectángulo_384106" data-name="Rectángulo 384106" width="15.49" height="28.381" fill="none"/>
    </clipPath>
    <clipPath id="clip-path-18">
      <rect id="Rectángulo_384107" data-name="Rectángulo 384107" width="9.231" height="10.694" fill="none"/>
    </clipPath>
    <clipPath id="clip-path-19">
      <rect id="Rectángulo_384108" data-name="Rectángulo 384108" width="12.016" height="6.553" fill="none"/>
    </clipPath>
    <clipPath id="clip-path-20">
      <rect id="Rectángulo_384109" data-name="Rectángulo 384109" width="55.4" height="102.524" fill="none"/>
    </clipPath>
    <clipPath id="clip-path-21">
      <rect id="Rectángulo_384110" data-name="Rectángulo 384110" width="96.408" height="149.976" fill="none"/>
    </clipPath>
    <clipPath id="clip-path-22">
      <rect id="Rectángulo_384111" data-name="Rectángulo 384111" width="80.071" height="113.938" fill="none"/>
    </clipPath>
    <clipPath id="clip-path-23">
      <path id="Trazado_831570" data-name="Trazado 831570" d="M385.124,146.84a4.994,4.994,0,0,0-4.4,2.795,6.083,6.083,0,0,1-10.8,0,4.994,4.994,0,0,0-4.4-2.795H336.174V285.288h80.071V146.84Z" transform="translate(-336.174 -146.84)" fill="none"/>
    </clipPath>
    <clipPath id="clip-path-24">
      <rect id="Rectángulo_384113" data-name="Rectángulo 384113" width="21.392" height="38.869" fill="none"/>
    </clipPath>
    <clipPath id="clip-path-25">
      <rect id="Rectángulo_384114" data-name="Rectángulo 384114" width="17.275" height="36.783" fill="none"/>
    </clipPath>
    <clipPath id="clip-path-27">
      <rect id="Rectángulo_384115" data-name="Rectángulo 384115" width="5.555" height="6.877" fill="none"/>
    </clipPath>
    <clipPath id="clip-path-28">
      <rect id="Rectángulo_384116" data-name="Rectángulo 384116" width="16.332" height="14.899" fill="none"/>
    </clipPath>
    <clipPath id="clip-path-29">
      <rect id="Rectángulo_384121" data-name="Rectángulo 384121" width="24.325" height="29.948" fill="none"/>
    </clipPath>
  </defs>
  <g id="Grupo_1082175" data-name="Grupo 1082175" clip-path="url(#clip-path)">
    <g id="Grupo_1082155" data-name="Grupo 1082155" transform="translate(56.452)">
      <g id="Grupo_1082154" data-name="Grupo 1082154" clip-path="url(#clip-path-2)">
        <path id="Trazado_831482" data-name="Trazado 831482" d="M353.722,206.924c-6.449-20.559,19.085-36.866,26.318-53.326,8.423-19.169-1.787-40.659-22.4-45.6-12.992-3.114-29.657-3.425-34.01-18.695-2.518-8.831.156-17.412-3.7-26.348A46.029,46.029,0,0,0,300.686,41.7c-19.162-10.963-47.507-11.736-67.551-2.643a71.482,71.482,0,0,0-27.452,22.138c-7.23,9.636-10.065,21.552-21.077,28.047-15.886,9.37-39.241,5.358-52.137,19.608-13.138,14.518-9.181,38.685-.228,54.232,5.348,9.287,16.055,19.351,15.21,30.786-.47,6.363-4.834,11.766-9.637,15.965-12.959,11.332-25.338,22.247-20.613,41.548a34.123,34.123,0,0,0,21.308,23.6L378.5,278.47c5.849-15.331,6.084-24.67-.876-39.428-5.725-12.139-19.984-19.638-23.9-32.117" transform="translate(-104.286 -13.506)" fill="#dff4ff"/>
        <path id="Trazado_831483" data-name="Trazado 831483" d="M325.513,349.211a386.48,386.48,0,0,0-9.45-43.983c-5.7-21.027-11.912-43.205-25.678-60.57-8.093-10.209-34.909-28.351-36.81-3.364-1.759,23.127,23.489,40.066,35.8,56.92A333.378,333.378,0,0,1,310.256,330.3c3.192,5.629,8.79,13.476,8.913,20.253.176,9.759,6.344-1.344,6.344-1.344" transform="translate(-160.825 -94.161)" fill="#f6dc7c"/>
        <path id="Trazado_831484" data-name="Trazado 831484" d="M323.131,355.555c-2.091-11.482-6.264-23.458-11.464-35.115l.006,0c1.747-2.175,3.2-5.655,4.333-10.379l-.338-1.241c-.967,4.354-2.336,8.45-4.277,11.006-3.036-6.754-6.411-13.393-9.923-19.764,2.047-3.611,3.153-9.812,3.284-18.462.035-2.324-.009-4.524-.081-6.415q-.327-.77-.663-1.536c.329,6.747.436,19.507-2.878,25.8-4.588-8.28-9.391-16.09-13.964-23.082,2.455-10.353-.011-23.349-1.939-30.9q-.385-.334-.782-.665c1.9,7.217,4.567,20.347,2.269,30.874-12.026-18.311-22.317-30.833-22.542-31.105a.591.591,0,0,0-.911.754c.16.194,5.428,6.6,12.782,16.88-11.236.128-18.055-3.58-21.625-6.43q.088.464.19.925c.6.449,1.268.912,2.021,1.373,3.579,2.193,9.7,4.733,18.864,4.733.318,0,.645-.008.97-.014,4.014,5.628,8.619,12.373,13.342,19.864a56.287,56.287,0,0,1-22.337-3.037q.4.47.8.938a56.279,56.279,0,0,0,18.085,2.777q1.717,0,3.544-.089a.294.294,0,0,0,.21-.107c3.958,6.3,7.991,13.11,11.823,20.228a30.766,30.766,0,0,1-13.409-.339q.292.375.575.751a31.2,31.2,0,0,0,6.863.769,31.984,31.984,0,0,0,6.261-.638,248.555,248.555,0,0,1,11.134,23.488,30.988,30.988,0,0,1-7.976.468c.128.207.259.412.385.62.59.034,1.188.057,1.8.057a31.958,31.958,0,0,0,6.013-.591,144.745,144.745,0,0,1,8.389,27.819.591.591,0,1,0,1.163-.212" transform="translate(-161.208 -100.611)" fill="#fff"/>
        <path id="Trazado_831485" data-name="Trazado 831485" d="M320,393.609a292.14,292.14,0,0,0-17.542-29.16c-9.23-13.652-19.113-28-33.22-37.054-8.294-5.322-31.931-11.734-27.167,6.614,4.409,16.982,26.628,22.917,39.572,31.96a252.023,252.023,0,0,1,22.8,17.846c3.664,3.246,9.593,7.49,11.342,12.31,2.518,6.94,4.211-2.517,4.211-2.517" transform="translate(-155.864 -132.511)" fill="#ace3fc"/>
        <path id="Trazado_831486" data-name="Trazado 831486" d="M320.039,396.032a118.978,118.978,0,0,0-16.81-22.321l0,0c.718-1.985.9-4.831.557-8.49l-.546-.805c.375,3.354.4,6.62-.364,8.924-3.828-4.089-7.87-8.013-11.944-11.712.58-3.086-.148-7.795-2.174-14.017-.545-1.672-1.115-3.235-1.631-4.571q-.423-.47-.851-.936c1.888,4.748,5.093,13.853,4.264,19.171-5.312-4.8-10.664-9.213-15.65-13.1-.781-8.011-5.73-16.707-8.961-21.639q-.357-.145-.722-.284c3.131,4.7,8.255,13.442,9.191,21.539-13.094-10.157-23.528-16.6-23.756-16.736a.447.447,0,0,0-.467.763c.162.1,5.5,3.4,13.285,8.947-8.01,2.845-13.8,1.863-17.051.7q.176.311.362.616c.536.175,1.131.341,1.782.487,3.1.692,8.1,1.009,14.66-1.236.227-.078.459-.163.691-.248,4.251,3.044,9.2,6.743,14.416,10.946a42.577,42.577,0,0,1-16.73,3.3q.4.239.8.475a42.584,42.584,0,0,0,13.623-2.445q1.229-.421,2.514-.933a.219.219,0,0,0,.125-.128c4.376,3.537,8.932,7.424,13.418,11.579a23.267,23.267,0,0,1-9.679,3.044q.3.2.6.4a23.558,23.558,0,0,0,5.1-1.131,24.139,24.139,0,0,0,4.324-1.991,187.964,187.964,0,0,1,13.725,14.08,23.446,23.446,0,0,1-5.593,2.29c.142.117.286.232.428.349.431-.121.865-.251,1.3-.4a24.166,24.166,0,0,0,4.158-1.9,109.5,109.5,0,0,1,12.821,17.852.448.448,0,0,0,.535.205.46.46,0,0,0,.074-.033.447.447,0,0,0,.172-.609" transform="translate(-157.911 -134.332)" fill="#fff"/>
        <path id="Trazado_831487" data-name="Trazado 831487" d="M516.413,422.411c2.308-1.708,4.689-3.5,6.05-6.028s1.386-6.02-.725-7.966a8.028,8.028,0,0,0-3.776-1.714,21.747,21.747,0,0,0-14.893,2.073c1.014-.852.225-2.687-1.037-3.088a5.66,5.66,0,0,0-3.832.648,28.351,28.351,0,0,0,3.594-7.356c.466-1.458.737-3.259-.346-4.341a4,4,0,0,0-2.592-.918,15.753,15.753,0,0,0-13.623,6.31c-.981-4.634-.641-9.54-2.22-14.006s-6.181-8.513-10.7-7.1c-4.051,1.269-5.768,6.114-5.908,10.356-3.413-4.091-7.921-8.473-13.186-7.657-3.791.588-6.725,3.922-7.829,7.6s-.681,7.63.081,11.39a2.589,2.589,0,0,0-3.489,3.826c-1.619-1.769-3.654-3.7-6.027-3.35-2.8.409-4.168,3.981-3.334,6.686s3.109,4.675,5.28,6.492Z" transform="translate(-234.482 -155.904)" fill="#f6dc7c"/>
        <path id="Trazado_831488" data-name="Trazado 831488" d="M480.155,422.3a53.593,53.593,0,0,0-2.466-6.987q-1.4-3.425-3.01-6.751c-1.094-2.206-2.241-4.382-3.482-6.506a.064.064,0,0,0-.084-.024.063.063,0,0,0-.027.085c1.09,2.2,2.083,4.442,3.019,6.706q1.427,3.385,2.639,6.847c.821,2.3,1.423,4.671,2.2,6.978l1.238,3.979.815.085a38.648,38.648,0,0,0-.841-4.411" transform="translate(-250.417 -165.533)" fill="#ffeec5"/>
        <path id="Trazado_831489" data-name="Trazado 831489" d="M508.526,419.333a58.962,58.962,0,0,0-.315-8.326c-.238-2.763-.591-5.511-1-8.247-.441-2.732-.939-5.452-1.546-8.149a.064.064,0,0,0-.073-.048.062.062,0,0,0-.051.073c.441,2.723.772,5.464,1.044,8.205s.51,5.485.621,8.232.047,5.491.061,8.225c0,1.858-.059,3.715-.139,5.58l.683.071a39.425,39.425,0,0,0,.717-5.617" transform="translate(-264.605 -162.46)" fill="#ffeec5"/>
        <path id="Trazado_831490" data-name="Trazado 831490" d="M516.844,432.632l.746.078c.529-1.35,1.094-2.668,1.747-3.954a66.071,66.071,0,0,1,3.419-6.034,54.893,54.893,0,0,1,4.3-5.508A53.169,53.169,0,0,1,532,412.228a.065.065,0,0,0,.011-.087.064.064,0,0,0-.089-.012,53.371,53.371,0,0,0-5.326,4.654,55.676,55.676,0,0,0-4.665,5.353,31.011,31.011,0,0,0-3.741,6.086,21.878,21.878,0,0,0-1.35,4.41" transform="translate(-269.26 -169.687)" fill="#ffeec5"/>
        <path id="Trazado_831491" data-name="Trazado 831491" d="M564.41,435.438c-1.706.6-3.362,1.32-5.007,2.077-1.63.784-3.242,1.618-4.8,2.559a24.469,24.469,0,0,0-4.474,3.161c-.323.312-.639.635-.945.969l1.554.161c.073-.059.145-.12.219-.179l2.067-1.656c.684-.564,1.4-1.1,2.127-1.609,1.457-1.028,2.987-1.96,4.544-2.848s3.141-1.74,4.762-2.519a.065.065,0,0,0,.034-.078.063.063,0,0,0-.081-.039" transform="translate(-282.577 -179.289)" fill="#ffeec5"/>
        <path id="Trazado_831492" data-name="Trazado 831492" d="M448.366,433.447a16.793,16.793,0,0,0-1.929-3.268c-.718-1.035-1.482-2.031-2.275-3-.815-.952-1.64-1.89-2.539-2.76a.065.065,0,0,0-.083,0,.063.063,0,0,0-.011.089c.741,1,1.457,2.01,2.125,3.051s1.331,2.08,1.925,3.155c.537.973.963,1.993,1.48,2.959l1.436.149c-.044-.124-.082-.25-.129-.372" transform="translate(-238.244 -174.746)" fill="#ffeec5"/>
        <g id="Grupo_1082096" data-name="Grupo 1082096" transform="translate(199.021 248.071)" opacity="0.5" style="mix-blend-mode: multiply;isolation: isolate">
          <g id="Grupo_1082095" data-name="Grupo 1082095">
            <g id="Grupo_1082094" data-name="Grupo 1082094" clip-path="url(#clip-path-3)">
              <path id="Trazado_831493" data-name="Trazado 831493" d="M519.949,437.995a24.779,24.779,0,0,1-6.486-1.839c-1.885-.834-3.921-2.37-3.7-4.419a10.062,10.062,0,0,1-7.769,1.019c-1.148-.324-2.392-.974-2.17-2.145a2.792,2.792,0,0,1-4.608-1.826,10.271,10.271,0,0,1-12.46-4.022c-1.76,1.359-3.9,2.486-6.106,2.243-2.953-.325-5.063-2.914-6.834-5.3a7.489,7.489,0,0,1-6.277,4.17,11.364,11.364,0,0,1-7.394-2.328.969.969,0,0,0-.541-.243,1.029,1.029,0,0,0-.575.281,5.306,5.306,0,0,1-6.41-.174,3.18,3.18,0,0,1-3.852,3.24.958.958,0,0,0-.618-.059.947.947,0,0,0-.4.474c-1.092,1.975-3.832,2.344-6.027,1.815a11.5,11.5,0,0,1-3.428-1.458,20.2,20.2,0,0,0,4.4,4.575l78.514,8.143c.929-.687,1.867-1.391,2.748-2.148" transform="translate(-434.29 -421.707)" fill="#ffb977"/>
            </g>
          </g>
        </g>
        <path id="Trazado_831494" data-name="Trazado 831494" d="M204.75,381.716a5.63,5.63,0,0,0-4.611-.268c-3.284,1.164-5.149,4.1-6.894,6.912l-.559-1.191a2.816,2.816,0,0,0-4.309-1l-.455.364a16.455,16.455,0,0,0-5.773-18.5,10.908,10.908,0,0,0-7.131-2.224c-3.864.348-7.033,3.464-8.579,7.023s-1.774,7.528-1.978,11.4c-1.268-1.538-4.345-.1-3.973,1.863a23.731,23.731,0,0,0-12.139-5.963c-2.185-.365-4.735-.3-6.214,1.352a6.816,6.816,0,0,0-1.3,4.641,26.962,26.962,0,0,0,2.142,10.474c-1.983-.554-4.13-1.1-6.056-.376s-3.234,3.334-1.923,4.922a37.98,37.98,0,0,0-12.635-1.235,6.949,6.949,0,0,0-4.138,1.3A5.933,5.933,0,0,0,116.6,406c.188,4.821,3.094,7.214,7.543,9.079,0,0,13.064-2.186,34.956-3.8s38.883-1.36,38.883-1.36a41.323,41.323,0,0,0,9.2-20.551c.405-2.81.381-6.087-2.436-7.653" transform="translate(-104.458 -150.608)" fill="#db617d"/>
        <path id="Trazado_831495" data-name="Trazado 831495" d="M213.912,414.718c.093-.159.184-.318.279-.476l.316-.566c.1-.193.175-.393.264-.589l.519-1.185c.174-.4.347-.793.511-1.194s.276-.817.416-1.226c.255-.824.536-1.645.758-2.479a54.458,54.458,0,0,0,1.43-10.217,97.1,97.1,0,0,0,.038-10.279,99.037,99.037,0,0,0-1.049-10.2.065.065,0,0,0-.071-.052.062.062,0,0,0-.053.071,98.566,98.566,0,0,1,.548,10.2,96.346,96.346,0,0,1-.409,10.182,99.534,99.534,0,0,1-1.648,10c-.169.826-.406,1.634-.6,2.455-.1.408-.184.826-.309,1.228s-.257.8-.379,1.206a30.863,30.863,0,0,1-1.084,3.139l.523-.024" transform="translate(-144.314 -154.921)" fill="#f99db6"/>
        <path id="Trazado_831496" data-name="Trazado 831496" d="M251.672,405.656a35.085,35.085,0,0,0,1.665-7.37.062.062,0,0,0-.123-.016v.005a34.731,34.731,0,0,1-2.127,7.168,56.043,56.043,0,0,1-3.228,6.733c-.638,1.07-1.256,2.149-1.967,3.171-.656,1.055-1.378,2.067-2.044,3.118-.319.535-.675,1.045-1.028,1.558s-.7,1.035-1.029,1.565q-.584.853-1.161,1.718l.739-.01c.379-.383.756-.769,1.115-1.17.815-.965,1.655-1.918,2.389-2.95a44.333,44.333,0,0,0,3.867-6.531,57.023,57.023,0,0,0,2.934-6.99" transform="translate(-155.53 -163.965)" fill="#f99db6"/>
        <path id="Trazado_831497" data-name="Trazado 831497" d="M182.773,426.668a11.906,11.906,0,0,0-.122-1.894c-.069-.58-.134-1.165-.24-1.739l-.381-1.714a31.852,31.852,0,0,0-2.59-6.491,56.988,56.988,0,0,0-3.5-6.01,52.821,52.821,0,0,0-4.253-5.474.065.065,0,0,0-.086-.006.062.062,0,0,0-.008.088,52.507,52.507,0,0,1,3.82,5.725,56.222,56.222,0,0,1,3.125,6.1l.655,1.578.567,1.609c.212.527.362,1.075.539,1.614s.391,1.065.535,1.612c.56,1.651.982,3.33,1.4,5.04l.538-.038" transform="translate(-127.097 -166.068)" fill="#f99db6"/>
        <path id="Trazado_831498" data-name="Trazado 831498" d="M140.572,439.446a18.243,18.243,0,0,0-3.9-3,32.679,32.679,0,0,0-4.34-2.254,29.425,29.425,0,0,0-4.617-1.508h0a.063.063,0,0,0-.072.04.062.062,0,0,0,.037.079,32.867,32.867,0,0,1,4.39,1.954,31.8,31.8,0,0,1,4.047,2.517c1.3.919,2.4,2.049,3.594,3.065.264.222.519.451.772.684l1.28-.149c-.121-.166-.239-.336-.362-.5Z" transform="translate(-109.003 -178.156)" fill="#f99db6"/>
        <g id="Grupo_1082099" data-name="Grupo 1082099" transform="translate(13.675 242.433)" opacity="0.5" style="mix-blend-mode: multiply;isolation: isolate">
          <g id="Grupo_1082098" data-name="Grupo 1082098">
            <g id="Grupo_1082097" data-name="Grupo 1082097" clip-path="url(#clip-path-4)">
              <path id="Trazado_831499" data-name="Trazado 831499" d="M125.222,434.158s13.064-2.186,34.956-3.8S199.06,429,199.06,429a41.2,41.2,0,0,0,6.55-10.854,15.418,15.418,0,0,1-7.486,1.952c-3.369-.105-6.838-2.018-7.983-5.188a2.538,2.538,0,0,1-4.452-1.9,15.018,15.018,0,0,1-18.635-.893,4.414,4.414,0,0,1-4.526,2.778c-.341,3.132-3.263,5.486-6.334,6.2s-6.275.133-9.373-.445c0,2.347-2.128,4.338-4.449,4.685a8.373,8.373,0,0,1-6.469-2.188A5.635,5.635,0,0,1,129.2,426.3c-.26,1.693-1.992,2.731-3.621,3.26-1.826.593-4.265.236-6.364.363a13.331,13.331,0,0,0,6.01,4.24" transform="translate(-119.212 -412.123)" fill="#db617d"/>
            </g>
          </g>
        </g>
        <path id="Trazado_831500" data-name="Trazado 831500" d="M517.55,54.583,491.134,66.278l9.6,5.121,5.121,9.6Z" transform="translate(-258.674 -22.474)" fill="#db617d"/>
        <path id="Trazado_831501" data-name="Trazado 831501" d="M518.034,63.7,505.342,74.492l1.242.662.662,1.242Z" transform="translate(-264.525 -26.23)" fill="#f993ae"/>
        <path id="Trazado_831502" data-name="Trazado 831502" d="M506.267,83.886a.286.286,0,0,1-.212-.478q.29-.319.583-.634a.286.286,0,1,1,.418.39q-.289.311-.577.628a.285.285,0,0,1-.212.094" transform="translate(-264.788 -34.044)" fill="#4c859b"/>
        <path id="Trazado_831503" data-name="Trazado 831503" d="M354.137,115.881a.282.282,0,0,1-.181-.065c-.444-.362-.887-.744-1.319-1.134a.286.286,0,1,1,.383-.424c.425.383.862.758,1.3,1.116a.286.286,0,0,1-.181.507m-2.561-2.311a.285.285,0,0,1-.2-.083c-.416-.414-.821-.837-1.2-1.257a.286.286,0,1,1,.424-.385c.375.413.774.829,1.183,1.237a.286.286,0,0,1-.2.488m-2.322-2.552a.283.283,0,0,1-.221-.1c-.371-.452-.729-.915-1.067-1.377a.286.286,0,0,1,.463-.337c.331.454.682.908,1.046,1.352a.286.286,0,0,1-.221.467m-2.031-2.787a.286.286,0,0,1-.241-.131c-.316-.493-.617-1-.893-1.5a.286.286,0,1,1,.5-.276c.271.49.564.983.874,1.465a.286.286,0,0,1-.24.44m-1.66-3.021a.284.284,0,0,1-.259-.167c-.247-.538-.471-1.081-.665-1.615a.286.286,0,1,1,.537-.2c.189.52.406,1.049.647,1.572a.286.286,0,0,1-.141.379.283.283,0,0,1-.119.026m-1.172-3.238a.287.287,0,0,1-.276-.213c-.151-.57-.273-1.146-.364-1.714a.286.286,0,0,1,.565-.091,16.689,16.689,0,0,0,.352,1.658.287.287,0,0,1-.2.35.29.29,0,0,1-.074.009m-.539-3.4a.286.286,0,0,1-.285-.271q-.02-.388-.02-.779c0-.326.011-.652.032-.979a.29.29,0,0,1,.3-.267.286.286,0,0,1,.267.3q-.03.473-.031.943,0,.375.019.749a.286.286,0,0,1-.271.3h-.015M412.5,95.788l-.349,0a.286.286,0,0,1-.282-.29.31.31,0,0,1,.29-.282l.341,0c.454,0,.912-.013,1.363-.039a.278.278,0,0,1,.3.269.286.286,0,0,1-.269.3c-.462.026-.931.04-1.4.04m-2.067-.088h-.025c-.576-.049-1.159-.119-1.732-.208a.286.286,0,0,1,.088-.565c.559.086,1.129.155,1.693.2a.286.286,0,0,1-.024.571m5.163-.114a.286.286,0,0,1-.036-.57c.563-.074,1.128-.17,1.679-.285a.286.286,0,0,1,.117.56c-.566.118-1.145.216-1.722.292l-.038,0m-8.57-.415a.291.291,0,0,1-.063-.007c-.566-.128-1.134-.276-1.686-.441a.286.286,0,1,1,.163-.548c.541.161,1.1.306,1.65.431a.286.286,0,0,1-.064.565m-62.951-.035a.328.328,0,0,1-.053,0,.287.287,0,0,1-.229-.334c.035-.188.074-.377.117-.566.088-.388.192-.772.311-1.141a.286.286,0,1,1,.544.175c-.114.353-.214.72-.3,1.092-.041.182-.078.363-.111.544a.287.287,0,0,1-.281.234m74.894-.261a.286.286,0,0,1-.082-.56c.539-.161,1.079-.348,1.6-.556a.286.286,0,1,1,.21.532c-.541.214-1.1.406-1.651.572a.288.288,0,0,1-.082.012m-32.4-.094q-.552,0-1.108-.021a.286.286,0,0,1-.275-.3.281.281,0,0,1,.3-.275q.856.032,1.707.014a.277.277,0,0,1,.293.279.286.286,0,0,1-.279.292c-.211.005-.422.007-.634.007m2.348-.1a.286.286,0,0,1-.024-.571c.569-.049,1.138-.119,1.691-.206a.289.289,0,0,1,.327.238.286.286,0,0,1-.238.327c-.567.089-1.149.16-1.731.211h-.025m-5.165-.036h-.029c-.572-.056-1.154-.129-1.728-.217a.286.286,0,0,1,.088-.565c.563.086,1.134.158,1.7.213a.286.286,0,0,1-.027.571m19.97-.454a.3.3,0,0,1-.1-.018c-.542-.2-1.085-.424-1.614-.66a.286.286,0,1,1,.234-.522c.518.232,1.049.449,1.579.645a.286.286,0,0,1-.1.554m-11.4-.046a.286.286,0,0,1-.065-.564c.558-.131,1.109-.282,1.641-.451a.286.286,0,0,1,.173.545c-.545.173-1.112.328-1.684.462a.274.274,0,0,1-.065.008m-11.981-.022a.284.284,0,0,1-.059-.006c-.563-.118-1.133-.253-1.693-.4a.286.286,0,1,1,.146-.553c.551.146,1.111.279,1.664.395a.286.286,0,0,1-.058.566m41.831-.509a.286.286,0,0,1-.126-.542c.5-.246,1-.519,1.5-.813a.286.286,0,0,1,.292.492c-.506.3-1.022.581-1.534.834a.289.289,0,0,1-.127.029m-45.164-.375a.285.285,0,0,1-.088-.014c-.549-.176-1.1-.37-1.642-.575a.286.286,0,1,1,.2-.535c.531.2,1.074.392,1.614.566a.286.286,0,0,1-.088.558m18.6-.137a.286.286,0,0,1-.108-.551c.525-.216,1.045-.455,1.542-.712a.286.286,0,1,1,.262.508c-.513.265-1.046.511-1.588.733a.278.278,0,0,1-.108.022m4.969-.318a.285.285,0,0,1-.133-.033c-.514-.271-1.023-.562-1.514-.864a.286.286,0,0,1-.094-.394.3.3,0,0,1,.043-.054l-.057.036a.286.286,0,0,1-.307-.483c.477-.3.944-.631,1.389-.977a.286.286,0,1,1,.351.452c-.411.319-.841.624-1.279.909a.288.288,0,0,1,.254.023c.481.3.979.58,1.481.845a.286.286,0,0,1-.133.539m-26.79-.771a.287.287,0,0,1-.116-.025q-.266-.117-.528-.238-.526-.244-1.044-.5a.286.286,0,1,1,.257-.511q.51.255,1.027.5.259.119.519.235a.286.286,0,0,1-.115.548m-28.653-.145a.291.291,0,0,1-.125-.029.286.286,0,0,1-.132-.382,12.1,12.1,0,0,1,.886-1.527.286.286,0,0,1,.472.323,11.364,11.364,0,0,0-.843,1.454.287.287,0,0,1-.258.161m80-.008a.286.286,0,0,1-.163-.521c.454-.314.915-.656,1.372-1.016a.286.286,0,0,1,.354.449c-.466.367-.937.716-1.4,1.036a.281.281,0,0,1-.162.051m-27.5-.881a.288.288,0,0,1-.165-.052c-.472-.335-.939-.689-1.388-1.055a.286.286,0,0,1,.361-.444c.441.358.9.705,1.358,1.032a.286.286,0,0,1-.165.519m-26.941-.5a.285.285,0,0,1-.136-.035c-.507-.274-1.011-.554-1.514-.836a.286.286,0,0,1,.279-.5c.5.281,1,.559,1.507.832a.286.286,0,0,1-.137.538m57.152-.749a.286.286,0,0,1-.189-.5c.412-.362.837-.752,1.26-1.159a.286.286,0,1,1,.4.412c-.431.414-.861.809-1.279,1.177a.282.282,0,0,1-.189.071m-26.458-.319a.286.286,0,0,1-.2-.495c.41-.384.808-.793,1.184-1.217a.286.286,0,0,1,.428.379c-.387.436-.8.859-1.221,1.255a.285.285,0,0,1-.2.078m-54.315-.376a.282.282,0,0,1-.195-.077.286.286,0,0,1-.014-.4,11.866,11.866,0,0,1,1.3-1.2.286.286,0,1,1,.355.448,11.394,11.394,0,0,0-1.234,1.139.286.286,0,0,1-.209.091m47.889-.23a.286.286,0,0,1-.2-.076c-.425-.4-.841-.81-1.235-1.231a.286.286,0,0,1,.417-.391c.387.411.793.816,1.209,1.2a.286.286,0,0,1-.195.5m-27.282,0a.283.283,0,0,1-.139-.036c-.5-.279-1-.555-1.509-.824a.286.286,0,1,1,.268-.5q.763.406,1.519.829a.286.286,0,0,1-.139.536m62.658-1.458a.286.286,0,0,1-.206-.485q.595-.615,1.175-1.252a.286.286,0,0,1,.422.385q-.586.642-1.186,1.265a.286.286,0,0,1-.205.087m-65.71-.152a.287.287,0,0,1-.125-.029c-.548-.265-1.056-.5-1.557-.706a.286.286,0,0,1,.221-.527c.511.214,1.029.449,1.585.719a.286.286,0,0,1-.124.544m-14.866-.3a.286.286,0,0,1-.144-.534,13.017,13.017,0,0,1,1.581-.781.286.286,0,0,1,.218.529,12.29,12.29,0,0,0-1.51.747.292.292,0,0,1-.144.039m53.911-.063a.286.286,0,0,1-.23-.455c.255-.348.505-.712.743-1.083.068-.107.137-.216.2-.328a.286.286,0,1,1,.488.3q-.1.17-.21.336c-.245.383-.5.758-.765,1.115a.284.284,0,0,1-.23.116m-11.069-.543a.286.286,0,0,1-.222-.105q-.164-.2-.325-.406-.385-.494-.731-.981a.286.286,0,0,1,.466-.331q.338.476.716.96c.1.134.211.266.318.4a.287.287,0,0,1-.041.4.29.29,0,0,1-.181.065m-31.159-.422a.3.3,0,0,1-.089-.014,15.291,15.291,0,0,0-1.635-.438.286.286,0,0,1,.117-.56,15.821,15.821,0,0,1,1.7.455.286.286,0,0,1-.089.558m-8.5-.288a.286.286,0,0,1-.075-.562,14.49,14.49,0,0,1,1.725-.349.286.286,0,1,1,.079.566,13.746,13.746,0,0,0-1.655.335.3.3,0,0,1-.074.01m5.134-.416h-.028a15.029,15.029,0,0,0-1.691-.062.294.294,0,0,1-.292-.28.286.286,0,0,1,.28-.292,15.266,15.266,0,0,1,1.757.065.286.286,0,0,1-.026.571m74.591-.366a.286.286,0,0,1-.215-.474q.566-.648,1.123-1.305a.286.286,0,1,1,.435.371q-.559.659-1.128,1.311a.285.285,0,0,1-.215.1m-27.2-.909a.286.286,0,0,1-.257-.412c.249-.507.48-1.031.688-1.557a.286.286,0,0,1,.532.209c-.212.541-.451,1.079-.707,1.6a.285.285,0,0,1-.256.159M390.62,83.47a.285.285,0,0,1-.245-.139c-.306-.511-.587-1.029-.832-1.54a.286.286,0,1,1,.515-.248c.238.495.51,1,.808,1.494a.286.286,0,0,1-.245.433m44.286-1.305a.286.286,0,0,1-.22-.469l1.1-1.325a.286.286,0,0,1,.439.366l-1.1,1.325a.286.286,0,0,1-.219.1m-28.177-1.488a.27.27,0,0,1-.083-.012.285.285,0,0,1-.191-.356c.165-.549.307-1.1.419-1.648a.289.289,0,0,1,.338-.222.286.286,0,0,1,.222.338c-.116.561-.261,1.131-.431,1.7a.286.286,0,0,1-.273.2m-17.6-.313a.285.285,0,0,1-.269-.189,14.119,14.119,0,0,1-.492-1.689.286.286,0,0,1,.558-.125,13.66,13.66,0,0,0,.472,1.621.286.286,0,0,1-.172.366.292.292,0,0,1-.1.016m47.987-.846a.286.286,0,0,1-.218-.471q.56-.664,1.124-1.314a.286.286,0,0,1,.432.375q-.562.648-1.12,1.308a.284.284,0,0,1-.218.1M407.42,77.3l-.03,0a.285.285,0,0,1-.255-.314,14.775,14.775,0,0,0,.081-1.508l0-.182a.285.285,0,0,1,.283-.288h0a.286.286,0,0,1,.286.283l0,.185a15.089,15.089,0,0,1-.084,1.569.285.285,0,0,1-.284.256M388.391,77a.286.286,0,0,1-.285-.264c-.023-.295-.034-.585-.034-.871q0-.457.037-.9a.29.29,0,0,1,.309-.261.286.286,0,0,1,.261.309q-.035.417-.035.85,0,.407.032.826a.286.286,0,0,1-.262.307h-.023m18.968-3.144a.285.285,0,0,1-.282-.242,9.909,9.909,0,0,0-.393-1.627.286.286,0,0,1,.542-.182,10.471,10.471,0,0,1,.417,1.721.287.287,0,0,1-.239.327.374.374,0,0,1-.045,0m-18.672-.275a.283.283,0,0,1-.073-.009.286.286,0,0,1-.2-.349,9.725,9.725,0,0,1,.607-1.667.286.286,0,1,1,.517.244,9.2,9.2,0,0,0-.571,1.569.287.287,0,0,1-.277.213m17.562-2.969a.285.285,0,0,1-.248-.144,7.773,7.773,0,0,0-.979-1.341.286.286,0,1,1,.424-.385,8.335,8.335,0,0,1,1.051,1.439.286.286,0,0,1-.248.429m-16.1-.133a.286.286,0,0,1-.232-.453,9.955,9.955,0,0,1,1.159-1.342.286.286,0,1,1,.4.411,9.527,9.527,0,0,0-1.093,1.265.286.286,0,0,1-.232.119m2.462-2.392a.286.286,0,0,1-.162-.522,10.564,10.564,0,0,1,1.542-.871.286.286,0,0,1,.239.519,10.03,10.03,0,0,0-1.458.825.288.288,0,0,1-.161.049m11.335-.009a.285.285,0,0,1-.168-.054,9.183,9.183,0,0,0-1.437-.851.286.286,0,1,1,.244-.516,9.748,9.748,0,0,1,1.528.9.286.286,0,0,1-.168.518m-8.216-1.427a.286.286,0,0,1-.075-.562,10.486,10.486,0,0,1,1.742-.319.292.292,0,0,1,.312.257.285.285,0,0,1-.258.312,9.99,9.99,0,0,0-1.647.3.272.272,0,0,1-.075.01m5.115-.041a.282.282,0,0,1-.073-.009,9.308,9.308,0,0,0-1.648-.278.286.286,0,0,1-.262-.308.291.291,0,0,1,.307-.262,9.848,9.848,0,0,1,1.749.3.286.286,0,0,1-.073.562" transform="translate(-197.906 -27.075)" fill="#4c859b"/>
        <path id="Trazado_831504" data-name="Trazado 831504" d="M364.473,152.953a.287.287,0,0,1-.164-.052q-.35-.245-.7-.5a.286.286,0,0,1,.339-.461q.346.255.691.5a.286.286,0,0,1-.164.52" transform="translate(-206.118 -62.537)" fill="#4c859b"/>
        <path id="Trazado_831505" data-name="Trazado 831505" d="M400,457.964c0,14.455-89.543,26.173-200,26.173S0,472.418,0,457.964s89.543-26.173,200-26.173,200,11.718,200,26.173" transform="translate(-56.452 -177.788)" fill="#85c7db"/>
        <g id="Grupo_1082102" data-name="Grupo 1082102" transform="translate(30.649 266.816)" opacity="0.5" style="mix-blend-mode: multiply;isolation: isolate">
          <g id="Grupo_1082101" data-name="Grupo 1082101">
            <g id="Grupo_1082100" data-name="Grupo 1082100" clip-path="url(#clip-path-5)">
              <path id="Trazado_831506" data-name="Trazado 831506" d="M223.748,457.244c0,2.027-16.942,3.67-37.841,3.67s-37.84-1.643-37.84-3.67,16.942-3.67,37.84-3.67,37.841,1.643,37.841,3.67" transform="translate(-148.066 -453.574)" fill="#85c7db"/>
            </g>
          </g>
        </g>
        <g id="Grupo_1082105" data-name="Grupo 1082105" transform="translate(91.426 272.367)" opacity="0.5" style="mix-blend-mode: multiply;isolation: isolate">
          <g id="Grupo_1082104" data-name="Grupo 1082104">
            <g id="Grupo_1082103" data-name="Grupo 1082103" clip-path="url(#clip-path-6)">
              <path id="Trazado_831507" data-name="Trazado 831507" d="M299.538,465.345c0,1.289-10.78,2.335-24.077,2.335s-24.077-1.046-24.077-2.335,10.78-2.335,24.077-2.335,24.077,1.046,24.077,2.335" transform="translate(-251.384 -463.01)" fill="#85c7db"/>
            </g>
          </g>
        </g>
        <g id="Grupo_1082108" data-name="Grupo 1082108" transform="translate(221.923 275.925)" opacity="0.5" style="mix-blend-mode: multiply;isolation: isolate">
          <g id="Grupo_1082107" data-name="Grupo 1082107">
            <g id="Grupo_1082106" data-name="Grupo 1082106" clip-path="url(#clip-path-7)">
              <path id="Trazado_831508" data-name="Trazado 831508" d="M536.584,472.13c0,1.7-14.184,3.072-31.681,3.072s-31.681-1.375-31.681-3.072,14.184-3.072,31.681-3.072,31.681,1.375,31.681,3.072" transform="translate(-473.222 -469.058)" fill="#85c7db"/>
            </g>
          </g>
        </g>
        <g id="Grupo_1082111" data-name="Grupo 1082111" transform="translate(145.869 265.672)" opacity="0.5" style="mix-blend-mode: multiply;isolation: isolate">
          <g id="Grupo_1082110" data-name="Grupo 1082110" transform="translate(0)">
            <g id="Grupo_1082109" data-name="Grupo 1082109" clip-path="url(#clip-path-8)">
              <path id="Trazado_831509" data-name="Trazado 831509" d="M423.726,456.443c0,2.659-17.862,4.815-39.9,4.815s-39.9-2.156-39.9-4.815,17.862-4.814,39.9-4.814,39.9,2.155,39.9,4.814" transform="translate(-343.934 -451.629)" fill="#85c7db"/>
            </g>
          </g>
        </g>
        <path id="Trazado_831510" data-name="Trazado 831510" d="M390.1,446.5c-17.084,0-30.933.948-30.933,2.118v5.513c0,1.169,13.849,2.118,30.933,2.118s30.933-.948,30.933-2.118v-5.513c0-1.169-13.849-2.118-30.933-2.118" transform="translate(-204.339 -183.846)" fill="#33586a"/>
        <path id="Trazado_831511" data-name="Trazado 831511" d="M237.843,447.987s1.442-1,2.414,0A7.091,7.091,0,0,0,245,450.676c2.43.228,3.4.525,3.321,2.5-.658.349-7.074.784-15.242,0,0,0-.912-6.558,1.272-5.35a18.487,18.487,0,0,0,3.488.161" transform="translate(-152.345 -184.273)" fill="#5f3e1b"/>
        <path id="Trazado_831512" data-name="Trazado 831512" d="M239.151,438.875l-.286,5.544a3.139,3.139,0,0,1-1.8.449,2.153,2.153,0,0,1-1.688-.611l.082-5.383Z" transform="translate(-153.367 -180.705)" fill="#efcab9"/>
        <path id="Trazado_831513" data-name="Trazado 831513" d="M212.3,298.006a9.6,9.6,0,0,0-5.9,12.842q2.276,5.75,4.5,11.507,2.071,5.354,4.054,10.7l1.924,5.314c.6,1.7,1.232,3.595,1.629,4.919a10.251,10.251,0,0,1,.434,1.979c.1.877.21,1.725.282,2.667.172,1.832.3,3.725.433,5.613.256,3.784.455,7.607.651,11.427.38,7.645,1.959,9.022,2.238,16.682,0,0,.474.68,2.349.854a3.431,3.431,0,0,0,2.569-.468c1.039-7.595.777-8.887,1.716-16.511.464-3.815.925-7.628,1.329-11.486.2-1.934.4-3.861.558-5.853.093-.969.142-2.034.2-3.069a23.567,23.567,0,0,0-.113-3.734c-.27-2.454-.588-4.287-.915-6.308l-1.04-5.817q-1.073-5.773-2.227-11.471-1.234-6.143-2.514-12.248A9.722,9.722,0,0,0,212.3,298.006Z" transform="translate(-141.142 -122.54)" fill="#3e7e8c"/>
        <g id="Grupo_1082114" data-name="Grupo 1082114" transform="translate(64.544 175.071)" opacity="0.5" style="mix-blend-mode: multiply;isolation: isolate">
          <g id="Grupo_1082113" data-name="Grupo 1082113">
            <g id="Grupo_1082112" data-name="Grupo 1082112" clip-path="url(#clip-path-9)">
              <path id="Trazado_831514" data-name="Trazado 831514" d="M217.056,327.206l8.932-14.23c-.506-2.48-1.008-4.962-1.526-7.438a9.723,9.723,0,0,0-12.162-7.533,9.6,9.6,0,0,0-5.9,12.842q2.276,5.749,4.5,11.507,2.071,5.354,4.054,10.7l1.6,4.407c.325-4.673.506-10.252.506-10.252" transform="translate(-205.686 -297.611)" fill="#3e7e8c"/>
            </g>
          </g>
        </g>
        <path id="Trazado_831515" data-name="Trazado 831515" d="M179.266,447.1s1.682-.509,2.3.747a7.09,7.09,0,0,0,3.682,4.026c2.239.968,3.069,1.551,2.385,3.4-.734.128-6.97-1.443-14.494-4.715,0,0,1.162-6.519,2.864-4.694a18.432,18.432,0,0,0,3.267,1.232" transform="translate(-127.739 -183.453)" fill="#5f3e1b"/>
        <path id="Trazado_831516" data-name="Trazado 831516" d="M183.258,438.581l-1.987,5.184a3.146,3.146,0,0,1-1.851-.13,2.152,2.152,0,0,1-1.416-1.1l1.744-5.093Z" transform="translate(-129.744 -180.114)" fill="#efcab9"/>
        <path id="Trazado_831517" data-name="Trazado 831517" d="M190.715,298.438a9.6,9.6,0,0,0-8.853,11.016q.8,6.131,1.559,12.257.7,5.7,1.324,11.362l.571,5.623c.162,1.8.319,3.787.381,5.168a10.207,10.207,0,0,1-.063,2.025c-.12.874-.216,1.724-.376,2.655-.28,1.818-.614,3.687-.948,5.548-.674,3.732-1.413,7.488-2.154,11.241-1.5,7.507-2.21,8.52-3.807,16.017a5.019,5.019,0,0,0,2.4,1.782,4.943,4.943,0,0,0,2.957.028c2.859-7.112,4.154-7.96,6.924-15.125,1.379-3.587,2.756-7.173,4.089-10.815.666-1.827,1.329-3.648,1.968-5.541.326-.917.633-1.938.946-2.927a23.664,23.664,0,0,0,.8-3.648c.336-2.445.475-4.3.65-6.34l.409-5.9q.367-5.861.637-11.667.3-6.26.549-12.492A9.723,9.723,0,0,0,190.715,298.438Z" transform="translate(-129.886 -122.876)" fill="#3e7e8c"/>
        <g id="Grupo_1082117" data-name="Grupo 1082117" transform="translate(51.887 175.551)" opacity="0.5" style="mix-blend-mode: multiply;isolation: isolate">
          <g id="Grupo_1082116" data-name="Grupo 1082116">
            <g id="Grupo_1082115" data-name="Grupo 1082115" clip-path="url(#clip-path-10)">
              <path id="Trazado_831518" data-name="Trazado 831518" d="M203.028,309.679c.013-.323.029-.647.042-.97a9.722,9.722,0,0,0-9.958-10.271,9.6,9.6,0,0,0-8.853,11.016q.8,6.131,1.559,12.257.7,5.7,1.324,11.362l.571,5.623c.162,1.8.318,3.787.381,5.168a10.3,10.3,0,0,1-.063,2.025c-.12.874-.216,1.724-.376,2.655-.28,1.818-.614,3.687-.948,5.549l4.575-10.044a66.108,66.108,0,0,1-2.274-6.254c-.184-1.149,1.6-14.287,1.6-14.287Z" transform="translate(-184.171 -298.427)" fill="#3e7e8c"/>
            </g>
          </g>
        </g>
        <path id="Trazado_831519" data-name="Trazado 831519" d="M196.561,216.829s7.6-.053,11.236,2.1,5.948,8.261,5.948,15.7-3.14,22.638,0,31.4c1.322,3.966,1.836,6.026-.146,7.183s-23.317,3.557-33.066.087c-2.148-1.322,1.652-8.1,1.652-12.062s-2.644-29.743-3.3-35.03,5.784-9.2,17.681-9.366" transform="translate(-130.086 -89.278)" fill="#db617d"/>
        <g id="Grupo_1082120" data-name="Grupo 1082120" transform="translate(49.639 140.356)" opacity="0.5" style="mix-blend-mode: multiply;isolation: isolate">
          <g id="Grupo_1082119" data-name="Grupo 1082119">
            <g id="Grupo_1082118" data-name="Grupo 1082118" clip-path="url(#clip-path-11)">
              <path id="Trazado_831520" data-name="Trazado 831520" d="M185.976,238.6l-5.627,4.177c1.02,9.683,2.46,24.486,2.46,27.413,0,.864,11.712,4.145,11.712,4.145s-7.283-10.459-8.538-12.971-.007-22.764-.007-22.764" transform="translate(-180.349 -238.598)" fill="#db617d"/>
            </g>
          </g>
        </g>
        <path id="Trazado_831521" data-name="Trazado 831521" d="M207.8,205.292s-1.367,3.838.676,6.119c.464.276,4.228,3.348-.146,3.852-5.206.6-5.777-2.25-5.638-3.666.676-2.446,1.476-7.926,1.476-7.926Z" transform="translate(-139.901 -83.861)" fill="#efcab9"/>
        <path id="Trazado_831522" data-name="Trazado 831522" d="M199.474,282.634a13.658,13.658,0,0,1-4.832-2.213c3.167,1.489,4.6.235,4.34.26a9.059,9.059,0,0,1-1.916-.563c-.454-.184-4.491-2.335-4.166-2.75a12.461,12.461,0,0,0,2.478-.487c.2-.664-1.774-.859-2.169-.891a5.887,5.887,0,0,0-2.867.626c-2.5-2.239-4.59-4.59-6.969-6.974-1.189-1.194-2.357-2.4-3.472-3.622-.555-.609-1.1-1.221-1.6-1.827-1.247-1.507-.951-2.758-.7-4.57.215-1.587.489-3.218.8-4.854.321-1.7.67-3.428,1.04-5.144a4.515,4.515,0,1,0-8.917-1.232c-.109,1.828-.195,3.655-.257,5.507-.059,1.756-.086,3.525-.052,5.345a24.4,24.4,0,0,0,.311,4.359c.436,2.146,1.743,3.5,3.3,4.935.688.616,1.372,1.189,2.059,1.75,1.374,1.115,2.755,2.175,4.147,3.212,2.775,2.059,5.564,4.04,8.457,5.948a7.065,7.065,0,0,0,2.862,3.707c2.223,1.39,4.727,2.049,4.576,1.7a5.276,5.276,0,0,1-2.075-1.524c1.52.751,4.461,1.006,4.1.7a8.158,8.158,0,0,1-3.742-2.013c2.632,1.326,5.668,1.157,5.27.615" transform="translate(-126.531 -100.525)" fill="#efcab9"/>
        <path id="Trazado_831523" data-name="Trazado 831523" d="M177.137,224.092a1.913,1.913,0,0,0-1.71.536c-2.017,2.108-7.823,8.967-8.534,18.678,2.442,1.436,12.016.959,12.016.959s4.433-19.149-1.772-20.173" transform="translate(-125.169 -92.257)" fill="#db617d"/>
        <g id="Grupo_1082123" data-name="Grupo 1082123" transform="translate(62.995 119.811)" opacity="0.5" style="mix-blend-mode: multiply;isolation: isolate">
          <g id="Grupo_1082122" data-name="Grupo 1082122">
            <g id="Grupo_1082121" data-name="Grupo 1082121" clip-path="url(#clip-path-12)">
              <path id="Trazado_831524" data-name="Trazado 831524" d="M204.323,203.672s-.647,4.427-1.269,7.1a7.334,7.334,0,0,0,4.6-1.33,8.547,8.547,0,0,1,.3-4.148Z" transform="translate(-203.054 -203.672)" fill="#efcab9"/>
            </g>
          </g>
        </g>
        <path id="Trazado_831525" data-name="Trazado 831525" d="M204.079,177.328a1.632,1.632,0,1,1-1.737-1.521,1.633,1.633,0,0,1,1.737,1.521" transform="translate(-139.138 -72.386)" fill="#db617d"/>
        <g id="Grupo_1082126" data-name="Grupo 1082126" transform="translate(61.851 104.543)" opacity="0.5" style="mix-blend-mode: multiply;isolation: isolate">
          <g id="Grupo_1082125" data-name="Grupo 1082125">
            <g id="Grupo_1082124" data-name="Grupo 1082124" clip-path="url(#clip-path-13)">
              <path id="Trazado_831526" data-name="Trazado 831526" d="M204.2,178.116a1.644,1.644,0,0,0-.074-.375,3.16,3.16,0,0,0-3.017,1.209,1.632,1.632,0,0,0,3.09-.834" transform="translate(-201.108 -177.717)" fill="#db617d"/>
            </g>
          </g>
        </g>
        <path id="Trazado_831527" data-name="Trazado 831527" d="M199.428,188.505a12.836,12.836,0,0,0,4.8,10.7c1.877,1.521,4.6,2.171,6.515.164a8.278,8.278,0,0,0,2.085-6.049c-.074-2.967-.472-6.571-2.8-8.7a7.407,7.407,0,0,0-6.73-1.568c-2.546.66-3.7,2.957-3.87,5.45" transform="translate(-138.554 -75.275)" fill="#efcab9"/>
        <path id="Trazado_831528" data-name="Trazado 831528" d="M211.163,202.965a8.644,8.644,0,0,1-.87,4.054s3.673,2.232,4.751,1.714c2.128-.9,2.7-4.119,2.852-5.547a.63.63,0,0,0-.622-.7c-1.64-.015-5.734,0-6.112.477" transform="translate(-143.039 -83.372)" fill="#b2e6ff"/>
        <path id="Trazado_831529" data-name="Trazado 831529" d="M207.383,203.692c-.512,0-1.027-.01-1.426-.04a.26.26,0,0,1-.241-.279.255.255,0,0,1,.279-.241c1.135.082,3.355,0,3.377,0a.272.272,0,0,1,.271.251.262.262,0,0,1-.251.271c-.061,0-1.025.039-2.01.039" transform="translate(-141.154 -83.638)" fill="#b2e6ff"/>
        <path id="Trazado_831530" data-name="Trazado 831530" d="M207.967,209.344a7.128,7.128,0,0,1-3.224-1.119.261.261,0,1,1,.252-.457c2.3,1.267,3.177,1.038,3.187,1.034a.262.262,0,0,1,.325.171.259.259,0,0,1-.16.325,1.206,1.206,0,0,1-.38.047" transform="translate(-140.699 -85.534)" fill="#b2e6ff"/>
        <g id="Grupo_1082129" data-name="Grupo 1082129" transform="translate(67.254 120.136)" opacity="0.5" style="mix-blend-mode: multiply;isolation: isolate">
          <g id="Grupo_1082128" data-name="Grupo 1082128">
            <g id="Grupo_1082127" data-name="Grupo 1082127" clip-path="url(#clip-path-14)">
              <path id="Trazado_831531" data-name="Trazado 831531" d="M217.859,204.225c-.661.868-1.834,1.325-1.991,1.818-.211.658.123,1.053-1.771,1.423a5.578,5.578,0,0,1-3.422-.663c-.2.557-.381.933-.381.933s3.673,2.232,4.751,1.715c1.981-.836,2.614-3.684,2.814-5.225" transform="translate(-210.293 -204.225)" fill="#b2e6ff"/>
            </g>
          </g>
        </g>
        <path id="Trazado_831532" data-name="Trazado 831532" d="M202.94,197.446a28.293,28.293,0,0,0,1.558,4c.713,1.268-.513,1.749-1.336.545,0,0-.455-1.3-.967-1.464-.472-.146-.859.653-.922.99a1.629,1.629,0,0,0,.212,1.1c.221.389.689.681.824,1.113.159.511-.245.694-.638.526a6.327,6.327,0,0,1-1.337-.9c-2.278-1.781-2.484-5.686-2.484-5.686s3.505-1.985,5.091-.225" transform="translate(-137.915 -80.998)" fill="#5f3e1b"/>
        <path id="Trazado_831533" data-name="Trazado 831533" d="M211.392,184.579s-.792-7.1-8.809-5.854a4.229,4.229,0,0,0-1.511.549c-1.606.961-4.861,3.464-3.737,7.974.646.532,9.583.761,14.057-2.67" transform="translate(-137.608 -73.529)" fill="#edcfd6"/>
        <path id="Trazado_831534" data-name="Trazado 831534" d="M209.89,187.095a.156.156,0,0,1-.156-.138,11.322,11.322,0,0,0-4.219-7.381.158.158,0,0,1,.181-.258,11.671,11.671,0,0,1,4.35,7.6.157.157,0,0,1-.136.176h-.019" transform="translate(-141.044 -73.822)" fill="#dda8bf"/>
        <path id="Trazado_831535" data-name="Trazado 831535" d="M214.984,184.368a.158.158,0,0,1-.146-.1,8.57,8.57,0,0,0-6.323-5.071.158.158,0,0,1-.135-.176.154.154,0,0,1,.177-.135,8.9,8.9,0,0,1,6.573,5.264.157.157,0,0,1-.087.2.148.148,0,0,1-.059.012" transform="translate(-142.251 -73.656)" fill="#dda8bf"/>
        <path id="Trazado_831536" data-name="Trazado 831536" d="M199.257,187.949a.157.157,0,0,1-.155-.134c-.726-4.863,2.185-6.688,2.214-6.707a.157.157,0,0,1,.164.269c-.028.017-2.76,1.745-2.067,6.391a.157.157,0,0,1-.132.179l-.024,0" transform="translate(-138.383 -74.562)" fill="#dda8bf"/>
        <path id="Trazado_831537" data-name="Trazado 831537" d="M205.15,187.119a.157.157,0,0,1-.154-.127,38.564,38.564,0,0,1-.654-6.334.157.157,0,0,1,.157-.158h0a.157.157,0,0,1,.157.156,38.251,38.251,0,0,0,.647,6.275.157.157,0,0,1-.124.185l-.03,0" transform="translate(-140.589 -74.32)" fill="#dda8bf"/>
        <path id="Trazado_831538" data-name="Trazado 831538" d="M216.2,199.785c.041.5-.144.927-.415.949s-.523-.366-.564-.869.144-.927.414-.949.524.367.565.869" transform="translate(-145.064 -81.903)" fill="#5f3e1b"/>
        <path id="Trazado_831539" data-name="Trazado 831539" d="M212.6,197.631a.315.315,0,0,1-.035-.627c1.932-.219,2.048-1.368,2.051-1.417a.317.317,0,0,1,.336-.29.313.313,0,0,1,.292.33c0,.07-.128,1.72-2.608,2l-.036,0" transform="translate(-143.86 -80.413)" fill="#5f3e1b"/>
        <path id="Trazado_831540" data-name="Trazado 831540" d="M220.206,199.553c.038.455.266.808.512.787s.413-.405.375-.861-.266-.807-.511-.787-.414.405-.376.861" transform="translate(-147.119 -81.811)" fill="#5f3e1b"/>
        <path id="Trazado_831541" data-name="Trazado 831541" d="M221.941,197.1l-.036,0c-2.031-.23-2.133-1.6-2.137-1.656a.315.315,0,0,1,.3-.332.3.3,0,0,1,.332.292c0,.043.1.9,1.58,1.072a.315.315,0,0,1-.035.627" transform="translate(-146.94 -80.335)" fill="#5f3e1b"/>
        <g id="Grupo_1082132" data-name="Grupo 1082132" transform="translate(59.549 107.04)" style="mix-blend-mode: multiply;isolation: isolate">
          <g id="Grupo_1082131" data-name="Grupo 1082131">
            <g id="Grupo_1082130" data-name="Grupo 1082130" clip-path="url(#clip-path-15)">
              <path id="Trazado_831542" data-name="Trazado 831542" d="M209.515,181.962c-.871,1.606-3.9,4.913-12.32,5.668a7.727,7.727,0,0,0,.178,1.013c.646.532,9.583.76,14.057-2.67a7.683,7.683,0,0,0-1.915-4.011" transform="translate(-197.195 -181.962)" fill="#edcfd6"/>
            </g>
          </g>
        </g>
        <path id="Trazado_831543" data-name="Trazado 831543" d="M211.912,189.1a.689.689,0,0,0-.9-.35,44.012,44.012,0,0,1-14,2.665.68.68,0,0,0-.685.722l.194,2.087a.7.7,0,0,0,.7.6,37.312,37.312,0,0,0,14.933-2.849.614.614,0,0,0,.374-.692,15.329,15.329,0,0,0-.616-2.187" transform="translate(-137.289 -77.697)" fill="#db617d"/>
        <g id="Grupo_1082135" data-name="Grupo 1082135" transform="translate(59.189 111.639)" opacity="0.5" style="mix-blend-mode: multiply;isolation: isolate">
          <g id="Grupo_1082134" data-name="Grupo 1082134">
            <g id="Grupo_1082133" data-name="Grupo 1082133" clip-path="url(#clip-path-16)">
              <path id="Trazado_831544" data-name="Trazado 831544" d="M212.261,192.426a.614.614,0,0,0,.374-.692,16.98,16.98,0,0,0-.529-1.954c-.707,1.133-2.821,3.435-8.007,4.129a28.556,28.556,0,0,1-7.514.265l.046.5a.7.7,0,0,0,.7.6,37.315,37.315,0,0,0,14.933-2.848" transform="translate(-196.584 -189.78)" fill="#db617d"/>
            </g>
          </g>
        </g>
        <g id="Grupo_1082138" data-name="Grupo 1082138" transform="translate(68.169 140.356)" opacity="0.5" style="mix-blend-mode: multiply;isolation: isolate">
          <g id="Grupo_1082137" data-name="Grupo 1082137">
            <g id="Grupo_1082136" data-name="Grupo 1082136" clip-path="url(#clip-path-17)">
              <path id="Trazado_831545" data-name="Trazado 831545" d="M227.328,243.02a60.659,60.659,0,0,0-5.8-4.423s.222,11.074.884,14.287-8.02,11.683-10.246,13.353,7.884,0,7.884,0,3.1-1.839,5.926-3.766c.212-7.04,1.361-14.386,1.361-18.886,0-.191-.008-.376-.011-.565" transform="translate(-211.849 -238.598)" fill="#db617d"/>
            </g>
          </g>
        </g>
        <path id="Trazado_831546" data-name="Trazado 831546" d="M222.332,252.895q-.132-2.389-.326-4.752l-.009-.1a4.256,4.256,0,0,0-5-3.827l-.335.061a4.264,4.264,0,0,0-3.4,5.145l.01.044q.5,2.214.934,4.424c.289,1.472.546,2.936.759,4.374a32.366,32.366,0,0,1,.338,3.241c-.166.135-.356.277-.546.415a28.635,28.635,0,0,1-2.433,1.514c-1.74.982-3.6,1.9-5.468,2.788-3.753,1.768-6.135,2.69-10.01,4.243a5.872,5.872,0,0,0-2.574-1.409c-.388-.082-2.332-.449-2.332.243a12.461,12.461,0,0,0,2.241,1.166c.195.49-4.286,1.415-4.773,1.464a9.1,9.1,0,0,1-2,0c-.244-.1.779,1.509,4.237.974a13.667,13.667,0,0,1-5.26.761c-.536.408,2.329,1.425,5.229.894a8.151,8.151,0,0,1-4.158.877c-.438.195,2.455.779,4.125.487a5.283,5.283,0,0,1-2.421.876c-.244.292,2.345.366,4.87-.341a7.113,7.113,0,0,0,3.819-2.794c4.151-1.023,6.747-1.4,10.856-2.669,2.054-.643,4.1-1.318,6.177-2.131,1.039-.412,2.08-.847,3.171-1.407a13.986,13.986,0,0,0,1.726-1.033,8.649,8.649,0,0,0,1-.819c.21-.224.415-.466.606-.713a5.8,5.8,0,0,0,.639-1.237l.062-.165.065-.417a31.906,31.906,0,0,0,.33-5.333c-.012-1.641-.068-3.249-.155-4.842" transform="translate(-133.171 -100.525)" fill="#efcab9"/>
        <path id="Trazado_831547" data-name="Trazado 831547" d="M227.816,220.39s8.5,2.441,12.386,19.782c-1.074,2.148-10.279,2.455-10.279,2.455s-3.6-16.4-2.107-22.237" transform="translate(-150.105 -90.745)" fill="#db617d"/>
        <path id="Trazado_831548" data-name="Trazado 831548" d="M227.816,220.39s8.5,2.441,12.386,19.782c-1.074,2.148-10.279,2.455-10.279,2.455s-3.6-16.4-2.107-22.237" transform="translate(-150.105 -90.745)" fill="#db617d"/>
        <g id="Grupo_1082141" data-name="Grupo 1082141" transform="translate(80.867 141.133)" opacity="0.5" style="mix-blend-mode: multiply;isolation: isolate">
          <g id="Grupo_1082140" data-name="Grupo 1082140">
            <g id="Grupo_1082139" data-name="Grupo 1082139" clip-path="url(#clip-path-18)">
              <path id="Trazado_831549" data-name="Trazado 831549" d="M233.435,250.613c2.442-.154,8.381-.7,9.231-2.4a48.33,48.33,0,0,0-2.6-8.294c-.594,3.452-2.221,8.943-6.63,10.694" transform="translate(-233.435 -239.919)" fill="#db617d"/>
            </g>
          </g>
        </g>
        <g id="Grupo_1082144" data-name="Grupo 1082144" transform="translate(41.724 145.531)" opacity="0.5" style="mix-blend-mode: multiply;isolation: isolate">
          <g id="Grupo_1082143" data-name="Grupo 1082143">
            <g id="Grupo_1082142" data-name="Grupo 1082142" clip-path="url(#clip-path-19)">
              <path id="Trazado_831550" data-name="Trazado 831550" d="M167.883,247.4a27.467,27.467,0,0,0-.989,5.517c2.441,1.436,12.015.959,12.015.959-5.125-.256-8.837-3.69-11.026-6.476" transform="translate(-166.893 -247.395)" fill="#db617d"/>
            </g>
          </g>
        </g>
        <path id="Trazado_831551" data-name="Trazado 831551" d="M460.275,131.707H422.513a8.819,8.819,0,0,0-8.819,8.819v146.76a8.819,8.819,0,0,0,8.819,8.819h37.762a8.819,8.819,0,0,0,8.819-8.819V140.526a8.819,8.819,0,0,0-8.819-8.819" transform="translate(-226.789 -54.23)" fill="#33586a"/>
        <g id="Grupo_1082147" data-name="Grupo 1082147" transform="translate(186.906 139.351)" opacity="0.5" style="mix-blend-mode: multiply;isolation: isolate">
          <g id="Grupo_1082146" data-name="Grupo 1082146">
            <g id="Grupo_1082145" data-name="Grupo 1082145" clip-path="url(#clip-path-20)">
              <path id="Trazado_831552" data-name="Trazado 831552" d="M413.7,236.89V330.6a8.819,8.819,0,0,0,8.819,8.819h37.762A8.819,8.819,0,0,0,469.1,330.6V302.248c-16.259-19.238-36.454-43.092-55.4-65.358" transform="translate(-413.695 -236.89)" fill="#85c7db"/>
            </g>
          </g>
        </g>
        <path id="Trazado_831553" data-name="Trazado 831553" d="M409.877,131.707h-78.77a8.819,8.819,0,0,0-8.819,8.819v146.76a8.819,8.819,0,0,0,8.819,8.819h78.77a8.819,8.819,0,0,0,8.819-8.819V140.526a8.819,8.819,0,0,0-8.819-8.819" transform="translate(-189.153 -54.23)" fill="#db617d"/>
        <g id="Grupo_1082150" data-name="Grupo 1082150" transform="translate(133.135 91.899)" opacity="0.5" style="mix-blend-mode: multiply;isolation: isolate">
          <g id="Grupo_1082149" data-name="Grupo 1082149" transform="translate(0)">
            <g id="Grupo_1082148" data-name="Grupo 1082148" clip-path="url(#clip-path-21)">
              <path id="Trazado_831554" data-name="Trazado 831554" d="M322.288,156.223V297.381a8.819,8.819,0,0,0,8.819,8.819h78.77a8.819,8.819,0,0,0,8.819-8.819v-27.99c-30.5-36.078-73.226-86.476-96.408-113.168" transform="translate(-322.288 -156.223)" fill="#db617d"/>
            </g>
          </g>
        </g>
        <path id="Trazado_831555" data-name="Trazado 831555" d="M493.935,165.351v25.226a5,5,0,0,0,5-5V170.355a5,5,0,0,0-5-5" transform="translate(-259.828 -68.083)" fill="#4c859b"/>
        <path id="Trazado_831556" data-name="Trazado 831556" d="M498.939,226.152c0,2-.84,3.62-2.839,3.62s-2.165-1.621-2.165-3.62.165-3.62,2.165-3.62,2.839,1.621,2.839,3.62" transform="translate(-259.828 -91.627)" fill="#4c859b"/>
        <path id="Trazado_831557" data-name="Trazado 831557" d="M498.939,246.212c0,2-.84,3.62-2.839,3.62s-2.165-1.621-2.165-3.62.165-3.62,2.165-3.62,2.839,1.621,2.839,3.62" transform="translate(-259.828 -99.886)" fill="#4c859b"/>
        <path id="Trazado_831558" data-name="Trazado 831558" d="M385.124,146.841a5,5,0,0,0-4.4,2.794,6.083,6.083,0,0,1-10.8,0,4.993,4.993,0,0,0-4.4-2.794H336.174V285.288h80.071V146.841Z" transform="translate(-194.87 -60.461)" fill="#b7ebf7"/>
        <path id="Trazado_831559" data-name="Trazado 831559" d="M403.847,144.216a3.751,3.751,0,1,1-3.751-3.751,3.751,3.751,0,0,1,3.751,3.751" transform="translate(-219.646 -57.836)" fill="#33586a"/>
        <path id="Trazado_831560" data-name="Trazado 831560" d="M404.742,389.707H382.76a3.983,3.983,0,1,0,0,7.966h21.982a3.983,3.983,0,1,0,0-7.966" transform="translate(-212.412 -160.461)" fill="#fff"/>
        <g id="Grupo_1082153" data-name="Grupo 1082153" transform="translate(141.304 110.889)" style="mix-blend-mode: multiply;isolation: isolate">
          <g id="Grupo_1082152" data-name="Grupo 1082152" transform="translate(0)">
            <g id="Grupo_1082151" data-name="Grupo 1082151" clip-path="url(#clip-path-22)">
              <path id="Trazado_831561" data-name="Trazado 831561" d="M336.174,188.506V302.444h80.071V282.494c-22.255-26.357-62.873-74.352-80.071-93.988" transform="translate(-336.174 -188.506)" fill="#b7ebf7"/>
            </g>
          </g>
        </g>
      </g>
    </g>
    <g id="Grupo_1082163" data-name="Grupo 1082163" transform="translate(197.756 86.379)">
      <g id="Grupo_1082162" data-name="Grupo 1082162" clip-path="url(#clip-path-23)">
        <path id="Trazado_831562" data-name="Trazado 831562" d="M380.182,431.436l.259,5.035a2.856,2.856,0,0,0,1.635.408,1.957,1.957,0,0,0,1.533-.554l-.075-4.888Z" transform="translate(-354.294 -264.021)" fill="#efcab9"/>
        <path id="Trazado_831563" data-name="Trazado 831563" d="M373.957,439.711s-1.31-.912-2.193,0a6.438,6.438,0,0,1-4.311,2.442c-2.206.207-3.086.477-3.016,2.27.6.316,6.424.712,13.841,0,0,0,.828-5.956-1.154-4.858a16.739,16.739,0,0,1-3.167.146" transform="translate(-347.81 -267.262)" fill="#3e7e8c"/>
        <path id="Trazado_831564" data-name="Trazado 831564" d="M390.948,291.212l-8.267-1.781a4.681,4.681,0,0,0-5.623,3.945c-.739,5.475-1.455,10.938-2.147,16.425l-1.3,10.763a113.44,113.44,0,0,0-.391,22.62c.055.619.941,10.71.941,10.71l1.886,21.462,5.656-.082,1.335-21.444.668-10.714.333-5.354.167-2.677.042-.669a44.991,44.991,0,0,1,1.489-6.2l1.341-5.085,2.85-10.286q2.224-7.87,4.524-15.746a4.674,4.674,0,0,0-3.5-5.884" transform="translate(-351.265 -205.508)" fill="#33586a"/>
        <g id="Grupo_1082158" data-name="Grupo 1082158" transform="translate(21.577 88.452)" opacity="0.5" style="mix-blend-mode: multiply;isolation: isolate">
          <g id="Grupo_1082157" data-name="Grupo 1082157">
            <g id="Grupo_1082156" data-name="Grupo 1082156" clip-path="url(#clip-path-24)">
              <path id="Trazado_831565" data-name="Trazado 831565" d="M383.109,297.2s-3.43.124-6.151.263c-.7,5.191-1.378,10.374-2.034,15.579l-1.3,10.763c-.451,4.162-.719,8.206-.769,12.266.849-3.125,2.435-8.12,4.312-9.994,1.964-1.961,8.343-5.394,12.025-7.293l.749-2.7q2.117-7.492,4.306-14.992c-1.1-1.3-11.135-3.889-11.135-3.889" transform="translate(-372.853 -297.204)" fill="#33586a"/>
            </g>
          </g>
        </g>
        <path id="Trazado_831566" data-name="Trazado 831566" d="M442.009,432.152l1.812,4.7a2.853,2.853,0,0,0,1.68-.121,1.957,1.957,0,0,0,1.285-1l-1.591-4.623Z" transform="translate(-379.751 -263.887)" fill="#efcab9"/>
        <path id="Trazado_831567" data-name="Trazado 831567" d="M439.63,439.886s-1.529-.46-2.085.682a6.438,6.438,0,0,1-3.338,3.661c-2.032.882-2.785,1.413-2.161,3.095.667.115,6.328-1.32,13.156-4.3,0,0-1.064-5.918-2.607-4.259a16.78,16.78,0,0,1-2.965,1.124" transform="translate(-375.561 -266.917)" fill="#3e7e8c"/>
        <path id="Trazado_831568" data-name="Trazado 831568" d="M425.759,355.351l-2.529-10.432-1.264-5.214-.632-2.607-.158-.651a45.158,45.158,0,0,1-.411-6.366c-.017-.409-.221-5.254-.221-5.254l-.318-10.669c-.125-5.04-.228-10.1-.312-15.148a5.822,5.822,0,0,0-6.33-5.708l-5.968.526a5.821,5.821,0,0,0-5.232,6.757q1.271,7.561,2.6,15.108l1.937,10.667a113.434,113.434,0,0,0,6.313,21.724l4.064,9.953,8.146,19.945,5.38-1.75Z" transform="translate(-363.402 -207.135)" fill="#33586a"/>
        <g id="Grupo_1082161" data-name="Grupo 1082161" transform="translate(39.668 94.405)" opacity="0.5" style="mix-blend-mode: multiply;isolation: isolate">
          <g id="Grupo_1082160" data-name="Grupo 1082160">
            <g id="Grupo_1082159" data-name="Grupo 1082159" clip-path="url(#clip-path-25)">
              <path id="Trazado_831569" data-name="Trazado 831569" d="M420.882,323.944l-.119-4c-.1-4.011-.175-8.035-.248-12.056a4.031,4.031,0,0,0-3.415-.322l-7,.461a51.206,51.206,0,0,0-6.488,2.381q.941,5.534,1.914,11.071l1.937,10.667c.8,4.116,1.742,8.064,2.9,11.964.368-3.667,1.089-9.834,1.915-11.474.742-1.475,5.277-5.7,8.613-8.687" transform="translate(-403.607 -307.323)" fill="#33586a"/>
            </g>
          </g>
        </g>
      </g>
    </g>
    <g id="Grupo_1082174" data-name="Grupo 1082174" transform="translate(56.452)">
      <g id="Grupo_1082173" data-name="Grupo 1082173" clip-path="url(#clip-path-2)">
        <path id="Trazado_831571" data-name="Trazado 831571" d="M324.071,208.327a5.823,5.823,0,0,0-.473-3.851c-1-1.945-.457-2.513-.809-2.81s-1.06,1.645-.507,3.265a5.178,5.178,0,0,1-2.389-2.554c-.532-1.182-.885-3.09-1.15-3.29s-.436,2,.19,3.972c-.411-.069-1.6-4.375-1.85-4.758s-.64,2.359.489,5.188c0,0-1.327-1.78-1.921-2.689s.134,1.712,1.4,3.673c-.373.071-2.042-2.189-2.317-2.2s1.29,3.252,2.5,4.657a18.4,18.4,0,0,0,4.345,2.982Z" transform="translate(-186.032 -81.636)" fill="#efcab9"/>
        <path id="Trazado_831572" data-name="Trazado 831572" d="M365.14,210.889a5.431,5.431,0,0,0-7.657.616c-1.345,1.581-2.792,3.21-4.218,4.792s-8.483,7.716-10.593,9.69q-.806-.634-1.6-1.314c-1.42-1.22-10.688-11.3-11.88-12.8l-3.945,2.667c1.007,1.811,2.634,4.26,3.715,5.991s2.194,3.43,3.38,5.106,2.414,3.338,3.767,4.951c1.665,1.988,4.2,6.118,7.237,4.332a133.291,133.291,0,0,0,11.18-7.506c1.792-1.316,3.557-2.658,5.31-4.017s3.473-2.719,5.235-4.171l.029-.022a5.531,5.531,0,0,0,.659-.654,5.432,5.432,0,0,0-.616-7.657" transform="translate(-190.369 -86.299)" fill="#fffffc"/>
        <path id="Trazado_831573" data-name="Trazado 831573" d="M380.112,210.889a5.431,5.431,0,0,0-7.657.616c-1.345,1.581-2.792,3.21-4.218,4.792-.447.494-1.438,1.428-2.654,2.54l-.966,9.155-3.01,4.887c2.716-1.748,5.319-3.59,7.887-5.47,1.792-1.316,3.557-2.658,5.31-4.017s3.472-2.719,5.235-4.171l.029-.022a5.522,5.522,0,0,0,.659-.654,5.431,5.431,0,0,0-.615-7.657" transform="translate(-205.342 -86.299)" fill="#ecf6ff"/>
        <path id="Trazado_831574" data-name="Trazado 831574" d="M408.917,247.88c-.282-8.85-.131-23.3-.112-31.106a6.094,6.094,0,0,0-4.22-5.807,56.823,56.823,0,0,0-11.457-2.406,11.706,11.706,0,0,0-1.85-.036l-10.2.594a4,4,0,0,0-3.485,2.534,62.554,62.554,0,0,0-3.587,16.742c-.565,9.985-.551,47.634-.551,47.634a41.111,41.111,0,0,0,10.98,2.132l2.71-7.734,2.344,7.784c4.382.248,14.983-.824,14.983-.824l1.855-4.875,1.064,4.162,4.147-.169s-2.338-19.677-2.623-28.626" transform="translate(-210.221 -85.851)" fill="#fffffc"/>
        <path id="Trazado_831575" data-name="Trazado 831575" d="M395.115,208.9s-3.828,8.519-1.295,24.452l10.959-24.163a65.248,65.248,0,0,0-9.664-.289" transform="translate(-218.249 -85.983)" fill="#3e7e8c"/>
        <path id="Trazado_831576" data-name="Trazado 831576" d="M405.177,195.139s-4.263-1.531-4.671.889c.11,2.856-.256,5.14-4.007,7.041,0,0-1.288,5.221,2.937,4.917a7.34,7.34,0,0,0,6.727-4.628c-3.294-2.834-.986-8.219-.986-8.219" transform="translate(-219.633 -80.151)" fill="#efcab9"/>
        <path id="Trazado_831577" data-name="Trazado 831577" d="M405.386,209.444l-10.959,24.164,10.959-9.468-1.478-5.577,4.954-6.365Z" transform="translate(-218.856 -86.238)" fill="#b8e1ff"/>
        <path id="Trazado_831578" data-name="Trazado 831578" d="M392.491,208.954s-3.025,12.629-1.295,24.452c-2.539-4.37-4.615-12.824-4.615-12.824l2.275-4.224-1.3-4.955Z" transform="translate(-215.625 -86.036)" fill="#b8e1ff"/>
        <g id="Grupo_1082166" data-name="Grupo 1082166" transform="translate(179.988 114.745)" opacity="0.5" style="mix-blend-mode: multiply;isolation: isolate">
          <g id="Grupo_1082165" data-name="Grupo 1082165">
            <g id="Grupo_1082164" data-name="Grupo 1082164" clip-path="url(#clip-path-27)">
              <path id="Trazado_831579" data-name="Trazado 831579" d="M406.649,195.06c-.738.455-2.384,1.355-3.815,2.124a6.359,6.359,0,0,1-.9,3.471,6.214,6.214,0,0,0,5.272,1.144c-1.266-2.867.284-6.5.284-6.5s-.345-.122-.842-.242" transform="translate(-401.936 -195.06)" fill="#efcab9"/>
            </g>
          </g>
        </g>
        <path id="Trazado_831580" data-name="Trazado 831580" d="M402.253,174.937c-4.535-.711-7.173,1.824-7.641,4.44,0,0-2.386,10.913.634,12.221s8.827-.544,11.366-5.8c2.145-4.711.176-10.151-4.358-10.862" transform="translate(-218.563 -71.98)" fill="#efcab9"/>
        <path id="Trazado_831581" data-name="Trazado 831581" d="M393.256,179.706s-1.821-4.688-.768-7.414c.7-1.218,2.091-.421,2.022-.784s-1.334-5.018,2.708-4.97,10.392,5.353,12.343,7.395-.854,11.179-6.7,12.356a5.834,5.834,0,0,0,.5-1.048c.231-.465.266-1.01.678-1.336a3.282,3.282,0,0,0,1.191-1.549c.283-.946-.231-1.936-1.279-1.8-.966.123-1.2,1-1.251,1.842-.1,1.792-1.187,1.91-1.484.815s1.186-6.666,1.186-6.666a11.9,11.9,0,0,1-7.026-1.3c-.857.851-2.121,4.465-2.121,4.465" transform="translate(-217.922 -68.571)" fill="#3e7e8c"/>
        <path id="Trazado_831582" data-name="Trazado 831582" d="M400.738,189.617c-.131.509-.016.979.258,1.049s.6-.284.734-.793.016-.979-.258-1.049-.6.284-.734.793" transform="translate(-221.432 -77.744)" fill="#5f3e1b"/>
        <path id="Trazado_831583" data-name="Trazado 831583" d="M403.929,187.182a.328.328,0,0,1-.588.288c-1-1.768-2.145-1.412-2.194-1.4a.331.331,0,0,1-.415-.2.327.327,0,0,1,.2-.415c.069-.025,1.7-.575,2.982,1.694a.264.264,0,0,1,.017.034" transform="translate(-221.444 -76.329)" fill="#0d7384"/>
        <path id="Trazado_831584" data-name="Trazado 831584" d="M396.736,188.674c-.119.461-.417.783-.665.719s-.353-.49-.234-.951.417-.783.665-.719.353.49.234.951" transform="translate(-219.416 -77.291)" fill="#5f3e1b"/>
        <path id="Trazado_831585" data-name="Trazado 831585" d="M393.8,185.058a.227.227,0,0,1,.026-.026c1.6-1.408,2.729-.529,2.777-.491a.328.328,0,0,1,.049.461.317.317,0,0,1-.458.052c-.035-.027-.769-.555-1.935.471a.328.328,0,0,1-.459-.466" transform="translate(-218.563 -75.858)" fill="#0d7384"/>
        <path id="Trazado_831586" data-name="Trazado 831586" d="M397.362,190.4q-.478.517-.913,1.069a6.889,6.889,0,0,0-.778,1.144c-.095.194-.184.431-.122.556a.6.6,0,0,0,.438.285,6.662,6.662,0,0,0,1.362.158.016.016,0,0,1,.016.016.017.017,0,0,1-.011.015,3.1,3.1,0,0,1-1.441.117,1.419,1.419,0,0,1-.375-.138.65.65,0,0,1-.284-.354,1.024,1.024,0,0,1,.2-.774,7.071,7.071,0,0,1,.88-1.127q.486-.517,1.011-.989a.016.016,0,0,1,.022,0,.016.016,0,0,1,0,.021" transform="translate(-219.188 -78.384)" fill="#e8a489"/>
        <path id="Trazado_831587" data-name="Trazado 831587" d="M395.544,197.854c.39.042.748.079,1.108.092a7.937,7.937,0,0,0,1.073.029,3.906,3.906,0,0,0,1.063-.253,5.07,5.07,0,0,0,1-.5.024.024,0,0,1,.033.006.026.026,0,0,1,0,.032,5.253,5.253,0,0,1-.935.675,4.211,4.211,0,0,1-1.1.411,2.785,2.785,0,0,1-1.191.066,2.16,2.16,0,0,1-1.072-.519.024.024,0,0,1,0-.035.032.032,0,0,1,.023-.007" transform="translate(-219.303 -81.205)" fill="#d67e5f"/>
        <g id="Grupo_1082169" data-name="Grupo 1082169" transform="translate(174.712 102.818)" opacity="0.5" style="mix-blend-mode: multiply;isolation: isolate">
          <g id="Grupo_1082168" data-name="Grupo 1082168">
            <g id="Grupo_1082167" data-name="Grupo 1082167" clip-path="url(#clip-path-28)">
              <path id="Trazado_831588" data-name="Trazado 831588" d="M406.556,182.147c.755-1.4-.1-2.478-2.265-3.032s-4.731-4.077-6.543-4.311-2.114,1.946-2.114,1.946a2.171,2.171,0,0,0-1.809.2c-.664.35-.823,2.722-.859,4.137a19.433,19.433,0,0,0,.621,2.014s1.264-3.614,2.121-4.465a11.9,11.9,0,0,0,7.026,1.3s-1.484,5.571-1.186,6.666,1.382.977,1.484-.815c.048-.845.284-1.719,1.251-1.842,1.048-.133,1.562.857,1.279,1.8a3.282,3.282,0,0,1-1.191,1.549c-.412.326-.447.871-.678,1.336a5.835,5.835,0,0,1-.5,1.048c2.789-.562,4.884-2.939,6.1-5.492-2.248.582-3.427-.781-2.742-2.047" transform="translate(-392.967 -174.786)" fill="#3e7e8c"/>
            </g>
          </g>
        </g>
        <path id="Trazado_831589" data-name="Trazado 831589" d="M416.841,289.342l1.855-4.874,1.065,4.161,4.147-.169s-2.338-19.678-2.624-28.626c-.194-6.106-.183-14.878-.151-22.294l-3.371.736s1.328,12.559,1.2,17.013-2.761,15.5-2.761,15.5l3.814,7.1s-1.052,4.6-3.814,6.576-12.706,5.608-12.706,5.608a114.913,114.913,0,0,0,13.35-.734" transform="translate(-222.588 -97.806)" fill="#ecf6ff"/>
        <path id="Trazado_831590" data-name="Trazado 831590" d="M442.634,298.073a5.821,5.821,0,0,0-1.859,3.4c-.325,2.161-1.094,2.309-.981,2.755s1.82-.719,2.315-2.358a5.176,5.176,0,0,1,.454,3.468c-.256,1.271-1.082,3.027-.982,3.344s1.521-1.374,2.161-3.339c.293.3-1.253,4.484-1.269,4.944s1.895-1.545,2.625-4.5c0,0,.042,2.22-.006,3.3s.889-1.469,1-3.8c.344.159.384,2.968.6,3.141s.846-3.394.681-5.241a18.4,18.4,0,0,0-1.794-4.956Z" transform="translate(-237.531 -122.731)" fill="#efcab9"/>
        <path id="Trazado_831591" data-name="Trazado 831591" d="M416.873,214.946a6.03,6.03,0,0,1,9.051.217c1.581,1.9,3.121,3.831,4.647,5.846a68.972,68.972,0,0,1,4.222,6.172c.338.574.673,1.149,1,1.836l.245.492.122.253.147.346.276.7.178.607a21.34,21.34,0,0,1,.659,4.18c.306,5.054-.718,23.55-1.4,28.138l-4.263-.281c-.109-4.528-.335-9.094-.689-13.593a89.589,89.589,0,0,0-1.8-13.042,12.411,12.411,0,0,0-.846-2.494l-.106-.2a.769.769,0,0,1-.083-.081l-.32-.4c-.228-.311-.545-.672-.862-1.034a61.293,61.293,0,0,0-4.447-4.428c-1.651-1.5-3.381-3-5.141-4.463A6.047,6.047,0,0,1,416.873,214.946Z" transform="translate(-227.437 -87.705)" fill="#fffffc"/>
        <path id="Trazado_831592" data-name="Trazado 831592" d="M393.727,253.384c-.06,1.355-.135,2.708-.17,4.062q-.087,2.029-.131,4.06c-.061,2.706-.114,5.411-.072,8.116,0,2.705.111,5.407.249,8.108.1,1.348.165,2.7.318,4.044.089,1.353.3,2.688.444,4.04a65.5,65.5,0,0,1-1.245-8.047c-.239-2.707-.346-5.424-.395-8.139.011-2.716.054-5.432.219-8.142s.395-5.415.782-8.1" transform="translate(-218.155 -104.33)" fill="#ecf6ff"/>
        <path id="Trazado_831593" data-name="Trazado 831593" d="M396.509,265.229a1.4,1.4,0,1,1-1.4-1.4,1.4,1.4,0,0,1,1.4,1.4" transform="translate(-218.563 -108.632)" fill="#b8e1ff"/>
        <path id="Trazado_831594" data-name="Trazado 831594" d="M397.047,289.927a1.4,1.4,0,1,1-1.4-1.4,1.4,1.4,0,0,1,1.4,1.4" transform="translate(-218.785 -118.801)" fill="#b8e1ff"/>
        <path id="Trazado_831595" data-name="Trazado 831595" d="M303.245,102.613H262.373a1.874,1.874,0,0,0-1.874,1.874v59.342a1.874,1.874,0,0,0,1.874,1.874h40.872a1.874,1.874,0,0,0,1.874-1.874V104.487a1.874,1.874,0,0,0-1.874-1.874" transform="translate(-163.711 -42.251)" fill="#fff"/>
        <rect id="Rectángulo_384117" data-name="Rectángulo 384117" width="14.872" height="14.872" transform="translate(101.592 64.269)" fill="#db617d"/>
        <path id="Trazado_831596" data-name="Trazado 831596" d="M279.418,118.117a2.7,2.7,0,1,0-2.7-2.7,2.7,2.7,0,0,0,2.7,2.7" transform="translate(-170.39 -46.412)" fill="#fff"/>
        <path id="Trazado_831597" data-name="Trazado 831597" d="M278.579,122.484h0a3.9,3.9,0,0,0-3.9,3.9v3.254h7.8v-3.254a3.9,3.9,0,0,0-3.9-3.9" transform="translate(-169.551 -50.432)" fill="#fff"/>
        <path id="Trazado_831598" data-name="Trazado 831598" d="M315.513,131.007H299.463a1.038,1.038,0,0,0,0,2.075h16.051a1.038,1.038,0,1,0,0-2.075" transform="translate(-179.327 -53.942)" fill="#db617d"/>
        <path id="Trazado_831599" data-name="Trazado 831599" d="M315.513,125.035H299.463a1.038,1.038,0,0,0,0,2.075h16.051a1.038,1.038,0,1,0,0-2.075" transform="translate(-179.327 -51.483)" fill="#db617d"/>
        <path id="Trazado_831600" data-name="Trazado 831600" d="M299.462,121.139h16.051a1.038,1.038,0,1,0,0-2.075H299.462a1.038,1.038,0,0,0,0,2.075" transform="translate(-179.327 -49.024)" fill="#db617d"/>
        <path id="Trazado_831601" data-name="Trazado 831601" d="M299.462,115.167h10.111a1.038,1.038,0,0,0,0-2.075H299.462a1.038,1.038,0,0,0,0,2.075" transform="translate(-179.327 -46.565)" fill="#db617d"/>
        <path id="Trazado_831602" data-name="Trazado 831602" d="M304.173,184.318H268.364v-14.78a.179.179,0,1,1,.357,0v14.423h35.452a.179.179,0,0,1,0,.357" transform="translate(-166.95 -69.733)" fill="#b1b1b0"/>
        <path id="Trazado_831603" data-name="Trazado 831603" d="M273.165,184.736a9.733,9.733,0,0,1,9.467-7.5c7.941-.138,10.193,6.069,13.254,5.848,3.454-.249,5.376-5.039,9.5-5.039v6.692Z" transform="translate(-168.926 -72.975)" fill="#85c7db"/>
        <rect id="Rectángulo_384118" data-name="Rectángulo 384118" width="2.646" height="2.646" transform="translate(101.593 116.582)" fill="#85c7db"/>
        <rect id="Rectángulo_384119" data-name="Rectángulo 384119" width="2.646" height="2.646" transform="translate(113.761 116.582)" fill="#3e7e8c"/>
        <rect id="Rectángulo_384120" data-name="Rectángulo 384120" width="2.646" height="2.646" transform="translate(125.929 116.582)" fill="#f6dc7c"/>
        <path id="Trazado_831604" data-name="Trazado 831604" d="M302.479,142.536H269.292a.929.929,0,0,0,0,1.858h33.187a.929.929,0,0,0,0-1.858" transform="translate(-166.949 -58.689)" fill="#3e7e8c"/>
        <path id="Trazado_831605" data-name="Trazado 831605" d="M302.479,150.421H269.292a.929.929,0,0,0,0,1.858h33.187a.929.929,0,0,0,0-1.858" transform="translate(-166.949 -61.935)" fill="#3e7e8c"/>
        <path id="Trazado_831606" data-name="Trazado 831606" d="M289.082,158.307H269.293a.929.929,0,0,0,0,1.858h19.789a.929.929,0,0,0,0-1.858" transform="translate(-166.95 -65.182)" fill="#3e7e8c"/>
        <path id="Trazado_831607" data-name="Trazado 831607" d="M421.037,448.622c0,1.169-13.849,2.118-30.933,2.118s-30.933-.948-30.933-2.118S373.019,446.5,390.1,446.5s30.933.948,30.933,2.118" transform="translate(-204.339 -183.846)" fill="#fffffc"/>
        <path id="Trazado_831608" data-name="Trazado 831608" d="M460.723,422.719a.315.315,0,0,1-.015-.629c16.526-.784,21.369-1.984,21.626-2.57-.057-.091-.992-1.265-15.95-2.217a.315.315,0,0,1,.02-.629h.021c16.535,1.052,16.535,2.369,16.535,2.865,0,.525,0,2.124-22.222,3.178h-.015" transform="translate(-246.023 -171.564)" fill="#33586a"/>
        <path id="Trazado_831609" data-name="Trazado 831609" d="M428.255,416.231h-.013c-7.957-.334-17.123-.509-26.509-.509-4.754,0-9.464.045-14,.134a.328.328,0,0,1-.321-.309.315.315,0,0,1,.308-.321c4.54-.089,9.254-.134,14.012-.134,9.394,0,18.569.176,26.535.511a.315.315,0,0,1-.013.629" transform="translate(-215.968 -170.913)" fill="#33586a"/>
        <path id="Trazado_831610" data-name="Trazado 831610" d="M343.719,422.29H343.7c-18.935-1.063-18.935-2.476-18.935-3.008,0-1.452,7.884-2.54,23.434-3.234a.3.3,0,0,1,.328.3.315.315,0,0,1-.3.329c-17.461.779-22.569,2.017-22.837,2.625.063.1,1.114,1.393,18.345,2.36a.315.315,0,0,1-.018.629" transform="translate(-190.173 -171.305)" fill="#33586a"/>
        <path id="Trazado_831611" data-name="Trazado 831611" d="M393.957,427.24c-8.82,0-17.508-.156-25.126-.454a.315.315,0,0,1-.3-.327.292.292,0,0,1,.327-.3c7.61.3,16.289.453,25.1.453,6.034,0,11.933-.071,17.536-.212h.008a.315.315,0,0,1,.008.629c-5.607.141-11.513.212-17.552.212" transform="translate(-208.192 -175.468)" fill="#33586a"/>
        <path id="Trazado_831612" data-name="Trazado 831612" d="M356.7,436.7h-.024c-10.273-.769-10.273-1.651-10.273-2.075,0-.4,0-1.156,7.877-1.876,4.81-.44,11.655-.771,19.275-.932h.006a.315.315,0,0,1,.007.629c-18.149.384-25.688,1.491-26.5,2.178.272.215,1.74.856,9.653,1.449a.315.315,0,0,1-.023.628" transform="translate(-199.083 -177.8)" fill="#33586a"/>
        <path id="Trazado_831613" data-name="Trazado 831613" d="M397.612,440.758c-7.043,0-13.926-.132-19.905-.383a.315.315,0,0,1-.3-.328.3.3,0,0,1,.328-.3c5.971.25,12.845.382,19.879.382,8.346,0,16.268-.181,22.91-.524a.311.311,0,0,1,.33.3.315.315,0,0,1-.3.331c-6.652.343-14.585.525-22.941.525" transform="translate(-211.847 -181.006)" fill="#33586a"/>
        <path id="Trazado_831614" data-name="Trazado 831614" d="M444.378,436.531a.315.315,0,0,1-.026-.628c6.758-.564,8.062-1.145,8.313-1.344-1.1-1-13.539-2.105-32.989-2.272a.315.315,0,0,1,0-.629h0c9.149.079,17.581.383,23.74.858,9.911.763,9.911,1.6,9.911,2.047,0,.428,0,1.224-8.927,1.968h-.027m8.337-1.916h0Z" transform="translate(-229.123 -177.733)" fill="#33586a"/>
        <path id="Trazado_831615" data-name="Trazado 831615" d="M556.916,305.963a14.085,14.085,0,1,1-14.086-14.086,14.086,14.086,0,0,1,14.086,14.086" transform="translate(-274.161 -120.179)" fill="#33586a"/>
        <path id="Trazado_831616" data-name="Trazado 831616" d="M553.593,323.236a3.01,3.01,0,1,1-3.01-3.01,3.01,3.01,0,0,1,3.01,3.01" transform="translate(-281.913 -131.852)" fill="#fff"/>
        <path id="Trazado_831617" data-name="Trazado 831617" d="M553.492,317.824a.781.781,0,0,1-.555-.23,5.587,5.587,0,0,0-7.9,0,.785.785,0,0,1-1.11-1.11,7.156,7.156,0,0,1,10.12,0,.785.785,0,0,1-.555,1.34" transform="translate(-280.317 -129.448)" fill="#fff"/>
        <path id="Trazado_831618" data-name="Trazado 831618" d="M554.333,312.248a.781.781,0,0,1-.555-.23,9.55,9.55,0,0,0-13.506,0,.785.785,0,1,1-1.11-1.11,11.12,11.12,0,0,1,15.725,0,.785.785,0,0,1-.555,1.34" transform="translate(-278.355 -126.674)" fill="#fff"/>
        <path id="Trazado_831619" data-name="Trazado 831619" d="M535.523,306.8a.785.785,0,0,1-.555-1.34,14.609,14.609,0,0,1,20.66,0,.785.785,0,1,1-1.11,1.11,13.04,13.04,0,0,0-18.44,0,.781.781,0,0,1-.555.23" transform="translate(-276.628 -124.011)" fill="#fff"/>
        <path id="Trazado_831620" data-name="Trazado 831620" d="M223.616,76.858A19.436,19.436,0,1,1,204.18,57.422a19.436,19.436,0,0,1,19.436,19.436" transform="translate(-132.519 -23.643)" fill="#db617d"/>
        <path id="Trazado_831621" data-name="Trazado 831621" d="M218.132,74.916c-7.142-2.169-9.47,4.892-9.47,4.892s-2.327-7.061-9.469-4.892c-7.185,2.182-3.234,19.765,9.469,21.048,12.7-1.283,16.655-18.866,9.47-21.048" transform="translate(-137.003 -30.676)" fill="#fff"/>
        <path id="Trazado_831622" data-name="Trazado 831622" d="M210.117,95.657a.669.669,0,0,1-.629-.432l-2.367-6.118-1.69,3.381a.674.674,0,0,1-.6.374H199.7a.509.509,0,0,1,0-1.017h4.913l1.941-3.881a.676.676,0,0,1,1.235.058l2.3,5.955,1.973-5.9a.676.676,0,0,1,1.247-.084l1.789,3.634h5.472a.508.508,0,1,1,0,1.016h-5.684a.679.679,0,0,1-.606-.378l-1.517-3.08-2.01,6.01a.669.669,0,0,1-.625.461h-.016m5.08-3.841h0" transform="translate(-138.469 -36.065)" fill="#db617d"/>
        <path id="Trazado_831623" data-name="Trazado 831623" d="M294.153,395.948h-5.17a.836.836,0,0,0-.835.835v1.634h6.841v-1.634a.836.836,0,0,0-.835-.835" transform="translate(-175.096 -163.03)" fill="#4c859b"/>
        <path id="Trazado_831624" data-name="Trazado 831624" d="M293.154,361.292h-.865l-1.34,21.283h3.545Z" transform="translate(-176.249 -148.761)" fill="#4c859b"/>
        <path id="Trazado_831625" data-name="Trazado 831625" d="M294.108,407.744H276.791a3.5,3.5,0,0,0-3.5,3.5v28.169a3.5,3.5,0,0,0,3.5,3.5h17.317a3.5,3.5,0,0,0,3.5-3.5V411.248a3.5,3.5,0,0,0-3.5-3.5" transform="translate(-168.977 -167.887)" fill="#f6dc7c"/>
        <path id="Trazado_831626" data-name="Trazado 831626" d="M294.344,399.349H284a1.671,1.671,0,0,0-1.671,1.671v3.268h13.682V401.02a1.671,1.671,0,0,0-1.671-1.671" transform="translate(-172.701 -164.431)" fill="#db617d"/>
        <path id="Trazado_831627" data-name="Trazado 831627" d="M296.556,430.919a8.644,8.644,0,1,1-8.644-8.644,8.644,8.644,0,0,1,8.644,8.644" transform="translate(-171.439 -173.87)" fill="#db617d"/>
        <g id="Grupo_1082172" data-name="Grupo 1082172" transform="translate(104.31 245.086)" opacity="0.5" style="mix-blend-mode: multiply;isolation: isolate">
          <g id="Grupo_1082171" data-name="Grupo 1082171">
            <g id="Grupo_1082170" data-name="Grupo 1082170" clip-path="url(#clip-path-29)">
              <path id="Trazado_831628" data-name="Trazado 831628" d="M273.287,440.765v2.314a3.5,3.5,0,0,0,3.5,3.5h17.316a3.5,3.5,0,0,0,3.5-3.5V416.634c-2.317,7.177-8.863,21.71-24.325,24.131" transform="translate(-273.287 -416.634)" fill="#f6dc7c"/>
            </g>
          </g>
        </g>
        <path id="Trazado_831629" data-name="Trazado 831629" d="M363.546,44.376a14.582,14.582,0,1,1-14.582-14.582,14.582,14.582,0,0,1,14.582,14.582" transform="translate(-194.132 -12.268)" fill="#f6dc7c"/>
        <path id="Trazado_831630" data-name="Trazado 831630" d="M361.278,50.474a7.024,7.024,0,1,1-14.048,0c0-3.88,7.024-12.406,7.024-12.406s7.024,8.527,7.024,12.406" transform="translate(-199.423 -15.674)" fill="#fff"/>
        <path id="Trazado_831631" data-name="Trazado 831631" d="M354.53,63.622a4.762,4.762,0,0,1-3.613-1.583,6.93,6.93,0,0,1-1.553-5.628.58.58,0,0,1,1.147.176,5.829,5.829,0,0,0,1.262,4.67,3.675,3.675,0,0,0,3.044,1.2.58.58,0,0,1,.073,1.158c-.121.007-.241.011-.359.011" transform="translate(-200.266 -23.024)" fill="#f6dc7c"/>
        <path id="Trazado_831632" data-name="Trazado 831632" d="M488.685,154.1H439.143a5.437,5.437,0,0,0-5.437,5.437v17.216a5.436,5.436,0,0,0,5.437,5.437s1.5,4.01-1.952,5.942c3.45.138,8.555-3.191,8.693-5.942h42.8a5.436,5.436,0,0,0,5.437-5.437V159.539a5.437,5.437,0,0,0-5.437-5.437" transform="translate(-235.029 -63.451)" fill="#f6dc7c"/>
        <path id="Trazado_831633" data-name="Trazado 831633" d="M489.231,162.367h-36.3a1.684,1.684,0,1,0,0,3.357h36.3a1.684,1.684,0,1,0,0-3.357" transform="translate(-242.198 -66.854)" fill="#fffffc"/>
        <path id="Trazado_831634" data-name="Trazado 831634" d="M489.231,175.225h-36.3a1.684,1.684,0,1,0,0,3.357h36.3a1.684,1.684,0,1,0,0-3.357" transform="translate(-242.198 -72.148)" fill="#fffffc"/>
        <path id="Trazado_831635" data-name="Trazado 831635" d="M478.689,188.082H452.433a1.729,1.729,0,0,0,0,3.357h26.256a1.729,1.729,0,0,0,0-3.357" transform="translate(-242.198 -77.442)" fill="#fffffc"/>
        <path id="Trazado_831636" data-name="Trazado 831636" d="M510.291,410.346h-11.27a1.462,1.462,0,0,0,0,2.924h.741V435.11a4.895,4.895,0,0,0,9.789,0V413.27h.741a1.462,1.462,0,1,0,0-2.924" transform="translate(-261.32 -168.959)" fill="#fff"/>
        <path id="Trazado_831637" data-name="Trazado 831637" d="M507.166,427.061a6.163,6.163,0,0,0-3.51-1.019v15.608a3.51,3.51,0,1,0,7.02,0V428.08a6.157,6.157,0,0,1-3.51-1.019" transform="translate(-263.83 -175.421)" fill="#db617d"/>
        <path id="Trazado_831638" data-name="Trazado 831638" d="M541.292,410.346h-11.27a1.462,1.462,0,0,0,0,2.924h.741V435.11a4.894,4.894,0,1,0,9.789,0V413.27h.741a1.462,1.462,0,1,0,0-2.924" transform="translate(-274.085 -168.959)" fill="#fff"/>
        <path id="Trazado_831639" data-name="Trazado 831639" d="M538.168,418.727a6.163,6.163,0,0,0-3.51-1.019v20.511a3.51,3.51,0,1,0,7.02,0V419.746a6.157,6.157,0,0,1-3.51-1.019" transform="translate(-276.595 -171.99)" fill="#f6dc7c"/>
        <path id="Trazado_831640" data-name="Trazado 831640" d="M531.255,416.2H531a1.161,1.161,0,0,0-1.161,1.161v1.4H486.384v-1.4a1.161,1.161,0,0,0-1.161-1.161h-.252a1.161,1.161,0,0,0-1.161,1.161v31.271a2.575,2.575,0,0,0,2.575,2.575h43.457a2.575,2.575,0,0,0,2.575-2.575V417.36a1.161,1.161,0,0,0-1.161-1.161m-1.414,27.33a1.378,1.378,0,0,1-1.378,1.378h-40.7a1.378,1.378,0,0,1-1.378-1.378V421.3h43.457Z" transform="translate(-255.658 -171.369)" fill="#33586a"/>
        <path id="Trazado_831641" data-name="Trazado 831641" d="M285.244,72.86a5.871,5.871,0,1,1,5.871-5.871,5.877,5.877,0,0,1-5.871,5.871m0-10.026a4.155,4.155,0,1,0,4.155,4.155,4.16,4.16,0,0,0-4.155-4.155" transform="translate(-171.483 -25.165)" fill="#85c7db"/>
        <circle id="Elipse_21" data-name="Elipse 21" cx="5.013" cy="5.013" r="5.013" transform="matrix(0.383, -0.924, 0.924, 0.383, 255.023, 143.344)" fill="none" stroke="#85c7db" stroke-miterlimit="10" stroke-width="3"/>
        <path id="Trazado_831642" data-name="Trazado 831642" d="M138.922,230.447a5.871,5.871,0,1,1,5.871-5.871,5.877,5.877,0,0,1-5.871,5.871m0-10.026a4.155,4.155,0,1,0,4.155,4.155,4.16,4.16,0,0,0-4.155-4.155" transform="translate(-111.235 -90.051)" fill="#33586a"/>
        <path id="Trazado_831643" data-name="Trazado 831643" d="M148.653,315.822H128.01a3.586,3.586,0,0,0-3.586,3.586v20.643a3.586,3.586,0,0,0,3.586,3.586h20.643a3.586,3.586,0,0,0,3.586-3.586V319.408a3.586,3.586,0,0,0-3.586-3.586" transform="translate(-107.683 -130.039)" fill="#85c7db"/>
        <path id="Trazado_831644" data-name="Trazado 831644" d="M138.771,329h-5.118a2.411,2.411,0,0,0-2.41,2.262c-.162,2.68.033,6.973,2.689,8.493,3.974,2.274,11.187-1.137,11.187-1.137V324.489a1.319,1.319,0,0,0-2.382-.778,9.2,9.2,0,0,0-1.619,3.43A2.4,2.4,0,0,1,138.771,329" transform="translate(-110.473 -133.064)" fill="#fff"/>
        <path id="Trazado_831645" data-name="Trazado 831645" d="M160.521,333.844H157.55a.494.494,0,0,0-.494.494V342.3a.494.494,0,0,0,.494.494h2.971a.494.494,0,0,0,.494-.494v-7.964a.494.494,0,0,0-.494-.494" transform="translate(-121.119 -137.459)" fill="#fff"/>
        <path id="Trazado_831646" data-name="Trazado 831646" d="M152.228,127.94H131.585A3.586,3.586,0,0,0,128,131.526v20.643a3.586,3.586,0,0,0,3.586,3.586h20.643a3.586,3.586,0,0,0,3.586-3.586V131.526a3.586,3.586,0,0,0-3.586-3.586" transform="translate(-109.155 -52.679)" fill="#f6dc7c"/>
        <path id="Trazado_831647" data-name="Trazado 831647" d="M153.512,143.591H148.3a.71.71,0,0,1-.71-.71v-5.213a.71.71,0,0,0-.71-.71h-2.52a.71.71,0,0,0-.71.71v5.213a.71.71,0,0,1-.71.71h-5.213a.71.71,0,0,0-.71.71v2.52a.71.71,0,0,0,.71.71h5.213a.71.71,0,0,1,.71.71v5.213a.71.71,0,0,0,.71.71h2.52a.71.71,0,0,0,.71-.71v-5.213a.71.71,0,0,1,.71-.71h5.213a.71.71,0,0,0,.71-.71V144.3a.71.71,0,0,0-.71-.71" transform="translate(-112.868 -56.392)" fill="#db617d"/>
        <path id="Trazado_831648" data-name="Trazado 831648" d="M228.94,149.935l-2.6-.84a2.66,2.66,0,0,1-1.717-1.728l-.824-2.6a.294.294,0,0,0-.559,0l-.84,2.6a2.66,2.66,0,0,1-1.727,1.717l-2.6.824a.293.293,0,0,0,0,.559l2.6.84a2.66,2.66,0,0,1,1.717,1.728l.824,2.6a.293.293,0,0,0,.559,0l.841-2.6a2.658,2.658,0,0,1,1.727-1.717l2.6-.824a.293.293,0,0,0,0-.559" transform="translate(-146.16 -59.523)" fill="#fff"/>
        <path id="Trazado_831649" data-name="Trazado 831649" d="M528.405,122.588l-2.6-.84a2.66,2.66,0,0,1-1.716-1.728l-.824-2.6a.294.294,0,0,0-.559,0l-.84,2.6a2.66,2.66,0,0,1-1.727,1.717l-2.6.824a.293.293,0,0,0,0,.559l2.6.84a2.66,2.66,0,0,1,1.717,1.728l.824,2.6a.293.293,0,0,0,.559,0l.84-2.6a2.662,2.662,0,0,1,1.728-1.717l2.6-.824a.293.293,0,0,0,0-.559" transform="translate(-269.463 -48.263)" fill="#dff4ff"/>
        <path id="Trazado_831650" data-name="Trazado 831650" d="M132.689,278.022l-2.6-.84a2.66,2.66,0,0,1-1.717-1.728l-.824-2.6a.294.294,0,0,0-.559,0l-.84,2.6a2.659,2.659,0,0,1-1.727,1.717l-2.6.824a.293.293,0,0,0,0,.559l2.6.84a2.66,2.66,0,0,1,1.717,1.728l.824,2.6a.293.293,0,0,0,.559,0l.84-2.6a2.66,2.66,0,0,1,1.728-1.717l2.6-.824a.293.293,0,0,0,0-.559" transform="translate(-106.529 -112.262)" fill="#dff4ff"/>
      </g>
    </g>
  </g>
</svg>
