<svg xmlns="http://www.w3.org/2000/svg" xmlns:xlink="http://www.w3.org/1999/xlink" width="62" height="62" viewBox="0 0 62 62">
  <defs>
    <clipPath id="clip-path">
      <rect id="Rect치ngulo_384139" data-name="Rect치ngulo 384139" width="41" height="40.997" fill="none"/>
    </clipPath>
  </defs>
  <g id="Grupo_1082864" data-name="Grupo 1082864" transform="translate(-769.001 -6207.86)">
    <g id="Grupo_1082222" data-name="Grupo 1082222" transform="translate(248.001 -6698.141)">
      <g id="Grupo_1014855" data-name="Grupo 1014855" transform="translate(136.001 10848)">
        <path id="Uni칩n_12" data-name="Uni칩n 12" d="M31,0A31,31,0,1,1,0,31,31,31,0,0,1,31,0Z" transform="translate(384.999 2058)" fill="#cadeb4"/>
      </g>
    </g>
    <g id="Grupo_1082225" data-name="Grupo 1082225" transform="translate(780.501 6218.252)">
      <g id="Grupo_1082140" data-name="Grupo 1082140" clip-path="url(#clip-path)">
        <path id="Trazado_831772" data-name="Trazado 831772" d="M27.068,0a6.016,6.016,0,0,1,.826.452,2.016,2.016,0,0,1,.782,1.712c-.006,3.32,0,6.641-.011,9.961a.611.611,0,0,0,.418.648,12,12,0,0,1,7.036,10.014,11.829,11.829,0,0,1-2.04,7.964c-.05.076-.095.156-.165.272.459.453.909.905,1.371,1.344a.4.4,0,0,0,.284.074,1.389,1.389,0,0,1,1.162.421c1.17,1.168,2.364,2.314,3.491,3.523A6.508,6.508,0,0,1,41,37.79v.961a1.178,1.178,0,0,0-.081.172,2.723,2.723,0,0,1-4.6,1.239c-1.156-1.127-2.287-2.28-3.428-3.422a1.412,1.412,0,0,1-.439-1.156.422.422,0,0,0-.056-.29c-.448-.47-.91-.926-1.37-1.389-.142.09-.241.155-.342.218a12.175,12.175,0,0,1-13.249.224,1.582,1.582,0,0,0-.74-.211q-7.205-.018-14.41-.01A2.059,2.059,0,0,1,.006,31.841Q.006,20.413,0,8.985A2.461,2.461,0,0,1,.772,7.131Q3.8,4.131,6.8,1.1A4.052,4.052,0,0,1,8.333,0Zm.242,12.064v-.4q0-4.682,0-9.365c0-.718-.213-.933-.926-.933H8.886v.49q0,2.381,0,4.763A2.083,2.083,0,0,1,6.618,8.879q-2.4,0-4.8,0H1.369v.333q0,11.346,0,22.692c0,.628.234.855.88.855q6.363,0,12.727,0c.109,0,.217-.018.362-.03A12.312,12.312,0,0,1,27.311,12.063M23.893,34.837A10.934,10.934,0,1,0,12.977,23.862,10.968,10.968,0,0,0,23.893,34.837m9.963.946,2.23,2.227c.406.405.8.825,1.224,1.21a1.386,1.386,0,0,0,1.889-.03,1.311,1.311,0,0,0,.085-1.815c-1.16-1.195-2.363-2.348-3.528-3.5l-1.9,1.905M2.428,7.515c1.415,0,2.8,0,4.178,0,.678,0,.913-.236.914-.915q0-1.937,0-3.875a2.635,2.635,0,0,0-.027-.276L2.428,7.515m31.8,25.861-1.159-1.164-.877.8,1.179,1.193.858-.833" transform="translate(0 0.001)" fill="#707070"/>
        <path id="Trazado_831773" data-name="Trazado 831773" d="M38.743,23.451A12.312,12.312,0,0,0,26.772,44.116c-.145.013-.253.03-.362.03q-6.363,0-12.727,0c-.646,0-.88-.227-.88-.855q0-11.346,0-22.692v-.332h.446q2.4,0,4.8,0A2.083,2.083,0,0,0,20.318,18q0-2.381,0-4.763v-.49h17.5c.713,0,.926.215.926.933q0,4.682,0,9.365v.4M29.5,18.207h.32c2.04,0,4.079,0,6.119,0a.662.662,0,0,0,.743-.66.682.682,0,0,0-.712-.7c-.08-.005-.16,0-.24,0q-6.2,0-12.4,0a1.674,1.674,0,0,0-.511.057.635.635,0,0,0-.3,1.03,1.1,1.1,0,0,0,.7.266c2.093.02,4.186.012,6.279.012m.03,3.422q3.12,0,6.24,0a1.473,1.473,0,0,0,.471-.055.616.616,0,0,0,.432-.721.626.626,0,0,0-.573-.574,1.723,1.723,0,0,0-.279-.008h-12.6a1.6,1.6,0,0,0-.279.009.632.632,0,0,0-.567.583.609.609,0,0,0,.408.7,1.506,1.506,0,0,0,.508.067q3.12.006,6.24,0M20.32,25.043q2.241,0,4.482,0A1.9,1.9,0,0,0,25.277,25a.666.666,0,0,0-.009-1.287,2.217,2.217,0,0,0-.516-.039q-4.442,0-8.884,0a2.23,2.23,0,0,0-.477.032.668.668,0,0,0,.009,1.307,2.359,2.359,0,0,0,.478.03q2.221,0,4.442,0m-1.387,3.4c1.093,0,2.186,0,3.279,0,.513,0,.821-.249.832-.659s-.313-.7-.838-.7q-3.259,0-6.517,0c-.52,0-.814.245-.823.666-.009.442.286.692.829.693,1.08,0,2.159,0,3.239,0m-.689,2.061c-.852,0-1.7,0-2.557,0-.53,0-.812.233-.821.659s.29.7.828.7q2.577.006,5.154,0c.519,0,.847-.291.831-.711s-.319-.65-.838-.652c-.866,0-1.731,0-2.6,0m.009,11.6c.879,0,1.758.006,2.636,0a.708.708,0,0,0,.79-.67.685.685,0,0,0-.761-.69q-2.656-.011-5.313,0a.922.922,0,0,0-.483.146.612.612,0,0,0-.223.748.683.683,0,0,0,.717.465c.879,0,1.758,0,2.636,0m-.353-3.42c.759,0,1.517,0,2.276,0,.514,0,.806-.251.809-.676s-.291-.684-.8-.685q-2.256-.005-4.512,0c-.514,0-.806.252-.808.677s.291.682.8.685c.745,0,1.491,0,2.236,0m-.016-3.419c.774,0,1.547.005,2.321,0,.494,0,.773-.251.778-.664a.67.67,0,0,0-.758-.691q-2.3-.012-4.6,0a.67.67,0,0,0-.758.691c0,.414.282.66.778.664.747.007,1.494,0,2.241,0" transform="translate(-11.433 -11.387)" fill="#fff"/>
        <path id="Trazado_831774" data-name="Trazado 831774" d="M132.237,143.132a10.934,10.934,0,1,1,10.933-10.922,10.957,10.957,0,0,1-10.933,10.922m0-20.5a9.559,9.559,0,1,0,9.57,9.571,9.57,9.57,0,0,0-9.57-9.571" transform="translate(-108.344 -108.293)" fill="#fff"/>
        <path id="Trazado_831775" data-name="Trazado 831775" d="M316.515,318.643l1.9-1.905c1.165,1.149,2.368,2.3,3.528,3.5a1.311,1.311,0,0,1-.085,1.815,1.387,1.387,0,0,1-1.89.03c-.425-.385-.817-.8-1.223-1.21l-2.23-2.227" transform="translate(-282.66 -282.859)" fill="#fff"/>
        <path id="Trazado_831776" data-name="Trazado 831776" d="M22.7,27.969,27.768,22.9a2.635,2.635,0,0,1,.027.276q0,1.937,0,3.875c0,.679-.236.914-.914.915-1.382,0-2.763,0-4.178,0" transform="translate(-20.275 -20.453)" fill="#fff"/>
        <path id="Trazado_831777" data-name="Trazado 831777" d="M302.975,302.331l-.858.833-1.178-1.193.877-.8,1.159,1.164" transform="translate(-268.75 -268.953)" fill="#fff"/>
        <path id="Trazado_831778" data-name="Trazado 831778" d="M109.269,52.352c-2.093,0-4.186.008-6.279-.012a1.1,1.1,0,0,1-.7-.266.635.635,0,0,1,.3-1.03,1.674,1.674,0,0,1,.511-.057q6.2,0,12.4,0c.08,0,.16,0,.24,0a.682.682,0,0,1,.712.7.662.662,0,0,1-.743.66c-2.04.005-4.08,0-6.119,0h-.32" transform="translate(-91.198 -45.532)" fill="#707070"/>
        <path id="Trazado_831779" data-name="Trazado 831779" d="M109.432,84.379q-3.12,0-6.24,0a1.505,1.505,0,0,1-.508-.067.609.609,0,0,1-.408-.7.633.633,0,0,1,.567-.583,1.6,1.6,0,0,1,.279-.009h12.6a1.724,1.724,0,0,1,.279.008.626.626,0,0,1,.573.574.616.616,0,0,1-.432.721,1.47,1.47,0,0,1-.471.055q-3.12,0-6.24,0" transform="translate(-91.331 -74.137)" fill="#707070"/>
        <path id="Trazado_831780" data-name="Trazado 831780" d="M37.563,116.224q-2.221,0-4.442,0a2.358,2.358,0,0,1-.477-.03.668.668,0,0,1-.009-1.307,2.229,2.229,0,0,1,.477-.032q4.442,0,8.884,0a2.218,2.218,0,0,1,.516.039.666.666,0,0,1,.009,1.287,1.9,1.9,0,0,1-.476.042q-2.241,0-4.482,0" transform="translate(-28.676 -102.567)" fill="#707070"/>
        <path id="Trazado_831781" data-name="Trazado 831781" d="M36.147,148.126c-1.08,0-2.159,0-3.239,0-.543,0-.838-.251-.829-.693.009-.422.3-.666.823-.666q3.259,0,6.517,0c.525,0,.849.277.838.7s-.318.658-.832.659c-1.093,0-2.186,0-3.279,0" transform="translate(-28.648 -131.066)" fill="#707070"/>
        <path id="Trazado_831782" data-name="Trazado 831782" d="M35.465,178.757c.866,0,1.731,0,2.6,0,.519,0,.823.244.838.652s-.312.709-.831.711q-2.577.006-5.154,0c-.537,0-.837-.264-.828-.7s.291-.657.821-.659c.852,0,1.7,0,2.557,0" transform="translate(-28.655 -159.636)" fill="#707070"/>
        <path id="Trazado_831783" data-name="Trazado 831783" d="M35.4,275.827c-.879,0-1.758,0-2.636,0a.683.683,0,0,1-.717-.465.612.612,0,0,1,.223-.748.921.921,0,0,1,.483-.146q2.656-.015,5.313,0a.685.685,0,0,1,.761.69.708.708,0,0,1-.79.67c-.879.008-1.758,0-2.636,0" transform="translate(-28.577 -245.103)" fill="#707070"/>
        <path id="Trazado_831784" data-name="Trazado 831784" d="M35.114,243.88c-.745,0-1.491,0-2.236,0-.509,0-.8-.259-.8-.685s.295-.676.808-.677q2.256,0,4.512,0c.508,0,.8.26.8.685s-.295.674-.809.676c-.759,0-1.517,0-2.276,0" transform="translate(-28.647 -216.575)" fill="#707070"/>
        <path id="Trazado_831785" data-name="Trazado 831785" d="M35.108,211.928c-.747,0-1.494.005-2.241,0-.5,0-.773-.25-.778-.664a.67.67,0,0,1,.758-.691q2.3-.012,4.6,0a.67.67,0,0,1,.758.691c-.005.414-.284.66-.778.664-.774.007-1.547,0-2.321,0" transform="translate(-28.657 -188.042)" fill="#707070"/>
        <path id="Trazado_831786" data-name="Trazado 831786" d="M143.617,134.015a9.559,9.559,0,1,1-9.552,9.544,9.575,9.575,0,0,1,9.552-9.544m-8.188,9.544a8.2,8.2,0,1,0,8.219-8.179,8.216,8.216,0,0,0-8.219,8.179" transform="translate(-119.725 -119.68)" fill="#707070"/>
        <path id="Trazado_831787" data-name="Trazado 831787" d="M146.814,154.95a8.2,8.2,0,1,1,8.191,8.213,8.207,8.207,0,0,1-8.191-8.213m8.877-6.125a.7.7,0,0,0-.809-.686,6.7,6.7,0,0,0-4.634,1.944.688.688,0,0,0-.068,1.024.68.68,0,0,0,1-.031c.2-.175.394-.36.607-.518a5.467,5.467,0,0,1,3.125-1.06c.483-.017.776-.275.779-.673" transform="translate(-131.11 -131.072)" fill="#fff"/>
        <path id="Trazado_831788" data-name="Trazado 831788" d="M182.144,160.24c0,.4-.3.656-.779.673a5.467,5.467,0,0,0-3.125,1.06c-.214.157-.407.343-.607.518a.68.68,0,0,1-1,.031.688.688,0,0,1,.068-1.024,6.7,6.7,0,0,1,4.634-1.944.7.7,0,0,1,.809.686" transform="translate(-157.563 -142.487)" fill="#707070"/>
      </g>
    </g>
  </g>
</svg>
