<svg xmlns="http://www.w3.org/2000/svg" xmlns:xlink="http://www.w3.org/1999/xlink" width="400" height="225.919" viewBox="0 0 400 225.919">
  <defs>
    <clipPath id="clip-path">
      <rect id="Rectángulo_383755" data-name="Rectángulo 383755" width="242" height="225.837" fill="none"/>
    </clipPath>
    <clipPath id="clip-path-2">
      <rect id="Rectángulo_383740" data-name="Rectángulo 383740" width="242.001" height="225.837" fill="none"/>
    </clipPath>
    <clipPath id="clip-path-4">
      <rect id="Rectángulo_383741" data-name="Rectángulo 383741" width="6.707" height="11.809" fill="none"/>
    </clipPath>
    <clipPath id="clip-path-5">
      <rect id="Rectángulo_383742" data-name="Rectángulo 383742" width="59.214" height="71.244" fill="none"/>
    </clipPath>
    <clipPath id="clip-path-7">
      <rect id="Rectángulo_383745" data-name="Rectángulo 383745" width="47.097" height="27.75" fill="none"/>
    </clipPath>
    <clipPath id="clip-path-8">
      <rect id="Rectángulo_383746" data-name="Rectángulo 383746" width="8.023" height="8.023" fill="none"/>
    </clipPath>
    <clipPath id="clip-path-9">
      <rect id="Rectángulo_383747" data-name="Rectángulo 383747" width="47.65" height="45.499" fill="none"/>
    </clipPath>
    <clipPath id="clip-path-10">
      <rect id="Rectángulo_383749" data-name="Rectángulo 383749" width="32.378" height="19.078" fill="none"/>
    </clipPath>
    <clipPath id="clip-path-11">
      <rect id="Rectángulo_383750" data-name="Rectángulo 383750" width="5.515" height="5.515" fill="none"/>
    </clipPath>
    <clipPath id="clip-path-12">
      <rect id="Rectángulo_383751" data-name="Rectángulo 383751" width="32.758" height="31.279" fill="none"/>
    </clipPath>
    <clipPath id="clip-path-14">
      <rect id="Rectángulo_383753" data-name="Rectángulo 383753" width="15.454" height="7.224" fill="none"/>
    </clipPath>
  </defs>
  <g id="Grupo_1081136" data-name="Grupo 1081136" transform="translate(-180 -1414)">
    <g id="Grupo_1081135" data-name="Grupo 1081135" transform="translate(265 1414.082)">
      <g id="Grupo_1081134" data-name="Grupo 1081134" clip-path="url(#clip-path)">
        <g id="Grupo_1081100" data-name="Grupo 1081100">
          <g id="Grupo_1081099" data-name="Grupo 1081099" clip-path="url(#clip-path-2)">
            <path id="Trazado_830521" data-name="Trazado 830521" d="M377.238,217.535s-4.4-3.383-10.817,7.261a143.858,143.858,0,0,0-9,16.861s-1.653,2.208-3.135.582-3.353-6.073-6.109-5.493c-2.859.6-4.005,3.663-3.8,8.3s.286,14.8.29,15.722c0,.9-.6,2.188-1.792,1.242s-7.8-9.454-11.645-6.076-1.153,16.192-.886,17.6-.044,1.977-.724,2.272-2.632-2.774-4.611-5.117-4.684-4.713-6.741-2.578-3.337,11.514,4.538,27.459l4.133,7.15,8.293.132c17.766-.8,25.362-6.449,26.239-9.282s-2.505-4.058-5.512-4.66-6.637-.83-6.707-1.567.278-1.287,1.64-1.731,13.885-4.27,14.984-9.272-9.542-6.682-10.943-7.265-.569-1.737.223-2.169,9.751-5.28,13.909-7.336,6.285-4.538,5.432-7.332c-.823-2.695-5.621-2.187-7.76-2.7s-1-3.026-1-3.026a143.924,143.924,0,0,0,10.419-16.026c6.223-10.758,1-13.008,1-13.008" transform="translate(-137.197 -94.016)" fill="#c1cdf5"/>
            <path id="Trazado_830522" data-name="Trazado 830522" d="M374.085,234.724s-.037.08-.12.232l-.372.668-1.452,2.556c-1.263,2.218-3.114,5.414-5.417,9.354-4.6,7.883-11.048,18.719-18.208,30.664s-13.634,22.77-18.275,30.629c-2.312,3.925-4.185,7.1-5.485,9.312-.645,1.091-1.147,1.942-1.494,2.531l-.394.655c-.09.147-.142.219-.142.219s.037-.08.12-.232l.372-.668,1.452-2.555c1.263-2.218,3.114-5.413,5.416-9.354,4.6-7.883,11.05-18.72,18.211-30.668s13.631-22.765,18.272-30.624l5.486-9.312c.645-1.092,1.147-1.944,1.494-2.531l.394-.655c.09-.147.142-.219.142-.219" transform="translate(-139.807 -101.684)" fill="#e0e0e0"/>
            <path id="Trazado_830523" data-name="Trazado 830523" d="M376.4,262.979a2.671,2.671,0,0,1,.168.574c.094.372.213.915.353,1.586.279,1.343.617,3.209.953,5.274.324,2.038.617,3.881.841,5.29.1.634.193,1.17.265,1.6a2.713,2.713,0,0,1,.074.592,2.656,2.656,0,0,1-.172-.572c-.092-.373-.211-.915-.345-1.589-.266-1.347-.58-3.216-.915-5.281l-.879-5.282-.273-1.6a2.649,2.649,0,0,1-.07-.593" transform="translate(-163.055 -113.924)" fill="#e0e0e0"/>
            <path id="Trazado_830524" data-name="Trazado 830524" d="M382.4,286.881c-.015-.069,3.8-.936,8.521-1.936s8.56-1.754,8.574-1.685-3.8.936-8.521,1.936-8.559,1.754-8.574,1.685" transform="translate(-165.658 -122.708)" fill="#e0e0e0"/>
            <path id="Trazado_830525" data-name="Trazado 830525" d="M361.54,321.136a2.794,2.794,0,0,1,.61.015l1.653.124c1.395.1,3.322.236,5.454.305s4.064.074,5.463.062l1.657-.012a2.813,2.813,0,0,1,.609.025,2.716,2.716,0,0,1-.605.075c-.391.031-.956.066-1.657.094-1.4.058-3.338.087-5.476.013s-4.068-.232-5.462-.381c-.7-.077-1.259-.146-1.647-.205a2.812,2.812,0,0,1-.6-.115" transform="translate(-156.621 -139.114)" fill="#e0e0e0"/>
            <path id="Trazado_830526" data-name="Trazado 830526" d="M350.8,298.213a2.368,2.368,0,0,1,.29.484l.7,1.361c.584,1.154,1.376,2.756,2.235,4.533s1.626,3.392,2.168,4.566l.63,1.4a2.391,2.391,0,0,1,.2.528,2.379,2.379,0,0,1-.29-.484l-.7-1.361c-.584-1.155-1.376-2.756-2.235-4.534s-1.625-3.391-2.167-4.566q-.373-.825-.631-1.4a2.392,2.392,0,0,1-.2-.527" transform="translate(-151.969 -129.188)" fill="#e0e0e0"/>
            <path id="Trazado_830527" data-name="Trazado 830527" d="M328.856,323.675a3.981,3.981,0,0,1,.364.623l.909,1.741c.757,1.475,1.787,3.521,2.91,5.787s2.128,4.325,2.844,5.821l.835,1.777a3.86,3.86,0,0,1,.275.667,3.841,3.841,0,0,1-.364-.623l-.909-1.741c-.758-1.475-1.788-3.52-2.912-5.788s-2.128-4.325-2.844-5.82l-.835-1.777a3.85,3.85,0,0,1-.274-.667" transform="translate(-142.462 -140.218)" fill="#e0e0e0"/>
            <path id="Trazado_830528" data-name="Trazado 830528" d="M343.066,351.838a4.432,4.432,0,0,1,.773,0l2.1.081c1.774.067,4.224.15,6.931.164s5.16-.028,6.934-.075l2.1-.054a4.48,4.48,0,0,1,.772.009,4.372,4.372,0,0,1-.767.091c-.5.041-1.212.09-2.1.135-1.774.094-4.229.17-6.943.151s-5.166-.126-6.939-.24c-.886-.059-1.6-.114-2.1-.163a4.477,4.477,0,0,1-.766-.1" transform="translate(-148.618 -152.413)" fill="#e0e0e0"/>
            <rect id="Rectángulo_383739" data-name="Rectángulo 383739" width="44.057" height="29.696" transform="matrix(0.954, -0.301, 0.301, 0.954, 178.874, 101.029)" fill="#fff"/>
            <path id="Trazado_830529" data-name="Trazado 830529" d="M366.394,183.09s-.065-.179-.176-.517l-.486-1.5c-.422-1.318-1.038-3.238-1.826-5.695l-6.552-20.58.148.077L315.5,168.151h0l.1-.185,8.915,28.327-.169-.088,30.276-9.473,8.665-2.693,2.31-.711.6-.181c.135-.04.21-.058.21-.058s-.061.025-.19.068l-.58.192-2.275.734-8.614,2.753-30.321,9.626-.129.041-.041-.129-8.938-28.319-.045-.141.141-.045h0l42.024-13.215.113-.035.035.113c2.7,8.645,4.912,15.742,6.455,20.687l1.761,5.687.453,1.483c.1.334.145.5.145.5" transform="translate(-136.574 -66.982)" fill="#c1cdf5"/>
            <path id="Trazado_830530" data-name="Trazado 830530" d="M357.608,154.88a.521.521,0,0,1-.057.129l-.193.364-.767,1.389-2.879,5.1-9.668,16.9-.062.108-.117-.044-1.3-.483-19.1-7.162-5.776-2.2-1.565-.613-.4-.167a.6.6,0,0,1-.134-.066.547.547,0,0,1,.145.037l.415.139,1.584.561,5.809,2.114,19.128,7.081,1.3.483-.179.065,9.747-16.85,2.959-5.05.814-1.361.218-.35a.538.538,0,0,1,.083-.115" transform="translate(-136.715 -67.095)" fill="#c1cdf5"/>
            <path id="Trazado_830531" data-name="Trazado 830531" d="M77.628,26.175a4.906,4.906,0,0,1-.126-1.111,9.158,9.158,0,0,0-.149-1.334A13.055,13.055,0,0,0,77,21.937a16.815,16.815,0,0,0-1.861-4.611,17.284,17.284,0,0,0-4.289-4.94A17.084,17.084,0,0,0,54.746,9.619a16,16,0,0,0-4.356,2.222,19.208,19.208,0,0,0-1.967,1.6,19.375,19.375,0,0,0-1.711,1.933,16.95,16.95,0,0,0-.489,20.093,19.3,19.3,0,0,0,1.615,2.015,19.289,19.289,0,0,0,1.886,1.691A16,16,0,0,0,53.97,41.6a17.217,17.217,0,0,0,20.745-6.709A16.807,16.807,0,0,0,76.8,30.377a13.1,13.1,0,0,0,.436-1.773,9.121,9.121,0,0,0,.214-1.325,4.945,4.945,0,0,1,.18-1.1,4.885,4.885,0,0,1,.013,1.121,7.819,7.819,0,0,1-.124,1.355,12.144,12.144,0,0,1-.359,1.826,16.44,16.44,0,0,1-1.988,4.7,17.714,17.714,0,0,1-12.14,8.2,17.875,17.875,0,0,1-9.382-.956,16.79,16.79,0,0,1-4.486-2.532,19.963,19.963,0,0,1-2-1.773A20.075,20.075,0,0,1,45.452,36,17.811,17.811,0,0,1,45.968,14.8a20.088,20.088,0,0,1,1.813-2.031,20.042,20.042,0,0,1,2.08-1.673,16.81,16.81,0,0,1,4.6-2.311,17.879,17.879,0,0,1,9.417-.5,17.714,17.714,0,0,1,11.728,8.783,16.434,16.434,0,0,1,1.758,4.793,12.131,12.131,0,0,1,.27,1.842,7.822,7.822,0,0,1,.058,1.36,4.881,4.881,0,0,1-.067,1.118" transform="translate(-18.284 -3.412)" fill="#e8505b"/>
            <path id="Trazado_830532" data-name="Trazado 830532" d="M77.571,20.385c.039.054-.277.328-.885.78l-1.125.807c-.223.152-.456.325-.715.488l-.86.449A19.719,19.719,0,0,1,63.712,25.5l-1.555-.069-1.492-.234c-.244-.041-.487-.074-.725-.121l-.7-.186c-.458-.127-.912-.235-1.343-.373a22.538,22.538,0,0,1-4.359-2.008c-2.341-1.416-3.481-2.7-3.393-2.787.095-.108,1.367.97,3.726,2.195a26.262,26.262,0,0,0,4.291,1.755c.418.122.855.214,1.3.327l.669.166.695.1,1.426.21,1.482.06A21.276,21.276,0,0,0,73.681,22.3l.871-.378c.265-.138.506-.287.737-.415l1.193-.657c.663-.351,1.051-.521,1.09-.468" transform="translate(-21.723 -8.539)" fill="#e8505b"/>
            <path id="Trazado_830533" data-name="Trazado 830533" d="M49.211,54.469c-.039-.054.277-.328.885-.78l1.125-.807c.223-.152.456-.325.715-.488l.86-.449a19.719,19.719,0,0,1,10.273-2.587l1.555.069,1.492.234c.244.041.487.074.725.121l.7.186c.458.127.912.235,1.343.373a22.539,22.539,0,0,1,4.359,2.008c2.341,1.416,3.481,2.7,3.393,2.787-.095.108-1.367-.97-3.726-2.195a26.274,26.274,0,0,0-4.29-1.755c-.418-.121-.855-.214-1.3-.327l-.669-.166-.695-.1-1.426-.21-1.482-.06A21.275,21.275,0,0,0,53.1,52.551l-.871.378c-.265.139-.506.287-.737.415L50.3,54c-.663.351-1.051.521-1.09.468" transform="translate(-21.317 -21.377)" fill="#e8505b"/>
            <path id="Trazado_830534" data-name="Trazado 830534" d="M77.978,40.063c-.006.265-7.834.29-17.48.056s-17.466-.639-17.459-.9,7.832-.29,17.482-.056,17.463.639,17.457.9" transform="translate(-18.645 -16.894)" fill="#e8505b"/>
            <path id="Trazado_830535" data-name="Trazado 830535" d="M72.274,43.51c-.265-.006-.29-7.831-.056-17.475s.639-17.46.9-17.453.291,7.83.056,17.477-.639,17.458-.9,17.452" transform="translate(-31.216 -3.718)" fill="#e8505b"/>
            <path id="Trazado_830536" data-name="Trazado 830536" d="M65.8,43.476c-.066.1-1.991-1.2-4.212-4.159a23.522,23.522,0,0,1-3.123-5.67,21.062,21.062,0,0,1-1.352-7.829,20.033,20.033,0,0,1,1.763-7.75,24.3,24.3,0,0,1,3.413-5.5c2.353-2.844,4.294-4.1,4.359-4,.094.109-1.664,1.539-3.824,4.421a26.178,26.178,0,0,0-3.136,5.429,20.127,20.127,0,0,0-1.616,7.417,21.271,21.271,0,0,0,1.223,7.507,25.187,25.187,0,0,0,2.846,5.582C64.162,41.9,65.9,43.371,65.8,43.476" transform="translate(-24.739 -3.71)" fill="#e8505b"/>
            <path id="Trazado_830537" data-name="Trazado 830537" d="M73.976,8.587c.066-.1,1.991,1.2,4.212,4.159a23.511,23.511,0,0,1,3.123,5.67,21.061,21.061,0,0,1,1.352,7.829A20.033,20.033,0,0,1,80.9,34a24.281,24.281,0,0,1-3.412,5.5c-2.353,2.844-4.294,4.1-4.359,4-.094-.109,1.664-1.539,3.824-4.421a26.178,26.178,0,0,0,3.135-5.429A20.127,20.127,0,0,0,81.7,26.227,21.271,21.271,0,0,0,80.48,18.72a25.186,25.186,0,0,0-2.846-5.582c-2.022-2.978-3.756-4.446-3.658-4.551" transform="translate(-31.678 -3.717)" fill="#e8505b"/>
            <path id="Trazado_830538" data-name="Trazado 830538" d="M237.88,23.268a2.184,2.184,0,0,0,.869-.715,2.009,2.009,0,0,0,.33-1.3,3.244,3.244,0,0,0-.234-.843l-.343-.957-4.072-11.47-1.342-3.8-.714-2.023a6.062,6.062,0,0,0-.4-.994,1.83,1.83,0,0,0-.758-.688A1.723,1.723,0,0,0,230.2.327a9.04,9.04,0,0,0-1.072.361l-2.232.821-4.659,1.713L201.483,10.83A1.809,1.809,0,0,0,200.4,13l.94,2.712q.944,2.7,1.859,5.324L206.71,31.1l.416,1.2a1.9,1.9,0,0,0,.634.946,1.729,1.729,0,0,0,1.042.375,3,3,0,0,0,1.113-.284l4.4-1.6,7.9-2.867,11.449-4.128,3.118-1.105.814-.279a1.817,1.817,0,0,1,.282-.083,1.758,1.758,0,0,1-.269.118l-.8.313-3.1,1.169L222.3,29.1l-7.885,2.909-4.394,1.618-.575.207a1.909,1.909,0,0,1-.652.1,2.055,2.055,0,0,1-1.238-.44,2.235,2.235,0,0,1-.744-1.094q-.208-.593-.419-1.194l-3.529-10.061L201,15.826l-.949-2.738a2.17,2.17,0,0,1,1.306-2.6l20.762-7.581,4.664-1.7L229.02.4a8.726,8.726,0,0,1,1.129-.371,2.028,2.028,0,0,1,1.2.179,2.126,2.126,0,0,1,.879.8,6.215,6.215,0,0,1,.418,1.052l.7,2.027L234.672,7.9l3.964,11.508.328.962a3.3,3.3,0,0,1,.223.876,2.072,2.072,0,0,1-.377,1.35,1.9,1.9,0,0,1-.655.566,1.111,1.111,0,0,1-.274.108" transform="translate(-86.63 0)" fill="#e8505b"/>
            <path id="Trazado_830539" data-name="Trazado 830539" d="M231.96,25.013l4.7.928-3.087,3.744-3.087,3.744-1.615-4.672-1.615-4.672Z" transform="translate(-98.45 -10.434)" fill="#e8505b"/>
          </g>
        </g>
        <g id="Grupo_1081108" data-name="Grupo 1081108">
          <g id="Grupo_1081107" data-name="Grupo 1081107" clip-path="url(#clip-path-2)">
            <path id="Trazado_830540" data-name="Trazado 830540" d="M375.44,100.316a6.816,6.816,0,0,0-5.3-.664,12.032,12.032,0,0,0-4.742,2.666c-2.681,2.311-4.489,5.963-5.6,9.324,3.8.991,7.914-.986,9.935-2.12,3.2-1.792,7.883-6.972,5.7-9.2" transform="translate(-155.869 -43.062)" fill="#e8505b"/>
            <path id="Trazado_830541" data-name="Trazado 830541" d="M345.516,112.722a5.815,5.815,0,0,0,3.509-4.667,7.722,7.722,0,0,0-1.739-5.708,3.253,3.253,0,0,0-2.336-1.433,2.489,2.489,0,0,0-2.1,1.388,5.049,5.049,0,0,0-.467,2.577c.115,3.028.783,5.937,3.137,7.843" transform="translate(-148.318 -43.716)" fill="#e8505b"/>
            <g id="Grupo_1081103" data-name="Grupo 1081103" transform="translate(194.054 57.197)" opacity="0.4">
              <g id="Grupo_1081102" data-name="Grupo 1081102">
                <g id="Grupo_1081101" data-name="Grupo 1081101" clip-path="url(#clip-path-4)">
                  <path id="Trazado_830542" data-name="Trazado 830542" d="M345.516,112.722a5.815,5.815,0,0,0,3.509-4.667,7.722,7.722,0,0,0-1.739-5.708,3.253,3.253,0,0,0-2.336-1.433,2.489,2.489,0,0,0-2.1,1.388,5.049,5.049,0,0,0-.467,2.577c.115,3.028.783,5.937,3.137,7.843" transform="translate(-342.372 -100.913)" fill="#fff"/>
                </g>
              </g>
            </g>
            <path id="Trazado_830543" data-name="Trazado 830543" d="M335.973,125.7a4.116,4.116,0,0,0,.537-.494l1.412-1.4a20.419,20.419,0,0,0,4.02-5.181,12.491,12.491,0,0,0,1.409-6.381,8.439,8.439,0,0,0-.362-1.963,5.093,5.093,0,0,0-.185-.51c-.048-.115-.076-.173-.084-.169a13.27,13.27,0,0,1,.451,2.653,12.906,12.906,0,0,1-1.457,6.256,21.965,21.965,0,0,1-3.921,5.17c-.575.609-1.041,1.1-1.354,1.454a3.832,3.832,0,0,0-.465.563" transform="translate(-145.545 -47.482)" fill="#263238"/>
            <path id="Trazado_830544" data-name="Trazado 830544" d="M360.869,107.417a1.488,1.488,0,0,0-.281.148l-.779.466c-.674.409-1.643,1.013-2.832,1.77-2.38,1.512-5.638,3.648-9.184,6.087s-6.7,4.722-8.967,6.4c-1.132.841-2.042,1.53-2.665,2.014l-.714.561a1.459,1.459,0,0,0-.239.21,1.468,1.468,0,0,0,.269-.168l.742-.523,2.712-1.947c2.289-1.645,5.463-3.9,9.006-6.34s6.783-4.6,9.137-6.146l2.787-1.838.753-.507a1.511,1.511,0,0,0,.253-.192" transform="translate(-145.215 -46.534)" fill="#263238"/>
            <path id="Trazado_830545" data-name="Trazado 830545" d="M349.739,130.388a13.6,13.6,0,0,1,12.418.524c.949.55,1.933,1.444,1.783,2.531s-1.346,1.683-2.417,1.931a11.621,11.621,0,0,1-11.983-4.765" transform="translate(-151.423 -55.943)" fill="#e8505b"/>
            <path id="Trazado_830546" data-name="Trazado 830546" d="M353.982,133.232a3.57,3.57,0,0,0-.581-.365,6.618,6.618,0,0,0-.713-.374c-.287-.126-.6-.3-.978-.427a11.886,11.886,0,0,0-1.226-.416,13.41,13.41,0,0,0-1.447-.346,15.119,15.119,0,0,0-3.4-.214,14.851,14.851,0,0,0-3.351.617,13.074,13.074,0,0,0-1.391.528,11.064,11.064,0,0,0-1.16.576,10.1,10.1,0,0,0-.909.56,6.225,6.225,0,0,0-.651.473,3.553,3.553,0,0,0-.52.447c.035.046.784-.587,2.167-1.32a11.593,11.593,0,0,1,1.157-.54,13.5,13.5,0,0,1,1.377-.5,15.4,15.4,0,0,1,3.3-.587,15.7,15.7,0,0,1,3.343.191,14.067,14.067,0,0,1,1.431.318c.448.106.849.255,1.22.381,1.47.538,2.308,1.046,2.335,1" transform="translate(-146.274 -56.78)" fill="#263238"/>
            <path id="Trazado_830547" data-name="Trazado 830547" d="M49.028,193.615c9.844-8.138,11.113-21.863,9.712-33.994-.234-2.025-.184-4.183-1.3-5.887S53.981,151,52.233,152c-1.45.833-1.965,2.64-2.691,4.159a11.919,11.919,0,0,1-4.393,4.935,4.541,4.541,0,0,1-4.139.716c-1.83-.824-2.233-3.227-2.384-5.248q-.423-5.649-.846-11.3a18.9,18.9,0,0,0-1.1-5.949A6.286,6.286,0,0,0,32.4,135.4c-1.966-.382-4.251.919-4.5,2.928a18.742,18.742,0,0,0,.147,2.519,2.131,2.131,0,0,1-1.08,2.1,2.451,2.451,0,0,1-2.293-.746,26.941,26.941,0,0,1-5.412-6.887,37.4,37.4,0,0,0-5.106-7.146,10.956,10.956,0,0,0-7.737-3.55c-2.906.071-5.843,2.106-6.343,5s1.394,5.661,3.389,7.819a45.245,45.245,0,0,0,10.112,8.185,3.718,3.718,0,0,1,1.707,1.56c.548,1.311-.62,2.752-1.913,3.3a23.465,23.465,0,0,1-4.67.913c-1.56.313-3.209,1.146-3.684,2.683-.66,2.132,1.242,4.155,3.056,5.434a38.743,38.743,0,0,0,11.964,5.67,13.059,13.059,0,0,1,4.415,1.719A3.751,3.751,0,0,1,26,171.093c-.609,1.483-2.43,2.089-4.01,1.927a27,27,0,0,1-4.569-1.333c-2.861-.822-6.429-.34-8.012,2.2a6.414,6.414,0,0,0-.221,5.707,14.783,14.783,0,0,0,3.467,4.742,38.968,38.968,0,0,0,17.528,10.307c6.619,1.709,12.633,1.83,18.842-1.03" transform="translate(0 -53.984)" fill="#e8505b"/>
            <g id="Grupo_1081106" data-name="Grupo 1081106" transform="translate(0 70.632)" opacity="0.2">
              <g id="Grupo_1081105" data-name="Grupo 1081105">
                <g id="Grupo_1081104" data-name="Grupo 1081104" clip-path="url(#clip-path-5)">
                  <path id="Trazado_830548" data-name="Trazado 830548" d="M49.028,193.615c9.844-8.138,11.113-21.863,9.712-33.994-.234-2.025-.184-4.183-1.3-5.887S53.981,151,52.233,152c-1.45.833-1.965,2.64-2.691,4.159a11.919,11.919,0,0,1-4.393,4.935,4.541,4.541,0,0,1-4.139.716c-1.83-.824-2.233-3.227-2.384-5.248q-.423-5.649-.846-11.3a18.9,18.9,0,0,0-1.1-5.949A6.286,6.286,0,0,0,32.4,135.4c-1.966-.382-4.251.919-4.5,2.928a18.742,18.742,0,0,0,.147,2.519,2.131,2.131,0,0,1-1.08,2.1,2.451,2.451,0,0,1-2.293-.746,26.941,26.941,0,0,1-5.412-6.887,37.4,37.4,0,0,0-5.106-7.146,10.956,10.956,0,0,0-7.737-3.55c-2.906.071-5.843,2.106-6.343,5s1.394,5.661,3.389,7.819a45.245,45.245,0,0,0,10.112,8.185,3.718,3.718,0,0,1,1.707,1.56c.548,1.311-.62,2.752-1.913,3.3a23.465,23.465,0,0,1-4.67.913c-1.56.313-3.209,1.146-3.684,2.683-.66,2.132,1.242,4.155,3.056,5.434a38.743,38.743,0,0,0,11.964,5.67,13.059,13.059,0,0,1,4.415,1.719A3.751,3.751,0,0,1,26,171.093c-.609,1.483-2.43,2.089-4.01,1.927a27,27,0,0,1-4.569-1.333c-2.861-.822-6.429-.34-8.012,2.2a6.414,6.414,0,0,0-.221,5.707,14.783,14.783,0,0,0,3.467,4.742,38.968,38.968,0,0,0,17.528,10.307c6.619,1.709,12.633,1.83,18.842-1.03" transform="translate(0 -124.616)" fill="#fff"/>
                </g>
              </g>
            </g>
            <path id="Trazado_830549" data-name="Trazado 830549" d="M52.04,204.15a88.979,88.979,0,0,0-4.651-16.376,181.435,181.435,0,0,0-8.765-18.9l-2.552-4.836c-.841-1.585-1.675-3.158-2.586-4.645a90.567,90.567,0,0,0-5.724-8.247c-1.948-2.535-3.888-4.87-5.718-7.039s-3.586-4.154-5.257-5.9a71.955,71.955,0,0,0-8.491-7.631c-1.07-.82-1.92-1.428-2.5-1.832l-.664-.456a1.475,1.475,0,0,0-.234-.144,1.463,1.463,0,0,0,.211.176l.643.486c.567.424,1.4,1.051,2.457,1.887a76.03,76.03,0,0,1,8.39,7.7c1.655,1.75,3.388,3.743,5.211,5.915s3.748,4.515,5.683,7.049a91.66,91.66,0,0,1,5.683,8.227c.9,1.48,1.729,3.04,2.571,4.63l2.549,4.834a186.046,186.046,0,0,1,8.775,18.85,90.506,90.506,0,0,1,4.711,16.3" transform="translate(-2.12 -55.513)" fill="#263238"/>
            <path id="Trazado_830550" data-name="Trazado 830550" d="M55.128,166.1a4.111,4.111,0,0,0,.128-.877c.061-.567.121-1.389.181-2.407.122-2.034.2-4.849.264-7.952s.182-5.911.334-7.937c.074-1.013.142-1.834.2-2.4a4.089,4.089,0,0,0,.041-.886,4.033,4.033,0,0,0-.185.867c-.1.562-.207,1.38-.313,2.394-.221,2.027-.376,4.843-.445,7.952-.06,3.062-.114,5.833-.155,7.95-.024.956-.046,1.762-.063,2.409a4.033,4.033,0,0,0,.018.887" transform="translate(-23.871 -62.226)" fill="#263238"/>
            <path id="Trazado_830551" data-name="Trazado 830551" d="M8.642,178.285a5.666,5.666,0,0,0,1.046.04c.671.006,1.642.008,2.841.049,2.4.063,5.71.268,9.353.652s6.926.886,9.289,1.312c1.185.2,2.137.4,2.8.525A5.544,5.544,0,0,0,35,181.03a5.559,5.559,0,0,0-1-.309c-.651-.172-1.6-.4-2.78-.644-2.358-.494-5.645-1.032-9.3-1.425a92,92,0,0,0-9.387-.544c-1.2-.007-2.178.031-2.85.071a5.525,5.525,0,0,0-1.041.107" transform="translate(-3.744 -77.157)" fill="#263238"/>
            <path id="Trazado_830552" data-name="Trazado 830552" d="M79.233,206.393a1.35,1.35,0,0,0,.152-.331l.367-.975c.316-.848.741-2.088,1.245-3.626,1.011-3.076,2.274-7.369,3.6-12.126s2.552-9.057,3.5-12.15l1.131-3.66c.121-.4.22-.728.3-1a1.318,1.318,0,0,0,.081-.356,1.366,1.366,0,0,0-.152.332l-.368.975c-.316.848-.74,2.088-1.245,3.626-1.011,3.077-2.275,7.369-3.6,12.128s-2.552,9.056-3.5,12.149l-1.131,3.659-.3,1a1.36,1.36,0,0,0-.081.357" transform="translate(-34.323 -74.585)" fill="#263238"/>
            <path id="Trazado_830553" data-name="Trazado 830553" d="M16.768,217.869a1.374,1.374,0,0,0,.354.113l1.029.254,3.792.9c3.2.759,7.611,1.857,12.483,3.077s9.3,2.28,12.516,2.972c1.609.347,2.914.614,3.819.78l1.044.185a1.336,1.336,0,0,0,.369.039,1.449,1.449,0,0,0-.354-.114l-1.029-.254-3.791-.9c-3.2-.758-7.612-1.857-12.485-3.077s-9.3-2.28-12.514-2.972c-1.609-.347-2.914-.614-3.82-.78l-1.044-.185a1.335,1.335,0,0,0-.369-.039" transform="translate(-7.264 -94.38)" fill="#263238"/>
          </g>
        </g>
        <g id="Grupo_1081128" data-name="Grupo 1081128">
          <g id="Grupo_1081127" data-name="Grupo 1081127" clip-path="url(#clip-path-2)">
            <path id="Trazado_830554" data-name="Trazado 830554" d="M100.577,56.5s2.321,59.711,2.756,97.087c.417,35.753-11.53,75.479-9.814,87.989l143.717,7.4s-6.678-92.395-4.127-121.574c2.433-27.832,2.418-73.989,2.418-73.989Z" transform="translate(-40.44 -23.138)" fill="#e0e0e0"/>
            <path id="Trazado_830555" data-name="Trazado 830555" d="M94.8,53.478s2.371,59.711,2.815,97.086c.426,35.753-5.956,79.081-4.2,91.591l139.222-4.831s-5.074-83.77-2.47-112.949c2.485-27.832,2.459-73.481,2.459-73.481Z" transform="translate(-40.335 -22.048)" fill="#ebebeb"/>
            <path id="Trazado_830556" data-name="Trazado 830556" d="M90.531,55.137s-3.5,65.741-3.046,103.117c.438,35.752,1.681,73.044,3.483,85.554L226.4,245.014s-5.221-83.769-2.541-112.949c2.556-27.832,2.541-77.357,2.541-77.357Z" transform="translate(-37.881 -23.7)" fill="#fafafa"/>
            <path id="Trazado_830557" data-name="Trazado 830557" d="M226.484,245.082,90.506,243.871l-.035-.241c-1.967-13.653-3.107-54.64-3.486-85.591C86.533,121.082,90,55.561,90.031,54.9l.014-.268,136.419-.43v.284c0,.5-.014,49.856-2.542,77.383-2.647,28.824,2.49,112.067,2.542,112.9ZM91,243.309l134.882,1.2c-.34-5.576-5.092-84.7-2.522-112.688,2.425-26.411,2.535-72.962,2.54-77.047L90.584,55.2c-.243,4.629-3.469,67.1-3.032,102.831.376,30.755,1.5,71.416,3.447,85.276" transform="translate(-37.665 -23.482)" fill="#263238"/>
            <rect id="Rectángulo_383744" data-name="Rectángulo 383744" width="55.74" height="53.928" transform="translate(61.788 70.43)" fill="#e8505b"/>
            <g id="Grupo_1081111" data-name="Grupo 1081111" transform="translate(66.11 91.991)" opacity="0.3">
              <g id="Grupo_1081110" data-name="Grupo 1081110">
                <g id="Grupo_1081109" data-name="Grupo 1081109" clip-path="url(#clip-path-7)">
                  <path id="Trazado_830558" data-name="Trazado 830558" d="M116.639,190.051l15.42-27.75,12.612,17.737,7.664-9.419,11.4,19.433Z" transform="translate(-116.639 -162.301)"/>
                </g>
              </g>
            </g>
            <g id="Grupo_1081114" data-name="Grupo 1081114" transform="translate(91.491 82.582)" opacity="0.3">
              <g id="Grupo_1081113" data-name="Grupo 1081113">
                <g id="Grupo_1081112" data-name="Grupo 1081112" clip-path="url(#clip-path-8)">
                  <path id="Trazado_830559" data-name="Trazado 830559" d="M169.442,149.712a4.011,4.011,0,1,1-4.011-4.011,4.011,4.011,0,0,1,4.011,4.011" transform="translate(-161.419 -145.701)"/>
                </g>
              </g>
            </g>
            <g id="Grupo_1081117" data-name="Grupo 1081117" transform="translate(65.785 74.625)" opacity="0.3">
              <g id="Grupo_1081116" data-name="Grupo 1081116">
                <g id="Grupo_1081115" data-name="Grupo 1081115" clip-path="url(#clip-path-9)">
                  <path id="Trazado_830560" data-name="Trazado 830560" d="M163.488,176.929a1.741,1.741,0,0,1-.014-.221c0-.162-.007-.367-.012-.629q-.009-.861-.027-2.427c-.014-2.139-.033-5.231-.059-9.159-.028-7.876-.068-19.093-.117-32.561l.228.227L116.4,132.2c-.064.056.5-.5.26-.258v6.1q0,3.031,0,6c0,3.963,0,7.843-.006,11.62-.009,7.553-.018,14.693-.026,21.262l-.231-.231,34.052.118,9.6.061,2.548.027.66.013a1.732,1.732,0,0,1,.232.013,1.19,1.19,0,0,1-.206.013l-.635.013-2.5.027-9.552.061-34.2.117h-.231v-.233c-.008-6.569-.016-13.709-.025-21.262,0-3.777,0-7.657-.007-11.62q0-2.972,0-6,0-1.516,0-3.045V131.94c-.236.233.323-.333.271-.273l47.092.037h.228v.228c-.048,13.527-.088,24.794-.116,32.706-.025,3.9-.045,6.981-.059,9.107q-.018,1.537-.027,2.383c-.005.251-.01.449-.012.6a1.013,1.013,0,0,1-.013.2" transform="translate(-116.066 -131.662)"/>
                </g>
              </g>
            </g>
            <rect id="Rectángulo_383748" data-name="Rectángulo 383748" width="38.32" height="37.074" transform="translate(131.944 173.697)" fill="#e8505b"/>
            <g id="Grupo_1081120" data-name="Grupo 1081120" transform="translate(134.915 188.52)" opacity="0.4">
              <g id="Grupo_1081119" data-name="Grupo 1081119">
                <g id="Grupo_1081118" data-name="Grupo 1081118" clip-path="url(#clip-path-10)">
                  <path id="Trazado_830561" data-name="Trazado 830561" d="M238.032,351.686l10.6-19.078L257.3,344.8l5.268-6.476,7.839,13.359Z" transform="translate(-238.032 -332.609)"/>
                </g>
              </g>
            </g>
            <g id="Grupo_1081123" data-name="Grupo 1081123" transform="translate(152.364 182.052)" opacity="0.4">
              <g id="Grupo_1081122" data-name="Grupo 1081122">
                <g id="Grupo_1081121" data-name="Grupo 1081121" clip-path="url(#clip-path-11)">
                  <path id="Trazado_830562" data-name="Trazado 830562" d="M274.334,323.955a2.758,2.758,0,1,1-2.757-2.758,2.758,2.758,0,0,1,2.757,2.758" transform="translate(-268.818 -321.197)"/>
                </g>
              </g>
            </g>
            <g id="Grupo_1081126" data-name="Grupo 1081126" transform="translate(134.692 176.582)" opacity="0.4">
              <g id="Grupo_1081125" data-name="Grupo 1081125">
                <g id="Grupo_1081124" data-name="Grupo 1081124" clip-path="url(#clip-path-12)">
                  <path id="Trazado_830563" data-name="Trazado 830563" d="M270.24,342.665a1.207,1.207,0,0,1-.009-.152c0-.111,0-.252-.008-.432q-.006-.592-.018-1.668c-.01-1.47-.023-3.6-.04-6.3-.02-5.415-.048-13.126-.08-22.385l.156.156-32.375.026c-.044.038.342-.343.179-.177v4.195q0,2.084,0,4.128,0,4.087,0,7.989c-.006,5.192-.012,10.1-.017,14.617l-.159-.159,23.41.081,6.6.041,1.752.019.454.009a1.075,1.075,0,0,1,.159.009.754.754,0,0,1-.142.009l-.436.009-1.721.018-6.567.042-23.512.081H237.7v-.16c-.006-4.516-.011-9.425-.018-14.617q0-3.9,0-7.989,0-2.043,0-4.128v-4.195c-.163.16.222-.228.186-.188l32.375.026h.158v.157c-.033,9.3-.061,17.045-.08,22.485-.017,2.684-.031,4.8-.041,6.261q-.012,1.057-.018,1.639c0,.173-.006.308-.008.415a.623.623,0,0,1-.009.134" transform="translate(-237.639 -311.545)"/>
                </g>
              </g>
            </g>
            <path id="Trazado_830564" data-name="Trazado 830564" d="M145.725,81.979v8.954h-.781l-5.756-7.265v7.265h-.947V81.979h.78l5.769,7.265V81.979Z" transform="translate(-59.887 -35.514)" fill="#263238"/>
            <path id="Trazado_830565" data-name="Trazado 830565" d="M162.923,90.114v.818h-6.332V81.979h6.14V82.8h-5.194v3.185h4.63v.805h-4.63v3.326Z" transform="translate(-67.836 -35.514)" fill="#263238"/>
            <path id="Trazado_830566" data-name="Trazado 830566" d="M183,81.979l-3.019,8.954h-1L176.366,83.3l-2.635,7.636h-.985l-3.019-8.954h.972l2.584,7.7,2.673-7.7h.882l2.635,7.738,2.623-7.738Z" transform="translate(-73.527 -35.514)" fill="#263238"/>
            <path id="Trazado_830567" data-name="Trazado 830567" d="M194.69,89.787l.371-.729a4.4,4.4,0,0,0,2.955,1.087c1.675,0,2.4-.7,2.4-1.586,0-2.456-5.513-.946-5.513-4.259,0-1.318,1.023-2.456,3.3-2.456a5.057,5.057,0,0,1,2.776.793l-.32.754a4.611,4.611,0,0,0-2.456-.742c-1.637,0-2.366.729-2.366,1.624,0,2.456,5.513.973,5.513,4.235,0,1.317-1.049,2.443-3.338,2.443a4.855,4.855,0,0,1-3.326-1.164" transform="translate(-84.341 -35.455)" fill="#263238"/>
            <path id="Trazado_830568" data-name="Trazado 830568" d="M217.092,85.049c0,1.906-1.381,3.057-3.658,3.057h-2.4v2.827h-.947V81.979h3.351c2.277,0,3.658,1.151,3.658,3.07m-.947,0c0-1.432-.947-2.251-2.737-2.251h-2.379v4.477h2.379c1.79,0,2.737-.819,2.737-2.226" transform="translate(-91.009 -35.514)" fill="#263238"/>
            <path id="Trazado_830569" data-name="Trazado 830569" d="M229.792,88.541H224.8l-1.075,2.392h-.985l4.093-8.954h.934l4.093,8.954h-1Zm-.345-.767L227.3,82.964l-2.149,4.809Z" transform="translate(-96.494 -35.514)" fill="#263238"/>
            <path id="Trazado_830570" data-name="Trazado 830570" d="M248.465,85.049c0,1.906-1.381,3.057-3.658,3.057h-2.4v2.827h-.947V81.979h3.351c2.277,0,3.658,1.151,3.658,3.07m-.947,0c0-1.432-.947-2.251-2.737-2.251H242.4v4.477h2.379c1.791,0,2.737-.819,2.737-2.226" transform="translate(-104.6 -35.514)" fill="#263238"/>
            <path id="Trazado_830571" data-name="Trazado 830571" d="M263.767,90.114v.818h-6.332V81.979h6.14V82.8h-5.193v3.185h4.63v.805h-4.63v3.326Z" transform="translate(-111.522 -35.514)" fill="#263238"/>
            <path id="Trazado_830572" data-name="Trazado 830572" d="M278.65,90.933,276.6,88.055a6.379,6.379,0,0,1-.716.038h-2.4v2.84h-.947V81.979h3.351c2.277,0,3.658,1.151,3.658,3.07a2.776,2.776,0,0,1-2.046,2.814l2.187,3.07Zm-.052-5.884c0-1.432-.947-2.251-2.737-2.251h-2.379v4.49h2.379c1.791,0,2.737-.832,2.737-2.239" transform="translate(-118.064 -35.514)" fill="#263238"/>
            <path id="Trazado_830573" data-name="Trazado 830573" d="M226.391,105.337s-.1.011-.31.019l-.909.027-3.5.073-12.865.214-42.442.6-42.451.51-12.865.121-3.5.018-.909,0c-.205,0-.311-.011-.311-.011s.1-.011.31-.019l.909-.027,3.5-.073,12.863-.215,42.451-.6,42.444-.51,12.866-.121,3.5-.018.91,0c.205,0,.31.011.31.011" transform="translate(-46.064 -45.627)" fill="#263238"/>
            <path id="Trazado_830574" data-name="Trazado 830574" d="M221.575,70.949s-.1.011-.31.019l-.909.027-3.5.073-12.865.214-42.442.6-42.451.51-12.865.121-3.5.018-.91,0c-.205,0-.311-.011-.311-.011s.1-.011.309-.019l.91-.027,3.5-.073L119.1,72.18l42.451-.6,42.444-.51,12.866-.121,3.5-.018.91,0c.205,0,.31.011.31.011" transform="translate(-43.978 -30.729)" fill="#263238"/>
            <path id="Trazado_830575" data-name="Trazado 830575" d="M273.4,132.806c0,.082-10.334.147-23.078.147s-23.08-.066-23.08-.147,10.331-.147,23.08-.147,23.078.066,23.078.147" transform="translate(-98.441 -57.469)" fill="#263238"/>
            <path id="Trazado_830576" data-name="Trazado 830576" d="M273.4,145.844c0,.082-10.334.147-23.078.147s-23.08-.066-23.08-.147,10.331-.147,23.08-.147,23.078.066,23.078.147" transform="translate(-98.441 -63.117)" fill="#263238"/>
            <path id="Trazado_830577" data-name="Trazado 830577" d="M273.4,158.882c0,.082-10.334.147-23.078.147s-23.08-.066-23.08-.147,10.331-.147,23.08-.147,23.078.066,23.078.147" transform="translate(-98.441 -68.765)" fill="#263238"/>
            <path id="Trazado_830578" data-name="Trazado 830578" d="M273.4,171.92c0,.082-10.334.147-23.078.147s-23.08-.066-23.08-.147,10.331-.147,23.08-.147,23.078.066,23.078.147" transform="translate(-98.441 -74.413)" fill="#263238"/>
            <path id="Trazado_830579" data-name="Trazado 830579" d="M273.4,184.958c0,.082-10.334.147-23.078.147s-23.08-.066-23.08-.147,10.331-.147,23.08-.147,23.078.066,23.078.147" transform="translate(-98.441 -80.061)" fill="#263238"/>
            <path id="Trazado_830580" data-name="Trazado 830580" d="M166.859,295.635c0,.082-10.334.147-23.078.147s-23.08-.066-23.08-.147,10.332-.147,23.08-.147,23.078.066,23.078.147" transform="translate(-52.288 -128.007)" fill="#263238"/>
            <path id="Trazado_830581" data-name="Trazado 830581" d="M166.859,311.432c0,.082-10.334.147-23.078.147s-23.08-.066-23.08-.147,10.332-.147,23.08-.147,23.078.066,23.078.147" transform="translate(-52.288 -134.851)" fill="#263238"/>
            <path id="Trazado_830582" data-name="Trazado 830582" d="M166.859,327.228c0,.082-10.334.147-23.078.147s-23.08-.066-23.08-.147,10.332-.147,23.08-.147,23.078.066,23.078.147" transform="translate(-52.288 -141.694)" fill="#263238"/>
            <path id="Trazado_830583" data-name="Trazado 830583" d="M166.859,343.025c0,.082-10.334.147-23.078.147s-23.08-.066-23.08-.147,10.332-.147,23.08-.147,23.078.066,23.078.147" transform="translate(-52.288 -148.537)" fill="#263238"/>
            <path id="Trazado_830584" data-name="Trazado 830584" d="M148.095,360.013c0,.082-6.133.147-13.7.147s-13.7-.066-13.7-.147,6.132-.147,13.7-.147,13.7.066,13.7.147" transform="translate(-52.288 -155.896)" fill="#263238"/>
            <path id="Trazado_830585" data-name="Trazado 830585" d="M252.046,198a6.171,6.171,0,0,1-.975.057l-2.658.047c-2.245.027-5.345.043-8.77.043s-6.527-.016-8.771-.043l-2.658-.047a6.167,6.167,0,0,1-.974-.057,6.172,6.172,0,0,1,.974-.057l2.658-.047c2.244-.027,5.345-.043,8.771-.043s6.525.016,8.77.043l2.658.047a6.176,6.176,0,0,1,.975.057" transform="translate(-98.442 -85.709)" fill="#263238"/>
            <path id="Trazado_830586" data-name="Trazado 830586" d="M228.135,279.885c0,.082-24.739.147-55.249.147s-55.254-.066-55.254-.147,24.734-.147,55.254-.147,55.249.066,55.249.147" transform="translate(-50.959 -121.184)" fill="#263238"/>
            <path id="Trazado_830587" data-name="Trazado 830587" d="M228.135,262.672c0,.082-24.739.147-55.249.147s-55.254-.066-55.254-.147,24.734-.147,55.254-.147,55.249.066,55.249.147" transform="translate(-50.959 -113.728)" fill="#263238"/>
            <path id="Trazado_830588" data-name="Trazado 830588" d="M228.135,248.1c0,.082-24.739.147-55.249.147s-55.254-.066-55.254-.147,24.734-.147,55.254-.147,55.249.066,55.249.147" transform="translate(-50.959 -107.416)" fill="#263238"/>
            <path id="Trazado_830589" data-name="Trazado 830589" d="M167.739,236.773c0,.082-12.005.147-26.811.147s-26.814-.066-26.814-.147,12-.147,26.814-.147,26.811.066,26.811.147" transform="translate(-49.435 -102.508)" fill="#e8505b"/>
          </g>
        </g>
        <g id="Grupo_1081133" data-name="Grupo 1081133">
          <g id="Grupo_1081132" data-name="Grupo 1081132" clip-path="url(#clip-path-2)">
            <path id="Trazado_830590" data-name="Trazado 830590" d="M180.143,198.2a8.705,8.705,0,0,0,5.693-11.321c-1.007-2.4-3.164-4.474-3.038-7.072.086-1.77,1.249-3.32,1.518-5.071.5-3.278-2.124-6.107-3.334-9.2-1.25-3.19-.973-6.737-.958-10.163s-.355-7.109-2.572-9.721L174.7,185.5Z" transform="translate(-75.682 -63.101)" fill="#263238"/>
            <path id="Trazado_830591" data-name="Trazado 830591" d="M119.733,130.674c-4.042,2.48-6.851,6.63-8.519,11.068a55.827,55.827,0,0,0-2.791,13.909,270.933,270.933,0,0,0-1.308,37.512c15.3,1.936,30.713,3.876,46.1,2.829-2.667-17.568-4.357-35.114-2.221-52.754" transform="translate(-46.333 -56.609)" fill="#263238"/>
            <path id="Trazado_830592" data-name="Trazado 830592" d="M186.951,197.308c.005-.022.188.054.55.062a2.509,2.509,0,0,0,1.468-.486,3.4,3.4,0,0,0,1.356-2.009,5.505,5.505,0,0,0-.417-3.222c-.447-1.149-1.21-2.28-1.878-3.592a8.847,8.847,0,0,1-.8-2.146,7.619,7.619,0,0,1-.073-2.433,20.643,20.643,0,0,1,1.567-4.932,14.852,14.852,0,0,0,1.387-5.266,9.566,9.566,0,0,0-1.642-5.121c-.921-1.52-1.977-2.891-2.835-4.3a18.468,18.468,0,0,1-2.084-14.162,15.124,15.124,0,0,1,.49-1.527l.152-.388a.5.5,0,0,1,.061-.128.552.552,0,0,1-.033.139c-.033.106-.074.236-.124.4-.121.345-.264.864-.434,1.535a19.049,19.049,0,0,0-.443,5.819,18.294,18.294,0,0,0,2.648,8.173c.853,1.394,1.913,2.76,2.85,4.3a9.827,9.827,0,0,1,1.69,5.275,15.011,15.011,0,0,1-1.415,5.37,20.656,20.656,0,0,0-1.565,4.859,7.392,7.392,0,0,0,.058,2.344,8.643,8.643,0,0,0,.765,2.09c.648,1.3,1.409,2.445,1.854,3.625a5.646,5.646,0,0,1,.384,3.335,3.5,3.5,0,0,1-1.453,2.067,2.5,2.5,0,0,1-1.535.451,1.778,1.778,0,0,1-.414-.074.5.5,0,0,1-.134-.047" transform="translate(-79.263 -63.964)" fill="#263238"/>
            <path id="Trazado_830593" data-name="Trazado 830593" d="M254.144,230.654c-.771.842-1.49,1.005-1.841-.637-.775-3.622-2.7-6.125-3.679-6.438s-1.741.958-1.063,1.883A13.819,13.819,0,0,1,249,228.905a9.019,9.019,0,0,1,.4,2.967c-.03.869-.083,1.635-.143,2.323,0,0-.363,3.977-1.466,5.809l9.757,7.129,3.876-4.373a5.88,5.88,0,0,0,1.794-5.427c-.727-3.259-3.634-7.405-3.634-7.405-.994-.487,1.634-6.2,2.654-8.055,1.008-1.836.557-3.085-.616-2.877-.8.142-4.055,5.758-5.022,7.621a21.752,21.752,0,0,1-2.462,4.037" transform="translate(-107.133 -94.861)" fill="#ffbe9d"/>
            <path id="Trazado_830594" data-name="Trazado 830594" d="M122.44,288.258c-2.815-8.145-2.019-9.332-2.436-12.246l-1.857,11.915,8.742,27.084-34.141.2H64.066l6.162-34.932-6.437-8.029-.134,3.425-19.5,2.644s8.97-27.143,13.347-38.927,12.728-15.662,12.728-15.662c15.89-5.423,27.713-5.74,41.435-2.392a29.8,29.8,0,0,1,22.21,23.89c.027.156.054.312.079.47l5.229,25.112,20.577-32.846,12.191,9.525-12.4,22.55-10.46,19.41c-7.411,9.577-23.087,7.539-26.655-1.187" transform="translate(-19.127 -94.942)" fill="#455a64"/>
            <path id="Trazado_830595" data-name="Trazado 830595" d="M95.073,270.212c-.084-.019.22-1.585.441-3.533s.287-3.542.373-3.542a19.392,19.392,0,0,1-.814,7.075" transform="translate(-41.18 -113.993)" fill="#263238"/>
            <path id="Trazado_830596" data-name="Trazado 830596" d="M173.856,268.654a1.178,1.178,0,0,1,.192.24l.5.721a11.449,11.449,0,0,1,.74,1.178c.26.476.6,1,.872,1.624a20.417,20.417,0,0,1,.89,2.052,25.481,25.481,0,0,1,.809,2.437,29.952,29.952,0,0,1,.946,5.8,33,33,0,0,1-.223,5.874c-.066.447-.129.883-.192,1.307s-.161.828-.236,1.223c-.144.791-.346,1.513-.517,2.174s-.374,1.245-.531,1.764-.325.956-.464,1.311l-.323.817a1.2,1.2,0,0,1-.131.278,1.223,1.223,0,0,1,.075-.3l.27-.834c.122-.36.273-.8.414-1.322s.343-1.1.487-1.767.346-1.381.479-2.168c.07-.393.162-.8.22-1.217s.117-.855.178-1.3a34.34,34.34,0,0,0,.2-5.823,30.975,30.975,0,0,0-.914-5.747c-.253-.859-.477-1.682-.776-2.422a21.468,21.468,0,0,0-.85-2.048c-.258-.629-.583-1.152-.827-1.633a13.306,13.306,0,0,0-.694-1.2l-.455-.749a1.213,1.213,0,0,1-.142-.273" transform="translate(-75.315 -116.382)" fill="#263238"/>
            <path id="Trazado_830597" data-name="Trazado 830597" d="M211.34,318.4a79.247,79.247,0,0,1,.214-9.678,79.544,79.544,0,0,1-.214,9.678" transform="translate(-91.521 -133.739)" fill="#263238"/>
            <path id="Trazado_830598" data-name="Trazado 830598" d="M215.966,318.247a76.534,76.534,0,0,1-3.523-8.809,76.276,76.276,0,0,1,3.523,8.809" transform="translate(-92.029 -134.051)" fill="#263238"/>
            <path id="Trazado_830599" data-name="Trazado 830599" d="M139.161,354.54a.542.542,0,0,1-.146,0l-.424-.037-.686-.07a5.524,5.524,0,0,0-.939-.036,20.579,20.579,0,0,0-5.91.86c-2.449.656-5.265,1.765-8.5,2.713a23.985,23.985,0,0,1-5.194.988,13.778,13.778,0,0,1-5.627-.721,32.147,32.147,0,0,1-5.079-2.535,31.39,31.39,0,0,0-4.683-2.351,16.858,16.858,0,0,0-8.721-.745,16.449,16.449,0,0,0-3.278.913,17.65,17.65,0,0,0-2.326,1.1c-.6.368-1.072.659-1.37.884l-.35.241a.55.55,0,0,1-.126.075,12.458,12.458,0,0,1,1.787-1.3,16.663,16.663,0,0,1,2.323-1.157,16.223,16.223,0,0,1,3.3-.965,16.916,16.916,0,0,1,8.853.695,31.243,31.243,0,0,1,4.732,2.356,32.259,32.259,0,0,0,5.034,2.507,13.56,13.56,0,0,0,5.51.711,23.977,23.977,0,0,0,5.138-.961c3.217-.927,6.05-2.019,8.519-2.653a19.852,19.852,0,0,1,5.967-.774,5.307,5.307,0,0,1,.944.063l.686.1.421.066a.517.517,0,0,1,.141.032" transform="translate(-37.171 -152.534)" fill="#f5f5f5"/>
            <path id="Trazado_830600" data-name="Trazado 830600" d="M144.424,318.547a2.784,2.784,0,0,1-.465.061l-.563.052c-.22.031-.47.1-.753.158a12.9,12.9,0,0,0-4.381,2.141c-.85.6-1.745,1.3-2.709,2.06a37.015,37.015,0,0,1-3.179,2.3,12.569,12.569,0,0,1-4,1.717,10.473,10.473,0,0,1-2.3.228,13.729,13.729,0,0,1-2.364-.263,35.086,35.086,0,0,1-8.347-3.313,28.963,28.963,0,0,0-6.8-2.572,11.689,11.689,0,0,0-4.866-.081,9.4,9.4,0,0,0-1.279.38,2.832,2.832,0,0,1-.444.149,2.675,2.675,0,0,1,.422-.2,7.876,7.876,0,0,1,1.275-.438,11.426,11.426,0,0,1,4.933-.011,28.388,28.388,0,0,1,6.883,2.533,35.62,35.62,0,0,0,8.284,3.267,13.608,13.608,0,0,0,2.311.259,10.2,10.2,0,0,0,2.239-.217,12.414,12.414,0,0,0,3.912-1.665,37.981,37.981,0,0,0,3.172-2.266c.97-.748,1.877-1.448,2.741-2.038a12.544,12.544,0,0,1,4.474-2.081c.289-.05.544-.111.767-.133l.571-.024a2.721,2.721,0,0,1,.469,0" transform="translate(-44.174 -137.993)" fill="#f5f5f5"/>
            <path id="Trazado_830601" data-name="Trazado 830601" d="M210.933,334.372a1.185,1.185,0,0,1-.185.244,5.222,5.222,0,0,1-.616.629,7.46,7.46,0,0,1-2.863,1.486,12.231,12.231,0,0,1-4.777.29,33.819,33.819,0,0,1-5.681-1.428,27.217,27.217,0,0,0-5.651-1.3,11.276,11.276,0,0,0-4.652.542,7.246,7.246,0,0,0-2.691,1.644,6.618,6.618,0,0,0-.573.651,1.2,1.2,0,0,1-.2.23,1.189,1.189,0,0,1,.154-.265,5.043,5.043,0,0,1,.538-.7,7.022,7.022,0,0,1,2.7-1.76,11.216,11.216,0,0,1,4.745-.618,26.46,26.46,0,0,1,5.717,1.292,35.305,35.305,0,0,0,5.628,1.44,12.325,12.325,0,0,0,4.689-.222,7.736,7.736,0,0,0,2.845-1.373c.589-.471.846-.809.874-.784" transform="translate(-79.295 -144.685)" fill="#f5f5f5"/>
            <path id="Trazado_830602" data-name="Trazado 830602" d="M234.895,303.351c.007.008-.045.059-.152.15a2.912,2.912,0,0,1-.508.346,4.474,4.474,0,0,1-2.2.49,8.036,8.036,0,0,1-3.24-.8c-1.147-.521-2.305-1.269-3.591-1.883a7.561,7.561,0,0,0-6.977-.046,9.542,9.542,0,0,0-2.4,1.817c-.008-.006.032-.067.116-.179a4.157,4.157,0,0,1,.4-.467,7.107,7.107,0,0,1,1.793-1.357,7.844,7.844,0,0,1,3.213-.91,7.988,7.988,0,0,1,3.987.874c1.312.628,2.461,1.38,3.58,1.9a8.115,8.115,0,0,0,3.13.842,4.643,4.643,0,0,0,2.138-.384c.469-.224.693-.419.711-.394" transform="translate(-93.499 -130.176)" fill="#f5f5f5"/>
            <path id="Trazado_830603" data-name="Trazado 830603" d="M249.185,278.918c.006.024-.242.088-.663.266a11.429,11.429,0,0,0-1.695.938,13.374,13.374,0,0,1-2.562,1.391,9.446,9.446,0,0,1-3.529.6,9.064,9.064,0,0,1-3.5-.774,9.389,9.389,0,0,1-2.453-1.59,8.567,8.567,0,0,1-1.3-1.473,4.52,4.52,0,0,1-.285-.452c-.06-.107-.087-.165-.078-.17a15.15,15.15,0,0,0,1.8,1.937,9.714,9.714,0,0,0,2.424,1.5,9.1,9.1,0,0,0,3.395.728,9.517,9.517,0,0,0,3.427-.562,14.339,14.339,0,0,0,2.548-1.314,9.429,9.429,0,0,1,1.763-.868,2.148,2.148,0,0,1,.7-.159" transform="translate(-100.988 -120.282)" fill="#f5f5f5"/>
            <path id="Trazado_830604" data-name="Trazado 830604" d="M197.5,297.665c-.007.028-.231-.046-.644-.039a3.84,3.84,0,0,0-1.664.444,13.094,13.094,0,0,0-2.124,1.508,8.02,8.02,0,0,1-2.878,1.522,8.609,8.609,0,0,1-5.818-.374,7.477,7.477,0,0,1-1.543-.907,2.8,2.8,0,0,1-.479-.448,12.509,12.509,0,0,0,2.1,1.163,8.763,8.763,0,0,0,5.654.283c2.224-.562,3.563-2.336,4.995-2.935a3.663,3.663,0,0,1,1.758-.371,2.172,2.172,0,0,1,.483.084c.107.036.16.06.157.07" transform="translate(-78.993 -128.88)" fill="#f5f5f5"/>
            <path id="Trazado_830605" data-name="Trazado 830605" d="M192.093,271.415a8.08,8.08,0,0,0-2.124-.885,6.181,6.181,0,0,0-2.468-.051,5.693,5.693,0,0,0-2.714,1.255,23.663,23.663,0,0,0-2.044,2.3,4.732,4.732,0,0,1-2.091,1.486,2.637,2.637,0,0,1-1.729.037,1.534,1.534,0,0,1-.421-.218c-.086-.066-.128-.1-.122-.112.016-.025.2.115.577.22a2.66,2.66,0,0,0,1.626-.125,4.665,4.665,0,0,0,1.955-1.468,21.13,21.13,0,0,1,2.056-2.349,5.818,5.818,0,0,1,2.86-1.3,6.12,6.12,0,0,1,2.564.116,5.335,5.335,0,0,1,1.583.69,2.046,2.046,0,0,1,.491.4" transform="translate(-77.275 -117.021)" fill="#f5f5f5"/>
            <path id="Trazado_830606" data-name="Trazado 830606" d="M123.13,292.788c.01-.031.472.15,1.345.286a10.257,10.257,0,0,0,3.71-.161,18.824,18.824,0,0,0,5.133-2.051c1.839-1,3.769-2.288,5.978-3.331a19.4,19.4,0,0,1,6.62-1.768,20.085,20.085,0,0,1,5.59.31,18.145,18.145,0,0,1,3.607,1.111c.415.161.718.335.929.435a1.633,1.633,0,0,1,.312.175c-.012.026-.457-.185-1.284-.5a20,20,0,0,0-3.6-1.012,20.54,20.54,0,0,0-5.527-.244,19.505,19.505,0,0,0-6.518,1.764c-2.182,1.029-4.114,2.308-5.973,3.3a18.488,18.488,0,0,1-5.221,2.017,9.852,9.852,0,0,1-3.771.07,6.2,6.2,0,0,1-.994-.263,1.613,1.613,0,0,1-.332-.136" transform="translate(-53.341 -123.763)" fill="#f5f5f5"/>
            <path id="Trazado_830607" data-name="Trazado 830607" d="M104.111,247.3a1.784,1.784,0,0,1-.317.2,5.82,5.82,0,0,1-.99.422,8.35,8.35,0,0,1-3.931.187,12.971,12.971,0,0,1-2.631-.752A27.871,27.871,0,0,1,93.42,246a30.674,30.674,0,0,0-6.44-2.978,17.913,17.913,0,0,0-3.607-.651c-.589-.07-1.174-.052-1.745-.072-.569.028-1.13.026-1.671.092a19.908,19.908,0,0,0-5.613,1.373,20.234,20.234,0,0,0-3.452,1.836c-.385.256-.667.482-.869.619a1.785,1.785,0,0,1-.314.2,1.759,1.759,0,0,1,.277-.251c.192-.152.463-.393.841-.666a18.467,18.467,0,0,1,3.437-1.935,19.555,19.555,0,0,1,5.667-1.45c.549-.071,1.117-.073,1.7-.1.579.018,1.172,0,1.771.065a17.915,17.915,0,0,1,3.664.656,30.084,30.084,0,0,1,6.489,3.023,28.52,28.52,0,0,0,2.784,1.372,13.05,13.05,0,0,0,2.575.773,8.556,8.556,0,0,0,3.862-.091,13.7,13.7,0,0,0,1.34-.511" transform="translate(-30.199 -104.844)" fill="#f5f5f5"/>
            <path id="Trazado_830608" data-name="Trazado 830608" d="M182.559,250.408c.006.008-.055.063-.179.161a2.86,2.86,0,0,1-.591.355,4.612,4.612,0,0,1-2.5.342,8.152,8.152,0,0,1-3.491-1.352c-1.2-.754-2.369-1.77-3.737-2.6a9.907,9.907,0,0,0-4.233-1.4,10.768,10.768,0,0,0-3.652.28,13.419,13.419,0,0,0-3.125,1.337c-.006-.009.057-.061.184-.154A5.559,5.559,0,0,1,161.8,247a9.312,9.312,0,0,1,2.318-1,10.563,10.563,0,0,1,3.731-.349,9.959,9.959,0,0,1,4.36,1.414c1.4.851,2.564,1.873,3.733,2.625a8.164,8.164,0,0,0,3.371,1.374,4.722,4.722,0,0,0,2.427-.241c.542-.222.8-.438.816-.411" transform="translate(-69.768 -106.398)" fill="#f5f5f5"/>
            <path id="Trazado_830609" data-name="Trazado 830609" d="M79.162,276.67a4.635,4.635,0,0,1-.843-.064l-2.282-.284-3.379-.458c-1.271-.173-2.667-.362-4.138-.423a15.4,15.4,0,0,0-4.112.325,10.366,10.366,0,0,0-3.113,1.253,9.513,9.513,0,0,0-2.31,2.068c-.009-.006.027-.073.1-.194a4.349,4.349,0,0,1,.366-.512,7.363,7.363,0,0,1,1.729-1.538,10.135,10.135,0,0,1,3.162-1.341,15.034,15.034,0,0,1,4.187-.355,39.173,39.173,0,0,1,4.165.448l3.371.521,2.269.376a4.582,4.582,0,0,1,.826.178" transform="translate(-25.552 -119.188)" fill="#f5f5f5"/>
            <path id="Trazado_830610" data-name="Trazado 830610" d="M178.3,177.475a3.225,3.225,0,0,1,.52,1.106,7.31,7.31,0,0,1,.079,3.325c-.219,1.4-.839,2.974-1.169,4.778a7.406,7.406,0,0,0,0,2.837,24.4,24.4,0,0,0,.927,2.958,8.51,8.51,0,0,1,.576,3.1,9.281,9.281,0,0,1-.663,2.864,17.88,17.88,0,0,0-1.5,4.639,4.869,4.869,0,0,0,.6,3.148,4.805,4.805,0,0,0,.808.886,1.271,1.271,0,0,1-.27-.167,2.987,2.987,0,0,1-.634-.655,4.863,4.863,0,0,1-.712-3.231,8.488,8.488,0,0,1,.51-2.257c.274-.783.626-1.593.943-2.458a9.154,9.154,0,0,0,.629-2.78,8.319,8.319,0,0,0-.567-3,23.844,23.844,0,0,1-.93-3,7.6,7.6,0,0,1,.016-2.941c.354-1.843.992-3.4,1.232-4.767a7.52,7.52,0,0,0,.014-3.258,8.669,8.669,0,0,0-.409-1.136" transform="translate(-76.608 -76.883)" fill="#455a64"/>
            <path id="Trazado_830611" data-name="Trazado 830611" d="M137.488,190.384c.995-5.547,2.143-11.368,2.143-11.368s7.359.072,10.482-8.994c2.98-8.647,5.132-29.448,5.132-29.448a27.22,27.22,0,0,0-31.02,1.581l-7.335,45.182c-.851,5.245,2.98,10.155,8.6,11.024,5.679.877,11.046-2.693,11.994-7.977" transform="translate(-50.586 -59.12)" fill="#ffbe9d"/>
            <path id="Trazado_830612" data-name="Trazado 830612" d="M173.147,170.2a1.215,1.215,0,0,1-1.366,1,1.162,1.162,0,0,1-1.043-1.3,1.216,1.216,0,0,1,1.365-1,1.163,1.163,0,0,1,1.044,1.3" transform="translate(-73.96 -73.165)" fill="#263238"/>
            <path id="Trazado_830613" data-name="Trazado 830613" d="M175.23,168.12c-.176.13-.964-.7-2.252-.924-1.283-.241-2.345.254-2.456.072-.056-.082.144-.337.609-.563a3.329,3.329,0,0,1,2-.251,3.2,3.2,0,0,1,1.758.93c.343.374.427.68.342.736" transform="translate(-73.867 -72.086)" fill="#263238"/>
            <path id="Trazado_830614" data-name="Trazado 830614" d="M149.827,166.5a1.215,1.215,0,0,1-1.366,1,1.162,1.162,0,0,1-1.043-1.3,1.216,1.216,0,0,1,1.365-1,1.163,1.163,0,0,1,1.044,1.3" transform="translate(-63.858 -71.565)" fill="#263238"/>
            <path id="Trazado_830615" data-name="Trazado 830615" d="M151.387,164.771c-.176.13-.965-.7-2.252-.924-1.283-.241-2.345.254-2.457.072-.056-.082.143-.337.609-.563a3.33,3.33,0,0,1,2-.251,3.2,3.2,0,0,1,1.758.93c.342.374.427.679.342.736" transform="translate(-63.538 -70.635)" fill="#263238"/>
            <path id="Trazado_830616" data-name="Trazado 830616" d="M160.268,176.1a8.661,8.661,0,0,1,2.157-.009c.334.024.657.014.752-.2a1.7,1.7,0,0,0-.048-1.013l-.531-2.674a43.7,43.7,0,0,1-1.03-6.931,43.682,43.682,0,0,1,1.586,6.832c.17.936.333,1.828.487,2.682a1.934,1.934,0,0,1-.057,1.32.837.837,0,0,1-.625.385,2.275,2.275,0,0,1-.572-.02,8.5,8.5,0,0,1-2.12-.371" transform="translate(-69.429 -71.598)" fill="#263238"/>
            <path id="Trazado_830617" data-name="Trazado 830617" d="M148,207.3a24.094,24.094,0,0,1-11.906-5.532s1.9,6.941,11.391,7.712Z" transform="translate(-58.959 -87.409)" fill="#eb996e"/>
            <path id="Trazado_830618" data-name="Trazado 830618" d="M155.285,188.743a2.355,2.355,0,0,0-1.928-1.228,2.149,2.149,0,0,0-1.6.527,1.364,1.364,0,0,0-.372,1.517,1.582,1.582,0,0,0,1.613.724,4.942,4.942,0,0,0,1.818-.692,1.456,1.456,0,0,0,.435-.316.438.438,0,0,0,.082-.48" transform="translate(-65.537 -81.23)" fill="#eb996e"/>
            <path id="Trazado_830619" data-name="Trazado 830619" d="M153.026,184.774c.211.025-.032,1.423.989,2.625s2.536,1.31,2.513,1.508c0,.091-.38.213-1.011.119a3.532,3.532,0,0,1-2.111-1.18,3.078,3.078,0,0,1-.74-2.186c.049-.593.266-.912.361-.887" transform="translate(-66.131 -80.045)" fill="#263238"/>
            <path id="Trazado_830620" data-name="Trazado 830620" d="M141.042,131c2.492,5.5,10.569,12.188,16.807,14.561-.567-1.134-4.073-4.325-4.64-5.459,2.517,2.736,6.154,6.447,10,7.375a2.4,2.4,0,0,0,1.373.043,1.833,1.833,0,0,0,.954-1.335,39.473,39.473,0,0,0,1.317-8.485,9.5,9.5,0,0,0-2.227-6.65c-2.126-2.39-5.6-3.533-8.936-4.245a21.66,21.66,0,0,0-8.495-.444c-2.763.532-5.34,2.124-6.17,4.466" transform="translate(-61.094 -54.63)" fill="#263238"/>
            <path id="Trazado_830621" data-name="Trazado 830621" d="M114.81,152.086a53.784,53.784,0,0,1,.24-6.4c.629-4.855,2.143-22.506,18.436-17.964l-1.734,4.521s1.252,11.361-7.112,17.461c0,0,.036,11.338-5.756,15.43,0,0-4.04-7.689-4.074-13.051" transform="translate(-49.735 -55.011)" fill="#263238"/>
            <path id="Trazado_830622" data-name="Trazado 830622" d="M128.027,165.4a5.651,5.651,0,0,0-3.036-.337,3.943,3.943,0,0,0-2.549,1.607,4.12,4.12,0,0,0-.55,2.977,6.975,6.975,0,0,0,1.257,2.808,4.734,4.734,0,0,0,1.6,1.521,2.258,2.258,0,0,0,2.135.044" transform="translate(-52.774 -71.47)" fill="#ffbe9d"/>
            <path id="Trazado_830623" data-name="Trazado 830623" d="M128.028,172.4c.108.057-.432.584-1.3.178a1.991,1.991,0,0,1-.954-1.182,4.5,4.5,0,0,1-.205-1.743,2.647,2.647,0,0,1,.731-1.682,1.759,1.759,0,0,1,1.447-.543c.941.144,1.118.845,1.008.846-.088.062-.393-.337-1.033-.3a1.708,1.708,0,0,0-1.379,1.743,2.817,2.817,0,0,0,.665,2.385c.517.39.973.2,1.021.295" transform="translate(-54.392 -72.526)" fill="#eb996e"/>
            <path id="Trazado_830624" data-name="Trazado 830624" d="M118.551,183.845c-1.5.6-2.086,2.483-1.854,4.079a23.094,23.094,0,0,0,1.623,4.541,5.372,5.372,0,0,1-.041,4.664c-.694,1.1-2.012,1.745-2.551,2.93-.965,2.117,1.012,4.32,1.7,6.543a6,6,0,0,1-11.39,3.756c-1.593-4.531,2.5-9.464,1.345-14.126" transform="translate(-45.774 -79.643)" fill="#263238"/>
            <path id="Trazado_830625" data-name="Trazado 830625" d="M113.193,131.679c-4.311,3.45-9.342,11.633-9.706,17.142-.233,3.515.426,7.265-1.165,10.408-.9,1.783-2.431,3.149-3.724,4.672s-2.412,3.406-2.208,5.393c.287,2.8,3.07,4.817,3.523,7.6.271,1.662-.335,3.321-.709,4.963s-.459,3.546.643,4.819c1.767,2.043,6.745,6.663,8.086,4.318s-.228-11.019-.431-13.713a130.156,130.156,0,0,1,3.8-42.393" transform="translate(-41.746 -57.044)" fill="#263238"/>
            <path id="Trazado_830626" data-name="Trazado 830626" d="M96.757,183.632a3.356,3.356,0,0,0,.619-.082,2.021,2.021,0,0,0,.662-.346,2.661,2.661,0,0,0,.642-.792,3.136,3.136,0,0,0,.363-1.221,2.959,2.959,0,0,0-.294-1.474A7.456,7.456,0,0,0,96.216,177c-.566-.414-1.178-.832-1.774-1.33a6.557,6.557,0,0,1-1.591-1.831,4.594,4.594,0,0,1-.448-1.215,5.094,5.094,0,0,1-.078-1.333,7.105,7.105,0,0,1,.8-2.637,20.039,20.039,0,0,1,3.716-4.527,14.821,14.821,0,0,0,1.91-2.384,9.184,9.184,0,0,0,1.14-2.9,25.544,25.544,0,0,0,.248-6.214c-.037-1.013-.069-2.012-.041-2.992.018-.491.048-.975.111-1.453.028-.239.049-.477.082-.712s.088-.465.133-.7a18.525,18.525,0,0,1,4.461-8.767,19.946,19.946,0,0,1,2.844-2.541c.468-.311.9-.612,1.312-.853s.8-.46,1.157-.626l.956-.434c.282-.115.527-.193.722-.264l.447-.153a.616.616,0,0,1,.155-.042.7.7,0,0,1-.145.071l-.436.18c-.191.08-.432.167-.708.289l-.938.456c-.353.172-.72.41-1.136.643s-.829.552-1.287.866a20.261,20.261,0,0,0-2.786,2.548,18.462,18.462,0,0,0-4.348,8.679q-.064.34-.128.685-.039.349-.078.7c-.061.469-.089.947-.1,1.431-.025.969.008,1.961.048,2.973a25.6,25.6,0,0,1-.248,6.287A9.442,9.442,0,0,1,99,161.9a15.054,15.054,0,0,1-1.949,2.428,19.986,19.986,0,0,0-3.685,4.453,6.871,6.871,0,0,0-.781,2.533,4.842,4.842,0,0,0,.066,1.262,4.342,4.342,0,0,0,.415,1.148A6.356,6.356,0,0,0,94.59,175.5c.58.493,1.185.914,1.751,1.336a7.567,7.567,0,0,1,2.56,2.815,3.093,3.093,0,0,1,.283,1.554,3.226,3.226,0,0,1-.4,1.266,2.706,2.706,0,0,1-.689.805,2.018,2.018,0,0,1-.7.335,1.514,1.514,0,0,1-.474.043.644.644,0,0,1-.16-.019" transform="translate(-39.99 -57.659)" fill="#263238"/>
            <path id="Trazado_830627" data-name="Trazado 830627" d="M108.346,189.841a.824.824,0,0,1-.18-.05,1.317,1.317,0,0,1-.457-.306,2.371,2.371,0,0,1-.536-1.992,10.5,10.5,0,0,1,1.418-2.994,4.478,4.478,0,0,0,.478-1.955,6.314,6.314,0,0,0-.436-2.228,12.822,12.822,0,0,0-1.162-2.243c-.47-.746-1.031-1.479-1.568-2.276a14.472,14.472,0,0,1-1.448-2.611,5.837,5.837,0,0,1-.43-3.143,6.082,6.082,0,0,1,1.505-2.973c.738-.871,1.605-1.634,2.415-2.468a10.553,10.553,0,0,0,2.038-2.85A12.946,12.946,0,0,0,111,158.277a48.5,48.5,0,0,0,.306-7.209c0-1.172.037-2.326.134-3.453q.043-.423.086-.841l.138-.825a13.294,13.294,0,0,1,.351-1.606,20.665,20.665,0,0,1,5.9-9.69,22.3,22.3,0,0,1,3.526-2.635c.574-.3,1.1-.609,1.6-.838s.967-.443,1.4-.591l1.147-.392c.336-.1.627-.159.86-.219l.531-.124a.906.906,0,0,1,.183-.033.864.864,0,0,1-.176.062l-.523.152c-.228.068-.516.138-.849.245l-1.132.415c-.426.155-.875.389-1.38.61s-1.012.546-1.576.854a22.489,22.489,0,0,0-3.468,2.646,20.6,20.6,0,0,0-5.776,9.607,13.159,13.159,0,0,0-.341,1.582q-.066.4-.134.813-.041.413-.083.831c-.092,1.115-.124,2.262-.126,3.43a48.209,48.209,0,0,1-.3,7.254,13.194,13.194,0,0,1-1.045,3.553,10.807,10.807,0,0,1-2.1,2.926c-.821.843-1.686,1.6-2.407,2.449a5.811,5.811,0,0,0-1.452,2.835,5.591,5.591,0,0,0,.4,3,14.3,14.3,0,0,0,1.411,2.57c.526.792,1.085,1.531,1.557,2.291a13,13,0,0,1,1.165,2.292,6.456,6.456,0,0,1,.428,2.3,4.642,4.642,0,0,1-.517,2.026,10.738,10.738,0,0,0-1.452,2.938,2.332,2.332,0,0,0,.465,1.934,1.665,1.665,0,0,0,.594.4" transform="translate(-45.035 -56.239)" fill="#455a64"/>
            <path id="Trazado_830628" data-name="Trazado 830628" d="M166.953,149.041a1.08,1.08,0,0,1-.188-.23l-.49-.693-1.756-2.577-5.713-8.553a22.018,22.018,0,0,0-3.644-4.269,10.606,10.606,0,0,0-3.969-2.2,7.8,7.8,0,0,0-3.051-.282c-.726.089-1.113.225-1.122.194a1.1,1.1,0,0,1,.277-.109,5.217,5.217,0,0,1,.829-.2,7.5,7.5,0,0,1,3.122.194,10.583,10.583,0,0,1,4.09,2.192,21.555,21.555,0,0,1,3.71,4.308c2.241,3.342,4.21,6.4,5.644,8.606l1.678,2.629.444.723a1.183,1.183,0,0,1,.138.263" transform="translate(-63.69 -56.335)" fill="#455a64"/>
            <path id="Trazado_830629" data-name="Trazado 830629" d="M139.721,223.727l7.321,31.472,6.424-1.133-5.145-31.812Z" transform="translate(-60.528 -96.282)" fill="#263238"/>
            <path id="Trazado_830630" data-name="Trazado 830630" d="M145.014,208.991c2.1-.693,2.713-4.382,2.713-6.594,0-2.99-2.642-4.481-4.834-4.774a5.532,5.532,0,0,0-5.493,2.925,5.876,5.876,0,0,0,.706,6.232,6.268,6.268,0,0,0,5.956,2.1" transform="translate(-59.267 -85.593)" fill="#263238"/>
            <path id="Trazado_830631" data-name="Trazado 830631" d="M131.284,213.023l1.676,13.028,19.662-4.19-3.447-11.618Z" transform="translate(-56.873 -91.079)" fill="#e8505b"/>
            <g id="Grupo_1081131" data-name="Grupo 1081131" transform="translate(79.193 122.395)" opacity="0.4">
              <g id="Grupo_1081130" data-name="Grupo 1081130">
                <g id="Grupo_1081129" data-name="Grupo 1081129" clip-path="url(#clip-path-14)">
                  <path id="Trazado_830632" data-name="Trazado 830632" d="M153.789,215.943l-14.068,1.877,1.481,5.347,13.973-2.551Z" transform="translate(-139.721 -215.943)" fill="#fafafa"/>
                </g>
              </g>
            </g>
            <path id="Trazado_830633" data-name="Trazado 830633" d="M147.681,206.613a8.009,8.009,0,0,1-1.589.295c-.988.137-2.359.285-3.878.383s-2.9.127-3.9.118a8.051,8.051,0,0,1-1.614-.088,9.585,9.585,0,0,1,1.61-.121c.994-.045,2.366-.107,3.88-.2s2.883-.213,3.874-.3a9.628,9.628,0,0,1,1.612-.087" transform="translate(-59.221 -89.499)" fill="#fafafa"/>
            <path id="Trazado_830634" data-name="Trazado 830634" d="M142.405,235.075l8.095-1.725v.8l-7.956,1.529Z" transform="translate(-61.691 -101.088)" fill="#263238"/>
            <path id="Trazado_830635" data-name="Trazado 830635" d="M119.2,253.16l3.491-1.835s5.8-12.328,7.4-12.976c1.32-.533,8.811-2.778,11.422-3.557a.948.948,0,0,1,.585,1.8l-8.718,3.081.179.723,8.873-2.625c.921-.21,1.94,1.036-.86,2.187l-7.309,2.557.143.46,7.819-1.278c.4-.065,1.452-.181,1.58.2,0,0,.745.8-1.308,1.728-.7.319-7.277,2.123-7.277,2.123l.432.507,7.186-.637a1,1,0,0,1,.3,1.979l-7.4,1.565-4,5.893a6.686,6.686,0,0,1-3.553,2.635l-7.206,2.237Z" transform="translate(-51.64 -101.697)" fill="#ffbe9d"/>
            <path id="Trazado_830636" data-name="Trazado 830636" d="M144.188,234.821a1.016,1.016,0,0,1-.253.11l-.744.26-2.747.905-4.086,1.305-2.416.761-.634.2-.321.1a1.164,1.164,0,0,0-.289.114,4,4,0,0,0-.91.947,39.961,39.961,0,0,0-2.691,4.484c-.759,1.423-1.414,2.721-1.958,3.813l-1.281,2.593-.354.7a.99.99,0,0,1-.141.237.961.961,0,0,1,.087-.262l.3-.726c.271-.627.677-1.53,1.2-2.636s1.158-2.416,1.907-3.85a37.545,37.545,0,0,1,2.7-4.534,4.147,4.147,0,0,1,1-1.024,1.425,1.425,0,0,1,.339-.136l.322-.1.635-.2,2.424-.745,4.108-1.246,2.778-.816.76-.207a.982.982,0,0,1,.27-.053" transform="translate(-54.307 -101.725)" fill="#eb996e"/>
            <path id="Trazado_830637" data-name="Trazado 830637" d="M46.793,307.615h0A13,13,0,0,0,65.878,306.4l30.61-37.75L85.6,254.848,47.216,288.427a13,13,0,0,0-.423,19.188" transform="translate(-18.53 -110.402)" fill="#455a64"/>
            <path id="Trazado_830638" data-name="Trazado 830638" d="M70.249,304.685s.041-.066.133-.188l.41-.536,1.6-2.055,6.011-7.621L98.947,268.4v.179L91.4,259.019l-3.345-4.243.212.019c-11.183,9.837-20.93,18.831-28.04,25.188-3.548,3.185-6.418,5.732-8.411,7.472l-2.3,1.993-.6.511c-.137.114-.211.167-.211.167s.062-.067.192-.188l.583-.532,2.262-2.033,8.35-7.538c7.074-6.4,16.8-15.415,27.979-25.261l.116-.1.1.122,3.346,4.243,7.538,9.565.071.09-.071.089L78.554,294.4l-6.079,7.567-1.643,2.025-.43.52c-.1.116-.153.171-.153.171" transform="translate(-21.102 -110.239)" fill="#263238"/>
            <path id="Trazado_830639" data-name="Trazado 830639" d="M72.312,331.605a2.9,2.9,0,0,1-.77.922,5.044,5.044,0,0,1-3.079,1.054,7.336,7.336,0,0,1-2.262-.273,12.893,12.893,0,0,1-2.407-1,33.931,33.931,0,0,0-5.267-2.631,13.816,13.816,0,0,0-5.791-.545,14.634,14.634,0,0,0-4.58,1.344,14.156,14.156,0,0,0-2.726,1.739c-.583.5-.892.791-.911.773a1.255,1.255,0,0,1,.2-.235c.144-.143.341-.372.634-.625a12.937,12.937,0,0,1,2.707-1.839,14.421,14.421,0,0,1,4.64-1.427,13.859,13.859,0,0,1,5.916.535,32.524,32.524,0,0,1,5.3,2.671,13.014,13.014,0,0,0,2.349,1,7.263,7.263,0,0,0,2.188.3,5.069,5.069,0,0,0,3.014-.936,7.035,7.035,0,0,0,.842-.832" transform="translate(-19.286 -142.419)" fill="#f5f5f5"/>
            <path id="Trazado_830640" data-name="Trazado 830640" d="M100.028,296.648a1.047,1.047,0,0,1-.226.181,5.689,5.689,0,0,1-.708.429,7.952,7.952,0,0,1-2.917.86,8.156,8.156,0,0,1-4.424-.823c-1.552-.735-3.015-1.921-4.692-2.881a14.911,14.911,0,0,0-5.133-1.736,15.483,15.483,0,0,0-4.441,0,15.309,15.309,0,0,0-2.921.715c-.671.239-1.034.4-1.046.372a1.077,1.077,0,0,1,.252-.141c.172-.078.416-.216.753-.34a13.684,13.684,0,0,1,2.93-.813,15.09,15.09,0,0,1,4.512-.062,14.84,14.84,0,0,1,5.24,1.749c1.709.98,3.157,2.163,4.666,2.893a8.079,8.079,0,0,0,4.287.859,8.362,8.362,0,0,0,2.885-.755c.643-.3.969-.531.985-.507" transform="translate(-31.849 -126.613)" fill="#f5f5f5"/>
            <path id="Trazado_830641" data-name="Trazado 830641" d="M267.232,240.948a2.85,2.85,0,0,1-.168.664c-.129.421-.334,1.024-.619,1.758s-.653,1.6-1.108,2.535a4.136,4.136,0,0,1-.928,1.395,1.195,1.195,0,0,1-1.757-.129,1.777,1.777,0,0,1-.4-.87,2.426,2.426,0,0,1,.058-.911,9.117,9.117,0,0,1,.613-1.536l1.162-2.5.807-1.677a3.048,3.048,0,0,1,.333-.6,3.045,3.045,0,0,1-.228.646l-.721,1.715-1.105,2.528a9.331,9.331,0,0,0-.579,1.491,2.163,2.163,0,0,0-.049.8,1.49,1.49,0,0,0,.333.722.959.959,0,0,0,.66.353.971.971,0,0,0,.689-.252,3.967,3.967,0,0,0,.869-1.293c.465-.924.85-1.774,1.159-2.494s.541-1.31.7-1.718a3.3,3.3,0,0,1,.276-.626" transform="translate(-113.6 -103.57)" fill="#eb996e"/>
            <path id="Trazado_830642" data-name="Trazado 830642" d="M263.307,251.681c-.012.041-.388-.1-1.042-.127a4.16,4.16,0,0,0-2.48.694l-.236.16.018-.287a12.693,12.693,0,0,0,0-1.593,12.96,12.96,0,0,0-.792-3.66c-.335-.905-.629-1.432-.586-1.456a4.894,4.894,0,0,1,.779,1.378,11.218,11.218,0,0,1,.893,3.719,11.385,11.385,0,0,1-.01,1.633l-.219-.127a4.069,4.069,0,0,1,2.65-.636,2.188,2.188,0,0,1,1.029.3" transform="translate(-111.846 -106.313)" fill="#eb996e"/>
            <path id="Trazado_830643" data-name="Trazado 830643" d="M271.222,245.879a1.994,1.994,0,0,1-.169.527c-.127.332-.319.808-.563,1.393l-.4.956a5.3,5.3,0,0,1-.561,1.08,1.757,1.757,0,0,1-1.169.75,1.146,1.146,0,0,1-.763-.149,1.213,1.213,0,0,1-.5-.621,2.848,2.848,0,0,1-.062-1.473,8.046,8.046,0,0,1,.355-1.289,18.3,18.3,0,0,1,.926-2.04l.691-1.332a2.179,2.179,0,0,1,.278-.478,10.692,10.692,0,0,1-.782,1.9c-.263.576-.585,1.258-.857,2.04a8.26,8.26,0,0,0-.327,1.249,2.631,2.631,0,0,0,.053,1.317.867.867,0,0,0,.952.588,1.494,1.494,0,0,0,.988-.626,5.425,5.425,0,0,0,.554-1.016l.435-.942c.268-.575.49-1.038.649-1.355a2,2,0,0,1,.274-.481" transform="translate(-115.651 -105.357)" fill="#eb996e"/>
          </g>
        </g>
      </g>
    </g>
    <rect id="Rectángulo_383756" data-name="Rectángulo 383756" width="400" height="225" transform="translate(180 1414)" fill="none"/>
  </g>
</svg>
