<svg xmlns="http://www.w3.org/2000/svg" xmlns:xlink="http://www.w3.org/1999/xlink" width="62" height="62" viewBox="0 0 62 62">
  <defs>
    <clipPath id="clip-path">
      <rect id="Rect치ngulo_384140" data-name="Rect치ngulo 384140" width="38.338" height="45.504" fill="none"/>
    </clipPath>
  </defs>
  <g id="Grupo_1082865" data-name="Grupo 1082865" transform="translate(-1189.001 -6207.86)">
    <g id="Grupo_1082223" data-name="Grupo 1082223" transform="translate(420.001 -6698.141)">
      <g id="Grupo_1014857" data-name="Grupo 1014857" transform="translate(384.001 10848)">
        <path id="Uni칩n_12" data-name="Uni칩n 12" d="M31,0A31,31,0,1,1,0,31,31,31,0,0,1,31,0Z" transform="translate(384.999 2058)" fill="#cadeb4"/>
      </g>
    </g>
    <g id="Grupo_1082226" data-name="Grupo 1082226" transform="translate(1204.332 6217.8)">
      <g id="Grupo_1082144" data-name="Grupo 1082144" clip-path="url(#clip-path)">
        <path id="Trazado_831789" data-name="Trazado 831789" d="M5.412,12.33c.3.061,6-.895,6-.895l4.018-2.014,3.854-2.968.969-.788,2.423,2.666,3.126,1.818.63,2.184,1.575,6.056,2.718,2.181,3.423.929h1.008v10.77l-1.454,6.84L31.1,43.289l-3.97,3.7-5.905,2.787H18.377l-6.483-3.15L7.23,42.143,4.867,32.989l.3-11.1Z" transform="translate(-4.29 -4.994)" fill="#fff"/>
        <path id="Trazado_831790" data-name="Trazado 831790" d="M204.121,17.562a7.4,7.4,0,1,1-7.4-7.4,7.4,7.4,0,0,1,7.4,7.4" transform="translate(-166.85 -8.952)" fill="#fff"/>
        <path id="Trazado_831791" data-name="Trazado 831791" d="M212.2,41.008a4.257,4.257,0,0,0-.345-.433,2,2,0,0,0-2.8,0,1.972,1.972,0,0,0-.042,2.794c.494.529,1.008,1.042,1.535,1.538a2.418,2.418,0,0,0,3.4-.006c.281-.262.546-.541.818-.813,1.118-1.119,2.246-2.229,3.351-3.361a1.906,1.906,0,0,0,.431-2.169,1.858,1.858,0,0,0-1.7-1.228,2.011,2.011,0,0,0-1.633.65c-.977.985-1.959,1.966-3.022,3.031" transform="translate(-183.721 -32.892)" fill="#fff"/>
        <path id="Trazado_831792" data-name="Trazado 831792" d="M15.374,45.5c-.79-.233-1.588-.44-2.367-.7a18.264,18.264,0,0,1-12.4-13,16.154,16.154,0,0,1-.6-4.383C0,25.781,0,24.139,0,22.5c0-.552.254-.865.677-.852.4.012.651.324.653.843,0,1.658-.009,3.315.007,4.973a17.142,17.142,0,0,0,11.1,15.734c.845.309,1.722.528,2.577.811a2.273,2.273,0,0,0,1.3,0A17.4,17.4,0,0,0,26.6,37.356a16.735,16.735,0,0,0,3.364-10c.03-3.315.01-6.631.011-9.946,0-.087-.012-.175-.02-.271l-2.2-.265c0,.178,0,.351,0,.523-.006,3.463.063,6.929-.036,10.389a14.757,14.757,0,0,1-9.91,13.44c-2.516.87-1.864.912-4.37-.039A14.607,14.607,0,0,1,3.68,29.08,13.32,13.32,0,0,1,3.56,27q-.014-7.859,0-15.718c0-.947.254-1.273,1.206-1.428a20.914,20.914,0,0,0,10.11-4.546,1.1,1.1,0,0,1,1.6.03,20.98,20.98,0,0,0,4.253,2.714c.147.07.294.137.444.2a.39.39,0,0,0,.107.019c.128-.673.27-1.337.366-2.006.016-.107-.145-.3-.269-.359a18.454,18.454,0,0,1-4.051-2.776c-.57-.516-1.114-1.06-1.716-1.636a18.605,18.605,0,0,1-6.4,4.75A19.233,19.233,0,0,1,1.335,7.9v.573q0,5.2,0,10.39a1.875,1.875,0,0,1-.029.485.616.616,0,0,1-.685.5.612.612,0,0,1-.608-.59A3.54,3.54,0,0,1,0,18.816Q0,13.488,0,8.16c0-1.212.357-1.585,1.586-1.6a17.428,17.428,0,0,0,9.093-2.606A16.7,16.7,0,0,0,14.613.591,1.157,1.157,0,0,1,15.8.063a2.107,2.107,0,0,1,.937.6,17.691,17.691,0,0,0,5.041,3.942c.1.054.212.1.319.154.024.011.054.012-.04-.007a22.285,22.285,0,0,1,2.114-2.5A8.075,8.075,0,0,1,32.76.568a8.1,8.1,0,0,1,5.519,6.847,12.59,12.59,0,0,1-.058,2.733.631.631,0,0,1-.78.64c-.393-.065-.592-.39-.506-.879a7.2,7.2,0,1,0-8.023,5.765A7.022,7.022,0,0,0,35.51,13c.095-.113.174-.239.269-.353a.673.673,0,0,1,.941-.169.629.629,0,0,1,.124.941,21.5,21.5,0,0,1-2.057,2.063,6.452,6.452,0,0,1-2.917,1.336c-.483.094-.579.309-.576.766.021,3.138.052,6.276,0,9.413a18.259,18.259,0,0,1-9.056,16.053,19.6,19.6,0,0,1-6.093,2.357,1.813,1.813,0,0,0-.241.093Zm.232-39.063c-.057.041-.154.106-.245.178A21.879,21.879,0,0,1,5.31,11.1c-.378.065-.43.211-.429.541.009,5.148,0,10.3.012,15.445a11.679,11.679,0,0,0,.127,1.945,13.54,13.54,0,0,0,9.175,11.047,4,4,0,0,0,2.9.008,13.564,13.564,0,0,0,9.3-12.584c.078-3.608.023-7.219.01-10.829a.63.63,0,0,0-.293-.456,8.548,8.548,0,0,1-4.636-6.1.745.745,0,0,0-.366-.422c-.823-.433-1.691-.787-2.487-1.263-1.024-.612-1.995-1.313-3.02-2" transform="translate(0 0.001)" fill="#707070"/>
        <path id="Trazado_831793" data-name="Trazado 831793" d="M212.2,41.009c1.063-1.065,2.045-2.046,3.022-3.031a2.011,2.011,0,0,1,1.633-.65,1.858,1.858,0,0,1,1.7,1.228,1.906,1.906,0,0,1-.431,2.169c-1.105,1.132-2.233,2.242-3.351,3.361-.272.272-.537.551-.818.813a2.418,2.418,0,0,1-3.4.006c-.528-.5-1.042-1.008-1.536-1.538a1.972,1.972,0,0,1,.042-2.794,2,2,0,0,1,2.8,0,4.255,4.255,0,0,1,.345.433m.067,3.347a4.391,4.391,0,0,0,.836-.508c1.333-1.3,2.645-2.63,3.963-3.949a1.789,1.789,0,0,0,.151-.163.62.62,0,0,0-.031-.883.627.627,0,0,0-.85-.07,2.033,2.033,0,0,0-.33.294q-1.446,1.443-2.89,2.888c-.662.661-1.078.664-1.731.015-.136-.136-.268-.277-.409-.407a.687.687,0,0,0-.991-.044.66.66,0,0,0,.055.985c.464.478.925.961,1.421,1.4a4.092,4.092,0,0,0,.806.438" transform="translate(-183.72 -32.893)" fill="#707070"/>
        <path id="Trazado_831794" data-name="Trazado 831794" d="M51.863,54.294c1.025.683,2,1.385,3.02,2,.8.476,1.664.83,2.487,1.263a.746.746,0,0,1,.365.422,8.548,8.548,0,0,0,4.636,6.1.63.63,0,0,1,.293.456c.014,3.61.068,7.221-.01,10.829a13.564,13.564,0,0,1-9.3,12.584,4,4,0,0,1-2.9-.008,13.54,13.54,0,0,1-9.175-11.047,11.68,11.68,0,0,1-.127-1.945c-.01-5.148,0-10.3-.012-15.445,0-.329.051-.475.429-.541a21.88,21.88,0,0,0,10.051-4.484c.091-.072.188-.137.245-.178M60.43,70.625a8.525,8.525,0,1,0-8.524,8.522,8.528,8.528,0,0,0,8.524-8.522" transform="translate(-36.257 -47.852)" fill="#fff"/>
        <path id="Trazado_831795" data-name="Trazado 831795" d="M222.187,54.231a4.093,4.093,0,0,1-.806-.438c-.5-.443-.957-.926-1.421-1.4a.659.659,0,0,1-.055-.985.687.687,0,0,1,.991.044c.142.13.273.271.409.407.653.649,1.069.646,1.731-.015q1.445-1.443,2.89-2.888a2.035,2.035,0,0,1,.33-.294.627.627,0,0,1,.85.07.62.62,0,0,1,.031.883,1.79,1.79,0,0,1-.151.163c-1.318,1.319-2.63,2.645-3.963,3.949a4.393,4.393,0,0,1-.836.508" transform="translate(-193.643 -42.768)" fill="#fff"/>
        <path id="Trazado_831796" data-name="Trazado 831796" d="M77.09,128.585a8.525,8.525,0,1,1-8.516-8.529,8.531,8.531,0,0,1,8.516,8.529m-1.332.01a7.192,7.192,0,1,0-7.213,7.18,7.194,7.194,0,0,0,7.213-7.18" transform="translate(-52.917 -105.812)" fill="#707070"/>
        <path id="Trazado_831797" data-name="Trazado 831797" d="M85.654,138.491a7.192,7.192,0,1,1-7.14-7.206,7.2,7.2,0,0,1,7.14,7.206m-5.182,1.99c.417,0,.757,0,1.1,0,.562-.006,1.126.014,1.685-.032a1.126,1.126,0,0,0,1.064-1.154c.016-.547.016-1.1,0-1.642A1.138,1.138,0,0,0,83.2,136.5c-.531-.03-1.065-.012-1.6-.014-.365,0-.729,0-1.132,0,0-.225,0-.385,0-.546,0-.681.013-1.362,0-2.042a1.188,1.188,0,0,0-1.107-1.268,16.989,16.989,0,0,0-1.775,0,1.135,1.135,0,0,0-1.1,1.125c-.025.561-.01,1.124-.012,1.686,0,.334,0,.668,0,1.046-.862,0-1.658,0-2.454,0a1.24,1.24,0,0,0-1.421,1.407q0,.577,0,1.154a1.252,1.252,0,0,0,1.406,1.432c.5.009,1.006,0,1.509,0h.961c0,.922-.013,1.777,0,2.631a1.175,1.175,0,0,0,1.237,1.224c.4.01.8,0,1.2,0,1.135,0,1.554-.417,1.555-1.548,0-.751,0-1.5,0-2.31" transform="translate(-62.814 -115.708)" fill="#fff"/>
        <path id="Trazado_831798" data-name="Trazado 831798" d="M90.351,150.3c0,.808,0,1.559,0,2.31,0,1.131-.42,1.547-1.555,1.548-.4,0-.8.008-1.2,0a1.175,1.175,0,0,1-1.237-1.224c-.017-.855,0-1.71,0-2.631h-.961c-.5,0-1.006.007-1.509,0a1.252,1.252,0,0,1-1.406-1.432q0-.577,0-1.154A1.24,1.24,0,0,1,83.9,146.3c.8,0,1.592,0,2.454,0,0-.378,0-.712,0-1.046,0-.562-.013-1.125.012-1.686a1.135,1.135,0,0,1,1.1-1.125,16.987,16.987,0,0,1,1.774,0,1.188,1.188,0,0,1,1.107,1.268c.018.68,0,1.361,0,2.042v.546c.4,0,.767,0,1.132,0,.533,0,1.066-.016,1.6.014a1.138,1.138,0,0,1,1.115,1.153c.017.547.016,1.1,0,1.642a1.126,1.126,0,0,1-1.064,1.154c-.559.046-1.123.027-1.685.033-.34,0-.679,0-1.1,0m2.5-2.664c-.869,0-1.7,0-2.521,0-1.042,0-1.312-.272-1.313-1.313,0-.839,0-1.677,0-2.523H87.686c0,.919.005,1.806,0,2.692-.006.791-.344,1.126-1.14,1.142-.355.007-.71,0-1.065,0H83.834v1.332h.5c.754,0,1.508-.005,2.262,0,.739.007,1.074.348,1.089,1.094.007.325,0,.651,0,.976V152.8H89c.007-.166.019-.311.02-.455,0-.784-.006-1.567,0-2.351a.912.912,0,0,1,1.008-1.025c.606-.013,1.212,0,1.819,0h1.005Z" transform="translate(-72.692 -125.522)" fill="#707070"/>
        <path id="Trazado_831799" data-name="Trazado 831799" d="M102.931,157.85v1.332h-1.005c-.606,0-1.213-.009-1.819,0A.912.912,0,0,0,99.1,160.21c-.01.783,0,1.567,0,2.351,0,.144-.012.289-.02.455H97.764v-1.762c0-.325.005-.651,0-.976-.015-.746-.35-1.086-1.089-1.094-.754-.008-1.508,0-2.262,0h-.5V157.85h1.646c.355,0,.71.006,1.065,0,.8-.016,1.134-.351,1.14-1.142.007-.887,0-1.773,0-2.692H99.1c0,.846,0,1.684,0,2.523,0,1.04.271,1.311,1.313,1.313.826,0,1.652,0,2.521,0" transform="translate(-82.77 -135.741)" fill="#fff"/>
      </g>
    </g>
  </g>
</svg>
