<svg id="Grupo_1081220" data-name="Grupo 1081220" xmlns="http://www.w3.org/2000/svg" xmlns:xlink="http://www.w3.org/1999/xlink" width="295" height="154.541" viewBox="0 0 295 154.541">
  <defs>
    <clipPath id="clip-path">
      <rect id="Rectángulo_383801" data-name="Rectángulo 383801" width="295" height="154.541" fill="none"/>
    </clipPath>
    <clipPath id="clip-path-4">
      <rect id="Rectángulo_383794" data-name="Rectángulo 383794" width="107.181" height="93.372" fill="none"/>
    </clipPath>
    <clipPath id="clip-path-5">
      <rect id="Rectángulo_383795" data-name="Rectángulo 383795" width="16.416" height="16.416" fill="none"/>
    </clipPath>
    <clipPath id="clip-path-6">
      <rect id="Rectángulo_383796" data-name="Rectángulo 383796" width="7.357" height="23.856" fill="none"/>
    </clipPath>
    <clipPath id="clip-path-8">
      <rect id="Rectángulo_383798" data-name="Rectángulo 383798" width="90.863" height="54.354" fill="none"/>
    </clipPath>
  </defs>
  <g id="Grupo_1081219" data-name="Grupo 1081219" clip-path="url(#clip-path)">
    <g id="Grupo_1081200" data-name="Grupo 1081200">
      <g id="Grupo_1081199" data-name="Grupo 1081199" clip-path="url(#clip-path)">
        <path id="Trazado_830841" data-name="Trazado 830841" d="M634.761,59.53s-3.552-2.169-7.481,6.281A107.9,107.9,0,0,0,621.921,79.1s-1.055,1.779-2.29.686-2.987-4.258-5-3.6c-2.083.678-2.692,3.052-2.166,6.49s1.4,11.012,1.478,11.7-.275,1.681-1.236,1.071-6.571-6.422-9.169-3.595.44,12.164.753,13.191.126,1.477-.358,1.752-2.185-1.857-3.848-3.445-3.87-3.137-5.233-1.38-1.563,8.851,5.588,20.106l3.655,5,6.193-.568c13.18-2.024,18.39-6.844,18.816-9.026s-2.193-2.824-4.483-3.031-5.015-.085-5.126-.63.1-.981,1.083-1.422,10.008-4.3,10.427-8.115-7.65-4.216-8.741-4.537-.564-1.249-.008-1.635,6.845-4.719,9.78-6.585,4.321-3.888,3.461-5.9c-.83-1.943-4.366-1.179-6-1.389s-.991-2.176-.991-2.176a107.831,107.831,0,0,0,6.481-12.783c3.775-8.52-.3-9.778-.3-9.778" transform="translate(-341.591 -34.084)" fill="#c1cdf5"/>
        <path id="Trazado_830842" data-name="Trazado 830842" d="M639.083,77.656s-.02.063-.069.183l-.223.528-.876,2.022c-.763,1.755-1.885,4.287-3.284,7.41-2.8,6.247-6.732,14.844-11.11,24.323s-8.337,18.069-11.167,24.3l-3.345,7.382-.912,2.006-.242.519c-.055.117-.089.174-.089.174s.02-.063.069-.183l.223-.528.876-2.022c.763-1.755,1.885-4.287,3.284-7.41,2.8-6.247,6.732-14.844,11.111-24.327s8.335-18.065,11.165-24.3l3.345-7.382.912-2.007.242-.519c.055-.117.089-.174.089-.174" transform="translate(-349.445 -44.649)" fill="#e0e0e0"/>
        <path id="Trazado_830843" data-name="Trazado 830843" d="M647.746,109.7a1.862,1.862,0,0,1,.174.413c.1.27.234.664.394,1.154.318.979.72,2.342,1.136,3.855L650.5,119l.323,1.173a1.878,1.878,0,0,1,.1.437,1.808,1.808,0,0,1-.178-.412c-.1-.27-.233-.665-.388-1.156-.308-.982-.693-2.35-1.109-3.863-.413-1.486-.787-2.83-1.076-3.868l-.329-1.172a1.846,1.846,0,0,1-.1-.438" transform="translate(-372.429 -63.074)" fill="#e0e0e0"/>
        <path id="Trazado_830844" data-name="Trazado 830844" d="M656.57,130.064c-.018-.055,2.756-1.011,6.194-2.135s6.242-1.991,6.26-1.936-2.755,1.011-6.195,2.135-6.241,1.991-6.259,1.936" transform="translate(-377.504 -72.44)" fill="#e0e0e0"/>
        <path id="Trazado_830845" data-name="Trazado 830845" d="M639.2,167.953a1.936,1.936,0,0,1,.456-.041l1.242-.043c1.048-.037,2.5-.094,4.09-.213s3.036-.27,4.078-.39l1.235-.139a1.95,1.95,0,0,1,.457-.027,1.927,1.927,0,0,1-.445.108c-.289.056-.707.128-1.227.205-1.039.157-2.481.335-4.082.452s-3.053.153-4.1.152c-.525,0-.95-.009-1.244-.023a1.914,1.914,0,0,1-.456-.041" transform="translate(-367.52 -96.073)" fill="#e0e0e0"/>
        <path id="Trazado_830846" data-name="Trazado 830846" d="M626.074,147.469a1.652,1.652,0,0,1,.258.336c.154.223.372.55.637.957.53.812,1.249,1.943,2.032,3.2s1.483,2.4,1.981,3.232c.249.417.447.755.58.992a1.634,1.634,0,0,1,.188.379,1.657,1.657,0,0,1-.258-.335c-.154-.224-.371-.55-.636-.957-.53-.813-1.249-1.943-2.033-3.2s-1.482-2.4-1.98-3.231c-.249-.416-.447-.755-.58-.992a1.636,1.636,0,0,1-.188-.379" transform="translate(-359.97 -84.789)" fill="#e0e0e0"/>
        <path id="Trazado_830847" data-name="Trazado 830847" d="M606.981,175.132a2.7,2.7,0,0,1,.325.433l.819,1.224c.684,1.038,1.617,2.48,2.637,4.079s1.933,3.054,2.585,4.113l.763,1.259a2.652,2.652,0,0,1,.255.477,2.67,2.67,0,0,1-.324-.433l-.819-1.223c-.684-1.038-1.617-2.48-2.637-4.079s-1.933-3.053-2.585-4.112l-.763-1.259a2.677,2.677,0,0,1-.256-.477" transform="translate(-348.992 -100.694)" fill="#e0e0e0"/>
        <path id="Trazado_830848" data-name="Trazado 830848" d="M624.126,199.609a3.09,3.09,0,0,1,.576-.065l1.573-.111c1.327-.094,3.16-.23,5.18-.437s3.844-.434,5.163-.61l1.563-.206a3.116,3.116,0,0,1,.577-.052,3.02,3.02,0,0,1-.564.132c-.366.072-.9.167-1.554.272-1.315.213-3.14.468-5.164.672s-3.861.32-5.193.376c-.666.026-1.2.042-1.578.044a3.061,3.061,0,0,1-.579-.016" transform="translate(-358.85 -113.914)" fill="#e0e0e0"/>
        <path id="Trazado_830849" data-name="Trazado 830849" d="M40.07,67.31C49.984,60.692,52.4,48.171,52.193,36.88c-.036-1.885.2-3.868-.677-5.534s-2.983-2.827-4.7-2.059c-1.427.637-2.071,2.255-2.885,3.589a11.12,11.12,0,0,1-4.542,4.153,4.3,4.3,0,0,1-3.925.291c-1.633-.921-1.792-3.168-1.751-5.043q.115-5.236.229-10.474a17.227,17.227,0,0,0-.486-5.573,5.838,5.838,0,0,0-3.64-3.985c-1.8-.526-4.048.468-4.457,2.3a17.1,17.1,0,0,0-.09,2.333,1.972,1.972,0,0,1-1.2,1.838A2.312,2.312,0,0,1,22,17.82,24.863,24.863,0,0,1,17.569,11,34.482,34.482,0,0,0,13.451,3.97,10.293,10.293,0,0,0,6.555.015C3.839-.178.917,1.435.188,4.06s.79,5.334,2.456,7.5a42.107,42.107,0,0,0,8.693,8.432,3.459,3.459,0,0,1,1.452,1.588c.392,1.255-.826,2.478-2.081,2.871a22.321,22.321,0,0,1-4.439.425c-1.483.15-3.1.77-3.679,2.142-.807,1.9.785,3.935,2.361,5.274A36.411,36.411,0,0,0,15.6,38.57a12.305,12.305,0,0,1,3.962,1.975,3.44,3.44,0,0,1,1.064,3.989c-.7,1.312-2.455,1.707-3.913,1.418a25.477,25.477,0,0,1-4.142-1.633c-2.594-1.011-5.965-.883-7.671,1.317a5.864,5.864,0,0,0-.721,5.233,13.627,13.627,0,0,0,2.805,4.673A36.476,36.476,0,0,0,22.4,66.585c6.02,2.162,11.618,2.806,17.667.725" transform="translate(0 0)" fill="#c1cdf5"/>
        <path id="Trazado_830850" data-name="Trazado 830850" d="M43.31,69.6c-1.6-5.718-5.964-19.172-8.565-25.5L32.8,39.421c-.641-1.534-1.277-3.054-1.992-4.5a83.69,83.69,0,0,0-4.591-8.1c-1.587-2.506-3.186-4.828-4.7-6.988s-2.966-4.142-4.366-5.9A67.2,67.2,0,0,0,9.932,6.153C9.01,5.3,8.273,4.665,7.768,4.239l-.576-.481c-.131-.107-.2-.156-.2-.156s.059.064.184.179l.558.5c.492.44,1.216,1.089,2.126,1.951A70.2,70.2,0,0,1,17,14.06c1.388,1.757,2.826,3.745,4.332,5.906S24.418,24.455,26,26.96a84.105,84.105,0,0,1,4.563,8.079c.71,1.444,1.34,2.954,1.982,4.492l1.942,4.676c2.6,6.324,6.97,19.764,8.576,25.464" transform="translate(-4.018 -2.071)" fill="#e0e0e0"/>
        <path id="Trazado_830851" data-name="Trazado 830851" d="M62.855,49.382a4.508,4.508,0,0,0,.185-.8c.1-.517.231-1.269.376-2.2.292-1.862.61-4.447.953-7.3s.706-5.425,1.038-7.276c.163-.927.3-1.675.409-2.19a4.47,4.47,0,0,0,.13-.809,4.613,4.613,0,0,0-.238.784c-.138.509-.309,1.253-.5,2.177-.384,1.847-.778,4.425-1.123,7.279-.337,2.827-.641,5.384-.87,7.3-.116.894-.213,1.637-.287,2.211a4.5,4.5,0,0,0-.077.816" transform="translate(-36.136 -16.565)" fill="#e0e0e0"/>
        <path id="Trazado_830852" data-name="Trazado 830852" d="M5.6,65.744a.881.881,0,0,0,.251.045l.722.073c.626.06,1.532.145,2.648.286,2.232.265,5.3.744,8.668,1.421s6.38,1.434,8.545,2.042c1.085.3,1.956.561,2.559.741l.7.2a.86.86,0,0,0,.249.053.867.867,0,0,0-.231-.107l-.68-.255c-.593-.213-1.457-.507-2.537-.829-2.156-.659-5.174-1.442-8.546-2.128s-6.457-1.128-8.7-1.342c-1.121-.116-2.033-.172-2.662-.2l-.726-.02a.879.879,0,0,0-.254.013" transform="translate(-3.223 -37.793)" fill="#e0e0e0"/>
        <path id="Trazado_830853" data-name="Trazado 830853" d="M86.9,99.192a1.512,1.512,0,0,0,.165-.294l.426-.868c.367-.754.872-1.859,1.478-3.232,1.215-2.744,2.776-6.585,4.445-10.845s3.2-8.11,4.367-10.871c.578-1.353,1.051-2.461,1.394-3.265.155-.363.279-.658.377-.889a1.494,1.494,0,0,0,.114-.318,1.518,1.518,0,0,0-.166.295l-.425.867c-.367.754-.871,1.859-1.477,3.232-1.215,2.744-2.777,6.585-4.446,10.847s-3.2,8.108-4.366,10.869c-.578,1.353-1.051,2.461-1.394,3.265-.155.363-.279.658-.377.89a1.49,1.49,0,0,0-.114.318" transform="translate(-49.962 -39.448)" fill="#e0e0e0"/>
        <path id="Trazado_830854" data-name="Trazado 830854" d="M10.968,115.148a1.668,1.668,0,0,0,.322.13l.939.32,3.46,1.153c2.919.977,6.935,2.376,11.368,3.932s8.465,2.927,11.4,3.855c1.469.465,2.66.83,3.488,1.067l.955.269a1.585,1.585,0,0,0,.339.075,1.631,1.631,0,0,0-.322-.13l-.938-.319-3.459-1.152c-2.92-.977-6.936-2.376-11.371-3.932s-8.463-2.926-11.4-3.855c-1.469-.465-2.661-.83-3.489-1.067l-.955-.269a1.575,1.575,0,0,0-.339-.075" transform="translate(-6.306 -66.205)" fill="#e0e0e0"/>
        <path id="Trazado_830855" data-name="Trazado 830855" d="M459.464,4.3h53.585l-10.484,7.454v6.221A11.592,11.592,0,0,1,490.888,29.48H457.262a11.592,11.592,0,0,1-11.678-11.505A13.778,13.778,0,0,1,459.464,4.3" transform="translate(-256.195 -2.472)" fill="#c1cdf5"/>
        <path id="Trazado_830856" data-name="Trazado 830856" d="M504.319,23.721c0,.061-8.947.111-19.98.111s-19.982-.049-19.982-.111,8.944-.111,19.982-.111,19.98.049,19.98.111" transform="translate(-266.989 -13.575)" fill="#c1cdf5"/>
        <path id="Trazado_830857" data-name="Trazado 830857" d="M504.319,33.462c0,.061-8.947.111-19.98.111s-19.982-.049-19.982-.111,8.944-.111,19.982-.111,19.98.049,19.98.111" transform="translate(-266.989 -19.176)" fill="#c1cdf5"/>
        <path id="Trazado_830858" data-name="Trazado 830858" d="M201.2,304.353H137.789l10.329,7.454v14.664a3.063,3.063,0,0,0,3.062,3.063H201.2a3.062,3.062,0,0,0,3.062-3.063V307.415a3.062,3.062,0,0,0-3.062-3.062" transform="translate(-79.224 -174.992)" fill="#c1cdf5"/>
        <path id="Trazado_830859" data-name="Trazado 830859" d="M222.965,328.585c0,.061-9.563.111-21.358.111s-21.359-.049-21.359-.111,9.561-.11,21.359-.11,21.358.049,21.358.11" transform="translate(-103.636 -188.862)" fill="#e0e0e0"/>
        <path id="Trazado_830860" data-name="Trazado 830860" d="M222.965,341.832c0,.061-9.563.111-21.358.111s-21.359-.049-21.359-.111,9.561-.111,21.359-.111,21.358.049,21.358.111" transform="translate(-103.636 -196.478)" fill="#e0e0e0"/>
      </g>
    </g>
    <g id="Grupo_1081211" data-name="Grupo 1081211">
      <g id="Grupo_1081210" data-name="Grupo 1081210" clip-path="url(#clip-path)">
        <path id="Trazado_830861" data-name="Trazado 830861" d="M468.871,227.7H394.662a16.486,16.486,0,0,1-16.486-16.486v-60.4a16.485,16.485,0,0,1,16.486-16.485h74.209a16.486,16.486,0,0,1,16.486,16.485v60.4A16.486,16.486,0,0,1,468.871,227.7" transform="translate(-217.438 -77.234)" fill="#e8505b"/>
        <g id="Grupo_1081203" data-name="Grupo 1081203" transform="translate(160.738 57.094)" opacity="0.4">
          <g id="Grupo_1081202" data-name="Grupo 1081202">
            <g id="Grupo_1081201" data-name="Grupo 1081201" clip-path="url(#clip-path-4)">
              <path id="Trazado_830862" data-name="Trazado 830862" d="M468.871,227.7H394.662a16.486,16.486,0,0,1-16.486-16.486v-60.4a16.485,16.485,0,0,1,16.486-16.485h74.209a16.486,16.486,0,0,1,16.486,16.485v60.4A16.486,16.486,0,0,1,468.871,227.7" transform="translate(-378.176 -134.329)"/>
            </g>
          </g>
        </g>
        <path id="Trazado_830863" data-name="Trazado 830863" d="M629.79,210.916h16.052l-16.416,16.416Z" transform="translate(-361.897 -121.269)" fill="#e8505b"/>
        <g id="Grupo_1081206" data-name="Grupo 1081206" transform="translate(267.528 89.647)" opacity="0.4">
          <g id="Grupo_1081205" data-name="Grupo 1081205">
            <g id="Grupo_1081204" data-name="Grupo 1081204" clip-path="url(#clip-path-5)">
              <path id="Trazado_830864" data-name="Trazado 830864" d="M629.79,210.916h16.052l-16.416,16.416Z" transform="translate(-629.425 -210.916)"/>
            </g>
          </g>
        </g>
        <path id="Trazado_830865" data-name="Trazado 830865" d="M360.093,213.95l-6.73-7.632c-1.82-1.819-2.443-2.7-2.081-3.016.484-.425.278-.283,4.057,2.552,0,0-5.358-4.1-3.5-4.121a7.31,7.31,0,0,1,2.211,1.166c-1.326-1.128-1.693-1.885-1.441-2.25.432-.626,3.709,1.645,5.217,2.741a36.629,36.629,0,0,1-4-3.262c-.566-.764.582-.7,1.518-.383,1.05.359,6.851,3.319,8.57,4.086a1.11,1.11,0,0,0,1.6-.542,7.005,7.005,0,0,1,3.283-4.615.835.835,0,0,1,.774,1.389,10.2,10.2,0,0,0-1.132,2.523,6.527,6.527,0,0,0-.343,2.179c.014.859.06,1.585.115,2.2l6.147,8.439-10.284,5.965Z" transform="translate(-201.918 -114.211)" fill="#b78876"/>
        <path id="Trazado_830866" data-name="Trazado 830866" d="M359.586,212.935a24.456,24.456,0,0,1-5.073-4.01,24.426,24.426,0,0,1,5.073,4.01" transform="translate(-203.83 -120.121)" fill="#aa6550"/>
        <path id="Trazado_830867" data-name="Trazado 830867" d="M361.873,209.862a27.83,27.83,0,0,1-5.664-3.945,27.8,27.8,0,0,1,5.664,3.945" transform="translate(-204.806 -118.39)" fill="#aa6550"/>
        <path id="Trazado_830868" data-name="Trazado 830868" d="M364.456,206.886a24.92,24.92,0,0,1-5.408-3.662,24.937,24.937,0,0,1,5.408,3.662" transform="translate(-206.438 -116.842)" fill="#aa6550"/>
        <path id="Trazado_830869" data-name="Trazado 830869" d="M380.834,220.963l24.515,31.088-5.614,13.07s-6.724-1.488-8.763-4.322-18.828-34.016-18.828-34.016Z" transform="translate(-213.97 -127.046)" fill="#b78876"/>
        <path id="Trazado_830870" data-name="Trazado 830870" d="M531.476,118.614c1.765,1.528,1.758,4.224,1.554,6.55s-.359,4.974,1.252,6.664c1.327,1.393,3.737,2,4.047,3.9a2.188,2.188,0,0,1-3.617,1.984A3.786,3.786,0,0,1,533.57,142c-1.3.908-3.478.349-3.882-1.185a1.925,1.925,0,1,1-3.782.687" transform="translate(-302.377 -68.199)" fill="#263238"/>
        <path id="Trazado_830871" data-name="Trazado 830871" d="M469.577,127.535a2.318,2.318,0,1,1-4.274-1.786c.4-.884,1.361-1.522,1.452-2.49.111-1.172-1.084-2.007-2.145-2.518s-2.3-1.175-2.416-2.347c-.111-1.131.9-2.011,1.749-2.768s1.682-1.927,1.16-2.936c-.267-.516-.824-.814-1.183-1.27a2.552,2.552,0,0,1,.634-3.416,4.65,4.65,0,0,1,3.685-.676,34.6,34.6,0,0,1,3.691,1.12,15.39,15.39,0,0,0,12.259-1.606" transform="translate(-265.741 -61.43)" fill="#263238"/>
        <path id="Trazado_830872" data-name="Trazado 830872" d="M482.237,153.388a8.532,8.532,0,0,0,10.028-6.545l6.029-27.654a12.272,12.272,0,0,0-9.462-14.833l-.633-.093a12.355,12.355,0,0,0-13.833,9.457c-1.341,5.837-2.748,12.3-3.173,15.478-.88,6.573,5.533,8.554,5.533,8.554l-1.151,5.537A8.532,8.532,0,0,0,482.237,153.388Z" transform="translate(-270.872 -59.872)" fill="#b78876"/>
        <path id="Trazado_830873" data-name="Trazado 830873" d="M481.532,135.908a.946.946,0,0,0,.765,1.077.905.905,0,0,0,1.089-.7.947.947,0,0,0-.764-1.078.907.907,0,0,0-1.091.7" transform="translate(-276.855 -77.727)" fill="#263238"/>
        <path id="Trazado_830874" data-name="Trazado 830874" d="M480.97,133.724c.1.139.885-.282,1.893-.132s1.673.763,1.8.655c.062-.047-.024-.285-.312-.567a2.6,2.6,0,0,0-1.419-.676,2.5,2.5,0,0,0-1.529.258c-.345.193-.482.4-.433.461" transform="translate(-276.535 -76.459)" fill="#263238"/>
        <path id="Trazado_830875" data-name="Trazado 830875" d="M504.719,139.756a.947.947,0,0,0,.765,1.077.905.905,0,0,0,1.089-.7.947.947,0,0,0-.764-1.078.906.906,0,0,0-1.09.7" transform="translate(-290.187 -79.939)" fill="#263238"/>
        <path id="Trazado_830876" data-name="Trazado 830876" d="M504.222,137.581c.1.139.886-.282,1.893-.132s1.673.763,1.8.655c.062-.047-.023-.284-.312-.566a2.6,2.6,0,0,0-1.419-.676,2.5,2.5,0,0,0-1.529.258c-.344.193-.482.4-.433.461" transform="translate(-289.904 -78.676)" fill="#263238"/>
        <path id="Trazado_830877" data-name="Trazado 830877" d="M489.707,143.646a6.751,6.751,0,0,0-1.594-.536c-.254-.064-.49-.151-.507-.333a1.329,1.329,0,0,1,.284-.738l1.049-1.849a34,34,0,0,0,2.461-4.878,34.1,34.1,0,0,0-2.848,4.668q-.533.977-1.018,1.865a1.507,1.507,0,0,0-.282.991.653.653,0,0,0,.368.438,1.782,1.782,0,0,0,.428.125,6.652,6.652,0,0,0,1.66.245" transform="translate(-280.143 -77.799)" fill="#263238"/>
        <path id="Trazado_830878" data-name="Trazado 830878" d="M504.982,128.5c.059.289,1.085.306,2.247.622,1.168.292,2.072.779,2.265.556.087-.107-.041-.389-.388-.711a4.053,4.053,0,0,0-3.437-.9c-.46.111-.71.295-.686.431" transform="translate(-290.346 -73.589)" fill="#263238"/>
        <path id="Trazado_830879" data-name="Trazado 830879" d="M482.84,126.891c.144.255.873.119,1.71.231.841.082,1.52.38,1.718.164.088-.106.011-.352-.267-.613a2.5,2.5,0,0,0-2.762-.318c-.329.193-.461.414-.4.537" transform="translate(-277.607 -72.49)" fill="#263238"/>
        <path id="Trazado_830880" data-name="Trazado 830880" d="M520.785,115.65l.032.034a5.216,5.216,0,0,1,1.429,3.618c0,.048,0,.093,0,.135-.017,1.909-.343,3.806-.342,5.715a8.573,8.573,0,0,0,1.563,5.395c.491.613,1.443,1.125,2,.573a1.616,1.616,0,0,0,.359-.823c1.012-4.468,2.833-8.3,3.516-13.022a4.025,4.025,0,0,0-1.178-3.484c-.886-.854-1.986-1.766-3.161-1.407s-2.9,2.209-3.882,2.957" transform="translate(-299.433 -64.57)" fill="#263238"/>
        <path id="Trazado_830881" data-name="Trazado 830881" d="M527.217,145.714c.119-.032,4.7-.673,3.9,3.791s-5.117,2.74-5.1,2.611,1.2-6.4,1.2-6.4" transform="translate(-302.442 -83.752)" fill="#b78876"/>
        <path id="Trazado_830882" data-name="Trazado 830882" d="M529.93,152.85c.022-.011.068.068.189.152a.792.792,0,0,0,.579.116,1.956,1.956,0,0,0,1.2-1.567,2.607,2.607,0,0,0-.018-1.153.912.912,0,0,0-.478-.7.4.4,0,0,0-.5.131c-.082.114-.07.208-.094.212s-.083-.092-.014-.27a.5.5,0,0,1,.226-.248.6.6,0,0,1,.451-.037,1.109,1.109,0,0,1,.688.838,2.678,2.678,0,0,1,.047,1.293,2.051,2.051,0,0,1-1.48,1.725.847.847,0,0,1-.69-.246c-.119-.135-.124-.239-.107-.244" transform="translate(-304.687 -85.933)" fill="#aa6550"/>
        <path id="Trazado_830883" data-name="Trazado 830883" d="M495.47,104.234c1.367-1.633-1.281-4.653-3.393-5.675s-5.186-.37-7.5.038a12.354,12.354,0,0,1-4.392.423,10.012,10.012,0,0,1-2.737-1.141,7.332,7.332,0,0,0-2.786-.987,2.734,2.734,0,0,0-2.58,1.151,1.713,1.713,0,0,0,.8,2.455,2.226,2.226,0,1,0-1.185,4c-.567-.577-1.662.079-1.7.887a2.345,2.345,0,0,0,1.285,1.922,8.487,8.487,0,0,0,6,.785c2.032-.368,3.976-1.12,6-1.539s5.42-1.2,7.248-.242c1.345.708,2.082,2.561,2.939,2.3a2.772,2.772,0,0,0,1.715-1.809,8.027,8.027,0,0,0,.286-2.567" transform="translate(-269.848 -55.704)" fill="#263238"/>
        <path id="Trazado_830884" data-name="Trazado 830884" d="M540.071,136.573a.68.68,0,0,0,.235-.1,1.312,1.312,0,0,0,.484-.553,1.935,1.935,0,0,0,.147-1.154,2.34,2.34,0,0,0-.8-1.312,5.8,5.8,0,0,0-1.608-.937,10.69,10.69,0,0,1-1.882-.909,3.77,3.77,0,0,1-1.366-1.774,6.2,6.2,0,0,1-.4-2.415c.046-1.7.517-3.294.633-4.794a6.184,6.184,0,0,0-.716-3.881,3.613,3.613,0,0,0-2.119-1.595,2.572,2.572,0,0,0-.729-.072,1.062,1.062,0,0,0-.252.038,3.776,3.776,0,0,1,.958.119,3.593,3.593,0,0,1,2.007,1.595,6.1,6.1,0,0,1,.644,3.777c-.123,1.472-.6,3.062-.652,4.808a6.367,6.367,0,0,0,.417,2.5,3.959,3.959,0,0,0,1.455,1.863,10.578,10.578,0,0,0,1.927.91,5.729,5.729,0,0,1,1.576.885,2.225,2.225,0,0,1,.784,1.215,1.875,1.875,0,0,1-.1,1.093,1.465,1.465,0,0,1-.638.69" transform="translate(-305.706 -67.314)" fill="#455a64"/>
        <path id="Trazado_830885" data-name="Trazado 830885" d="M472.108,104.72a1.017,1.017,0,0,0-.194-.1,1.325,1.325,0,0,0-.25-.1,1.874,1.874,0,0,0-.359-.091,2.689,2.689,0,0,0-2.252.689h0l0,0a3.6,3.6,0,0,0-.8,2.661,4.435,4.435,0,0,0,1.64,3.03,6.849,6.849,0,0,0,3.715,1.495,15.162,15.162,0,0,0,4.412-.271,19.931,19.931,0,0,0,6.5-2.512,20.148,20.148,0,0,1,2.684-1.394,7.209,7.209,0,0,1,2.552-.522,7.584,7.584,0,0,1,3.664.866,12.92,12.92,0,0,1,1.185.748,5.234,5.234,0,0,0-1.143-.826,7.483,7.483,0,0,0-3.708-.948,7.3,7.3,0,0,0-2.617.507,19.9,19.9,0,0,0-2.72,1.388,20,20,0,0,1-6.443,2.471,15.108,15.108,0,0,1-4.345.275,6.674,6.674,0,0,1-3.61-1.43,4.272,4.272,0,0,1-1.6-2.891,3.477,3.477,0,0,1,.732-2.562l0,0a2.647,2.647,0,0,1,2.15-.712,5.153,5.153,0,0,1,.814.224" transform="translate(-269.217 -60.02)" fill="#455a64"/>
        <path id="Trazado_830886" data-name="Trazado 830886" d="M483.2,96.421a2.549,2.549,0,0,0,.157,1,4.222,4.222,0,0,0,1.76,2.118,5.3,5.3,0,0,0,1.782.738,7.577,7.577,0,0,0,2.207.115,29.476,29.476,0,0,0,4.908-1.1,9.89,9.89,0,0,1,4.9-.28,6.428,6.428,0,0,1,3.332,2.163,6.679,6.679,0,0,1,1.276,2.4c.171.626.191.989.218.986a1.153,1.153,0,0,0-.012-.263,5.148,5.148,0,0,0-.121-.746,6.673,6.673,0,0,0-4.641-4.74,9.954,9.954,0,0,0-5.011.262,30.738,30.738,0,0,1-4.87,1.107,7.512,7.512,0,0,1-2.152-.091,5.209,5.209,0,0,1-1.734-.69,4.237,4.237,0,0,1-1.762-2.013,5.864,5.864,0,0,1-.24-.974" transform="translate(-277.819 -55.439)" fill="#455a64"/>
        <path id="Trazado_830887" data-name="Trazado 830887" d="M488.16,161.931a4.629,4.629,0,0,0,.346,1.272,1.561,1.561,0,0,0,.953.857,1.4,1.4,0,0,0,1.291-.389,2.235,2.235,0,0,0,.6-1.25c.068-.42-.018-.955-.421-1.091a1.065,1.065,0,0,0-.524.006l-2.354.426" transform="translate(-280.611 -92.742)" fill="#aa6550"/>
        <path id="Trazado_830888" data-name="Trazado 830888" d="M488.1,163.553a3.206,3.206,0,0,0,1.171.221,1.69,1.69,0,0,0,1.1-.5,1.782,1.782,0,0,0,.47-1.372,1.593,1.593,0,0,0-.083-.375c-.056-.114-.042-.105-.137-.121s-.253.017-.381.024l-.392.031c-.51.038-.971.067-1.358.085a4.032,4.032,0,0,1-1.261-.022,4.049,4.049,0,0,1,1.235-.257c.383-.054.841-.112,1.35-.17l.391-.043a3.885,3.885,0,0,1,.437-.035.516.516,0,0,1,.311.109.608.608,0,0,1,.174.258,1.915,1.915,0,0,1,.109.476,2.081,2.081,0,0,1-.605,1.669,1.9,1.9,0,0,1-1.349.523,1.786,1.786,0,0,1-.926-.257c-.192-.123-.268-.226-.253-.244" transform="translate(-280.141 -92.58)" fill="#263238"/>
        <path id="Trazado_830889" data-name="Trazado 830889" d="M483.74,183.232a15.165,15.165,0,0,0,8.454.444s-3.146,2.637-8.884,1.625Z" transform="translate(-277.886 -105.352)" fill="#aa6550"/>
        <path id="Trazado_830890" data-name="Trazado 830890" d="M476.138,319.113a4.7,4.7,0,0,1-.588-.447c-.182-.152-.408-.334-.683-.528s-.573-.436-.933-.66-.739-.491-1.174-.733c-.423-.262-.9-.5-1.4-.752a21.948,21.948,0,0,0-6.938-2.075c-.556-.058-1.084-.125-1.582-.139-.5-.036-.96-.035-1.383-.032s-.806.026-1.142.04-.625.039-.861.066a4.757,4.757,0,0,1-.737.051,4.643,4.643,0,0,1,.727-.136,8.423,8.423,0,0,1,.862-.1c.338-.026.721-.073,1.148-.073s.893-.023,1.395.005c.5.006,1.035.066,1.6.119a20.954,20.954,0,0,1,7,2.095c.5.264.978.507,1.4.777.435.251.82.516,1.169.761s.652.484.92.691a8.563,8.563,0,0,1,.663.56,4.673,4.673,0,0,1,.533.513" transform="translate(-263.748 -180.297)" fill="#fafafa"/>
        <path id="Trazado_830891" data-name="Trazado 830891" d="M403.378,238.873l3.487-15.1c1.334-5.679,2.914-11.136,5.57-11.783v1.758L411.3,256.892s-7.106,8.091-16.166,3.593c-2.83-1.4-8-11.287-8-11.287s-12-21.442-11.5-22.415,7.842-10.434,8.592-10.9Z" transform="translate(-215.969 -121.886)" fill="#e8505b"/>
        <path id="Trazado_830892" data-name="Trazado 830892" d="M486.852,200.709c6.927,1.327,14.729,5.369,18.317,15.719,1.311,3.781,10.851,31.666,10.851,31.666l-16.268-.338-2.649-5.749,1.292,9.325,1.1,13.306-41.075.691.288-20.042.394-39.868s.462-.6,7.544-4.512c4.4-2.427,20.2-.2,20.2-.2" transform="translate(-263.577 -114.863)" fill="#e8505b"/>
        <g id="Grupo_1081209" data-name="Grupo 1081209" transform="translate(227.373 112.496)" opacity="0.2">
          <g id="Grupo_1081208" data-name="Grupo 1081208">
            <g id="Grupo_1081207" data-name="Grupo 1081207" clip-path="url(#clip-path-6)">
              <path id="Trazado_830893" data-name="Trazado 830893" d="M534.951,264.675c.674,8.416,1.451,11.016,2.125,19.432a7.442,7.442,0,0,0,.444,2.339,2.517,2.517,0,0,0,1.7,1.549c1.2.243,2.751,1.108,3.089-.065l-1.136-8.106a15.963,15.963,0,0,0-1.121-3.421c-2.52-5.6-3.453-5.924-5.1-11.729" transform="translate(-534.951 -264.675)"/>
            </g>
          </g>
        </g>
        <path id="Trazado_830894" data-name="Trazado 830894" d="M477.776,198.926l.137-.875,1.313-8.4a.978.978,0,0,1,1.048-.823l16.173,1.35a1.859,1.859,0,0,1,1.7,1.99l-.36,4.88-5.05,6.588-7.271,1.135" transform="translate(-274.704 -108.569)" fill="#e8505b"/>
        <path id="Trazado_830895" data-name="Trazado 830895" d="M458.525,249.741c.061,0,.11,6.579.11,14.693s-.049,14.694-.11,14.694-.111-6.577-.111-14.694.049-14.693.111-14.693" transform="translate(-263.572 -143.592)" fill="#263238"/>
        <path id="Trazado_830896" data-name="Trazado 830896" d="M539.271,262.784a.4.4,0,0,1-.052-.1l-.133-.289-.493-1.118-1.775-4.127-5.777-13.649-3.157-7.525a14.094,14.094,0,0,1-1.045-3.416,18.737,18.737,0,0,1-.282-3.1,12.561,12.561,0,0,1,.647-4.442c.048-.125.088-.244.133-.353l.148-.3a2.609,2.609,0,0,1,.255-.451l.181-.263a.381.381,0,0,1,.068-.085,8.242,8.242,0,0,0-.7,1.478,12.928,12.928,0,0,0-.572,4.411,16.2,16.2,0,0,0,1.358,6.439l3.173,7.518,5.718,13.674,1.709,4.154.455,1.134.113.3a.41.41,0,0,1,.031.1" transform="translate(-302.751 -128.547)" fill="#263238"/>
        <path id="Trazado_830897" data-name="Trazado 830897" d="M487.757,205.421a5.157,5.157,0,0,1-.472.41,7.241,7.241,0,0,1-1.55.9A11.7,11.7,0,0,1,483,207.5a33.627,33.627,0,0,1-3.74.368c-1.392.062-2.916.034-4.547.067a21.049,21.049,0,0,0-5.142.626,9.5,9.5,0,0,0-4.836,2.853,6.633,6.633,0,0,0-1.343,2.653,5.658,5.658,0,0,0,.049,3.04,4.811,4.811,0,0,0,.712,1.359,3.562,3.562,0,0,0,1.148.967,2.48,2.48,0,0,0,1.419.3,1.938,1.938,0,0,0,1.247-.64,3.365,3.365,0,0,0,.628-2.689,4.484,4.484,0,0,0-.4-1.328,6.6,6.6,0,0,0-.756-1.14,8.007,8.007,0,0,0-4.357-2.582,9.262,9.262,0,0,0-4.461.051,12.2,12.2,0,0,0-3.416,1.46,15.84,15.84,0,0,0-2.262,1.682c-.584.511-1,.951-1.284,1.242l-.317.34a.862.862,0,0,1-.114.111,14.128,14.128,0,0,1,1.657-1.758,15.421,15.421,0,0,1,2.255-1.723,12.193,12.193,0,0,1,3.442-1.507,9.386,9.386,0,0,1,4.541-.078,8.18,8.18,0,0,1,4.473,2.63,6.759,6.759,0,0,1,.785,1.179,4.682,4.682,0,0,1,.427,1.39,4.432,4.432,0,0,1-.026,1.486,2.9,2.9,0,0,1-.651,1.379,2.151,2.151,0,0,1-1.383.711,2.689,2.689,0,0,1-1.545-.321,3.774,3.774,0,0,1-1.221-1.026,5.021,5.021,0,0,1-.748-1.428,5.87,5.87,0,0,1-.052-3.161,6.833,6.833,0,0,1,1.391-2.739,9.683,9.683,0,0,1,4.949-2.91,21.078,21.078,0,0,1,5.192-.612c1.637-.024,3.158.013,4.544-.04a34.594,34.594,0,0,0,3.726-.334,11.923,11.923,0,0,0,2.719-.724,7.689,7.689,0,0,0,1.556-.86c.17-.113.284-.22.37-.281a.87.87,0,0,1,.129-.093" transform="translate(-259.44 -118.11)" fill="#fafafa"/>
        <path id="Trazado_830898" data-name="Trazado 830898" d="M547.34,245.8a.573.573,0,0,1-.181.03c-.119.01-.295.032-.522.037a16.148,16.148,0,0,1-1.927-.046c-.812-.059-1.772-.183-2.835-.329s-2.229-.307-3.458-.373a13.478,13.478,0,0,0-3.442.259,8.768,8.768,0,0,0-2.624,1,7.57,7.57,0,0,0-1.938,1.719c-.006,0,.025-.059.09-.159a3.667,3.667,0,0,1,.309-.425,5.872,5.872,0,0,1,1.457-1.268,8.586,8.586,0,0,1,2.662-1.064,13.15,13.15,0,0,1,3.5-.281c1.244.066,2.415.236,3.476.392s2.015.3,2.82.375,1.459.112,1.911.115a5.171,5.171,0,0,1,.7.019" transform="translate(-304.968 -140.797)" fill="#fafafa"/>
        <path id="Trazado_830899" data-name="Trazado 830899" d="M496.011,275.917a8.761,8.761,0,0,0-2.441-.207,13.39,13.39,0,0,0-2.832.506c-1.086.294-2.3.724-3.656,1.142a15.058,15.058,0,0,1-4.581.8,13.2,13.2,0,0,1-5.22-1.084,12.976,12.976,0,0,1-4.76-3.461,10,10,0,0,1-1.686-2.645,6.08,6.08,0,0,1-.485-3.192,4.622,4.622,0,0,1,1.509-2.843,3.314,3.314,0,0,1,1.431-.732,3.368,3.368,0,0,1,2.945.8,2.557,2.557,0,0,1,.767,1.324,2.626,2.626,0,0,1-.115,1.492,3.637,3.637,0,0,1-.8,1.219,6.393,6.393,0,0,1-2.334,1.483,6.925,6.925,0,0,1-1.28.351c-.214.04-.425.085-.636.119l-.632.073a13.742,13.742,0,0,1-4.638-.325,14.45,14.45,0,0,1-3.582-1.378A13.055,13.055,0,0,1,460.6,267.7l-.424-.371-.348-.351a6.247,6.247,0,0,1-.526-.569l-.3-.366a.85.85,0,0,1-.1-.129.871.871,0,0,1,.115.115l.32.351a6.82,6.82,0,0,0,.539.552l.354.342.428.361a13.323,13.323,0,0,0,2.387,1.6,14.531,14.531,0,0,0,3.559,1.335,13.668,13.668,0,0,0,4.584.295l.622-.075c.208-.034.416-.08.626-.119a6.737,6.737,0,0,0,1.249-.347,6.207,6.207,0,0,0,2.256-1.442,3.431,3.431,0,0,0,.748-1.151,2.409,2.409,0,0,0,.1-1.375,2.663,2.663,0,0,0-1.981-1.9,3.045,3.045,0,0,0-1.477-.045A3.1,3.1,0,0,0,472,265.1a4.406,4.406,0,0,0-1.432,2.707,5.866,5.866,0,0,0,.47,3.074,9.805,9.805,0,0,0,1.648,2.589,12.8,12.8,0,0,0,4.676,3.414,13.052,13.052,0,0,0,5.14,1.088,14.993,14.993,0,0,0,4.536-.764c1.357-.407,2.574-.828,3.669-1.111a13.108,13.108,0,0,1,2.859-.473,8.8,8.8,0,0,1,1.059.019c.3.044.563.065.768.113l.463.116a.824.824,0,0,1,.155.046" transform="translate(-263.854 -151.862)" fill="#fafafa"/>
        <path id="Trazado_830900" data-name="Trazado 830900" d="M449.725,273.175c-.036.015-.231-.45-.643-1.142a11.1,11.1,0,0,0-4.538-4.23c-.72-.363-1.2-.525-1.185-.562a1.114,1.114,0,0,1,.347.078,6.947,6.947,0,0,1,.9.343,9.9,9.9,0,0,1,4.607,4.294,6.885,6.885,0,0,1,.405.879,1.1,1.1,0,0,1,.1.34" transform="translate(-254.915 -153.652)" fill="#fafafa"/>
        <path id="Trazado_830901" data-name="Trazado 830901" d="M414.859,287.441a.527.527,0,0,1-.067-.106l-.176-.32c-.151-.283-.372-.7-.644-1.248a29.1,29.1,0,0,1-1.946-4.786,15.539,15.539,0,0,1-.61-3.524,11.068,11.068,0,0,1,.082-2,11.582,11.582,0,0,1,.5-2.062,9.008,9.008,0,0,1,2.494-3.776,6.1,6.1,0,0,1,4.537-1.591,3.371,3.371,0,0,1,2.235,1.087,2.747,2.747,0,0,1,.63,2.324,2.051,2.051,0,0,1-.6,1.05,2.424,2.424,0,0,1-1.038.566,3.049,3.049,0,0,1-2.22-.269,5.106,5.106,0,0,1-1.624-1.382,7.5,7.5,0,0,1-1.02-1.727,7.622,7.622,0,0,1-.568-3.526,7.169,7.169,0,0,1,.843-2.826A7.443,7.443,0,0,1,417,261.54a6.89,6.89,0,0,1,1.094-.884c.133-.091.243-.146.314-.189a.528.528,0,0,1,.111-.056c.006.008-.138.1-.4.281a7.621,7.621,0,0,0-1.058.909,7.542,7.542,0,0,0-1.284,1.783,7.118,7.118,0,0,0-.8,2.78,7.5,7.5,0,0,0,.581,3.443,7.334,7.334,0,0,0,1,1.677,4.909,4.909,0,0,0,1.564,1.322,2.842,2.842,0,0,0,2.071.247,2,2,0,0,0,1.484-1.461,2.533,2.533,0,0,0-.586-2.133,3.156,3.156,0,0,0-2.092-1.009,5.9,5.9,0,0,0-4.371,1.535,8.837,8.837,0,0,0-2.444,3.68,11.448,11.448,0,0,0-.5,2.021,10.917,10.917,0,0,0-.091,1.963,15.554,15.554,0,0,0,.576,3.49,31.015,31.015,0,0,0,1.873,4.791l.607,1.265.156.33a.53.53,0,0,1,.046.116" transform="translate(-236.541 -149.727)" fill="#fafafa"/>
        <path id="Trazado_830902" data-name="Trazado 830902" d="M394.724,235.719a.558.558,0,0,1,.039.177c.015.117.048.29.062.515a11.073,11.073,0,0,1,0,1.909,12.147,12.147,0,0,1-6.85,9.96,11.057,11.057,0,0,1-1.781.686c-.215.067-.388.1-.5.126a.56.56,0,0,1-.179.027,5.257,5.257,0,0,1,.656-.235,13.384,13.384,0,0,0,1.738-.744,12.435,12.435,0,0,0,6.764-9.835,13.474,13.474,0,0,0,.073-1.889,5.249,5.249,0,0,1-.015-.7" transform="translate(-221.653 -135.53)" fill="#fafafa"/>
        <path id="Trazado_830903" data-name="Trazado 830903" d="M563.774,279.078a6.111,6.111,0,0,0-1.641,1.5c-.423.547-.847,1.255-1.332,2.041a15.761,15.761,0,0,1-1.816,2.4,15.34,15.34,0,0,1-4.355,3.274,13.364,13.364,0,0,1-1.522.652,3.166,3.166,0,0,1-.583.167,3.192,3.192,0,0,1,.552-.248c.355-.158.873-.379,1.482-.71a16.383,16.383,0,0,0,4.265-3.286,16.6,16.6,0,0,0,1.806-2.36,21.531,21.531,0,0,1,1.382-2.029,5.31,5.31,0,0,1,1.219-1.129,2.914,2.914,0,0,1,.4-.217c.094-.043.145-.062.148-.055" transform="translate(-317.682 -160.459)" fill="#fafafa"/>
        <path id="Trazado_830904" data-name="Trazado 830904" d="M498.983,202.208a.683.683,0,0,1-.2.05l-.565.1c-.492.082-1.205.19-2.089.309-1.766.239-4.215.516-6.929.715a34.608,34.608,0,0,1-3.84.138,10.924,10.924,0,0,1-3.1-.53,7.024,7.024,0,0,1-1.892-.956,4.729,4.729,0,0,1-.447-.364c-.1-.091-.143-.141-.138-.147s.22.168.634.44a7.621,7.621,0,0,0,1.892.878,11.223,11.223,0,0,0,3.058.475,37.487,37.487,0,0,0,3.816-.155c2.709-.2,5.156-.451,6.926-.649l2.1-.238a5.294,5.294,0,0,1,.772-.065" transform="translate(-275.861 -115.869)" fill="#263238"/>
        <path id="Trazado_830905" data-name="Trazado 830905" d="M534.876,318.738a11.421,11.421,0,0,1-11.1,13.577l-32.194-.357.846-10.425,27.6-4.117" transform="translate(-282.642 -182.504)" fill="#b78876"/>
        <path id="Trazado_830906" data-name="Trazado 830906" d="M471.3,324.612a29.107,29.107,0,0,1-3.673-1.555,12.012,12.012,0,0,0-5.654-1.1l-7.674.39a3.76,3.76,0,0,0,1.288,1.716c.814.45,5.585.547,5.585.547l-.244.251a5.518,5.518,0,0,1-3.82,1.672l-.733.019a7.187,7.187,0,0,1-1.6-.313l-1.893-.765c-.573-.258-1.178-.216-1.427.36-.225.522-.06,1.241,1.5,2.028.874.44,4.113,1.56,4.113,1.56a7.847,7.847,0,0,0,.188,1.367c.142.471,1.414.943,1.414.943a16.814,16.814,0,0,0,1.131,2.027,11.665,11.665,0,0,0,2.526.872,10.868,10.868,0,0,0,6.047-.046l2.925-.873v-8.908" transform="translate(-259.522 -185.107)" fill="#b78876"/>
        <path id="Trazado_830907" data-name="Trazado 830907" d="M468.319,340.527a8.732,8.732,0,0,1-3.873-1.019c.022-.052.859.27,1.926.549s1.953.414,1.947.47" transform="translate(-267.04 -195.202)" fill="#aa6550"/>
        <path id="Trazado_830908" data-name="Trazado 830908" d="M470.149,345.377a2.821,2.821,0,0,1-2.05-.557,37.135,37.135,0,0,0,2.05.557" transform="translate(-269.14 -198.255)" fill="#aa6550"/>
        <path id="Trazado_830909" data-name="Trazado 830909" d="M469.338,326.593a3.388,3.388,0,0,1-.593.633,9.548,9.548,0,0,1-1.672,1.266,6.652,6.652,0,0,1-1.96.756,2.813,2.813,0,0,1-.864.094,11.2,11.2,0,0,0,2.727-1.016,13.088,13.088,0,0,0,1.679-1.2,4.5,4.5,0,0,1,.682-.531" transform="translate(-266.927 -187.779)" fill="#aa6550"/>
        <path id="Trazado_830910" data-name="Trazado 830910" d="M499.039,313.726l-.782,11.789,30.328.011A11.341,11.341,0,0,0,539.716,312a34.894,34.894,0,0,0-1.956-6.539l-15.247,2.509.488,1.9Z" transform="translate(-286.48 -175.627)" fill="#e8505b"/>
        <path id="Trazado_830911" data-name="Trazado 830911" d="M531.735,313.505a1.65,1.65,0,0,1-.306.07l-.885.159-3.263.545L516.5,315.995l-10.79,1.651-3.274.476-.892.118a1.7,1.7,0,0,1-.313.026,1.625,1.625,0,0,1,.306-.071l.885-.159,3.263-.545,10.779-1.715,10.787-1.651,3.274-.476.892-.118a1.663,1.663,0,0,1,.314-.026" transform="translate(-288.192 -180.253)" fill="#263238"/>
        <path id="Trazado_830912" data-name="Trazado 830912" d="M528.052,335.207c-.053-.01.181-.852.211-2.24a8.995,8.995,0,0,0-.044-1.131,10.647,10.647,0,0,0-.186-1.284,12.117,12.117,0,0,0-.986-2.8,12.9,12.9,0,0,0-1.658-2.465l-.446-.5c-.147-.159-.305-.3-.45-.443-.285-.293-.585-.527-.849-.752-1.084-.87-1.854-1.273-1.829-1.315a3.112,3.112,0,0,1,.543.275,5.879,5.879,0,0,1,.61.371c.227.162.505.319.773.547a10.739,10.739,0,0,1,.878.741c.149.143.312.283.464.442l.46.5a12.458,12.458,0,0,1,1.7,2.5,11.771,11.771,0,0,1,.989,2.857,10.2,10.2,0,0,1,.169,1.311,8.518,8.518,0,0,1,.018,1.15,7.862,7.862,0,0,1-.085.944,4.771,4.771,0,0,1-.125.7,3.225,3.225,0,0,1-.157.588" transform="translate(-300.025 -185.299)" fill="#fafafa"/>
        <path id="Trazado_830913" data-name="Trazado 830913" d="M565.632,331.48a6.284,6.284,0,0,1-1.407-.169,7.208,7.208,0,0,1-1.573-.554,6.2,6.2,0,0,1-1.772-1.321,5.634,5.634,0,0,1-1.3-2.338,6.314,6.314,0,0,1-.225-1.485,5.774,5.774,0,0,1,.126-1.588,4.807,4.807,0,0,1,.628-1.56,3.534,3.534,0,0,1,1.274-1.213,3.156,3.156,0,0,1,1.779-.408,2.386,2.386,0,0,1,1.665.861,2.346,2.346,0,0,1,.559,1.792,2.126,2.126,0,0,1-1.044,1.493,4.984,4.984,0,0,1-3.352.46,6.989,6.989,0,0,1-5.911-6.7,4.914,4.914,0,0,1,.121-1.411,10.9,10.9,0,0,0-.034,1.407,7.153,7.153,0,0,0,1.209,3.578,6.951,6.951,0,0,0,4.648,2.923,4.8,4.8,0,0,0,3.2-.443,1.91,1.91,0,0,0,.94-1.339,2.13,2.13,0,0,0-.51-1.619,2.165,2.165,0,0,0-1.514-.784,2.949,2.949,0,0,0-1.655.378,3.864,3.864,0,0,0-1.807,2.628,5.6,5.6,0,0,0-.131,1.537,6.188,6.188,0,0,0,.207,1.443A5.507,5.507,0,0,0,561,329.331a6.154,6.154,0,0,0,1.712,1.315,7.432,7.432,0,0,0,1.537.581c.881.214,1.39.223,1.387.253" transform="translate(-319.147 -182.46)" fill="#fafafa"/>
      </g>
    </g>
    <g id="Grupo_1081216" data-name="Grupo 1081216">
      <g id="Grupo_1081215" data-name="Grupo 1081215" clip-path="url(#clip-path)">
        <path id="Trazado_830914" data-name="Trazado 830914" d="M149.341,48.4H73.391A16.737,16.737,0,0,0,56.654,65.141V92.207H40.267l16.387,16.388v18.4a16.737,16.737,0,0,0,16.737,16.737h75.95a16.737,16.737,0,0,0,16.737-16.737V65.141A16.737,16.737,0,0,0,149.341,48.4" transform="translate(-23.152 -27.831)" fill="#e8505b"/>
        <path id="Trazado_830915" data-name="Trazado 830915" d="M217.478,53.359c-.481,1.242.344,2.6,1.269,3.558s2.046,1.871,2.336,3.172c.244,1.091-.16,2.228-.062,3.341a15.529,15.529,0,0,0,1.063,3.252,10.689,10.689,0,0,1-.186,6.12,11.314,11.314,0,0,1-2.278,4.509,6.005,6.005,0,0,1-4.456,2.133,1.749,1.749,0,0,1-1.317-.476,2.1,2.1,0,0,1-.38-1.169,113.993,113.993,0,0,1,0-25.755" transform="translate(-122.316 -29.924)" fill="#263238"/>
        <path id="Trazado_830916" data-name="Trazado 830916" d="M209.806,119.154a6.839,6.839,0,0,1,6.82,7.067,7.873,7.873,0,0,1,5.656,8.815,29.362,29.362,0,0,0-.873,3.708,16.44,16.44,0,0,0,.675,4.092,12.893,12.893,0,0,1-.739,7.377c-.584,1.407-1.67,2.86-3.193,2.9a3.134,3.134,0,0,1-2.565-1.5,7.923,7.923,0,0,1-1.031-2.9c-.66-3.32-.858-6.734-1.769-9.994s-2.681-6.474-5.63-8.135c-1.629-.918-3.585-1.351-4.879-2.7a5.3,5.3,0,0,1-.958-5.483,6.993,6.993,0,0,1,4.167-3.889" transform="translate(-115.54 -68.138)" fill="#263238"/>
        <path id="Trazado_830917" data-name="Trazado 830917" d="M160.852,47.508c-.045-1.58,1.416-2.8,2.887-3.379s3.105-.8,4.417-1.679a21.113,21.113,0,0,0,2.924-3,9.729,9.729,0,0,1,16.363,4.464c.564,2.25.179,4.91-1.595,6.405-2.058,1.735-5.11,1.35-7.748.81s-5.623-1.072-7.825.476a11.3,11.3,0,0,0-2.9,3.86,6.891,6.891,0,0,1-3.366,3.371c-1.535.528-3.62-.384-3.68-2.007" transform="translate(-92.183 -21.029)" fill="#263238"/>
        <path id="Trazado_830918" data-name="Trazado 830918" d="M173.027,58.185a2.644,2.644,0,0,0-2.359,2.687l1.577,35.7c.066,4.217,6.23,6.586,10.744,6.481,4.559-.106,4.706-2.342,4.763-6.354.1-6.7.088-9.218.09-9.18,0,0,5.759-.97,6.936-8.488.585-3.739.384-9.868.057-14.877-.294-4.509-3.294-10.035-7.786-9.55Z" transform="translate(-98.128 -31.38)" fill="#ffbe9d"/>
        <path id="Trazado_830919" data-name="Trazado 830919" d="M221.878,87.043a.964.964,0,0,1-.927.975.922.922,0,0,1-1-.867.964.964,0,0,1,.926-.975.923.923,0,0,1,1,.867" transform="translate(-126.466 -49.547)" fill="#263238"/>
        <path id="Trazado_830920" data-name="Trazado 830920" d="M219.265,83.258c-.119.126-.851-.413-1.888-.408s-1.8.526-1.909.4c-.056-.056.066-.284.4-.525a2.646,2.646,0,0,1,1.528-.475,2.541,2.541,0,0,1,1.5.482c.32.244.428.471.369.527" transform="translate(-123.879 -47.29)" fill="#263238"/>
        <path id="Trazado_830921" data-name="Trazado 830921" d="M198.428,87.043a.964.964,0,0,1-.927.975.922.922,0,0,1-1-.867.964.964,0,0,1,.927-.975.923.923,0,0,1,1,.867" transform="translate(-112.983 -49.547)" fill="#263238"/>
        <path id="Trazado_830922" data-name="Trazado 830922" d="M195.275,83.766c-.119.126-.852-.413-1.888-.408-1.036-.01-1.8.525-1.909.4-.055-.057.065-.283.4-.525a2.646,2.646,0,0,1,1.528-.475,2.543,2.543,0,0,1,1.5.482c.319.244.428.471.37.527" transform="translate(-110.085 -47.582)" fill="#263238"/>
        <path id="Trazado_830923" data-name="Trazado 830923" d="M208.644,91.521a6.862,6.862,0,0,1,1.684-.308c.265-.028.516-.081.56-.262a1.348,1.348,0,0,0-.178-.785l-.788-2.015a34.651,34.651,0,0,1-1.771-5.272A34.736,34.736,0,0,1,210.342,88q.395,1.061.755,2.027a1.531,1.531,0,0,1,.14,1.039.665.665,0,0,1-.435.388,1.811,1.811,0,0,1-.45.064,6.75,6.75,0,0,1-1.708.006" transform="translate(-119.673 -47.652)" fill="#263238"/>
        <path id="Trazado_830924" data-name="Trazado 830924" d="M197.451,128.486a19.12,19.12,0,0,1-10.072-2.663s2.454,5.158,9.975,4.438Z" transform="translate(-107.736 -72.344)" fill="#eb996e"/>
        <path id="Trazado_830925" data-name="Trazado 830925" d="M204.124,108.147a1.869,1.869,0,0,0-1.677-.69,1.7,1.7,0,0,0-1.177.635,1.08,1.08,0,0,0-.079,1.236,1.254,1.254,0,0,0,1.361.341,3.928,3.928,0,0,0,1.324-.794,1.149,1.149,0,0,0,.3-.308.347.347,0,0,0,0-.386" transform="translate(-115.586 -61.777)" fill="#eb996e"/>
        <path id="Trazado_830926" data-name="Trazado 830926" d="M201.923,104.916c.169-.01.173,1.116,1.139,1.913s2.163.671,2.173.828c.016.071-.267.219-.774.234a2.8,2.8,0,0,1-1.814-.627,2.442,2.442,0,0,1-.883-1.6c-.044-.471.081-.75.158-.743" transform="translate(-116.002 -60.323)" fill="#263238"/>
        <path id="Trazado_830927" data-name="Trazado 830927" d="M195.116,79.811c-.1.282-1.138.151-2.354.3-1.22.125-2.2.484-2.362.231-.072-.121.1-.386.494-.66a4.128,4.128,0,0,1,3.593-.4c.447.179.673.4.629.534" transform="translate(-109.463 -45.444)" fill="#263238"/>
        <path id="Trazado_830928" data-name="Trazado 830928" d="M218.727,76.114c-.182.236-.9-.007-1.756-.017-.859-.04-1.587.162-1.755-.084-.074-.12.04-.356.358-.58a2.544,2.544,0,0,1,2.829.082c.3.241.4.484.324.6" transform="translate(-123.729 -43.147)" fill="#263238"/>
        <path id="Trazado_830929" data-name="Trazado 830929" d="M163.79,80.745a6.675,6.675,0,0,0,7.941-7.381c-.234-1.846-1.229-3.724-.589-5.471.846-2.31,4.085-3.021,4.944-5.326.5-1.34.051-2.907.618-4.22a5.013,5.013,0,0,1,3.1-2.4,12.925,12.925,0,0,0,3.682-1.6c1.061-.825,1.724-2.383,1.039-3.54A71.222,71.222,0,0,0,168.094,54.8a6.334,6.334,0,0,0-3.24,2.1,6.631,6.631,0,0,0-.666,4.028c.315,6.749-.712,13.072-.4,19.821" transform="translate(-94.138 -29.212)" fill="#263238"/>
        <path id="Trazado_830930" data-name="Trazado 830930" d="M157.322,74.4a.564.564,0,0,1-.123-.04,1.747,1.747,0,0,1-.342-.167,2.5,2.5,0,0,1-.938-1.108,3.714,3.714,0,0,1-.245-2.283,7.28,7.28,0,0,1,1.366-2.73,19.956,19.956,0,0,0,2.063-3.035,4.669,4.669,0,0,0,.5-1.937,6.343,6.343,0,0,0-.442-2.091,6.411,6.411,0,0,1-.444-2.272,5.078,5.078,0,0,1,2.443-4.1,5.828,5.828,0,0,1,2.476-.706,10.436,10.436,0,0,0,2.48-.433,3.215,3.215,0,0,0,1.742-1.569,12.128,12.128,0,0,0,.826-2.217,11.893,11.893,0,0,1,.848-2.146,8.039,8.039,0,0,1,2.818-3.167,6.1,6.1,0,0,1,3.569-.925,4.57,4.57,0,0,1,2.807,1.152,4.479,4.479,0,0,1,1.256,1.928,3.614,3.614,0,0,1,.174,1.446,2.279,2.279,0,0,1-.088.5c-.014,0,.029-.174.044-.5a3.751,3.751,0,0,0-.212-1.416,4.4,4.4,0,0,0-3.992-2.951,5.954,5.954,0,0,0-3.461.924,7.881,7.881,0,0,0-2.734,3.106,11.723,11.723,0,0,0-.826,2.115,12.223,12.223,0,0,1-.838,2.259,3.887,3.887,0,0,1-.76,1,3.3,3.3,0,0,1-1.1.668,10.572,10.572,0,0,1-2.533.447,5.622,5.622,0,0,0-2.389.676,4.87,4.87,0,0,0-2.344,3.922,6.241,6.241,0,0,0,.427,2.2,6.514,6.514,0,0,1,.443,2.157,4.842,4.842,0,0,1-.527,2.013,19.761,19.761,0,0,1-2.1,3.048A7.225,7.225,0,0,0,155.8,70.83a3.656,3.656,0,0,0,.2,2.222,2.525,2.525,0,0,0,.883,1.106c.274.184.448.227.441.244" transform="translate(-89.463 -24.987)" fill="#455a64"/>
        <path id="Trazado_830931" data-name="Trazado 830931" d="M211.054,39.15a.729.729,0,0,1,.292.088,3.153,3.153,0,0,1,.71.43,3.643,3.643,0,0,1,.743,4.976,3.131,3.131,0,0,1-.555.619c-.15.125-.245.18-.253.169a10.254,10.254,0,0,0,.677-.873,3.671,3.671,0,0,0-.712-4.771,10.254,10.254,0,0,0-.9-.638" transform="translate(-121.348 -22.508)" fill="#455a64"/>
        <path id="Trazado_830932" data-name="Trazado 830932" d="M232.864,141.919a5.731,5.731,0,0,0,.215-.8,3.665,3.665,0,0,0-.368-2.164,4.985,4.985,0,0,0-2.373-2.211,9.482,9.482,0,0,0-1.847-.658c-.664-.171-1.366-.313-2.069-.539a4.707,4.707,0,0,1-1.9-1.037,3.152,3.152,0,0,1-.9-1.805c-.116-.631-.155-1.231-.295-1.766a3.491,3.491,0,0,0-.684-1.353,3.9,3.9,0,0,0-1.818-1.237c-.508-.152-.809-.152-.807-.176a.8.8,0,0,1,.216,0,3.346,3.346,0,0,1,.614.1,3.856,3.856,0,0,1,1.915,1.22,3.618,3.618,0,0,1,.741,1.406c.153.555.2,1.162.318,1.775a2.96,2.96,0,0,0,.846,1.688,4.539,4.539,0,0,0,1.815.982c.688.222,1.386.365,2.055.54a9.485,9.485,0,0,1,1.883.686,5.083,5.083,0,0,1,2.424,2.326,3.638,3.638,0,0,1,.312,2.247,2.709,2.709,0,0,1-.192.592.783.783,0,0,1-.108.188" transform="translate(-126.507 -73.693)" fill="#455a64"/>
        <path id="Trazado_830933" data-name="Trazado 830933" d="M160.3,84.706c-3.807-1.019-7.1-4.749-8.431-8.457s-1.335-7.761-.993-11.688c.248-2.846.747-5.854,2.637-8,2.849-3.229,5.931-4.878,10.235-4.744" transform="translate(-86.641 -29.791)" fill="#263238"/>
        <path id="Trazado_830934" data-name="Trazado 830934" d="M182.806,138.945l-3.549-.892a2.022,2.022,0,0,0,.7-2.476,3.25,3.25,0,0,0-2.712-2.01l-16.187-1.827a1.3,1.3,0,0,0-1.358.8,5.118,5.118,0,0,0-.074,4.506h-.077l-3.118.621-5.273,46.644,34.631-1.619Z" transform="translate(-86.913 -75.741)" fill="#f5f5f5"/>
        <path id="Trazado_830935" data-name="Trazado 830935" d="M191.055,145.9a3.756,3.756,0,0,1-.65.125c-.42.068-1.032.145-1.79.218a41.775,41.775,0,0,1-11.853-.59c-.747-.148-1.348-.284-1.76-.394a3.774,3.774,0,0,1-.634-.189,3.821,3.821,0,0,1,.653.1c.416.084,1.021.2,1.769.324a49.069,49.069,0,0,0,11.813.587c.757-.052,1.37-.1,1.792-.147a3.772,3.772,0,0,1,.661-.039" transform="translate(-100.255 -83.407)" fill="#263238"/>
        <path id="Trazado_830936" data-name="Trazado 830936" d="M176.794,159.175a24.978,24.978,0,0,1,2.609-3.907,25,25,0,0,1-2.609,3.907" transform="translate(-101.649 -89.273)" fill="#e0e0e0"/>
        <path id="Trazado_830937" data-name="Trazado 830937" d="M199.132,161.435a24.318,24.318,0,0,1-2.9-3.612,24.309,24.309,0,0,1,2.9,3.612" transform="translate(-112.823 -90.742)" fill="#e0e0e0"/>
        <path id="Trazado_830938" data-name="Trazado 830938" d="M189.724,173.939a25.6,25.6,0,0,1-.828-4.679,25.6,25.6,0,0,1,.828,4.679" transform="translate(-108.6 -97.318)" fill="#e0e0e0"/>
        <path id="Trazado_830939" data-name="Trazado 830939" d="M205.381,181.132a37.2,37.2,0,0,1-4.087,4.026,37.2,37.2,0,0,1,4.087-4.026" transform="translate(-115.736 -104.144)" fill="#e0e0e0"/>
        <path id="Trazado_830940" data-name="Trazado 830940" d="M179.035,194.546a9.789,9.789,0,0,1-3.685-3.906c.057-.036.71.984,1.731,2.059s1.994,1.792,1.955,1.847" transform="translate(-100.818 -109.611)" fill="#e0e0e0"/>
        <path id="Trazado_830941" data-name="Trazado 830941" d="M187.146,214.258c.019.064-.97.377-2.092.972s-1.942,1.228-1.984,1.176a8.057,8.057,0,0,1,4.075-2.149" transform="translate(-105.259 -123.186)" fill="#e0e0e0"/>
        <path id="Trazado_830942" data-name="Trazado 830942" d="M201.4,207.771a4.1,4.1,0,0,1-.677-.727c-.393-.47-.914-1.137-1.457-1.9s-1.005-1.471-1.323-1.995a4.126,4.126,0,0,1-.468-.876,4.771,4.771,0,0,1,.6.791l1.372,1.951,1.4,1.931a4.792,4.792,0,0,1,.553.823" transform="translate(-113.541 -116.301)" fill="#e0e0e0"/>
        <path id="Trazado_830943" data-name="Trazado 830943" d="M201.123,227.507a20.1,20.1,0,0,1-5.171.853,68.8,68.8,0,0,1,5.171-.853" transform="translate(-112.666 -130.802)" fill="#e0e0e0"/>
        <path id="Trazado_830944" data-name="Trazado 830944" d="M184.958,138.557c-.03-.024.175-.257.349-.706a3.734,3.734,0,0,0,.184-1.846,7.5,7.5,0,0,0-.548-1.813,3.525,3.525,0,0,1-.287-.748,2.5,2.5,0,0,1,.429.681,5.947,5.947,0,0,1,.626,1.848,3.431,3.431,0,0,1-.26,1.939,1.416,1.416,0,0,1-.493.644" transform="translate(-106.168 -76.725)" fill="#e0e0e0"/>
        <path id="Trazado_830945" data-name="Trazado 830945" d="M200.58,137.255a3.861,3.861,0,0,1,.684,2.923c-.065,0-.071-.679-.262-1.48s-.48-1.412-.422-1.443" transform="translate(-115.322 -78.916)" fill="#e0e0e0"/>
        <path id="Trazado_830946" data-name="Trazado 830946" d="M267.845,152.72l16.112-28.295,1.941-4.908s5.021-10.8,5.372-11.9c.4-1.27,1.114-1.38,1.572-1.2.714.282.942,1.346.629,2.446-.108.38-2.061,6.311-2.061,6.311a14.713,14.713,0,0,1,1.666-1.236c1.236-.831,3.5-.805,5.6-.058s2.619,1.141,2.367,1.97a1.1,1.1,0,0,1-.672.667,2.179,2.179,0,0,1-1.552.034c-3.375-1.15-4.87.371-4.87.371l-.254.642s2.536-.812,3.98.336a2.1,2.1,0,0,1,.526.615,2.789,2.789,0,0,1,1.032,4.7,1.158,1.158,0,0,1-1.28.324,1.48,1.48,0,0,1-.484-.557,2.229,2.229,0,0,0-.231-.32l-.963,1.7s-2.368,3.7-3.216,5.429l-11.088,29.549a7.825,7.825,0,0,1-10.2,4.527h0a7.825,7.825,0,0,1-3.922-11.149" transform="translate(-153.411 -61.15)" fill="#ffbe9d"/>
        <path id="Trazado_830947" data-name="Trazado 830947" d="M309.751,140.731a1.626,1.626,0,0,0,1.867-.325c.513-.444.861-1.049,1.341-1.528,1.435-1.434,3.837-1.569,5.2-3.07.19-.21.359-.527.2-.757-.152-.214-.472-.186-.729-.135l-6.592,1.305" transform="translate(-178.096 -77.551)" fill="#ffbe9d"/>
        <path id="Trazado_830948" data-name="Trazado 830948" d="M311.033,135.967a2.69,2.69,0,0,1,.7-.214c.454-.113,1.115-.265,1.932-.445l2.875-.611.832-.171a1.331,1.331,0,0,1,1.007.033.567.567,0,0,1,.215.6,1.165,1.165,0,0,1-.258.485,4.417,4.417,0,0,1-.742.656,25.782,25.782,0,0,1-3.26,1.574,5.071,5.071,0,0,0-1.252.853c-.339.328-.606.7-.888,1.021a2.363,2.363,0,0,1-1.746.98c-.506-.01-.712-.247-.7-.251a1.965,1.965,0,0,0,.689.1,2.291,2.291,0,0,0,1.546-1.006c.259-.318.513-.7.871-1.073a5.214,5.214,0,0,1,1.313-.941,29.956,29.956,0,0,0,3.2-1.574,4.143,4.143,0,0,0,.674-.59c.184-.21.249-.461.116-.531-.133-.1-.436-.039-.718.02l-.835.159-2.891.53c-.824.145-1.492.257-1.956.325a2.689,2.689,0,0,1-.727.068" transform="translate(-178.095 -77.297)" fill="#eb996e"/>
        <path id="Trazado_830949" data-name="Trazado 830949" d="M329.837,129.884a2.772,2.772,0,0,1,.757-1.019,2.138,2.138,0,0,1,1.274-.419,5.468,5.468,0,0,1,1.681.283,8.782,8.782,0,0,0,1.725.391,2.817,2.817,0,0,0,1.448-.224,1.1,1.1,0,0,0,.617-.771.646.646,0,0,0-.008-.362c-.024,0-.022.129-.086.338a1.036,1.036,0,0,1-.6.638,2.8,2.8,0,0,1-1.352.154,9.688,9.688,0,0,1-1.677-.4,5.328,5.328,0,0,0-1.758-.273,2.246,2.246,0,0,0-1.375.51,1.992,1.992,0,0,0-.574.8.688.688,0,0,0-.073.353" transform="translate(-189.641 -73.459)" fill="#eb996e"/>
        <path id="Trazado_830950" data-name="Trazado 830950" d="M326.336,111.267a6.967,6.967,0,0,0-.4,1.176l-.881,2.855-.924,2.842a7.006,7.006,0,0,0-.354,1.19,5.559,5.559,0,0,0,.518-1.13c.284-.713.641-1.711,1-2.827s.635-2.137.814-2.884a5.574,5.574,0,0,0,.227-1.222" transform="translate(-186.16 -63.974)" fill="#eb996e"/>
        <path id="Trazado_830951" data-name="Trazado 830951" d="M331.992,136.3a1.507,1.507,0,0,0,.388-.023,1.15,1.15,0,0,1,.927.249.617.617,0,0,1,.15.592,3.278,3.278,0,0,1-.3.751,1.393,1.393,0,0,0-.157.976,1.185,1.185,0,0,0,.755.76,1.344,1.344,0,0,0,1.059-.1,1.681,1.681,0,0,0,.7-.686,5.454,5.454,0,0,0,.464-1.529,3.209,3.209,0,0,0,.011-1.075.723.723,0,0,0-.149-.367c-.021.009.032.137.054.38a3.8,3.8,0,0,1-.088,1.031,5.846,5.846,0,0,1-.492,1.451,1.332,1.332,0,0,1-1.482.665.954.954,0,0,1-.6-.595,1.187,1.187,0,0,1,.132-.814,3.286,3.286,0,0,0,.3-.811.8.8,0,0,0-.231-.753,1.2,1.2,0,0,0-1.062-.218,1.008,1.008,0,0,0-.375.119" transform="translate(-190.884 -78.103)" fill="#eb996e"/>
        <path id="Trazado_830952" data-name="Trazado 830952" d="M338.432,138.944c-.011-.006-.084.11-.075.346a1.082,1.082,0,0,0,.495.831,1.44,1.44,0,0,0,1.43.015,2.357,2.357,0,0,0,1.082-1.378,2.854,2.854,0,0,0,0-1.75,2.727,2.727,0,0,0-.788-1.191,2.571,2.571,0,0,0-.82-.494.74.74,0,0,0-.342-.074,4.5,4.5,0,0,1,1.043.7,2.689,2.689,0,0,1,.69,1.131,2.717,2.717,0,0,1-.018,1.605,2.19,2.19,0,0,1-.955,1.253,1.277,1.277,0,0,1-1.232.036,1.026,1.026,0,0,1-.49-.692c-.037-.209,0-.331-.021-.335" transform="translate(-194.543 -77.761)" fill="#eb996e"/>
        <path id="Trazado_830953" data-name="Trazado 830953" d="M322.953,145.6a1.014,1.014,0,0,0-.57-.174,2.342,2.342,0,0,0-1.477.353l.181.122a6.889,6.889,0,0,0,.122-.834,5.331,5.331,0,0,0-.431-2.874,13.506,13.506,0,0,1,.184,2.853c-.024.285-.063.558-.108.809l-.051.277.232-.155a2.453,2.453,0,0,1,1.34-.4c.357,0,.569.057.578.025" transform="translate(-184.431 -81.756)" fill="#eb996e"/>
        <path id="Trazado_830954" data-name="Trazado 830954" d="M333.772,126.49c-.065.01.028.51.479.9s.955.421.956.355-.406-.2-.793-.541-.574-.739-.642-.714" transform="translate(-191.897 -72.726)" fill="#eb996e"/>
        <path id="Trazado_830955" data-name="Trazado 830955" d="M215.454,199.343l16.85.165-2.835-12.228.947,2.307a11.614,11.614,0,0,0,10.744,7.2c5.329,0,9.012-3.965,11.266-8.793,5.271-11.289,10.351-29.467,10.351-29.467L252.5,149.5c-7.435,14.066-14.424,26.284-14.424,26.284s-2.018-6.135-3.577-11.606-1.549-8.35-3.944-11.079c-3.682-4.2-8.931-5.241-13.805-6.5l-.182,22.713Z" transform="translate(-123.878 -84.293)" fill="#e8505b"/>
        <path id="Trazado_830956" data-name="Trazado 830956" d="M137.284,181.385l30.686,5.977,1.5,11.789H122.413a9.27,9.27,0,0,1-9.366-10c.678-8.592,1.413-19.179,1.971-23.652a30.691,30.691,0,0,1,3.476-10.2c2.374-4.472,10.291-10.216,17.233-10.5l1.314,29.231" transform="translate(-64.981 -83.254)" fill="#e8505b"/>
        <g id="Grupo_1081214" data-name="Grupo 1081214" transform="translate(48.037 61.544)" opacity="0.4">
          <g id="Grupo_1081213" data-name="Grupo 1081213">
            <g id="Grupo_1081212" data-name="Grupo 1081212" clip-path="url(#clip-path-8)">
              <path id="Trazado_830957" data-name="Trazado 830957" d="M215.454,199.343l16.85.165-2.835-12.228.947,2.307a11.614,11.614,0,0,0,10.744,7.2c5.329,0,9.012-3.965,11.266-8.793,5.271-11.289,10.351-29.467,10.351-29.467L252.5,149.5c-7.435,14.066-14.424,26.284-14.424,26.284s-2.018-6.135-3.577-11.606-1.549-8.35-3.944-11.079c-3.682-4.2-8.931-5.241-13.805-6.5l-.182,22.713Z" transform="translate(-171.915 -145.837)"/>
              <path id="Trazado_830958" data-name="Trazado 830958" d="M137.284,181.385l27.679,5.077a2.89,2.89,0,0,1,2.306,2.247l2.2,10.441H122.413a9.27,9.27,0,0,1-9.366-10c.678-8.592,1.413-19.179,1.971-23.652a30.691,30.691,0,0,1,3.476-10.2c2.374-4.472,10.291-10.216,17.233-10.5l1.314,29.231" transform="translate(-113.018 -144.798)"/>
            </g>
          </g>
        </g>
        <path id="Trazado_830959" data-name="Trazado 830959" d="M151.813,192.7a1.333,1.333,0,0,1-.014-.281c0-.207,0-.473,0-.8,0-.725.01-1.729.017-2.956,0-2.5-.044-5.944-.238-9.747-.1-1.9-.22-3.712-.352-5.357a22.029,22.029,0,0,0-.617-4.317,6.138,6.138,0,0,0-1.353-2.565,9,9,0,0,0-.81-.71,3.3,3.3,0,0,1,.871.65,6.007,6.007,0,0,1,1.441,2.581,21.235,21.235,0,0,1,.67,4.344c.143,1.646.274,3.458.37,5.362.194,3.808.216,7.262.173,9.76-.021,1.249-.056,2.259-.088,2.957-.018.33-.033.6-.044.8a1.348,1.348,0,0,1-.031.28" transform="translate(-85.353 -95.425)" fill="#263238"/>
        <path id="Trazado_830960" data-name="Trazado 830960" d="M192.3,236.531a4.734,4.734,0,0,0-1.117-.9,7.006,7.006,0,0,0-1.568-.626c-.636-.181-1.379-.321-2.2-.489-3.279-.668-7.807-1.6-12.824-2.536s-9.58-1.694-12.884-2.225l-3.912-.628-1.063-.178a2.409,2.409,0,0,1-.368-.077,2.363,2.363,0,0,1,.375.033l1.069.137c.927.123,2.268.312,3.924.558,3.311.491,7.878,1.222,12.9,2.162s9.545,1.893,12.816,2.6c.816.178,1.561.33,2.2.524a6.847,6.847,0,0,1,1.576.671,3.649,3.649,0,0,1,.842.681,2.132,2.132,0,0,1,.179.218.315.315,0,0,1,.053.08" transform="translate(-89.903 -131.59)" fill="#263238"/>
        <path id="Trazado_830961" data-name="Trazado 830961" d="M146.077,228.865c.01.04-.566.173-1.441.528a12.085,12.085,0,0,0-1.485.732,11.809,11.809,0,0,0-3.088,2.595,12.006,12.006,0,0,0-.977,1.336c-.5.8-.731,1.345-.769,1.328a1.509,1.509,0,0,1,.133-.394,7.791,7.791,0,0,1,.5-1.015,10.51,10.51,0,0,1,.954-1.386,10.964,10.964,0,0,1,3.144-2.642,10.436,10.436,0,0,1,1.529-.7,7.8,7.8,0,0,1,1.086-.32,1.5,1.5,0,0,1,.411-.063" transform="translate(-79.526 -131.587)" fill="#263238"/>
        <path id="Trazado_830962" data-name="Trazado 830962" d="M246.246,206.623a1.481,1.481,0,0,1-.063-.292c-.036-.215-.082-.5-.139-.844-.118-.734-.273-1.8-.452-3.114-.358-2.633-.793-6.278-1.157-10.316s-.585-7.7-.7-10.358c-.059-1.327-.1-2.4-.111-3.144-.006-.353-.01-.638-.013-.855a1.5,1.5,0,0,1,.01-.3,1.525,1.525,0,0,1,.034.3c.014.217.032.5.055.853.044.767.106,1.833.181,3.139.157,2.651.4,6.311.766,10.347s.773,7.68,1.091,10.316l.381,3.122c.041.351.074.633.1.85a1.486,1.486,0,0,1,.02.3" transform="translate(-140.066 -101.999)" fill="#263238"/>
        <path id="Trazado_830963" data-name="Trazado 830963" d="M270.573,223.31c-.012.009-.1-.091-.247-.28a7.929,7.929,0,0,1-.565-.844,11.176,11.176,0,0,1-1.508-6.446,7.931,7.931,0,0,1,.133-1.006,1.205,1.205,0,0,1,.1-.36c.038.006-.046.528-.074,1.375a12.607,12.607,0,0,0,1.488,6.361c.4.747.707,1.177.676,1.2" transform="translate(-154.219 -123.257)" fill="#263238"/>
        <path id="Trazado_830964" data-name="Trazado 830964" d="M135.66,186.369c0,.008-.054.02-.159.034a3.947,3.947,0,0,1-.462.045,7.1,7.1,0,0,1-1.7-.133,12.318,12.318,0,0,1-2.417-.757c-.881-.365-1.816-.835-2.8-1.321a20.876,20.876,0,0,0-2.829-1.185,9.642,9.642,0,0,0-2.442-.477,7.966,7.966,0,0,0-2.28.258c0-.007.048-.031.147-.07a3.428,3.428,0,0,1,.44-.148,5.761,5.761,0,0,1,1.7-.2,9.257,9.257,0,0,1,2.5.439,19.573,19.573,0,0,1,2.866,1.181c.981.488,1.908.96,2.776,1.332a13.12,13.12,0,0,0,2.37.792,10.7,10.7,0,0,0,2.293.208" transform="translate(-69.325 -104.883)" fill="#fafafa"/>
        <path id="Trazado_830965" data-name="Trazado 830965" d="M161.616,189.259a29.59,29.59,0,0,1-5.039.858,29.617,29.617,0,0,1,5.039-.858" transform="translate(-90.026 -108.809)" fill="#fafafa"/>
        <path id="Trazado_830966" data-name="Trazado 830966" d="M133.2,210.743a3.941,3.941,0,0,1-.618.267c-.4.156-.993.369-1.73.607a44.34,44.34,0,0,1-5.873,1.452c-1.165.2-2.283.352-3.3.454a13.258,13.258,0,0,1-2.727.074,4.664,4.664,0,0,1-1.772-.505,2.711,2.711,0,0,1-.421-.274c-.089-.072-.133-.113-.129-.119s.2.132.589.315a4.944,4.944,0,0,0,1.747.426,14.091,14.091,0,0,0,2.692-.121c1.014-.112,2.125-.266,3.285-.469a53.893,53.893,0,0,0,5.865-1.384c.74-.218,1.336-.409,1.748-.539a3.922,3.922,0,0,1,.646-.186" transform="translate(-67.059 -121.169)" fill="#fafafa"/>
        <path id="Trazado_830967" data-name="Trazado 830967" d="M161.883,215.9a24.292,24.292,0,0,1-4.633.077,24.288,24.288,0,0,1,4.633-.077" transform="translate(-90.413 -124.092)" fill="#fafafa"/>
        <path id="Trazado_830968" data-name="Trazado 830968" d="M116.69,242.625a.893.893,0,0,1,.045-.226l.17-.638.129-.46c.053-.166.125-.342.2-.533a12.5,12.5,0,0,1,.526-1.281l.346-.728c.123-.252.28-.5.427-.763a18.454,18.454,0,0,1,1.045-1.622,19.414,19.414,0,0,1,6.62-5.758,18.416,18.416,0,0,1,1.751-.81c.282-.109.548-.231.814-.318l.77-.242a12.566,12.566,0,0,1,1.341-.344c.2-.043.383-.09.556-.119l.473-.064.655-.081a.89.89,0,0,1,.23-.013.914.914,0,0,1-.224.057l-.646.122-.468.082c-.17.036-.351.088-.548.136a13.577,13.577,0,0,0-1.323.372l-.758.253c-.263.09-.525.215-.8.326-.561.213-1.124.518-1.725.82a19.89,19.89,0,0,0-6.552,5.7c-.383.553-.763,1.069-1.051,1.594-.149.259-.309.5-.434.749l-.356.716a13.553,13.553,0,0,0-.552,1.258c-.075.188-.152.361-.211.524l-.146.451-.21.624a.927.927,0,0,1-.088.214" transform="translate(-67.091 -131.449)" fill="#fafafa"/>
        <path id="Trazado_830969" data-name="Trazado 830969" d="M158,230.851a7.611,7.611,0,0,0-1.746,2.194,10.711,10.711,0,0,0-.977,2.885,29.467,29.467,0,0,0-.4,3.737,26.456,26.456,0,0,1-.436,3.762,10.267,10.267,0,0,1-1.065,2.91,6.508,6.508,0,0,1-1.3,1.638,4.278,4.278,0,0,1-.447.352.658.658,0,0,1-.17.1,7.5,7.5,0,0,0,1.775-2.169,10.533,10.533,0,0,0,1-2.876,28.145,28.145,0,0,0,.414-3.736,27.653,27.653,0,0,1,.423-3.762,10.411,10.411,0,0,1,1.039-2.919,6.571,6.571,0,0,1,1.274-1.656,4.385,4.385,0,0,1,.442-.358.672.672,0,0,1,.168-.105" transform="translate(-87.083 -132.731)" fill="#fafafa"/>
        <path id="Trazado_830970" data-name="Trazado 830970" d="M183.88,250.725c-.061,0,.009-3.665.157-8.179s.317-8.175.379-8.173-.009,3.664-.157,8.18-.318,8.174-.379,8.172" transform="translate(-105.712 -134.756)" fill="#fafafa"/>
        <path id="Trazado_830971" data-name="Trazado 830971" d="M210.012,252.876a2.779,2.779,0,0,1-.189-.53,6.221,6.221,0,0,1-.173-.638c-.056-.251-.133-.536-.179-.857a15.26,15.26,0,0,1-.226-2.269,15.855,15.855,0,0,1,.844-5.5,15.218,15.218,0,0,1,.9-2.1c.14-.293.3-.541.428-.765a6.246,6.246,0,0,1,.356-.556,2.714,2.714,0,0,1,.339-.45c.037.024-.421.683-.983,1.84a17.058,17.058,0,0,0-.842,2.092,16.848,16.848,0,0,0-.833,5.435,17.011,17.011,0,0,0,.176,2.248c.189,1.273.428,2.038.386,2.05" transform="translate(-120.308 -137.537)" fill="#fafafa"/>
        <path id="Trazado_830972" data-name="Trazado 830972" d="M147.97,158.4c-.016.036-.673-.259-1.775-.615a20.117,20.117,0,0,0-8.93-.789c-1.148.157-1.846.333-1.856.295a2.214,2.214,0,0,1,.482-.157,13.162,13.162,0,0,1,1.35-.292,18.046,18.046,0,0,1,9,.8,13.13,13.13,0,0,1,1.278.524,2.208,2.208,0,0,1,.447.239" transform="translate(-77.855 -90.039)" fill="#fafafa"/>
        <path id="Trazado_830973" data-name="Trazado 830973" d="M229.412,202.348a12.169,12.169,0,0,1-1.577-.025c-.972-.038-2.315-.09-3.8-.127s-2.827-.051-3.8-.062a12.082,12.082,0,0,1-1.576-.054,1.575,1.575,0,0,1,.422-.051c.272-.019.666-.037,1.153-.051.974-.029,2.32-.039,3.807,0s2.831.114,3.8.192c.485.039.878.076,1.149.109a1.56,1.56,0,0,1,.419.072" transform="translate(-125.722 -116.115)" fill="#fafafa"/>
        <path id="Trazado_830974" data-name="Trazado 830974" d="M253.616,199.143c.013.037-.533.221-1.361.629a13.338,13.338,0,0,0-5.311,4.734c-.5.776-.745,1.3-.78,1.281a1.418,1.418,0,0,1,.139-.381,8.61,8.61,0,0,1,.508-.982,11.977,11.977,0,0,1,5.378-4.793,8.505,8.505,0,0,1,1.033-.393,1.446,1.446,0,0,1,.395-.095" transform="translate(-141.534 -114.498)" fill="#fafafa"/>
        <path id="Trazado_830975" data-name="Trazado 830975" d="M234.38,166.978a6.362,6.362,0,0,0-2.16.3,14.925,14.925,0,0,0-2.179.969,17.683,17.683,0,0,1-2.695,1.21,10.978,10.978,0,0,1-5.326.348,10.093,10.093,0,0,1-1.571-.425,2.767,2.767,0,0,1-.545-.241,22.014,22.014,0,0,0,2.143.512,11.421,11.421,0,0,0,5.232-.4,18.957,18.957,0,0,0,2.671-1.182,13.673,13.673,0,0,1,2.224-.937,4.991,4.991,0,0,1,1.614-.231,2.66,2.66,0,0,1,.442.042c.1.016.152.028.151.036" transform="translate(-126.437 -95.96)" fill="#fafafa"/>
        <path id="Trazado_830976" data-name="Trazado 830976" d="M230.774,233.565a2.569,2.569,0,0,1-.495.231c-.161.07-.361.15-.6.226s-.5.178-.81.255a15.843,15.843,0,0,1-2.164.451,16.411,16.411,0,0,1-5.4-.162,15.794,15.794,0,0,1-2.133-.579c-.3-.095-.561-.21-.793-.3s-.428-.182-.584-.261a2.53,2.53,0,0,1-.48-.261c.018-.038.717.3,1.906.676a17.924,17.924,0,0,0,2.122.527,17.581,17.581,0,0,0,5.332.16,18.024,18.024,0,0,0,2.15-.4c1.209-.305,1.928-.6,1.944-.56" transform="translate(-124.952 -134.058)" fill="#fafafa"/>
        <path id="Trazado_830977" data-name="Trazado 830977" d="M266.749,236.961a.792.792,0,0,1-.165-.135c-.1-.1-.261-.229-.437-.428a10.141,10.141,0,0,1-1.345-1.8,14.683,14.683,0,0,1-1.894-7.118,28.528,28.528,0,0,1,.964-7.338c.228-.92.434-1.658.583-2.166.071-.233.13-.425.177-.584a.8.8,0,0,1,.077-.2.781.781,0,0,1-.034.211c-.037.161-.082.357-.137.594l-.514,2.18a30.712,30.712,0,0,0-.895,7.3,15.073,15.073,0,0,0,1.808,7.045,11.346,11.346,0,0,0,1.273,1.825c.345.4.552.607.538.621" transform="translate(-151.161 -124.875)" fill="#fafafa"/>
        <path id="Trazado_830978" data-name="Trazado 830978" d="M287.5,218.927a8.506,8.506,0,0,0-2.248-1.264,18.073,18.073,0,0,0-2.721-.707,30.733,30.733,0,0,1-3.386-.78,13.937,13.937,0,0,1-5.386-3.239,12.608,12.608,0,0,1-1.272-1.431c-.139-.179-.233-.327-.3-.425s-.1-.153-.091-.158a4.96,4.96,0,0,1,.459.528,15.777,15.777,0,0,0,1.313,1.371,14.476,14.476,0,0,0,5.346,3.142,33.654,33.654,0,0,0,3.359.791,16.808,16.808,0,0,1,2.737.76,6.552,6.552,0,0,1,1.675.934,3.622,3.622,0,0,1,.394.342c.086.083.128.129.123.134" transform="translate(-156.446 -121.273)" fill="#fafafa"/>
        <path id="Trazado_830979" data-name="Trazado 830979" d="M301.263,188.415a3.146,3.146,0,0,1-.455-.395c-.139-.133-.312-.295-.522-.471s-.437-.39-.713-.6a19.979,19.979,0,0,0-1.974-1.4,19.65,19.65,0,0,0-5.424-2.321,20.014,20.014,0,0,0-2.373-.464c-.34-.056-.652-.074-.925-.1s-.508-.044-.7-.053a3.174,3.174,0,0,1-.6-.057,3.13,3.13,0,0,1,.6-.03c.194,0,.432,0,.707.016s.59.025.935.071a17.749,17.749,0,0,1,2.4.421,18.446,18.446,0,0,1,5.482,2.346,17.848,17.848,0,0,1,1.965,1.449c.272.217.494.44.7.627s.369.357.5.5a3.129,3.129,0,0,1,.394.456" transform="translate(-165.346 -104.946)" fill="#fafafa"/>
        <path id="Trazado_830980" data-name="Trazado 830980" d="M224.3,150.472a3.1,3.1,0,0,1-.807.389,15.291,15.291,0,0,1-4.2.978,3.111,3.111,0,0,1-.9.008c-.005-.067,1.351-.181,2.978-.564s2.9-.873,2.92-.811" transform="translate(-125.575 -86.513)" fill="#fafafa"/>
        <path id="Trazado_830981" data-name="Trazado 830981" d="M248.232,265.991a1.184,1.184,0,0,1-1.3,1.5h0a1.183,1.183,0,0,1-.972-.832l-.358-1.338.052.018a1.235,1.235,0,0,1-1.378,1.459c-.56-.014-1.041-.814-1.2-1.241a2.313,2.313,0,0,1-2.16-1.038l-2.5-3.892-4.62-3.379,2.794-9.984,9.945,6.436c.39.3.449.432,1.071,1.007l6.418,5.9a2.339,2.339,0,0,1-2.354,0c-1.009-.4-5.444-3.394-5.444-3.394Z" transform="translate(-134.429 -142.167)" fill="#ffbe9d"/>
        <path id="Trazado_830982" data-name="Trazado 830982" d="M247.736,272c.009-.012.114.051.3.174l.328.23a2.01,2.01,0,0,1,.411.358,1.873,1.873,0,0,1,.337.576l.243.7.543,1.6c.38,1.136.712,2.169.941,2.919a7.21,7.21,0,0,1,.328,1.228,7.25,7.25,0,0,1-.477-1.181c-.268-.738-.623-1.761-1-2.9l-.526-1.6-.224-.7a1.776,1.776,0,0,0-.285-.538,2.056,2.056,0,0,0-.365-.359l-.3-.259c-.166-.145-.253-.23-.244-.242" transform="translate(-142.439 -156.388)" fill="#eb996e"/>
        <path id="Trazado_830983" data-name="Trazado 830983" d="M256.028,276.916a1.728,1.728,0,0,1-.142-.412l-.32-1.138c-.268-.961-.633-2.291-1.1-3.738a13.7,13.7,0,0,0-1.528-3.542,3.026,3.026,0,0,0-.815-.813c-.232-.146-.383-.188-.376-.21s.041,0,.113.017a1.441,1.441,0,0,1,.306.118,2.788,2.788,0,0,1,.9.794,12.249,12.249,0,0,1,1.613,3.568c.465,1.456.806,2.795,1.036,3.768.114.487.2.882.252,1.157a1.616,1.616,0,0,1,.058.432" transform="translate(-144.748 -153.55)" fill="#eb996e"/>
        <path id="Trazado_830984" data-name="Trazado 830984" d="M262.377,276.543a1.979,1.979,0,0,1-.173-.446l-.394-1.239c-.323-1.049-.754-2.5-1.218-4.111l-1.167-4.122a2.015,2.015,0,0,0-.681-1.039,2.7,2.7,0,0,0-.412-.22c0-.006.045-.009.126.009a1.082,1.082,0,0,1,.334.139,2,2,0,0,1,.78,1.057c.35,1.051.762,2.5,1.232,4.113s.871,3.07,1.156,4.13l.326,1.259a2.009,2.009,0,0,1,.091.47" transform="translate(-148.532 -152.573)" fill="#eb996e"/>
      </g>
    </g>
    <g id="Grupo_1081218" data-name="Grupo 1081218">
      <g id="Grupo_1081217" data-name="Grupo 1081217" clip-path="url(#clip-path)">
        <path id="Trazado_830985" data-name="Trazado 830985" d="M409.949,72.811a1.488,1.488,0,1,0,1.488-1.488,1.488,1.488,0,0,0-1.488,1.488" transform="translate(-235.706 -41.008)" fill="#455a64"/>
        <path id="Trazado_830986" data-name="Trazado 830986" d="M395.94,72.811a1.488,1.488,0,1,0,1.488-1.488,1.488,1.488,0,0,0-1.488,1.488" transform="translate(-227.651 -41.008)" fill="#455a64"/>
        <path id="Trazado_830987" data-name="Trazado 830987" d="M381.7,72.065a1.488,1.488,0,1,0,2.033-.544,1.488,1.488,0,0,0-2.033.544" transform="translate(-219.348 -41.007)" fill="#455a64"/>
        <path id="Trazado_830988" data-name="Trazado 830988" d="M375.5,33.928a1.681,1.681,0,0,0-.3-.005l-.884.025c-.194.009-.413.009-.652.029l-.78.11-.91.131-1.017.252a16.462,16.462,0,0,0-4.928,2.149,17.392,17.392,0,0,0-7.989,13.072,18.045,18.045,0,0,0-.048,2.383c.028.4.02.813.079,1.219l.185,1.228a17.492,17.492,0,0,0,1.656,4.85,18.676,18.676,0,0,0,3.167,4.358,18.314,18.314,0,0,0,4.564,3.279,16.582,16.582,0,0,0,5.563,1.707,10.912,10.912,0,0,0,1.484.126,13.361,13.361,0,0,0,1.5.028,17.855,17.855,0,0,0,3-.38,17.559,17.559,0,0,0,5.981-2.517l-.181.018,6.092,2.445.361.145-.1-.374-1.791-6.513-.031.161a17.478,17.478,0,0,0,3.251-7.442,15.817,15.817,0,0,0,.237-3.813,12.263,12.263,0,0,0-.173-1.831q-.07-.448-.139-.891c-.054-.293-.144-.577-.213-.863a17.422,17.422,0,0,0-6.8-9.908,16.676,16.676,0,0,0-4.045-2.134l-.911-.326-.865-.22-.791-.2c-.254-.049-.5-.075-.728-.11-.461-.059-.865-.138-1.22-.156l-.9-.03-.547-.012a.849.849,0,0,0-.185.006.816.816,0,0,0,.185.026l.544.043.889.06c.352.027.753.116,1.208.184A17.327,17.327,0,0,1,392.18,47.09c.066.281.153.56.2.848l.131.876a11.981,11.981,0,0,1,.161,1.8,15.532,15.532,0,0,1-.247,3.738,17.163,17.163,0,0,1-3.207,7.28l-.055.073.024.088q.861,3.157,1.777,6.516l.258-.23-6.089-2.452-.1-.038-.087.057a17.191,17.191,0,0,1-5.847,2.458,17.4,17.4,0,0,1-2.937.371,12.972,12.972,0,0,1-1.466-.026,10.7,10.7,0,0,1-1.451-.122,16.229,16.229,0,0,1-5.44-1.664,17.96,17.96,0,0,1-4.47-3.2,18.357,18.357,0,0,1-3.111-4.259,17.176,17.176,0,0,1-1.638-4.745q-.094-.606-.186-1.2c-.06-.4-.053-.8-.082-1.2a16.95,16.95,0,0,1,2.834-10.321,17.578,17.578,0,0,1,4.985-4.934A16.571,16.571,0,0,1,371,34.618l1-.267.9-.148.773-.128c.237-.026.454-.032.647-.048l.879-.064a1.716,1.716,0,0,0,.3-.035" transform="translate(-205.817 -19.503)" fill="#455a64"/>
      </g>
    </g>
  </g>
</svg>
