<svg xmlns="http://www.w3.org/2000/svg" width="62" height="62" viewBox="0 0 62 62">
  <g id="Grupo_1082870" data-name="Grupo 1082870" transform="translate(-768.999 -14993.111)">
    <g id="Grupo_1015240" data-name="Grupo 1015240" transform="translate(-0.002 2087.11)">
      <g id="Grupo_1014857" data-name="Grupo 1014857" transform="translate(384.001 10848)">
        <path id="Uni칩n_12" data-name="Uni칩n 12" d="M31,0A31,31,0,1,1,0,31,31,31,0,0,1,31,0Z" transform="translate(384.999 2058)" fill="#cadeb4"/>
      </g>
    </g>
    <g id="Grupo_1082682" data-name="Grupo 1082682" transform="translate(-1226.639 14230.828)">
      <rect id="Rect치ngulo_384418" data-name="Rect치ngulo 384418" width="39.335" height="10.533" rx="2" transform="translate(2007.26 797.812)" fill="#fff"/>
      <g id="Grupo_1082681" data-name="Grupo 1082681" transform="translate(2005.752 768.582)">
        <path id="Trazado_832637" data-name="Trazado 832637" d="M2009.5,813.122a2.357,2.357,0,0,1-1.655-2.705c.016-.173-.013-.35.006-.521.029-.259-.079-.364-.32-.466a2.7,2.7,0,0,1-1.769-2.64q-.016-2.718,0-5.436a4.167,4.167,0,0,1,4.249-4.235c2-.01,4,0,6,0,.554,0,.871.251.879.683s-.319.707-.9.708q-2.936,0-5.872,0a2.788,2.788,0,0,0-2.969,2.965q0,2.609,0,5.219a1.407,1.407,0,0,0,1.563,1.558c.594,0,1.189,0,1.783-.006a.707.707,0,0,0,.134-.041c0-.659-.01-1.335,0-2.01a.691.691,0,1,1,1.382-.06c.014.144.006.29.006.435,0,.547,0,1.094,0,1.661h1.392c0-.66-.007-1.32,0-1.981a.7.7,0,1,1,1.387,0c.008.649,0,1.3,0,1.974h1.392v-1.4c0-.174,0-.348,0-.522.008-.517.263-.827.684-.834s.7.314.707.856c0,.622,0,1.243,0,1.925h26.886a1.436,1.436,0,0,0,1.651-1.646c0-1.725,0-3.45,0-5.175a2.78,2.78,0,0,0-2.926-2.92q-7.7,0-15.4,0c-.116,0-.232,0-.348,0-.508-.011-.819-.283-.812-.706s.315-.683.834-.684q4.2,0,8.4,0h.512c0-.194.006-.349,0-.5a64.152,64.152,0,0,1,.557-8.624c.063-.706.134-1.415.135-2.123.011-5.03,0-10.061.006-15.091a2.087,2.087,0,1,1,4.172-.067c.01,1.885,0,3.769,0,5.654,0,3.03-.053,6.061.019,9.089.046,1.908.229,3.817.44,5.715a44.6,44.6,0,0,1,.237,5.511c0,.128,0,.256,0,.44.428,0,.828,0,1.229,0a4.176,4.176,0,0,1,4.339,4.323q.008,2.653,0,5.306a2.741,2.741,0,0,1-1.81,2.7c-.214.086-.292.182-.282.4.016.347.006.7,0,1.044a2.116,2.116,0,0,1-1.514,2.141.8.8,0,0,0-.138.086h-.87a3.263,3.263,0,0,1-1.635-1.287c-.494-.662-1.017-1.3-1.551-1.932a.745.745,0,0,0-.494-.25q-12.59-.018-25.18,0a.742.742,0,0,0-.493.251c-.534.63-1.057,1.27-1.552,1.931a3.288,3.288,0,0,1-1.636,1.287Zm30.335-27.16V774.171H2038.5v11.791Zm.652,6.963c-.187-1.867-.37-3.692-.554-5.518H2038.4l-.547,5.518Zm-2.693,4.17h2.742v-2.734h-2.742Zm-28.552,12.566a8.957,8.957,0,0,0,.02,1.382.918.918,0,0,0,.45.605.762.762,0,0,0,.7-.12c.535-.572,1.008-1.2,1.55-1.867Zm32.078-.008c.532.661.987,1.273,1.5,1.831a.816.816,0,0,0,.69.19.8.8,0,0,0,.492-.521,10.448,10.448,0,0,0,.023-1.5Zm-1.458-36.913c0-.726.012-1.4,0-2.081a.675.675,0,0,0-.654-.678.621.621,0,0,0-.7.565c-.046.727-.014,1.458-.014,2.194Z" transform="translate(-2005.752 -768.582)" fill="#707070"/>
        <path id="Trazado_832638" data-name="Trazado 832638" d="M2037.6,828.432a22.064,22.064,0,0,1,13.048,4.111,2.043,2.043,0,0,1,.961,2.047,1.98,1.98,0,0,1-1.422,1.7,2.105,2.105,0,0,1-1.97-.351,17.23,17.23,0,0,0-5.622-2.658,17.975,17.975,0,0,0-15.144,2.5,2.637,2.637,0,0,1-1.761.612,2.084,2.084,0,0,1-1.013-3.778,21.942,21.942,0,0,1,6.218-3.129A23.131,23.131,0,0,1,2037.6,828.432Zm.727,1.4a21.37,21.37,0,0,0-10,2.215c-.964.492-1.871,1.1-2.788,1.678a.667.667,0,0,0-.233.978.7.7,0,0,0,1,.174c.087-.051.168-.113.252-.17a19.609,19.609,0,0,1,22.366.024c.141.1.3.236.452.234a.989.989,0,0,0,.657-.192.812.812,0,0,0,.151-.66,1.063,1.063,0,0,0-.445-.5A20.337,20.337,0,0,0,2038.327,829.828Z" transform="translate(-2021.697 -821.477)" fill="#707070"/>
        <path id="Trazado_832639" data-name="Trazado 832639" d="M2074.948,887.227a2.015,2.015,0,0,1-1.124,1.828,1.979,1.979,0,0,1-2.213-.16,11.928,11.928,0,0,0-13.874-.146,2.3,2.3,0,0,1-2,.472,1.981,1.981,0,0,1-1.506-1.58,1.931,1.931,0,0,1,.763-2.082,16.171,16.171,0,0,1,19.01-.1A2.1,2.1,0,0,1,2074.948,887.227Zm-10.045-3.421a15.558,15.558,0,0,0-4.266.527,14.411,14.411,0,0,0-4.706,2.263.7.7,0,1,0,.79,1.154c.111-.067.215-.147.323-.22a13.315,13.315,0,0,1,15.206.114,1.429,1.429,0,0,0,.369.224.671.671,0,0,0,.849-.336.7.7,0,0,0-.3-.967A14.4,14.4,0,0,0,2064.9,883.806Z" transform="translate(-2048.552 -869.193)" fill="#707070"/>
        <path id="Trazado_832640" data-name="Trazado 832640" d="M2098.361,940.034a2.045,2.045,0,0,1-1.13,1.815,1.954,1.954,0,0,1-2.21-.168,5.644,5.644,0,0,0-6.938-.047,2.049,2.049,0,0,1-2.773-.14,2.075,2.075,0,0,1,.248-3.192,9.446,9.446,0,0,1,4.468-1.9,9.711,9.711,0,0,1,7.422,1.875A2.154,2.154,0,0,1,2098.361,940.034Zm-1.4-.165a2.144,2.144,0,0,0-.384-.5,8.45,8.45,0,0,0-10.109-.006.726.726,0,0,0-.255,1.047.709.709,0,0,0,1.068.1c.071-.049.139-.1.211-.152a6.882,6.882,0,0,1,7.542-.33c.3.164.57.4.868.574A.718.718,0,0,0,2096.958,939.869Z" transform="translate(-2075.505 -916.8)" fill="#707070"/>
        <path id="Trazado_832641" data-name="Trazado 832641" d="M2113.636,993.674a3.479,3.479,0,1,1,3.484,3.485A3.487,3.487,0,0,1,2113.636,993.674Zm3.491,2.093a2.086,2.086,0,1,0-2.1-2.1A2.1,2.1,0,0,0,2117.127,995.767Z" transform="translate(-2101.101 -964.451)" fill="#707070"/>
        <path id="Trazado_832642" data-name="Trazado 832642" d="M2304.2,1040.567a2.435,2.435,0,1,1-2.417-2.452A2.442,2.442,0,0,1,2304.2,1040.567Zm-2.446-1.058a1.041,1.041,0,1,0,1.052,1.04A1.052,1.052,0,0,0,2301.759,1039.508Z" transform="translate(-2265.223 -1006.796)" fill="#707070"/>
        <path id="Trazado_832643" data-name="Trazado 832643" d="M2241.531,1039.151a1.041,1.041,0,1,1-1.069-1.023A1.051,1.051,0,0,1,2241.531,1039.151Z" transform="translate(-2212.295 -1006.808)" fill="#707070"/>
        <path id="Trazado_832644" data-name="Trazado 832644" d="M2270.454,1040.208a1.041,1.041,0,1,1,1.027-1.065A1.052,1.052,0,0,1,2270.454,1040.208Z" transform="translate(-2238.765 -1006.806)" fill="#707070"/>
        <path id="Trazado_832645" data-name="Trazado 832645" d="M2288.886,828.473h-1.338V816.682h1.338Z" transform="translate(-2254.805 -811.093)" fill="#fff"/>
        <path id="Trazado_832646" data-name="Trazado 832646" d="M2284.645,936.114h-2.634c.183-1.841.363-3.663.547-5.518h1.532C2284.274,932.422,2284.457,934.246,2284.645,936.114Z" transform="translate(-2249.911 -911.771)" fill="#fff"/>
        <path id="Trazado_832647" data-name="Trazado 832647" d="M2281.5,993.171v-2.734h2.742v2.734Z" transform="translate(-2249.46 -964.659)" fill="#fff"/>
        <path id="Trazado_832648" data-name="Trazado 832648" d="M2035.649,1122.112h2.717c-.542.664-1.015,1.295-1.55,1.867a.761.761,0,0,1-.7.121.917.917,0,0,1-.45-.605A8.941,8.941,0,0,1,2035.649,1122.112Z" transform="translate(-2032.16 -1081.034)" fill="#fff"/>
        <path id="Trazado_832649" data-name="Trazado 832649" d="M2311.85,1122.045h2.7a10.45,10.45,0,0,1-.023,1.5.8.8,0,0,1-.492.521.816.816,0,0,1-.689-.19C2312.837,1123.318,2312.383,1122.706,2311.85,1122.045Z" transform="translate(-2276.283 -1080.974)" fill="#fff"/>
        <path id="Trazado_832650" data-name="Trazado 832650" d="M2288.749,783.377h-1.377c0-.735-.032-1.467.014-2.194a.621.621,0,0,1,.7-.565.675.675,0,0,1,.654.678C2288.761,781.973,2288.749,782.651,2288.749,783.377Z" transform="translate(-2254.64 -779.219)" fill="#fff"/>
        <path id="Trazado_832651" data-name="Trazado 832651" d="M2048.854,840.456a20.335,20.335,0,0,1,11.405,3.783,1.063,1.063,0,0,1,.445.5.812.812,0,0,1-.151.661.99.99,0,0,1-.657.192c-.151,0-.311-.137-.452-.234a19.609,19.609,0,0,0-22.366-.024c-.083.057-.165.119-.252.17a.705.705,0,0,1-1-.174.667.667,0,0,1,.233-.979c.916-.58,1.824-1.185,2.788-1.678A21.372,21.372,0,0,1,2048.854,840.456Z" transform="translate(-2032.223 -832.105)" fill="#fff"/>
        <path id="Trazado_832652" data-name="Trazado 832652" d="M2075.52,894.347a14.4,14.4,0,0,1,8.259,2.759.7.7,0,0,1,.305.967.671.671,0,0,1-.849.336,1.438,1.438,0,0,1-.369-.224,13.314,13.314,0,0,0-15.206-.114c-.107.073-.212.153-.323.22a.7.7,0,1,1-.79-1.154,14.408,14.408,0,0,1,4.706-2.263A15.555,15.555,0,0,1,2075.52,894.347Z" transform="translate(-2059.17 -879.734)" fill="#fff"/>
        <path id="Trazado_832653" data-name="Trazado 832653" d="M2107.617,950.506a.718.718,0,0,1-1.06.727c-.3-.176-.564-.409-.868-.573a6.882,6.882,0,0,0-7.542.33c-.072.048-.14.1-.211.152a.709.709,0,0,1-1.068-.1.726.726,0,0,1,.255-1.047,8.45,8.45,0,0,1,10.11.006A2.154,2.154,0,0,1,2107.617,950.506Z" transform="translate(-2086.164 -927.437)" fill="#fff"/>
        <path id="Trazado_832654" data-name="Trazado 832654" d="M2127.716,1006.354a2.086,2.086,0,1,1,2.074-2.077A2.1,2.1,0,0,1,2127.716,1006.354Z" transform="translate(-2111.689 -975.038)" fill="#fff"/>
        <path id="Trazado_832655" data-name="Trazado 832655" d="M2312.36,1050.11a1.041,1.041,0,1,1-1.029,1.063A1.052,1.052,0,0,1,2312.36,1050.11Z" transform="translate(-2275.824 -1017.397)" fill="#fff"/>
      </g>
    </g>
  </g>
</svg>
