<svg xmlns="http://www.w3.org/2000/svg" width="62" height="62" viewBox="0 0 62 62">
  <g id="Grupo_1082869" data-name="Grupo 1082869" transform="translate(-520.999 -14993.111)">
    <g id="Grupo_1015239" data-name="Grupo 1015239" transform="translate(-0.002 2087.11)">
      <g id="Grupo_1014855" data-name="Grupo 1014855" transform="translate(136.001 10848)">
        <path id="Unión_12" data-name="Unión 12" d="M31,0A31,31,0,1,1,0,31,31,31,0,0,1,31,0Z" transform="translate(384.999 2058)" fill="#cadeb4"/>
      </g>
    </g>
    <g id="Grupo_1082675" data-name="Grupo 1082675" transform="translate(-341.127 14588.52)">
      <rect id="Rectángulo_384416" data-name="Rectángulo 384416" width="38.238" height="25.441" transform="translate(874.614 422.506)" fill="#fff"/>
      <rect id="Rectángulo_384417" data-name="Rectángulo 384417" width="31.585" height="2.155" transform="translate(877.597 448.615)" fill="#fff"/>
      <g id="Grupo_1082674" data-name="Grupo 1082674" transform="translate(874.18 412.694)">
        <path id="Trazado_832626" data-name="Trazado 832626" d="M876.774,555.878a6.617,6.617,0,0,1-.943-.007,1.938,1.938,0,0,1-1.648-1.957q-.006-10.286,0-20.573c0-.488.235-.768.632-.776.414-.008.663.278.663.788q0,7.31,0,14.619,0,2.855,0,5.71c0,.729.185.919.9.919h34.509c.642,0,.763-.1.9-.728a.648.648,0,0,1,1.287.142,1.968,1.968,0,0,1-1.83,1.878c-.162.009-.324,0-.486,0H878.093v1.3h30.754c.7,0,.994.2.983.666s-.284.63-.977.63H877.746c-.8,0-.972-.171-.972-.971C876.773,557,876.774,556.472,876.774,555.878Z" transform="translate(-874.18 -519.595)" fill="#707070"/>
        <path id="Trazado_832627" data-name="Trazado 832627" d="M911.762,520.615h12.68c.746,0,.933.186.933.929q0,10.086,0,20.171c0,.744-.19.934-.931.934h-25.36c-.744,0-.932-.188-.932-.931q0-10.086,0-20.171c0-.746.185-.931.93-.931Zm-12.3,20.709h24.58V521.934h-24.58Z" transform="translate(-895.558 -508.938)" fill="#707070"/>
        <path id="Trazado_832628" data-name="Trazado 832628" d="M890.417,421.78a8.677,8.677,0,0,0,.4-.958.524.524,0,0,0-.136-.422c-1.126-1.146-2.266-2.278-3.4-3.414q-1.5-1.5-3.007-3.008a1.668,1.668,0,0,1-.265-.3.6.6,0,0,1,.1-.778.577.577,0,0,1,.74-.115,1.76,1.76,0,0,1,.372.306q3.182,3.176,6.357,6.36a.429.429,0,0,0,.611.107,3,3,0,0,1,2.911,0,.43.43,0,0,0,.611-.1q3.155-3.174,6.327-6.333a2.341,2.341,0,0,1,.294-.277.642.642,0,0,1,.9.9,2.455,2.455,0,0,1-.276.3q-3.164,3.166-6.333,6.326c-.2.2-.284.34-.106.611a4.536,4.536,0,0,1,.335.81h14.075a1.968,1.968,0,0,1,2.158,2.162q0,10.126,0,20.251a2.333,2.333,0,0,1-.008.324.648.648,0,0,1-.669.577.629.629,0,0,1-.612-.593,3.286,3.286,0,0,1-.007-.4q0-10.024,0-20.048c0-.809-.163-.972-.966-.972H876.428c-.709,0-.793.067-.95.755a.647.647,0,0,1-1.284-.131,1.949,1.949,0,0,1,1.912-1.917c1.256-.014,2.511,0,3.767,0h10.544Zm5,0a1.85,1.85,0,0,0-1.913-1.293,1.772,1.772,0,0,0-1.623,1.278c.067,0,.131.014.2.014Z" transform="translate(-874.192 -412.694)" fill="#707070"/>
        <path id="Trazado_832629" data-name="Trazado 832629" d="M1164.329,532.6a2.591,2.591,0,1,1-2.584,2.579A2.6,2.6,0,0,1,1164.329,532.6Zm1.3,2.59a1.3,1.3,0,1,0-1.314,1.3A1.293,1.293,0,0,0,1165.631,535.189Z" transform="translate(-1130.629 -519.625)" fill="#707070"/>
        <path id="Trazado_832630" data-name="Trazado 832630" d="M1166.928,607.078a2.591,2.591,0,1,1-2.568-2.591A2.606,2.606,0,0,1,1166.928,607.078Zm-1.3.019a1.3,1.3,0,1,0-1.3,1.272A1.286,1.286,0,0,0,1165.631,607.1Z" transform="translate(-1130.629 -583.734)" fill="#707070"/>
        <path id="Trazado_832631" data-name="Trazado 832631" d="M910.294,552.19V532.8h24.58V552.19Zm2.575-5.8c0-1.024,0-2.048,0-3.071,0-.538-.245-.832-.669-.82-.407.012-.626.294-.626.82q0,3.071,0,6.143c0,.526.22.808.627.82.424.013.667-.281.668-.82C912.871,548.434,912.87,547.41,912.87,546.386Zm0-6.49c0-.215.01-.431,0-.645a.635.635,0,0,0-.635-.645.624.624,0,0,0-.65.627c-.018.443-.017.887,0,1.33a.624.624,0,0,0,.633.644.634.634,0,0,0,.655-.666C912.877,540.327,912.868,540.112,912.868,539.9Z" transform="translate(-906.386 -519.803)" fill="#fff"/>
        <path id="Trazado_832632" data-name="Trazado 832632" d="M1041.2,485.975h-3.34c-.065,0-.129-.009-.2-.014a1.772,1.772,0,0,1,1.623-1.278A1.85,1.85,0,0,1,1041.2,485.975Z" transform="translate(-1019.976 -476.89)" fill="#fff"/>
        <path id="Trazado_832633" data-name="Trazado 832633" d="M1176.316,545.871a1.295,1.295,0,1,1-1.275-1.294A1.294,1.294,0,0,1,1176.316,545.871Z" transform="translate(-1141.314 -530.307)" fill="#fff"/>
        <path id="Trazado_832634" data-name="Trazado 832634" d="M1176.314,617.778a1.3,1.3,0,1,1-1.252-1.313A1.3,1.3,0,0,1,1176.314,617.778Z" transform="translate(-1141.312 -594.415)" fill="#fff"/>
        <path id="Trazado_832635" data-name="Trazado 832635" d="M923.408,626.294c0,1.024,0,2.047,0,3.071,0,.539-.244.833-.668.82-.407-.012-.627-.294-.627-.82q0-3.071,0-6.143c0-.526.22-.809.626-.82.424-.012.667.282.669.82C923.409,624.247,923.408,625.271,923.408,626.294Z" transform="translate(-916.924 -599.711)" fill="#707070"/>
        <path id="Trazado_832636" data-name="Trazado 832636" d="M923.357,587.759c0,.215.009.43,0,.645a.635.635,0,0,1-.655.666.624.624,0,0,1-.633-.644c-.015-.443-.017-.887,0-1.33a.624.624,0,0,1,.651-.627.635.635,0,0,1,.635.645C923.367,587.329,923.357,587.544,923.357,587.759Z" transform="translate(-916.875 -567.666)" fill="#707070"/>
      </g>
    </g>
  </g>
</svg>
