<svg xmlns="http://www.w3.org/2000/svg" width="62" height="62" viewBox="0 0 62 62">
  <g id="Grupo_1082872" data-name="Grupo 1082872" transform="translate(-1264.999 -14993.111)">
    <g id="Grupo_1015241" data-name="Grupo 1015241" transform="translate(-0.002 2087.11)">
      <g id="Grupo_1014859" data-name="Grupo 1014859" transform="translate(880.001 10848)">
        <path id="Unión_12" data-name="Unión 12" d="M31,0A31,31,0,1,1,0,31,31,31,0,0,1,31,0Z" transform="translate(384.999 2058)" fill="#cadeb4"/>
      </g>
    </g>
    <g id="Grupo_1082693" data-name="Grupo 1082693" transform="translate(-799.151 14730.807)">
      <path id="Trazado_832663" data-name="Trazado 832663" d="M2119.188,282.6h26.479v15.2l-12.655,13.579L2117.945,297.7Z" transform="translate(-36.382 -6.788)" fill="#fff"/>
      <g id="Grupo_1082692" data-name="Grupo 1082692" transform="translate(2077.745 275.103)">
        <path id="Trazado_832664" data-name="Trazado 832664" d="M2077.745,287.262c.16-.187.309-.386.481-.56,1.043-1.051,2.1-2.091,3.133-3.15a.822.822,0,0,0,.216-.516c.014-2.322.009-4.644.009-6.965,0-.748.22-.964.98-.964h9.88a2.912,2.912,0,0,1,.355.008.706.706,0,0,1,.007,1.4,4.549,4.549,0,0,1-.533.009h-9.267v.377q0,6.93.008,13.86a.764.764,0,0,0,.184.494q6.283,6.307,12.583,12.6c.033.033.069.064.129.119.092-.086.186-.168.273-.255q6.2-6.194,12.393-12.385a.949.949,0,0,0,.314-.737q-.016-6.806-.007-13.611v-.457h-.444q-4.585,0-9.169,0c-.521,0-.822-.238-.848-.659a.7.7,0,0,1,.6-.753,2.185,2.185,0,0,1,.32-.009h10.022c.7,0,.938.233.938.935,0,2.31,0,4.62,0,6.93a.783.783,0,0,0,.25.621c1.081,1.063,2.144,2.145,3.224,3.209a1.186,1.186,0,0,1,.376.913q-.012,9.969-.006,19.937a3.562,3.562,0,0,1-3,3.81c-.02,0-.035.029-.053.043H2080.8c-.008-.009-.015-.023-.025-.025a3.619,3.619,0,0,1-3.007-3.007c0-.009-.016-.017-.025-.025Zm12.41,12.977-9.721,9.722a10.533,10.533,0,0,0,1.113.117q14.4.01,28.791,0a2.454,2.454,0,0,0,.426-.01c.233-.041.462-.109.66-.157l-9.7-9.7c-.052.05-.139.128-.222.211q-2.464,2.463-4.927,4.925c-.483.482-.826.483-1.3.007q-.97-.966-1.936-1.935ZM2102.9,299.1l9.691,9.691a7,7,0,0,0,.127-.951q.012-9.132.005-18.265c0-.1-.014-.2-.02-.278Zm-13.944.068-9.779-9.781c0,.022-.009.076-.009.13q0,9.221.007,18.443a5.028,5.028,0,0,0,.141.844Zm-9.421-11.661,2.029,2.026v-4.058Zm30.8-2.025v3.986l1.991-1.993Z" transform="translate(-2077.745 -275.103)" fill="#707070"/>
        <path id="Trazado_832665" data-name="Trazado 832665" d="M2197.959,334.49a3.14,3.14,0,0,1-2.038.991,3.212,3.212,0,0,1-2.791-1.28,4.926,4.926,0,0,1-.506-5.19,3.452,3.452,0,0,1,5.125-1.313c.01-.064.02-.114.027-.165a.726.726,0,0,1,.73-.717.715.715,0,0,1,.689.787c0,1.706,0,3.412,0,5.118,0,.237-.009.474,0,.711a.945.945,0,0,0,1.286.939,2.016,2.016,0,0,0,1.348-1.3,5.747,5.747,0,0,0-3.535-7.726,6.046,6.046,0,0,0-6.5,1.325,5.932,5.932,0,0,0-1.713,6.428,6.1,6.1,0,0,0,5.008,4.394c.254.05.517.059.775.088.491.054.787.355.755.767s-.358.666-.857.648a7.742,7.742,0,1,1,7.865-9.464,6.725,6.725,0,0,1-.751,4.6,3.1,3.1,0,0,1-2.654,1.712,2.176,2.176,0,0,1-2.08-1.107c-.045-.069-.084-.142-.128-.212C2198.018,334.514,2198,334.512,2197.959,334.49Zm-.179-3.553a7.8,7.8,0,0,0-.253-1.119,1.846,1.846,0,0,0-1.542-1.352,1.977,1.977,0,0,0-1.9.893,3.414,3.414,0,0,0,.28,4.11,1.692,1.692,0,0,0,2.683-.116A3.762,3.762,0,0,0,2197.781,330.937Z" transform="translate(-2177.867 -318.92)" fill="#707070"/>
        <path id="Trazado_832666" data-name="Trazado 832666" d="M2261.76,275.855a.7.7,0,0,1,.685-.714.709.709,0,1,1,.012,1.417A.7.7,0,0,1,2261.76,275.855Z" transform="translate(-2244.283 -275.137)" fill="#707070"/>
        <path id="Trazado_832667" data-name="Trazado 832667" d="M2115.777,539.483l3.176,3.18q.967.968,1.936,1.935c.477.476.82.475,1.3-.007q2.465-2.461,4.927-4.925c.083-.083.169-.161.222-.211l9.7,9.7c-.2.048-.426.115-.659.157a2.455,2.455,0,0,1-.426.01q-14.4,0-28.791,0a10.533,10.533,0,0,1-1.113-.117Z" transform="translate(-2103.367 -514.349)" fill="#fff"/>
        <path id="Trazado_832668" data-name="Trazado 832668" d="M2342.592,434.331l9.8-9.8c.006.08.02.179.02.278q0,9.132,0,18.265a7.039,7.039,0,0,1-.127.951Z" transform="translate(-2317.439 -410.337)" fill="#fff"/>
        <path id="Trazado_832669" data-name="Trazado 832669" d="M2102.506,435.253l-9.64,9.637a5.079,5.079,0,0,1-.141-.845q-.013-9.222-.007-18.443c0-.054.007-.109.009-.13Z" transform="translate(-2091.296 -411.191)" fill="#fff"/>
        <path id="Trazado_832670" data-name="Trazado 832670" d="M2096.578,386.315l2.029-2.032v4.058Z" transform="translate(-2094.789 -373.914)" fill="#fff"/>
        <path id="Trazado_832671" data-name="Trazado 832671" d="M2420.916,384.357l1.991,1.993-1.991,1.993Z" transform="translate(-2388.324 -373.981)" fill="#fff"/>
        <path id="Trazado_832672" data-name="Trazado 832672" d="M2246.939,377.929a3.762,3.762,0,0,1-.728,2.415,1.692,1.692,0,0,1-2.683.116,3.415,3.415,0,0,1-.28-4.11,1.977,1.977,0,0,1,1.9-.893,1.846,1.846,0,0,1,1.542,1.352A7.81,7.81,0,0,1,2246.939,377.929Z" transform="translate(-2227.025 -365.912)" fill="#fff"/>
      </g>
    </g>
  </g>
</svg>
