<svg xmlns="http://www.w3.org/2000/svg" width="62" height="62" viewBox="0 0 62 62">
  <g id="Grupo_1082871" data-name="Grupo 1082871" transform="translate(-1016.999 -14993.111)">
    <g id="Grupo_1015242" data-name="Grupo 1015242" transform="translate(-0.002 2087.11)">
      <g id="Grupo_1014858" data-name="Grupo 1014858" transform="translate(632.001 10848)">
        <path id="Unión_12" data-name="Unión 12" d="M31,0A31,31,0,1,1,0,31,31,31,0,0,1,31,0Z" transform="translate(384.999 2058)" fill="#cadeb4"/>
      </g>
    </g>
    <g id="Grupo_1082687" data-name="Grupo 1082687" transform="translate(-398.617 13855.58)">
      <path id="Trazado_832656" data-name="Trazado 832656" d="M1468.745,1184.059a1.862,1.862,0,0,1-1.966,1.1q-19.75-.024-39.5-.011c-.941,0-1.573-.339-1.678-1.082a4.362,4.362,0,0,1,.237-2.792c1.006-1.9,1.961-3.825,2.917-5.75a2.049,2.049,0,0,0,.213-.876q.017-10.593.009-21.185c0-1.128.429-1.56,1.55-1.56h33.213c1.116,0,1.546.436,1.546,1.564q0,10.529.011,21.058a2.526,2.526,0,0,0,.253,1.076c.984,1.99,2,3.964,3,5.942.056.111.127.214.191.321Zm-38.475-30.879v21.411h33.715V1153.18Zm22.891,28.231h13.9c-.884-1.744-1.754-3.443-2.6-5.152a.577.577,0,0,0-.6-.379q-16.733.013-33.466,0a.549.549,0,0,0-.575.357c-.8,1.61-1.62,3.211-2.432,4.815-.058.115-.11.233-.171.362H1441.1c.215-.783.42-1.542.632-2.3a1.251,1.251,0,0,1,1.4-1.072q3.988-.007,7.976,0a1.261,1.261,0,0,1,1.425,1.091C1452.743,1179.891,1452.951,1180.648,1453.161,1181.411Zm-26.362,1.311c-.006.124-.014.207-.014.29,0,.938-.1.868.853.868h39.115a1.249,1.249,0,0,0,.418-.012c.118-.045.277-.164.292-.268a6.339,6.339,0,0,0,.014-.877Zm25.045-1.295c-.177-.656-.339-1.292-.531-1.918a.39.39,0,0,0-.3-.192q-3.877-.016-7.755,0a.389.389,0,0,0-.3.193c-.192.626-.354,1.262-.531,1.918Z" fill="#707070"/>
      <path id="Trazado_832657" data-name="Trazado 832657" d="M1470.732,1163.991h33.715V1185.4h-33.715Zm31.133,2.624c0,2.057,0,4.068,0,6.079,0,.181-.03.415.066.53.153.183.409.405.607.392s.406-.273.561-.465c.071-.089.03-.272.03-.412q0-3.06,0-6.12c0-.913-.367-1.287-1.271-1.287q-14.267,0-28.533,0c-.9,0-1.269.375-1.269,1.289q0,3.06,0,6.12c0,.14-.041.324.031.412.155.191.362.451.562.463s.446-.214.607-.394c.091-.1.064-.322.064-.488q.006-2.828,0-5.656v-.463Zm-28.541,16.184v-.508q0-2.785,0-5.57a1.783,1.783,0,0,0-.034-.46.582.582,0,0,0-.654-.474.59.59,0,0,0-.564.533,1.826,1.826,0,0,0-.013.336q0,3.08,0,6.161c0,.921.346,1.264,1.281,1.264q14.262,0,28.524,0c.923,0,1.269-.35,1.27-1.276q0-3.059,0-6.118c0-.14.041-.324-.03-.412-.154-.19-.361-.446-.561-.459s-.447.208-.608.386c-.091.1-.064.321-.064.488q-.006,2.827,0,5.654v.453Z" transform="translate(-40.462 -10.811)" fill="#fff"/>
      <path id="Trazado_832658" data-name="Trazado 832658" d="M1467.75,1384.211c-.21-.763-.418-1.52-.628-2.276a1.262,1.262,0,0,0-1.425-1.091q-3.988-.005-7.976,0a1.252,1.252,0,0,0-1.4,1.072c-.211.757-.417,1.516-.632,2.3H1441.8c.061-.129.113-.247.171-.362.813-1.6,1.632-3.2,2.432-4.815a.549.549,0,0,1,.575-.357q16.733.012,33.466,0a.577.577,0,0,1,.6.378c.85,1.709,1.719,3.407,2.6,5.152Z" transform="translate(-14.588 -202.8)" fill="#fff"/>
      <path id="Trazado_832659" data-name="Trazado 832659" d="M1437.779,1443.382h40.677a6.339,6.339,0,0,1-.014.877c-.015.1-.173.223-.292.268a1.248,1.248,0,0,1-.418.012h-39.115c-.957,0-.849.07-.853-.868C1437.765,1443.589,1437.773,1443.506,1437.779,1443.382Z" transform="translate(-10.98 -260.659)" fill="#fff"/>
      <path id="Trazado_832660" data-name="Trazado 832660" d="M1595.056,1413.224h-9.426c.178-.656.34-1.291.531-1.918a.39.39,0,0,1,.3-.193q3.878-.016,7.755,0a.391.391,0,0,1,.3.192C1594.716,1411.932,1594.878,1412.568,1595.056,1413.224Z" transform="translate(-143.211 -231.796)" fill="#fff"/>
      <path id="Trazado_832661" data-name="Trazado 832661" d="M1512.977,1177.937h-28.542v.463q0,2.828,0,5.656c0,.167.027.387-.064.488-.161.18-.409.406-.607.394s-.407-.272-.562-.464c-.071-.088-.03-.272-.031-.412q0-3.06,0-6.12c0-.915.366-1.289,1.269-1.289q14.266,0,28.533,0c.9,0,1.271.374,1.271,1.287q0,3.06,0,6.12c0,.14.041.323-.03.412-.154.192-.361.452-.56.465s-.453-.209-.607-.392c-.1-.115-.066-.349-.066-.53C1512.976,1182.005,1512.977,1179.994,1512.977,1177.937Z" transform="translate(-51.574 -22.133)" fill="#707070"/>
      <path id="Trazado_832662" data-name="Trazado 832662" d="M1484.519,1282.545h28.542v-.453q0-2.827,0-5.654c0-.167-.026-.387.064-.488.161-.178.41-.4.608-.386s.406.269.561.459c.071.088.03.271.03.412q0,3.059,0,6.118c0,.926-.346,1.276-1.27,1.276q-14.262,0-28.524,0c-.934,0-1.28-.343-1.281-1.264q0-3.08,0-6.16a1.826,1.826,0,0,1,.013-.337.59.59,0,0,1,.565-.533.582.582,0,0,1,.653.474,1.79,1.79,0,0,1,.034.46q0,2.785,0,5.57Z" transform="translate(-51.658 -110.557)" fill="#707070"/>
    </g>
  </g>
</svg>
